<svg xmlns="http://www.w3.org/2000/svg" width="148.022" height="284.521" viewBox="0 0 148.022 284.521"><path d="M55.894,0h-7.8L14.9,136.348C12.058,148,8.937,150.479,0,150.479v4.583H32.061v-4.583c-13.477,0-13.619-3.055-10.923-14.131l6.951-29.6H66.108l6.809,29.408c2.554,11.267,2.412,14.322-11.349,14.322v4.583l41.908,129.458v-4.583c-9.221,0-11.124-131.941-14.1-143.59ZM46.957,27.5h.567l16.74,71.8H29.933Zm69.855,237.353c0,11.649-1.844,15.086-15.038,15.086v4.583h46.247v-4.583c-13.335,0-15.179-3.437-15.179-15.086V151.419c0-11.649,1.844-15.086,15.179-15.086V131.75H101.775v4.583c13.193,0,15.038,3.437,15.038,15.086Z" transform="translate(0 0)" fill="#95ff03" opacity="0.918"/></svg>