<svg xmlns="http://www.w3.org/2000/svg" width="295.411" height="619.936" viewBox="0 0 295.411 619.936"><g transform="translate(-86.589 -1121.064)"><path d="M103.559,183.761c14.15,6.457,17.393,12.913,17.393,18.294a47.556,47.556,0,0,1-1.474,10.044c-3.243,11.479-7.075,24.392-12.971,40.534-14.445,5.022-26.532,9.685-40.388,14.348A36.837,36.837,0,0,1,55.8,269.133c-4.717,0-8.549-5.022-11.5-17.218l-6.191,1.794c-1.474,13.631,1.179,22.6,6.78,31.208,3.538,5.381,7.075,8.25,11.2,8.25a12.416,12.416,0,0,0,7.075-2.511l6.486-3.946c9.728-5.381,19.752-10.761,29.775-15.066-15.624,40.893-31.544,78.2-45.4,110.124a134.667,134.667,0,0,1-10.613,19.37c-5.9,8.609-7.075,12.914-7.075,21.881,0,9.685,4.422,14.348,8.844,14.348,5.012,0,8.844-6.1,12.087-13.631s7.665-19.37,13.561-34.077c15.624-39.817,31.249-79.992,48.937-126.265a68.792,68.792,0,0,1,18.867-2.87c13.561,0,18.867,8.968,18.867,26.9,0,32.642-5.306,74.97-17.393,108.689-6.486,17.935-12.087,22.6-18.867,22.6-5.6,0-12.382-3.228-31.249-11.837l-2.948,7.892c17.1,11.837,19.752,16.5,20.636,22.24,1.179,9.326,2.948,11.837,8.254,11.837,7.075,0,14.74-2.87,21.226-8.968,9.139-8.609,16.214-22.24,20.341-35.153C169,369.931,175.2,322.581,175.2,288.5c0-27.262-10.908-43.4-34.787-43.4a98.525,98.525,0,0,0-14.445,1.435c3.538-8.968,6.191-16.142,8.549-21.881a79.259,79.259,0,0,1,5.6-11.479c2.064-3.587,2.948-6.457,2.948-9.326,0-6.457-4.422-14.348-10.613-19.729a32.444,32.444,0,0,0-20.931-7.892,27.9,27.9,0,0,0-5.306.359Zm102,78.916c21.521,17.935,35.671,40.893,42.157,61.7a57.584,57.584,0,0,1,2.948,16.5c0,5.022-1.474,7.892-8.549,10.761-8.549,3.228-17.393,5.381-25.943,8.25l2.064,8.968c15.624-1.435,22.11-1.435,24.469-1.435,3.538,0,6.486,1.435,9.728,5.381,3.832,4.3,5.9,6.457,8.844,6.457,7.075,0,13.266-10.761,13.266-24.392,0-12.555-3.832-26.9-8.844-38.741-9.728-23.675-28.891-48.426-56.012-59.9Z" transform="translate(107.457 1292.154)" fill="#95ff03"/><path d="M102.323-306.936H86.878L21.169-37.044C15.553-13.986,9.375-9.072-8.316-9.072V0H55.147V-9.072c-26.677,0-26.958-6.048-21.622-27.972l13.76-58.59h75.257L136.02-37.422c5.055,22.3,4.774,28.35-22.465,28.35V0h85.366V-9.072c-18.253,0-24.43-4.914-30.327-27.972ZM84.632-252.5h1.123l33.136,142.128H50.935ZM225.317-38.934c0,23.058-3.651,29.862-29.766,29.862V0H287.1V-9.072c-26.4,0-30.047-6.8-30.047-29.862V-263.466c0-23.058,3.651-29.862,30.047-29.862V-302.4H195.552v9.072c26.115,0,29.766,6.8,29.766,29.862Z" transform="translate(94.905 1428)" fill="#95ff03"/></g></svg>