<svg xmlns="http://www.w3.org/2000/svg" width="275.576" height="22.248" viewBox="0 0 275.576 22.248" preserveAspectRatio="none"><path d="M22.92-1.008c-5.736-3.12-8.76-7.776-9.792-14.808,0-.288,0-.576.024-.864a3.92,3.92,0,0,1,.192-1.584,1.033,1.033,0,0,0,.24-.6c0-.192-.144-.336-.456-.384-.864-.12-2.016-.24-2.952-.288.12,1.056.144,2.064.168,3.12C10.392-9.7,7.32-3.7,1.008-.768A6.6,6.6,0,0,1,2.4.84c.216.408.312.576.48.576a1.543,1.543,0,0,0,.552-.24,17.9,17.9,0,0,0,8.688-11.5A19.127,19.127,0,0,0,20.592,1.152c.288.192.432.288.552.288.168,0,.24-.168.432-.576A6.525,6.525,0,0,1,22.92-1.008ZM39.408-5.976a10.016,10.016,0,0,0-1.92-.192c-2.424,0-4.2,1.416-4.2,3.384,0,2.064,1.536,3.36,4.3,3.36,2.832,0,4.2-1.1,4.392-3.12a14.252,14.252,0,0,1,2.592,1.92.332.332,0,0,0,.216.12A.29.29,0,0,0,45-.648,12.965,12.965,0,0,0,46.1-2.5c.12-.264.1-.336-.12-.48A15.707,15.707,0,0,0,42-5.28c-.12-2.064-.168-3.744-.168-6.432a27.045,27.045,0,0,0,3.7-.5c.168-.024.264-.144.264-.36a9.6,9.6,0,0,0-.144-1.7c-.048-.264-.1-.36-.384-.288-1.032.168-2.28.336-3.408.432,0-1.1,0-1.728.048-2.544a2.707,2.707,0,0,1,.192-.84,1.029,1.029,0,0,0,.144-.408c0-.216-.168-.336-.432-.408a13.36,13.36,0,0,0-2.9-.456,9.894,9.894,0,0,1,.312,2.352c0,.888.024,1.656.024,2.52a34.719,34.719,0,0,1-5.472-.072,14.7,14.7,0,0,0,.168,2.184c.024.24.12.312.432.312a48.531,48.531,0,0,0,4.944.024C39.336-9.576,39.36-7.824,39.408-5.976Zm.048,2.28a3.38,3.38,0,0,1,.024.48c0,.864-.768,1.56-1.968,1.56-1.416,0-1.944-.456-1.944-1.2s.672-1.152,1.8-1.152A6.685,6.685,0,0,1,39.456-3.7ZM28.32-18.744a12.078,12.078,0,0,1-.168,2.832,52.132,52.132,0,0,0-.984,9.1A22.356,22.356,0,0,0,28.2.5c.12.336.216.36.48.288a10.051,10.051,0,0,0,1.8-.408c.216-.072.312-.144.288-.312A4.532,4.532,0,0,1,30.792-1.2a14.225,14.225,0,0,1,1.224-3.648.7.7,0,0,0,.144-.384.519.519,0,0,0-.144-.336,6.382,6.382,0,0,1-.84-1.512c-.5,1.2-1.008,2.232-1.488,3.336-.072-1.008-.072-2.112-.072-3.072a47.658,47.658,0,0,1,1.2-8.736,4.871,4.871,0,0,1,.432-1.32,1.225,1.225,0,0,0,.168-.528c0-.192-.1-.336-.36-.48A18.741,18.741,0,0,0,28.32-18.744ZM49.056-2.976c-.12.144-.168.216-.168.288s.072.144.216.24A17.919,17.919,0,0,1,53.64,2.136c.12.192.216.24.336.24.072,0,.168-.072.336-.216L55.776.912c.192-.168.24-.264.24-.384,0-.1-.024-.168-.168-.36a17.869,17.869,0,0,0-4.776-4.392.484.484,0,0,0-.312-.144.513.513,0,0,0-.36.192Zm28.008-15.6H73.632v3.24h1.7L73.8-11.592h1.536l1.728-3.744Zm11.808,0H84.96L79.248.048H82.32l1.608-5.472H89.64L91.224.048h3.384Zm.192,10.752H84.5l1.008-3.792c.408-1.44.744-2.784,1.152-4.56h.216c.408,1.752.7,3.12,1.1,4.584Zm11.592-10.752H97.392V.048h3.264Zm7.3,0H104.52v3.24h1.7l-1.536,3.744h1.536l1.728-3.744Zm9.024-.456a10.739,10.739,0,0,1,.624,2.784,36.423,36.423,0,0,0,1.248,5.856c-2.808,1.776-4.56,3.528-4.56,6.192,0,3.12,2.4,4.608,6.936,4.608a51.287,51.287,0,0,0,7.152-.36c.288-.024.456-.144.432-.408a21.191,21.191,0,0,0-.24-2.232c-.048-.288-.168-.336-.432-.288a41.915,41.915,0,0,1-7.32.552c-2.76,0-3.816-.6-3.816-2.016,0-1.128.744-2.256,2.832-3.624a33.4,33.4,0,0,1,5.64-2.808,11.516,11.516,0,0,1,2.3-.72c.336-.048.48-.24.48-.48a.972.972,0,0,0-.168-.5,12.324,12.324,0,0,0-1.752-2.256,5.937,5.937,0,0,1-1.656,1.3c-1.344.72-2.208,1.176-3.408,1.824a33.745,33.745,0,0,1-.768-4.128c-.048-.552-.12-1.128-.12-1.608,0-.336.168-.672.168-1.008,0-.192-.144-.312-.432-.384A13.89,13.89,0,0,0,116.976-19.032Zm23.616.216a10.739,10.739,0,0,1,.624,2.784,36.422,36.422,0,0,0,1.248,5.856c-2.808,1.776-4.56,3.528-4.56,6.192,0,3.12,2.4,4.608,6.936,4.608a51.287,51.287,0,0,0,7.152-.36c.288-.024.456-.144.432-.408a21.186,21.186,0,0,0-.24-2.232c-.048-.288-.168-.336-.432-.288a42.685,42.685,0,0,1-7.152.552c-3,0-3.984-.624-3.984-2.016,0-1.128.744-2.256,2.832-3.624a33.4,33.4,0,0,1,5.64-2.808,11.517,11.517,0,0,1,2.3-.72c.336-.048.48-.24.48-.48a.972.972,0,0,0-.168-.5,12.324,12.324,0,0,0-1.752-2.256,5.937,5.937,0,0,1-1.656,1.3c-1.344.72-2.208,1.176-3.408,1.824a33.747,33.747,0,0,1-.768-4.128c-.048-.552-.12-1.128-.12-1.608,0-.336.168-.672.168-1.008,0-.192-.144-.312-.432-.384A13.89,13.89,0,0,0,140.592-18.816Zm9.72,1.464a11.908,11.908,0,0,1,2.424,2.784.251.251,0,0,0,.408.072l1.008-.744a.242.242,0,0,0,.072-.384,11.046,11.046,0,0,0-2.28-2.568c-.144-.12-.24-.144-.36-.048Zm2.208-1.584a11.354,11.354,0,0,1,2.4,2.76.246.246,0,0,0,.408.072l.96-.744a.277.277,0,0,0,.072-.432,10.023,10.023,0,0,0-2.28-2.472c-.144-.12-.216-.144-.36-.048Zm14.4-.936a11.316,11.316,0,0,0-.72,2.256c-.072.312.048.432.168.48a31.688,31.688,0,0,0,6.96,1.848c.192.024.264-.1.336-.336a19.4,19.4,0,0,0,.528-2.112.342.342,0,0,0-.312-.432A30.133,30.133,0,0,1,166.92-19.872Zm-4.656,7.92a16.57,16.57,0,0,0,1.224,2.52c.144.216.36.528.672.528a.875.875,0,0,0,.528-.24,11.383,11.383,0,0,1,2.04-1.152,8.036,8.036,0,0,1,3.768-1.032c1.392,0,2.232,1.032,2.232,3.024a7.03,7.03,0,0,1-1.32,4.248,13.049,13.049,0,0,1-5.28,4.008,5.925,5.925,0,0,1,1.992,1.272.779.779,0,0,0,.576.312,1.082,1.082,0,0,0,.408-.12A13.556,13.556,0,0,0,173.736-2.4a9.407,9.407,0,0,0,1.944-5.736c0-3.528-1.848-5.712-5.064-5.712a17.219,17.219,0,0,0-5.5,1.2A12.491,12.491,0,0,1,162.264-11.952ZM200.688.72c2.16,0,2.9.048,3.048.048.24,0,.264-.024.264-.264V-1.512c0-.24-.024-.264-.264-.264-.144,0-.888.048-3.048.048H195V-6.1h3c2.352,0,3.168.048,3.312.048.24,0,.264-.024.264-.264V-8.256c0-.216-.024-.24-.264-.24-.144,0-.96.048-3.312.048h-3v-4.1h4.128c2.352,0,3.144.048,3.288.048.264,0,.288-.024.288-.264v-1.968c0-.24-.024-.264-.288-.264-.144,0-.936.048-3.288.048H195v-1.32a9.522,9.522,0,0,1,.168-2.664,1.18,1.18,0,0,0,.12-.48c0-.12-.144-.24-.384-.264-.792-.1-1.776-.144-2.712-.168a22.7,22.7,0,0,1,.192,3.648v1.248h-3.96L189-16.536a2.364,2.364,0,0,1,.456-.912c.168-.192.24-.312.24-.432,0-.168-.168-.288-.432-.36-.672-.192-1.536-.432-2.328-.576a8.147,8.147,0,0,1-.336,1.584,20.417,20.417,0,0,1-3.864,7.008,5.911,5.911,0,0,1,1.512,1.08c.264.24.408.384.528.384.144,0,.24-.144.456-.432a18.321,18.321,0,0,0,2.112-3.36h5.04v4.1h-2.64c-2.352,0-3.168-.048-3.312-.048-.24,0-.264.024-.264.24v1.944c0,.24.024.264.264.264.144,0,.96-.048,3.312-.048h2.64v4.368H186.36c-2.184,0-2.9-.048-3.048-.048-.24,0-.264.024-.264.264V.5c0,.24.024.264.264.264.144,0,.864-.048,3.048-.048Zm15-16.656a42.317,42.317,0,0,1-5.976.384c.144.768.312,1.656.384,1.92.048.24.192.336.48.336a41.562,41.562,0,0,0,5.832-.576c.312.672.672,1.488.912,1.992a41.852,41.852,0,0,1-6.456.6,12.108,12.108,0,0,0,.432,1.968c.072.24.168.336.432.336A56.7,56.7,0,0,0,218.3-9.7,27.908,27.908,0,0,0,220.3-6.864a11.114,11.114,0,0,0-4.128-.6c-3.744,0-5.952,1.608-5.952,4.176,0,2.952,2.928,4.512,8.448,4.512q.9,0,1.728-.072c.336-.024.432-.12.5-.36a15.6,15.6,0,0,0,.48-2.184c.024-.192-.048-.312-.288-.312-.864.048-1.752.144-2.64.144-3.672,0-5.712-.5-5.712-2.064,0-1.128,1.32-1.824,3.576-1.824a11.685,11.685,0,0,1,4.512.768,6.043,6.043,0,0,1,1.416.768.638.638,0,0,0,.336.144c.144,0,.24-.072.384-.24a6.96,6.96,0,0,0,.984-1.488c.12-.264.12-.36-.12-.576a17.9,17.9,0,0,1-3.144-4.152,29.538,29.538,0,0,0,4.056-1.176c.24-.1.24-.216.192-.432a9.1,9.1,0,0,0-.432-1.584c-.072-.216-.192-.264-.432-.144a28.186,28.186,0,0,1-4.368,1.248c-.312-.672-.624-1.416-.84-2.016,1.632-.36,3.1-.72,4.7-1.224a.367.367,0,0,0,.288-.432c-.1-.48-.264-1.152-.408-1.608-.072-.192-.192-.216-.408-.12a37.43,37.43,0,0,1-4.9,1.272c-.144-.408-.216-.624-.384-1.248a4.259,4.259,0,0,1-.1-.72c0-.144.048-.312.048-.456,0-.24-.192-.432-.528-.432a16.971,16.971,0,0,0-2.9.264,6.087,6.087,0,0,1,.84,1.536C215.352-16.9,215.5-16.488,215.688-15.936Zm24.384,5.808c1.824-1.752,3.432-3.432,5.184-5.136a3.873,3.873,0,0,1,1.056-.768.635.635,0,0,0,.408-.576.833.833,0,0,0-.264-.576,9.081,9.081,0,0,0-1.608-1.536.856.856,0,0,0-.552-.192,1.24,1.24,0,0,0-.456.192,6.368,6.368,0,0,1-1.32.36c-1.872.36-3.984.672-5.448.816a11.567,11.567,0,0,1-2.232-.048A11.492,11.492,0,0,0,235.68-15a.546.546,0,0,0,.528.408,1.761,1.761,0,0,0,.48-.12A7.388,7.388,0,0,1,237.7-15c1.488-.312,3.192-.648,4.632-.912-1.1,1.368-2.232,2.568-3.72,4.1a57.772,57.772,0,0,1-5.688,5.3c-.192.192-.264.36-.12.552a10.805,10.805,0,0,0,1.416,1.56.59.59,0,0,0,.36.216c.12,0,.24-.1.408-.264.72-.72,1.392-1.416,2.088-2.04a9.77,9.77,0,0,1,6.144-2.544A3.5,3.5,0,0,1,246.984-5.4a3.615,3.615,0,0,1-2.448,3.648,4.368,4.368,0,0,0-4.512-3.5,3.185,3.185,0,0,0-3.384,2.928c0,2.232,1.824,3.528,4.848,3.528,5.136,0,8.376-2.568,8.376-6.576,0-3.456-2.448-5.76-5.952-5.76a7.223,7.223,0,0,0-3.816,1.08Zm2.088,8.976a5.255,5.255,0,0,1-1.1.1c-1.44,0-2.088-.5-2.088-1.248,0-.5.456-.912,1.152-.912C241.128-3.216,241.848-2.472,242.16-1.152ZM261.6-13.416c-.936.144-1.824.264-2.832.36-1.056.1-2.112.168-3.168.168a21.925,21.925,0,0,0,.744,2.472.526.526,0,0,0,.768.312,7.053,7.053,0,0,1,1.32-.384c.648-.12,1.416-.264,2.352-.408a50.605,50.605,0,0,1-4.392,9.408.447.447,0,0,0-.1.264.494.494,0,0,0,.192.36A10.914,10.914,0,0,0,258.144.192a.394.394,0,0,0,.624-.216,66.281,66.281,0,0,0,4.824-11.28,15.9,15.9,0,0,1,2.016-.168c1.056,0,1.368.528,1.368,2.232a18.49,18.49,0,0,1-.936,5.952c-.384.984-.744,1.272-1.536,1.272a7.2,7.2,0,0,1-2.64-.528,6.859,6.859,0,0,1,.456,2.232.623.623,0,0,0,.432.672,7.836,7.836,0,0,0,2.376.264,3.436,3.436,0,0,0,3.24-2.256,20.61,20.61,0,0,0,1.3-7.7c0-2.9-1.224-4.44-3.48-4.44a18.1,18.1,0,0,0-1.872.1c.312-1.008.552-1.9.864-2.88a3.036,3.036,0,0,1,.48-.912.5.5,0,0,0,.168-.36.505.505,0,0,0-.384-.48,17.565,17.565,0,0,0-2.88-.792,16.337,16.337,0,0,1-.24,2.664C262.152-15.624,261.984-14.784,261.6-13.416Zm8.544-.192a16.246,16.246,0,0,1,3.936,6.216c.072.288.312.312.552.192a9.8,9.8,0,0,0,1.8-1.2.344.344,0,0,0,.1-.48,16.062,16.062,0,0,0-3.984-5.832c-.168-.168-.288-.216-.456-.12A20.347,20.347,0,0,0,270.144-13.608Z" transform="translate(-1.008 19.872)" fill="#fff"/></svg>