<svg xmlns="http://www.w3.org/2000/svg" width="276.421" height="407.606" viewBox="0 0 276.421 407.606"><path d="M113.959,20.473c8.31-2.524,11.871-4.487,11.871-8.133,0-4.768-5.935-7.572-30.389-12.34L94.254,1.683a91.136,91.136,0,0,1,1.9,20.473c0,6.45-.237,13.462-.95,22.156-4.986,53.567-14.72,88.9-28.727,118.072C51.994,192.392,31.814,219.035,0,242.033l2.849,5.89c38.461-21.6,58.879-46.836,75.735-76.564,14.245-24.96,26.59-58.054,33-120.876,6.885,61.42,21.13,98.44,33.475,122.278,14.007,27.2,87.2,215.214,112.842,234.846,4.273-8.974,8.784-12.9,17.094-13.181l1.424-5.89c-33.713-20.473-108.094-207.081-122.814-233.163-12.82-23-30.389-57.774-39.886-131.814Z" fill="#fd54db" opacity="0.924"/></svg>