<svg xmlns="http://www.w3.org/2000/svg" width="284.832" height="627.404" viewBox="0 0 284.832 627.404"><g transform="translate(-1581.084 -358.596)"><path d="M155.3-224.218c10.628-3.228,15.183-5.739,15.183-10.4,0-6.1-7.591-9.685-38.868-15.783l-1.518,2.152c1.822,7.892,2.429,16.5,2.429,26.186,0,8.25-.3,17.218-1.215,28.338-6.377,68.513-18.827,113.711-36.743,151.016C76.049-4.33,50.238,29.747,9.548,59.161l3.644,7.533C62.385,39.074,88.5,6.79,110.059-31.233c18.22-31.925,34.01-74.253,42.209-154.6,8.806,78.557,27.026,125.907,42.816,156.4C213,5.355,237.9,37.28,270.694,62.39c5.466-11.479,11.235-16.5,21.863-16.859L294.38,38C251.26,11.812,224.842-18.32,206.015-51.68c-16.4-29.414-38.868-73.894-51.015-168.593Z" transform="translate(1571.536 609)" fill="#fd54db"/><path d="M103.559,183.761c14.15,6.457,17.393,12.913,17.393,18.294a47.556,47.556,0,0,1-1.474,10.044c-3.243,11.479-7.075,24.392-12.971,40.534-14.445,5.022-26.532,9.685-40.388,14.348A36.837,36.837,0,0,1,55.8,269.133c-4.717,0-8.549-5.022-11.5-17.218l-6.191,1.794c-1.474,13.631,1.179,22.6,6.78,31.208,3.538,5.381,7.075,8.25,11.2,8.25a12.416,12.416,0,0,0,7.075-2.511l6.486-3.946c9.728-5.381,19.752-10.761,29.775-15.066-15.624,40.893-31.544,78.2-45.4,110.124a134.667,134.667,0,0,1-10.613,19.37c-5.9,8.609-7.075,12.914-7.075,21.881,0,9.685,4.422,14.348,8.844,14.348,5.012,0,8.844-6.1,12.087-13.631s7.665-19.37,13.561-34.077c15.624-39.817,31.249-79.992,48.937-126.265a68.792,68.792,0,0,1,18.867-2.87c13.561,0,18.867,8.968,18.867,26.9,0,32.642-5.306,74.97-17.393,108.689-6.486,17.935-12.087,22.6-18.867,22.6-5.6,0-12.382-3.228-31.249-11.837l-2.948,7.892c17.1,11.837,19.752,16.5,20.636,22.24,1.179,9.326,2.948,11.837,8.254,11.837,7.075,0,14.74-2.87,21.226-8.968,9.139-8.609,16.214-22.24,20.341-35.153C169,369.931,175.2,322.581,175.2,288.5c0-27.262-10.908-43.4-34.787-43.4a98.525,98.525,0,0,0-14.445,1.435c3.538-8.968,6.191-16.142,8.549-21.881a79.259,79.259,0,0,1,5.6-11.479c2.064-3.587,2.948-6.457,2.948-9.326,0-6.457-4.422-14.348-10.613-19.729a32.444,32.444,0,0,0-20.931-7.892,27.9,27.9,0,0,0-5.306.359Zm102,78.916c21.521,17.935,35.671,40.893,42.157,61.7a57.584,57.584,0,0,1,2.948,16.5c0,5.022-1.474,7.892-8.549,10.761-8.549,3.228-17.393,5.381-25.943,8.25l2.064,8.968c15.624-1.435,22.11-1.435,24.469-1.435,3.538,0,6.486,1.435,9.728,5.381,3.832,4.3,5.9,6.457,8.844,6.457,7.075,0,13.266-10.761,13.266-24.392,0-12.555-3.832-26.9-8.844-38.741-9.728-23.675-28.891-48.426-56.012-59.9Z" transform="translate(1575.948 537.154)" fill="#fd54db"/></g></svg>