<svg xmlns="http://www.w3.org/2000/svg" width="192.898" height="534.026" viewBox="0 0 192.898 534.026"><path d="M98.711,44.1c7.2-5.437,10.282-9.666,10.282-17.519,0-10.27-5.141-16.311-26.323-26.58L81.643,3.625c1.234,13.29,1.645,27.789,1.645,44.1,0,13.894-.206,29-.823,47.724-4.319,115.383-12.75,191.5-24.884,254.327C45.037,414.414,27.557,471.8,0,521.34l2.468,12.686c33.315-46.516,51-100.885,65.6-164.92C80.409,315.341,91.1,244.057,96.655,108.738c5.964,132.3,18.3,212.04,29,263.388,12.133,58.6,29,112.363,51.206,154.65,3.7-19.331,7.609-27.789,14.807-28.393L192.9,485.7c-29.2-44.1-47.094-94.844-59.844-151.025-11.1-49.536-26.323-124.445-34.549-283.928Z" transform="translate(0 0)" fill="#fd54db" opacity="0.481"/></svg>