<svg xmlns="http://www.w3.org/2000/svg" width="501.332" height="558.124" viewBox="0 0 501.332 558.124"><path d="M256.545,46.089c18.706-5.682,26.723-10.1,26.723-18.31,0-10.733-13.362-17.047-68.412-27.78l-2.672,3.788c3.207,13.89,4.276,29.043,4.276,46.089,0,14.521-.534,30.305-2.138,49.878-11.224,120.59-33.137,200.142-64.671,265.8C117.049,433.114,71.619,493.094,0,544.866l6.414,13.259C93,509.509,138.962,452.687,176.909,385.762,208.977,329.571,236.77,255.07,251.2,113.645c15.5,138.268,47.568,221.608,75.36,275.274,31.534,61.242,75.36,117.433,133.083,161.629,9.62-20.2,19.775-29.043,38.482-29.674l3.207-13.259c-75.895-46.089-122.393-99.124-155.53-157.841C316.94,298,277.389,219.714,256.01,53.034Z" transform="translate(0 0)" fill="#fd54db" opacity="0.242"/></svg>