<svg xmlns="http://www.w3.org/2000/svg" width="342" height="108" viewBox="0 0 342 108"><path d="M216.917,83.183c0-14.683,9.163-25.287,23.253-25.287,12.425,0,20.13,7.75,21.31,17.47H253.5c-.9-4.758-3.956-11.012-13.466-11.012-10.967,0-15.132,9.108-15.132,18.761,0,9.721,4.164,18.83,15.132,18.83,9.579,0,12.98-6.254,13.466-12.168h7.983C260.37,100.585,252.6,108.4,240.1,108.4,226.011,108.4,216.917,97.8,216.917,83.183Zm-78.923,9.109V90.32h7.357v1.972c0,5.574.972,9.652,7.5,9.652,6.455,0,7.565-4.079,7.565-9.652V58.848h7.636V92.292c0,8.224-3.332,16.11-15.062,16.11S137.994,100.517,137.994,92.292ZM86.351,83.115C86.351,68.5,95.86,57.9,110.714,57.9s24.364,10.6,24.364,25.219S125.569,108.4,110.714,108.4,86.351,97.73,86.351,83.115Zm7.982,0c0,9.993,4.651,18.83,16.382,18.83S127.1,93.108,127.1,83.115s-4.651-18.761-16.382-18.761S94.333,73.123,94.333,83.115ZM278.278,107.45V65.306H262.244V58.848h39.775v6.458H285.983V107.45Zm-100.649,0v-48.6h35.122v6.458H185.264V79.1h24.087v6.458H185.264v15.43h28.183v6.458Zm-104.26,0c-2.221-2.039,2.5-19.033-9.648-19.033H50.95V107.45H43.314v-48.6H64c10.967,0,16.868,5.03,16.868,14a11.682,11.682,0,0,1-9.3,11.9v.136c11.523,2.107,7.288,21.276,10,22.092v.475ZM50.95,81.959H62.333c7.011,0,10.829-2.991,10.829-8.564,0-5.234-3.055-8.089-10.689-8.089H50.95ZM0,107.45v-48.6H20.686c9.371,0,16.242,4.282,16.242,14.478S30.056,87.737,20.686,87.737H7.636V107.45ZM7.636,81.28h12.7c5.762,0,8.677-2.515,8.677-7.953,0-5.505-2.915-8.021-8.677-8.021H7.636ZM306.183,49.174V.572h35.123V7.03H313.818v13.8H337.9v6.458H313.818V42.717H342v6.458Zm-17.353,0V11.448h-.139L275.017,49.174H268.7L255.025,11.448h-.139V49.174h-7.5V.572h10.066l14.3,38.2h.139L286.261.572h10.065v48.6Zm-58.932,0V.572h7.636v48.6Zm-18.6,0L188.18,11.788h-.139V49.174h-7.636V.572h8.746L212.2,37.958h.139V.572h7.7v48.6Zm-44.356,0-4.1-11.691H142.089l-4.1,11.691h-8.052L148.406.572h8.26l18.6,48.6ZM144.38,31.162h16.313L152.571,7.506h-.139ZM50.464,49.174V.572H58.1v48.6ZM37,49.174,32.9,37.483H12.147l-4.1,11.691H0L18.464.572h8.26l18.6,48.6ZM14.438,31.162H30.75L22.629,7.506H22.49Zm96.924,18.01L97.6,27.728h-.417L83.42,49.172H79.463L96.345,24.125,80.728.4h3.61l12.841,20.12H97.6L110.785.4h3.54L98.637,24.125l16.611,25.046Z" transform="translate(0 -0.402)" fill="#fff"/></svg>