<svg width="65" height="65" viewBox="0 0 65 65" fill="none" xmlns="http://www.w3.org/2000/svg">
<path d="M32.5028 24.3753C30.3479 24.3753 28.2813 25.2313 26.7575 26.7551C25.2338 28.2788 24.3778 30.3454 24.3778 32.5003C24.3778 34.6552 25.2338 36.7218 26.7575 38.2456C28.2813 39.7693 30.3479 40.6253 32.5028 40.6253C34.6576 40.6253 36.7243 39.7693 38.248 38.2456C39.7717 36.7218 40.6278 34.6552 40.6278 32.5003C40.6278 30.3454 39.7717 28.2788 38.248 26.7551C36.7243 25.2313 34.6576 24.3753 32.5028 24.3753ZM32.5028 18.9587C36.0942 18.9587 39.5386 20.3854 42.0782 22.9249C44.6177 25.4645 46.0444 28.9088 46.0444 32.5003C46.0444 36.0918 44.6177 39.5362 42.0782 42.0757C39.5386 44.6153 36.0942 46.042 32.5028 46.042C28.9113 46.042 25.4669 44.6153 22.9274 42.0757C20.3878 39.5362 18.9611 36.0918 18.9611 32.5003C18.9611 28.9088 20.3878 25.4645 22.9274 22.9249C25.4669 20.3854 28.9113 18.9587 32.5028 18.9587ZM50.1069 18.2816C50.1069 19.1794 49.7503 20.0405 49.1154 20.6754C48.4805 21.3103 47.6194 21.667 46.7215 21.667C45.8236 21.667 44.9626 21.3103 44.3277 20.6754C43.6928 20.0405 43.3361 19.1794 43.3361 18.2816C43.3361 17.3837 43.6928 16.5226 44.3277 15.8877C44.9626 15.2528 45.8236 14.8962 46.7215 14.8962C47.6194 14.8962 48.4805 15.2528 49.1154 15.8877C49.7503 16.5226 50.1069 17.3837 50.1069 18.2816ZM32.5028 10.8337C25.8023 10.8337 24.7082 10.8526 21.5909 10.9907C19.4676 11.091 18.043 11.3753 16.7213 11.8899C15.6153 12.296 14.6153 12.9469 13.7963 13.7939C12.9486 14.6129 12.2968 15.6127 11.8896 16.7189C11.3751 18.0459 11.0907 19.4678 10.9932 21.5884C10.8523 24.5784 10.8334 25.6239 10.8334 32.5003C10.8334 39.2034 10.8524 40.2949 10.9905 43.4122C11.0907 45.5328 11.3751 46.9601 11.8869 48.2791C12.3473 49.4572 12.889 50.3049 13.7882 51.2041C14.7009 52.1141 15.5486 52.6584 16.7132 53.108C18.0511 53.6253 19.4757 53.9124 21.5882 54.0099C24.5782 54.1507 25.6236 54.167 32.5001 54.167C39.2032 54.167 40.2946 54.148 43.4119 54.0099C45.5298 53.9097 46.9544 53.6253 48.2788 53.1134C49.3838 52.7054 50.3833 52.0548 51.2038 51.2095C52.1165 50.2995 52.6609 49.4518 53.1105 48.2845C53.6251 46.952 53.9121 45.5274 54.0096 43.4095C54.1505 40.4222 54.1667 39.3741 54.1667 32.5003C54.1667 25.7999 54.1478 24.7057 54.0096 21.5884C53.9094 19.4705 53.6223 18.0405 53.1105 16.7189C52.7022 15.6139 52.0516 14.6144 51.2065 13.7939C50.3879 12.9457 49.3879 12.2939 48.2815 11.8872C46.9544 11.3726 45.5298 11.0882 43.4119 10.9907C40.4246 10.8499 39.3819 10.8337 32.5028 10.8337ZM32.5028 5.41699C39.8613 5.41699 40.7794 5.44408 43.6692 5.57949C46.5509 5.71491 48.5171 6.1672 50.2423 6.83887C52.0298 7.52678 53.5357 8.45845 55.0415 9.96158C56.4187 11.3155 57.4843 12.9532 58.1642 14.7607C58.8332 16.4859 59.2882 18.4522 59.4236 21.3366C59.5509 24.2237 59.5861 25.1418 59.5861 32.5003C59.5861 39.8589 59.559 40.777 59.4236 43.6641C59.2882 46.5484 58.8332 48.512 58.1642 50.2399C57.4862 52.0484 56.4203 53.6865 55.0415 55.0391C53.6872 56.4158 52.0496 57.4813 50.2423 58.1618C48.5171 58.8307 46.5509 59.2857 43.6692 59.4212C40.7794 59.5484 39.8613 59.5837 32.5028 59.5837C25.1442 59.5837 24.2261 59.5566 21.3363 59.4212C18.4546 59.2857 16.4911 58.8307 14.7632 58.1618C12.9549 57.4833 11.3169 56.4175 9.96402 55.0391C8.58664 53.6854 7.52099 52.0476 6.84131 50.2399C6.16964 48.5147 5.71735 46.5484 5.58193 43.6641C5.45193 40.777 5.41943 39.8589 5.41943 32.5003C5.41943 25.1418 5.44652 24.2237 5.58193 21.3366C5.71735 18.4495 6.16964 16.4887 6.84131 14.7607C7.51903 12.9521 8.58494 11.3139 9.96402 9.96158C11.3173 8.58366 12.9552 7.51793 14.7632 6.83887C16.4884 6.1672 18.4519 5.71491 21.3363 5.57949C24.2261 5.4522 25.1442 5.41699 32.5028 5.41699Z" fill="white"/>
</svg>
