<svg width="775" height="16" viewBox="0 0 775 16" fill="none" xmlns="http://www.w3.org/2000/svg">
<path d="M658.026 13V3.5114L659.282 3.5114V7.79409L663.386 3.52422L665.027 3.52422L660.59 8.07618L665.219 13H663.527L659.282 8.47368V13H658.026ZM669.337 13.1282C668.585 13.1282 667.922 12.9915 667.35 12.7179C666.777 12.4358 666.298 12.064 665.913 11.6024C665.529 11.1322 665.238 10.6065 665.041 10.0252C664.845 9.44391 664.747 8.8498 664.747 8.24288C664.747 7.63595 664.845 7.04612 665.041 6.47338C665.238 5.8921 665.529 5.37065 665.913 4.90904C666.298 4.44743 666.777 4.07986 667.35 3.80631C667.922 3.52422 668.585 3.38317 669.337 3.38317C670.089 3.38317 670.752 3.52422 671.324 3.80631C671.897 4.07986 672.376 4.44743 672.761 4.90904C673.145 5.37065 673.436 5.8921 673.633 6.47338C673.829 7.04612 673.927 7.63595 673.927 8.24288C673.927 8.8498 673.829 9.44391 673.633 10.0252C673.436 10.6065 673.145 11.1322 672.761 11.6024C672.376 12.064 671.897 12.4358 671.324 12.7179C670.752 12.9915 670.089 13.1282 669.337 13.1282ZM669.337 11.9614C669.876 11.9614 670.35 11.8588 670.76 11.6536C671.171 11.4485 671.513 11.1707 671.786 10.8202C672.068 10.4697 672.282 10.0722 672.427 9.6277C672.573 9.18319 672.645 8.72158 672.645 8.24288C672.645 7.77272 672.573 7.31966 672.427 6.8837C672.282 6.43919 672.068 6.04169 671.786 5.69121C671.513 5.34073 671.171 5.06291 670.76 4.85775C670.35 4.65259 669.876 4.55001 669.337 4.55001C668.798 4.55001 668.324 4.65259 667.914 4.85775C667.503 5.06291 667.157 5.34073 666.875 5.69121C666.602 6.04169 666.392 6.43919 666.247 6.8837C666.101 7.31966 666.029 7.77272 666.029 8.24288C666.029 8.72158 666.101 9.18319 666.247 9.6277C666.392 10.0722 666.602 10.4697 666.875 10.8202C667.157 11.1707 667.503 11.4485 667.914 11.6536C668.324 11.8588 668.798 11.9614 669.337 11.9614ZM676.375 13V4.61413L673.413 4.61413V3.5114L680.593 3.5114V4.61413H677.631L677.631 13H676.375ZM684.672 13.1282C683.92 13.1282 683.257 12.9915 682.684 12.7179C682.112 12.4358 681.633 12.064 681.248 11.6024C680.864 11.1322 680.573 10.6065 680.376 10.0252C680.18 9.44391 680.081 8.8498 680.081 8.24288C680.081 7.63595 680.18 7.04612 680.376 6.47338C680.573 5.8921 680.864 5.37065 681.248 4.90904C681.633 4.44743 682.112 4.07986 682.684 3.80631C683.257 3.52422 683.92 3.38317 684.672 3.38317C685.424 3.38317 686.087 3.52422 686.659 3.80631C687.232 4.07986 687.711 4.44743 688.095 4.90904C688.48 5.37065 688.771 5.8921 688.967 6.47338C689.164 7.04612 689.262 7.63595 689.262 8.24288C689.262 8.8498 689.164 9.44391 688.967 10.0252C688.771 10.6065 688.48 11.1322 688.095 11.6024C687.711 12.064 687.232 12.4358 686.659 12.7179C686.087 12.9915 685.424 13.1282 684.672 13.1282ZM684.672 11.9614C685.21 11.9614 685.685 11.8588 686.095 11.6536C686.505 11.4485 686.847 11.1707 687.121 10.8202C687.403 10.4697 687.617 10.0722 687.762 9.6277C687.907 9.18319 687.98 8.72158 687.98 8.24288C687.98 7.77272 687.907 7.31966 687.762 6.8837C687.617 6.43919 687.403 6.04169 687.121 5.69121C686.847 5.34073 686.505 5.06291 686.095 4.85775C685.685 4.65259 685.21 4.55001 684.672 4.55001C684.133 4.55001 683.659 4.65259 683.249 4.85775C682.838 5.06291 682.492 5.34073 682.21 5.69121C681.936 6.04169 681.727 6.43919 681.582 6.8837C681.436 7.31966 681.364 7.77272 681.364 8.24288C681.364 8.72158 681.436 9.18319 681.582 9.6277C681.727 10.0722 681.936 10.4697 682.21 10.8202C682.492 11.1707 682.838 11.4485 683.249 11.6536C683.659 11.8588 684.133 11.9614 684.672 11.9614ZM690.098 13V3.5114H691.226L696.176 10.7304V3.5114L697.432 3.5114V13H696.304L691.355 5.79379V13H690.098ZM698.592 13V3.5114L704.618 3.5114V4.61413L699.848 4.61413V7.61458L704.028 7.61458V8.71731H699.848V11.8973H704.682V13H698.592ZM707.703 13V3.5114L709.357 3.5114L712.153 9.15327L714.935 3.5114L716.589 3.5114V13H715.358V5.35783L712.742 10.5637H711.55L708.934 5.33218V13H707.703ZM717.288 13L720.635 3.5114L722.212 3.5114L725.572 13H724.238L723.443 10.7304H719.417L718.622 13L717.288 13ZM719.802 9.60205H723.059L721.43 4.94751L719.802 9.60205ZM726.281 13V3.5114H727.41L732.359 10.7304V3.5114L733.616 3.5114V13H732.487L727.538 5.79379V13H726.281ZM739.045 13.1282C738.293 13.1282 737.63 12.9915 737.057 12.7179C736.485 12.4358 736.006 12.064 735.621 11.6024C735.237 11.1322 734.946 10.6065 734.749 10.0252C734.553 9.44391 734.455 8.8498 734.455 8.24288C734.455 7.63595 734.553 7.04612 734.749 6.47338C734.946 5.8921 735.237 5.37065 735.621 4.90904C736.006 4.44743 736.485 4.07986 737.057 3.80631C737.63 3.52422 738.293 3.38317 739.045 3.38317C739.797 3.38317 740.46 3.52422 741.032 3.80631C741.605 4.07986 742.084 4.44743 742.469 4.90904C742.853 5.37065 743.144 5.8921 743.34 6.47338C743.537 7.04612 743.635 7.63595 743.635 8.24288C743.635 8.8498 743.537 9.44391 743.34 10.0252C743.144 10.6065 742.853 11.1322 742.469 11.6024C742.084 12.064 741.605 12.4358 741.032 12.7179C740.46 12.9915 739.797 13.1282 739.045 13.1282ZM739.045 11.9614C739.583 11.9614 740.058 11.8588 740.468 11.6536C740.879 11.4485 741.22 11.1707 741.494 10.8202C741.776 10.4697 741.99 10.0722 742.135 9.6277C742.28 9.18319 742.353 8.72158 742.353 8.24288C742.353 7.77272 742.28 7.31966 742.135 6.8837C741.99 6.43919 741.776 6.04169 741.494 5.69121C741.22 5.34073 740.879 5.06291 740.468 4.85775C740.058 4.65259 739.583 4.55001 739.045 4.55001C738.506 4.55001 738.032 4.65259 737.622 4.85775C737.211 5.06291 736.865 5.34073 736.583 5.69121C736.31 6.04169 736.1 6.43919 735.955 6.8837C735.809 7.31966 735.737 7.77272 735.737 8.24288C735.737 8.72158 735.809 9.18319 735.955 9.6277C736.1 10.0722 736.31 10.4697 736.583 10.8202C736.865 11.1707 737.211 11.4485 737.622 11.6536C738.032 11.8588 738.506 11.9614 739.045 11.9614Z" fill="white"/>
<path d="M746.271 13.1816V7.52682H748.502C748.956 7.52682 749.333 7.61852 749.633 7.80192C749.934 7.98022 750.158 8.21457 750.306 8.50495C750.459 8.79024 750.535 9.08826 750.535 9.39902C750.535 9.70978 750.459 10.0104 750.306 10.3007C750.158 10.586 749.934 10.8204 749.633 11.0038C749.333 11.1872 748.956 11.2789 748.502 11.2789H747.31V13.1816H746.271ZM748.495 8.42853H747.31V10.3772H748.495C748.719 10.3772 748.905 10.3313 749.052 10.2396C749.2 10.1428 749.31 10.0205 749.381 9.8728C749.457 9.71997 749.496 9.56459 749.496 9.40666C749.496 9.24364 749.457 9.08826 749.381 8.94052C749.31 8.79278 749.2 8.67052 749.052 8.57372C748.905 8.47693 748.719 8.42853 748.495 8.42853ZM752.587 13.2581C752.144 13.2581 751.767 13.1587 751.456 12.96C751.146 12.7613 750.909 12.5041 750.746 12.1882C750.588 11.8673 750.509 11.5234 750.509 11.1566C750.509 10.7898 750.588 10.4485 750.746 10.1326C750.909 9.81167 751.146 9.55186 751.456 9.35317C751.767 9.15449 752.144 9.05515 752.587 9.05515C753.036 9.05515 753.413 9.15449 753.718 9.35317C754.029 9.55186 754.263 9.81167 754.421 10.1326C754.584 10.4485 754.666 10.7898 754.666 11.1566C754.666 11.5234 754.584 11.8673 754.421 12.1882C754.263 12.5041 754.029 12.7613 753.718 12.96C753.413 13.1587 753.036 13.2581 752.587 13.2581ZM752.587 12.4098C752.817 12.4098 753.008 12.3512 753.16 12.2341C753.318 12.1169 753.438 11.9641 753.52 11.7756C753.601 11.582 753.642 11.3757 753.642 11.1566C753.642 10.9324 753.601 10.7261 753.52 10.5376C753.438 10.3491 753.318 10.1963 753.16 10.0791C753.008 9.96196 752.817 9.90337 752.587 9.90337C752.363 9.90337 752.172 9.96196 752.014 10.0791C751.856 10.1963 751.737 10.3491 751.655 10.5376C751.574 10.7261 751.533 10.9324 751.533 11.1566C751.533 11.3757 751.574 11.582 751.655 11.7756C751.737 11.9641 751.856 12.1169 752.014 12.2341C752.172 12.3512 752.363 12.4098 752.587 12.4098ZM755.02 13.1816V9.13156H756.029V9.6894H756.067C756.138 9.53148 756.255 9.38629 756.418 9.25383C756.581 9.12138 756.826 9.05515 757.152 9.05515C757.254 9.05515 757.338 9.06279 757.404 9.07807C757.47 9.08826 757.504 9.09336 757.504 9.09336V10.0791C757.504 10.0791 757.465 10.074 757.389 10.0638C757.318 10.0537 757.228 10.0486 757.121 10.0486C756.765 10.0486 756.495 10.1479 756.311 10.3466C756.128 10.5453 756.036 10.8662 756.036 11.3094V13.1816H755.02ZM758.183 13.1816V9.94922H757.533V9.13156H758.183V8.75712C758.183 8.60429 758.203 8.44382 758.244 8.2757C758.285 8.10249 758.353 7.94201 758.45 7.79427C758.552 7.64654 758.692 7.52682 758.87 7.43512C759.054 7.34342 759.283 7.29757 759.558 7.29757C759.711 7.29757 759.836 7.3103 759.933 7.33578C760.035 7.35615 760.085 7.36634 760.085 7.36634V8.10758C760.085 8.10758 760.052 8.10249 759.986 8.0923C759.92 8.07702 759.849 8.06937 759.772 8.06937C759.553 8.06937 759.403 8.13305 759.321 8.26042C759.24 8.38778 759.199 8.55335 759.199 8.75712V9.13156H760.063V9.94922H759.199V13.1816H758.183ZM762.087 13.2581C761.644 13.2581 761.267 13.1587 760.956 12.96C760.645 12.7613 760.408 12.5041 760.245 12.1882C760.087 11.8673 760.008 11.5234 760.008 11.1566C760.008 10.7898 760.087 10.4485 760.245 10.1326C760.408 9.81167 760.645 9.55186 760.956 9.35317C761.267 9.15449 761.644 9.05515 762.087 9.05515C762.535 9.05515 762.912 9.15449 763.218 9.35317C763.529 9.55186 763.763 9.81167 763.921 10.1326C764.084 10.4485 764.165 10.7898 764.165 11.1566C764.165 11.5234 764.084 11.8673 763.921 12.1882C763.763 12.5041 763.529 12.7613 763.218 12.96C762.912 13.1587 762.535 13.2581 762.087 13.2581ZM762.087 12.4098C762.316 12.4098 762.507 12.3512 762.66 12.2341C762.818 12.1169 762.938 11.9641 763.019 11.7756C763.101 11.582 763.141 11.3757 763.141 11.1566C763.141 10.9324 763.101 10.7261 763.019 10.5376C762.938 10.3491 762.818 10.1963 762.66 10.0791C762.507 9.96196 762.316 9.90337 762.087 9.90337C761.863 9.90337 761.672 9.96196 761.514 10.0791C761.356 10.1963 761.236 10.3491 761.155 10.5376C761.073 10.7261 761.032 10.9324 761.032 11.1566C761.032 11.3757 761.073 11.582 761.155 11.7756C761.236 11.9641 761.356 12.1169 761.514 12.2341C761.672 12.3512 761.863 12.4098 762.087 12.4098ZM764.566 13.1816L764.574 7.37398H765.582V13.1816H764.566ZM766.685 8.50495C766.507 8.50495 766.359 8.44636 766.242 8.32919C766.13 8.21202 766.074 8.07192 766.074 7.9089C766.074 7.74588 766.13 7.60578 766.242 7.48861C766.359 7.37144 766.507 7.31285 766.685 7.31285C766.864 7.31285 767.012 7.37144 767.129 7.48861C767.246 7.60578 767.304 7.74588 767.304 7.9089C767.304 8.07192 767.246 8.21202 767.129 8.32919C767.012 8.44636 766.864 8.50495 766.685 8.50495ZM766.181 13.1816V9.13156H767.197V13.1816H766.181ZM769.736 13.2581C769.292 13.2581 768.915 13.1587 768.605 12.96C768.294 12.7613 768.057 12.5041 767.894 12.1882C767.736 11.8673 767.657 11.5234 767.657 11.1566C767.657 10.7898 767.736 10.4485 767.894 10.1326C768.057 9.81167 768.294 9.55186 768.605 9.35317C768.915 9.15449 769.292 9.05515 769.736 9.05515C770.184 9.05515 770.561 9.15449 770.867 9.35317C771.177 9.55186 771.412 9.81167 771.57 10.1326C771.733 10.4485 771.814 10.7898 771.814 11.1566C771.814 11.5234 771.733 11.8673 771.57 12.1882C771.412 12.5041 771.177 12.7613 770.867 12.96C770.561 13.1587 770.184 13.2581 769.736 13.2581ZM769.736 12.4098C769.965 12.4098 770.156 12.3512 770.309 12.2341C770.467 12.1169 770.586 11.9641 770.668 11.7756C770.749 11.582 770.79 11.3757 770.79 11.1566C770.79 10.9324 770.749 10.7261 770.668 10.5376C770.586 10.3491 770.467 10.1963 770.309 10.0791C770.156 9.96196 769.965 9.90337 769.736 9.90337C769.512 9.90337 769.32 9.96196 769.163 10.0791C769.005 10.1963 768.885 10.3491 768.803 10.5376C768.722 10.7261 768.681 10.9324 768.681 11.1566C768.681 11.3757 768.722 11.582 768.803 11.7756C768.885 11.9641 769.005 12.1169 769.163 12.2341C769.32 12.3512 769.512 12.4098 769.736 12.4098ZM772.91 13.2581C772.736 13.2581 772.594 13.1995 772.482 13.0823C772.37 12.96 772.314 12.8174 772.314 12.6544C772.314 12.4913 772.37 12.3512 772.482 12.2341C772.594 12.1169 772.736 12.0583 772.91 12.0583C773.083 12.0583 773.225 12.1169 773.338 12.2341C773.455 12.3512 773.513 12.4913 773.513 12.6544C773.513 12.8225 773.455 12.9651 773.338 13.0823C773.225 13.1995 773.083 13.2581 772.91 13.2581Z" fill="white"/>
<path d="M526.45 13V3.5114L527.706 3.5114V7.79409L531.809 3.52422L533.451 3.52422L529.014 8.07618L533.643 13H531.95L527.706 8.47368V13H526.45ZM537.761 13.1282C537.009 13.1282 536.346 12.9915 535.773 12.7179C535.201 12.4358 534.722 12.064 534.337 11.6024C533.953 11.1322 533.662 10.6065 533.465 10.0252C533.269 9.44391 533.17 8.8498 533.17 8.24288C533.17 7.63595 533.269 7.04612 533.465 6.47338C533.662 5.8921 533.953 5.37065 534.337 4.90904C534.722 4.44743 535.201 4.07986 535.773 3.80631C536.346 3.52422 537.009 3.38317 537.761 3.38317C538.513 3.38317 539.176 3.52422 539.748 3.80631C540.321 4.07986 540.8 4.44743 541.184 4.90904C541.569 5.37065 541.86 5.8921 542.056 6.47338C542.253 7.04612 542.351 7.63595 542.351 8.24288C542.351 8.8498 542.253 9.44391 542.056 10.0252C541.86 10.6065 541.569 11.1322 541.184 11.6024C540.8 12.064 540.321 12.4358 539.748 12.7179C539.176 12.9915 538.513 13.1282 537.761 13.1282ZM537.761 11.9614C538.299 11.9614 538.774 11.8588 539.184 11.6536C539.594 11.4485 539.936 11.1707 540.21 10.8202C540.492 10.4697 540.706 10.0722 540.851 9.6277C540.996 9.18319 541.069 8.72158 541.069 8.24288C541.069 7.77272 540.996 7.31966 540.851 6.8837C540.706 6.43919 540.492 6.04169 540.21 5.69121C539.936 5.34073 539.594 5.06291 539.184 4.85775C538.774 4.65259 538.299 4.55001 537.761 4.55001C537.222 4.55001 536.748 4.65259 536.338 4.85775C535.927 5.06291 535.581 5.34073 535.299 5.69121C535.025 6.04169 534.816 6.43919 534.671 6.8837C534.525 7.31966 534.453 7.77272 534.453 8.24288C534.453 8.72158 534.525 9.18319 534.671 9.6277C534.816 10.0722 535.025 10.4697 535.299 10.8202C535.581 11.1707 535.927 11.4485 536.338 11.6536C536.748 11.8588 537.222 11.9614 537.761 11.9614ZM544.799 13V4.61413L541.837 4.61413V3.5114L549.017 3.5114V4.61413H546.055L546.055 13H544.799ZM553.096 13.1282C552.343 13.1282 551.681 12.9915 551.108 12.7179C550.535 12.4358 550.057 12.064 549.672 11.6024C549.287 11.1322 548.997 10.6065 548.8 10.0252C548.604 9.44391 548.505 8.8498 548.505 8.24288C548.505 7.63595 548.604 7.04612 548.8 6.47338C548.997 5.8921 549.287 5.37065 549.672 4.90904C550.057 4.44743 550.535 4.07986 551.108 3.80631C551.681 3.52422 552.343 3.38317 553.096 3.38317C553.848 3.38317 554.51 3.52422 555.083 3.80631C555.656 4.07986 556.135 4.44743 556.519 4.90904C556.904 5.37065 557.195 5.8921 557.391 6.47338C557.588 7.04612 557.686 7.63595 557.686 8.24288C557.686 8.8498 557.588 9.44391 557.391 10.0252C557.195 10.6065 556.904 11.1322 556.519 11.6024C556.135 12.064 555.656 12.4358 555.083 12.7179C554.51 12.9915 553.848 13.1282 553.096 13.1282ZM553.096 11.9614C553.634 11.9614 554.109 11.8588 554.519 11.6536C554.929 11.4485 555.271 11.1707 555.545 10.8202C555.827 10.4697 556.041 10.0722 556.186 9.6277C556.331 9.18319 556.404 8.72158 556.404 8.24288C556.404 7.77272 556.331 7.31966 556.186 6.8837C556.041 6.43919 555.827 6.04169 555.545 5.69121C555.271 5.34073 554.929 5.06291 554.519 4.85775C554.109 4.65259 553.634 4.55001 553.096 4.55001C552.557 4.55001 552.083 4.65259 551.672 4.85775C551.262 5.06291 550.916 5.34073 550.634 5.69121C550.36 6.04169 550.151 6.43919 550.005 6.8837C549.86 7.31966 549.787 7.77272 549.787 8.24288C549.787 8.72158 549.86 9.18319 550.005 9.6277C550.151 10.0722 550.36 10.4697 550.634 10.8202C550.916 11.1707 551.262 11.4485 551.672 11.6536C552.083 11.8588 552.557 11.9614 553.096 11.9614ZM558.522 13V3.5114H559.65L564.6 10.7304V3.5114L565.856 3.5114V13H564.728L559.778 5.79379V13H558.522ZM567.016 13V3.5114L573.042 3.5114V4.61413L568.272 4.61413V7.61458L572.452 7.61458V8.71731H568.272V11.8973H573.106V13H567.016ZM576.127 13V3.5114L577.781 3.5114L580.576 9.15327L583.359 3.5114L585.013 3.5114V13H583.782V5.35783L581.166 10.5637H579.974L577.358 5.33218V13H576.127ZM585.712 13L589.059 3.5114L590.636 3.5114L593.996 13H592.662L591.867 10.7304H587.841L587.046 13L585.712 13ZM588.226 9.60205H591.482L589.854 4.94751L588.226 9.60205ZM594.705 13V3.5114H595.833L600.783 10.7304V3.5114L602.039 3.5114V13H600.911L595.962 5.79379V13H594.705ZM607.469 13.1282C606.717 13.1282 606.054 12.9915 605.481 12.7179C604.909 12.4358 604.43 12.064 604.045 11.6024C603.661 11.1322 603.37 10.6065 603.173 10.0252C602.977 9.44391 602.878 8.8498 602.878 8.24288C602.878 7.63595 602.977 7.04612 603.173 6.47338C603.37 5.8921 603.661 5.37065 604.045 4.90904C604.43 4.44743 604.909 4.07986 605.481 3.80631C606.054 3.52422 606.717 3.38317 607.469 3.38317C608.221 3.38317 608.884 3.52422 609.456 3.80631C610.029 4.07986 610.508 4.44743 610.892 4.90904C611.277 5.37065 611.568 5.8921 611.764 6.47338C611.961 7.04612 612.059 7.63595 612.059 8.24288C612.059 8.8498 611.961 9.44391 611.764 10.0252C611.568 10.6065 611.277 11.1322 610.892 11.6024C610.508 12.064 610.029 12.4358 609.456 12.7179C608.884 12.9915 608.221 13.1282 607.469 13.1282ZM607.469 11.9614C608.007 11.9614 608.482 11.8588 608.892 11.6536C609.302 11.4485 609.644 11.1707 609.918 10.8202C610.2 10.4697 610.414 10.0722 610.559 9.6277C610.704 9.18319 610.777 8.72158 610.777 8.24288C610.777 7.77272 610.704 7.31966 610.559 6.8837C610.414 6.43919 610.2 6.04169 609.918 5.69121C609.644 5.34073 609.302 5.06291 608.892 4.85775C608.482 4.65259 608.007 4.55001 607.469 4.55001C606.93 4.55001 606.456 4.65259 606.045 4.85775C605.635 5.06291 605.289 5.34073 605.007 5.69121C604.733 6.04169 604.524 6.43919 604.379 6.8837C604.233 7.31966 604.161 7.77272 604.161 8.24288C604.161 8.72158 604.233 9.18319 604.379 9.6277C604.524 10.0722 604.733 10.4697 605.007 10.8202C605.289 11.1707 605.635 11.4485 606.045 11.6536C606.456 11.8588 606.93 11.9614 607.469 11.9614Z" fill="white"/>
<path d="M614.695 13.1816V7.52682H616.926C617.379 7.52682 617.756 7.61852 618.057 7.80192C618.358 7.98022 618.582 8.21457 618.73 8.50495C618.882 8.79024 618.959 9.08826 618.959 9.39902C618.959 9.70978 618.882 10.0104 618.73 10.3007C618.582 10.586 618.358 10.8204 618.057 11.0038C617.756 11.1872 617.379 11.2789 616.926 11.2789H615.734V13.1816H614.695ZM616.918 8.42853H615.734V10.3772H616.918C617.143 10.3772 617.329 10.3313 617.476 10.2396C617.624 10.1428 617.734 10.0205 617.805 9.8728C617.881 9.71997 617.92 9.56459 617.92 9.40666C617.92 9.24364 617.881 9.08826 617.805 8.94052C617.734 8.79278 617.624 8.67052 617.476 8.57372C617.329 8.47693 617.143 8.42853 616.918 8.42853ZM621.011 13.2581C620.568 13.2581 620.191 13.1587 619.88 12.96C619.569 12.7613 619.333 12.5041 619.17 12.1882C619.012 11.8673 618.933 11.5234 618.933 11.1566C618.933 10.7898 619.012 10.4485 619.17 10.1326C619.333 9.81167 619.569 9.55186 619.88 9.35317C620.191 9.15449 620.568 9.05515 621.011 9.05515C621.459 9.05515 621.836 9.15449 622.142 9.35317C622.453 9.55186 622.687 9.81167 622.845 10.1326C623.008 10.4485 623.09 10.7898 623.09 11.1566C623.09 11.5234 623.008 11.8673 622.845 12.1882C622.687 12.5041 622.453 12.7613 622.142 12.96C621.836 13.1587 621.459 13.2581 621.011 13.2581ZM621.011 12.4098C621.24 12.4098 621.431 12.3512 621.584 12.2341C621.742 12.1169 621.862 11.9641 621.943 11.7756C622.025 11.582 622.066 11.3757 622.066 11.1566C622.066 10.9324 622.025 10.7261 621.943 10.5376C621.862 10.3491 621.742 10.1963 621.584 10.0791C621.431 9.96196 621.24 9.90337 621.011 9.90337C620.787 9.90337 620.596 9.96196 620.438 10.0791C620.28 10.1963 620.16 10.3491 620.079 10.5376C619.997 10.7261 619.957 10.9324 619.957 11.1566C619.957 11.3757 619.997 11.582 620.079 11.7756C620.16 11.9641 620.28 12.1169 620.438 12.2341C620.596 12.3512 620.787 12.4098 621.011 12.4098ZM623.444 13.1816V9.13156H624.453V9.6894H624.491C624.562 9.53148 624.679 9.38629 624.842 9.25383C625.005 9.12138 625.25 9.05515 625.576 9.05515C625.678 9.05515 625.762 9.06279 625.828 9.07807C625.894 9.08826 625.927 9.09336 625.927 9.09336V10.0791C625.927 10.0791 625.889 10.074 625.813 10.0638C625.741 10.0537 625.652 10.0486 625.545 10.0486C625.189 10.0486 624.919 10.1479 624.735 10.3466C624.552 10.5453 624.46 10.8662 624.46 11.3094V13.1816H623.444ZM626.607 13.1816V9.94922H625.957V9.13156H626.607V8.75712C626.607 8.60429 626.627 8.44382 626.668 8.2757C626.708 8.10249 626.777 7.94201 626.874 7.79427C626.976 7.64654 627.116 7.52682 627.294 7.43512C627.478 7.34342 627.707 7.29757 627.982 7.29757C628.135 7.29757 628.26 7.3103 628.356 7.33578C628.458 7.35615 628.509 7.36634 628.509 7.36634V8.10758C628.509 8.10758 628.476 8.10249 628.41 8.0923C628.344 8.07702 628.272 8.06937 628.196 8.06937C627.977 8.06937 627.827 8.13305 627.745 8.26042C627.664 8.38778 627.623 8.55335 627.623 8.75712V9.13156H628.486V9.94922H627.623V13.1816H626.607ZM630.511 13.2581C630.067 13.2581 629.69 13.1587 629.38 12.96C629.069 12.7613 628.832 12.5041 628.669 12.1882C628.511 11.8673 628.432 11.5234 628.432 11.1566C628.432 10.7898 628.511 10.4485 628.669 10.1326C628.832 9.81167 629.069 9.55186 629.38 9.35317C629.69 9.15449 630.067 9.05515 630.511 9.05515C630.959 9.05515 631.336 9.15449 631.642 9.35317C631.952 9.55186 632.187 9.81167 632.345 10.1326C632.508 10.4485 632.589 10.7898 632.589 11.1566C632.589 11.5234 632.508 11.8673 632.345 12.1882C632.187 12.5041 631.952 12.7613 631.642 12.96C631.336 13.1587 630.959 13.2581 630.511 13.2581ZM630.511 12.4098C630.74 12.4098 630.931 12.3512 631.084 12.2341C631.242 12.1169 631.361 11.9641 631.443 11.7756C631.524 11.582 631.565 11.3757 631.565 11.1566C631.565 10.9324 631.524 10.7261 631.443 10.5376C631.361 10.3491 631.242 10.1963 631.084 10.0791C630.931 9.96196 630.74 9.90337 630.511 9.90337C630.287 9.90337 630.095 9.96196 629.938 10.0791C629.78 10.1963 629.66 10.3491 629.578 10.5376C629.497 10.7261 629.456 10.9324 629.456 11.1566C629.456 11.3757 629.497 11.582 629.578 11.7756C629.66 11.9641 629.78 12.1169 629.938 12.2341C630.095 12.3512 630.287 12.4098 630.511 12.4098ZM632.99 13.1816L632.998 7.37398H634.006V13.1816H632.99ZM635.109 8.50495C634.931 8.50495 634.783 8.44636 634.666 8.32919C634.554 8.21202 634.498 8.07192 634.498 7.9089C634.498 7.74588 634.554 7.60578 634.666 7.48861C634.783 7.37144 634.931 7.31285 635.109 7.31285C635.288 7.31285 635.435 7.37144 635.553 7.48861C635.67 7.60578 635.728 7.74588 635.728 7.9089C635.728 8.07192 635.67 8.21202 635.553 8.32919C635.435 8.44636 635.288 8.50495 635.109 8.50495ZM634.605 13.1816V9.13156H635.621V13.1816H634.605ZM638.16 13.2581C637.716 13.2581 637.339 13.1587 637.029 12.96C636.718 12.7613 636.481 12.5041 636.318 12.1882C636.16 11.8673 636.081 11.5234 636.081 11.1566C636.081 10.7898 636.16 10.4485 636.318 10.1326C636.481 9.81167 636.718 9.55186 637.029 9.35317C637.339 9.15449 637.716 9.05515 638.16 9.05515C638.608 9.05515 638.985 9.15449 639.29 9.35317C639.601 9.55186 639.836 9.81167 639.993 10.1326C640.157 10.4485 640.238 10.7898 640.238 11.1566C640.238 11.5234 640.157 11.8673 639.993 12.1882C639.836 12.5041 639.601 12.7613 639.29 12.96C638.985 13.1587 638.608 13.2581 638.16 13.2581ZM638.16 12.4098C638.389 12.4098 638.58 12.3512 638.733 12.2341C638.891 12.1169 639.01 11.9641 639.092 11.7756C639.173 11.582 639.214 11.3757 639.214 11.1566C639.214 10.9324 639.173 10.7261 639.092 10.5376C639.01 10.3491 638.891 10.1963 638.733 10.0791C638.58 9.96196 638.389 9.90337 638.16 9.90337C637.935 9.90337 637.744 9.96196 637.586 10.0791C637.428 10.1963 637.309 10.3491 637.227 10.5376C637.146 10.7261 637.105 10.9324 637.105 11.1566C637.105 11.3757 637.146 11.582 637.227 11.7756C637.309 11.9641 637.428 12.1169 637.586 12.2341C637.744 12.3512 637.935 12.4098 638.16 12.4098ZM641.333 13.2581C641.16 13.2581 641.018 13.1995 640.905 13.0823C640.793 12.96 640.737 12.8174 640.737 12.6544C640.737 12.4913 640.793 12.3512 640.905 12.2341C641.018 12.1169 641.16 12.0583 641.333 12.0583C641.507 12.0583 641.649 12.1169 641.761 12.2341C641.879 12.3512 641.937 12.4913 641.937 12.6544C641.937 12.8225 641.879 12.9651 641.761 13.0823C641.649 13.1995 641.507 13.2581 641.333 13.2581Z" fill="white"/>
<path d="M395.094 13V3.5114L396.351 3.5114V7.79409L400.454 3.52422L402.095 3.52422L397.659 8.07618L402.288 13H400.595L396.351 8.47368V13H395.094ZM406.405 13.1282C405.653 13.1282 404.991 12.9915 404.418 12.7179C403.845 12.4358 403.366 12.064 402.982 11.6024C402.597 11.1322 402.306 10.6065 402.11 10.0252C401.913 9.44391 401.815 8.8498 401.815 8.24288C401.815 7.63595 401.913 7.04612 402.11 6.47338C402.306 5.8921 402.597 5.37065 402.982 4.90904C403.366 4.44743 403.845 4.07986 404.418 3.80631C404.991 3.52422 405.653 3.38317 406.405 3.38317C407.158 3.38317 407.82 3.52422 408.393 3.80631C408.966 4.07986 409.444 4.44743 409.829 4.90904C410.214 5.37065 410.504 5.8921 410.701 6.47338C410.897 7.04612 410.996 7.63595 410.996 8.24288C410.996 8.8498 410.897 9.44391 410.701 10.0252C410.504 10.6065 410.214 11.1322 409.829 11.6024C409.444 12.064 408.966 12.4358 408.393 12.7179C407.82 12.9915 407.158 13.1282 406.405 13.1282ZM406.405 11.9614C406.944 11.9614 407.418 11.8588 407.829 11.6536C408.239 11.4485 408.581 11.1707 408.854 10.8202C409.137 10.4697 409.35 10.0722 409.496 9.6277C409.641 9.18319 409.714 8.72158 409.714 8.24288C409.714 7.77272 409.641 7.31966 409.496 6.8837C409.35 6.43919 409.137 6.04169 408.854 5.69121C408.581 5.34073 408.239 5.06291 407.829 4.85775C407.418 4.65259 406.944 4.55001 406.405 4.55001C405.867 4.55001 405.392 4.65259 404.982 4.85775C404.572 5.06291 404.226 5.34073 403.943 5.69121C403.67 6.04169 403.46 6.43919 403.315 6.8837C403.17 7.31966 403.097 7.77272 403.097 8.24288C403.097 8.72158 403.17 9.18319 403.315 9.6277C403.46 10.0722 403.67 10.4697 403.943 10.8202C404.226 11.1707 404.572 11.4485 404.982 11.6536C405.392 11.8588 405.867 11.9614 406.405 11.9614ZM413.443 13V4.61413L410.481 4.61413V3.5114L417.662 3.5114V4.61413H414.7V13H413.443ZM421.74 13.1282C420.988 13.1282 420.325 12.9915 419.753 12.7179C419.18 12.4358 418.701 12.064 418.317 11.6024C417.932 11.1322 417.641 10.6065 417.445 10.0252C417.248 9.44391 417.15 8.8498 417.15 8.24288C417.15 7.63595 417.248 7.04612 417.445 6.47338C417.641 5.8921 417.932 5.37065 418.317 4.90904C418.701 4.44743 419.18 4.07986 419.753 3.80631C420.325 3.52422 420.988 3.38317 421.74 3.38317C422.492 3.38317 423.155 3.52422 423.728 3.80631C424.3 4.07986 424.779 4.44743 425.164 4.90904C425.548 5.37065 425.839 5.8921 426.036 6.47338C426.232 7.04612 426.331 7.63595 426.331 8.24288C426.331 8.8498 426.232 9.44391 426.036 10.0252C425.839 10.6065 425.548 11.1322 425.164 11.6024C424.779 12.064 424.3 12.4358 423.728 12.7179C423.155 12.9915 422.492 13.1282 421.74 13.1282ZM421.74 11.9614C422.279 11.9614 422.753 11.8588 423.163 11.6536C423.574 11.4485 423.916 11.1707 424.189 10.8202C424.471 10.4697 424.685 10.0722 424.83 9.6277C424.976 9.18319 425.048 8.72158 425.048 8.24288C425.048 7.77272 424.976 7.31966 424.83 6.8837C424.685 6.43919 424.471 6.04169 424.189 5.69121C423.916 5.34073 423.574 5.06291 423.163 4.85775C422.753 4.65259 422.279 4.55001 421.74 4.55001C421.202 4.55001 420.727 4.65259 420.317 4.85775C419.907 5.06291 419.56 5.34073 419.278 5.69121C419.005 6.04169 418.795 6.43919 418.65 6.8837C418.505 7.31966 418.432 7.77272 418.432 8.24288C418.432 8.72158 418.505 9.18319 418.65 9.6277C418.795 10.0722 419.005 10.4697 419.278 10.8202C419.56 11.1707 419.907 11.4485 420.317 11.6536C420.727 11.8588 421.202 11.9614 421.74 11.9614ZM427.166 13V3.5114H428.295L433.244 10.7304V3.5114L434.501 3.5114V13H433.372L428.423 5.79379V13H427.166ZM435.66 13V3.5114L441.687 3.5114V4.61413L436.917 4.61413V7.61458L441.097 7.61458V8.71731H436.917V11.8973H441.751V13H435.66ZM444.772 13V3.5114L446.426 3.5114L449.221 9.15327L452.003 3.5114L453.658 3.5114V13H452.427V5.35783L449.811 10.5637H448.618L446.003 5.33218V13H444.772ZM454.357 13L457.704 3.5114L459.281 3.5114L462.64 13H461.307L460.512 10.7304H456.485L455.69 13L454.357 13ZM456.87 9.60205H460.127L458.498 4.94751L456.87 9.60205ZM463.35 13V3.5114H464.478L469.427 10.7304V3.5114L470.684 3.5114V13H469.556L464.606 5.79379V13H463.35ZM476.113 13.1282C475.361 13.1282 474.699 12.9915 474.126 12.7179C473.553 12.4358 473.074 12.064 472.69 11.6024C472.305 11.1322 472.014 10.6065 471.818 10.0252C471.621 9.44391 471.523 8.8498 471.523 8.24288C471.523 7.63595 471.621 7.04612 471.818 6.47338C472.014 5.8921 472.305 5.37065 472.69 4.90904C473.074 4.44743 473.553 4.07986 474.126 3.80631C474.699 3.52422 475.361 3.38317 476.113 3.38317C476.866 3.38317 477.528 3.52422 478.101 3.80631C478.674 4.07986 479.152 4.44743 479.537 4.90904C479.922 5.37065 480.212 5.8921 480.409 6.47338C480.605 7.04612 480.704 7.63595 480.704 8.24288C480.704 8.8498 480.605 9.44391 480.409 10.0252C480.212 10.6065 479.922 11.1322 479.537 11.6024C479.152 12.064 478.674 12.4358 478.101 12.7179C477.528 12.9915 476.866 13.1282 476.113 13.1282ZM476.113 11.9614C476.652 11.9614 477.126 11.8588 477.537 11.6536C477.947 11.4485 478.289 11.1707 478.562 10.8202C478.844 10.4697 479.058 10.0722 479.204 9.6277C479.349 9.18319 479.422 8.72158 479.422 8.24288C479.422 7.77272 479.349 7.31966 479.204 6.8837C479.058 6.43919 478.844 6.04169 478.562 5.69121C478.289 5.34073 477.947 5.06291 477.537 4.85775C477.126 4.65259 476.652 4.55001 476.113 4.55001C475.575 4.55001 475.1 4.65259 474.69 4.85775C474.28 5.06291 473.934 5.34073 473.651 5.69121C473.378 6.04169 473.168 6.43919 473.023 6.8837C472.878 7.31966 472.805 7.77272 472.805 8.24288C472.805 8.72158 472.878 9.18319 473.023 9.6277C473.168 10.0722 473.378 10.4697 473.651 10.8202C473.934 11.1707 474.28 11.4485 474.69 11.6536C475.1 11.8588 475.575 11.9614 476.113 11.9614Z" fill="white"/>
<path d="M483.339 13.1816V7.52682H485.571C486.024 7.52682 486.401 7.61852 486.702 7.80192C487.002 7.98022 487.226 8.21457 487.374 8.50495C487.527 8.79024 487.603 9.08826 487.603 9.39902C487.603 9.70978 487.527 10.0104 487.374 10.3007C487.226 10.586 487.002 10.8204 486.702 11.0038C486.401 11.1872 486.024 11.2789 485.571 11.2789H484.379V13.1816H483.339ZM485.563 8.42853H484.379V10.3772H485.563C485.787 10.3772 485.973 10.3313 486.121 10.2396C486.269 10.1428 486.378 10.0205 486.449 9.8728C486.526 9.71997 486.564 9.56459 486.564 9.40666C486.564 9.24364 486.526 9.08826 486.449 8.94052C486.378 8.79278 486.269 8.67052 486.121 8.57372C485.973 8.47693 485.787 8.42853 485.563 8.42853ZM489.656 13.2581C489.212 13.2581 488.835 13.1587 488.525 12.96C488.214 12.7613 487.977 12.5041 487.814 12.1882C487.656 11.8673 487.577 11.5234 487.577 11.1566C487.577 10.7898 487.656 10.4485 487.814 10.1326C487.977 9.81167 488.214 9.55186 488.525 9.35317C488.835 9.15449 489.212 9.05515 489.656 9.05515C490.104 9.05515 490.481 9.15449 490.787 9.35317C491.097 9.55186 491.332 9.81167 491.49 10.1326C491.653 10.4485 491.734 10.7898 491.734 11.1566C491.734 11.5234 491.653 11.8673 491.49 12.1882C491.332 12.5041 491.097 12.7613 490.787 12.96C490.481 13.1587 490.104 13.2581 489.656 13.2581ZM489.656 12.4098C489.885 12.4098 490.076 12.3512 490.229 12.2341C490.387 12.1169 490.506 11.9641 490.588 11.7756C490.669 11.582 490.71 11.3757 490.71 11.1566C490.71 10.9324 490.669 10.7261 490.588 10.5376C490.506 10.3491 490.387 10.1963 490.229 10.0791C490.076 9.96196 489.885 9.90337 489.656 9.90337C489.432 9.90337 489.24 9.96196 489.083 10.0791C488.925 10.1963 488.805 10.3491 488.723 10.5376C488.642 10.7261 488.601 10.9324 488.601 11.1566C488.601 11.3757 488.642 11.582 488.723 11.7756C488.805 11.9641 488.925 12.1169 489.083 12.2341C489.24 12.3512 489.432 12.4098 489.656 12.4098ZM492.088 13.1816V9.13156H493.097V9.6894H493.135C493.207 9.53148 493.324 9.38629 493.487 9.25383C493.65 9.12138 493.894 9.05515 494.22 9.05515C494.322 9.05515 494.406 9.06279 494.473 9.07807C494.539 9.08826 494.572 9.09336 494.572 9.09336V10.0791C494.572 10.0791 494.534 10.074 494.457 10.0638C494.386 10.0537 494.297 10.0486 494.19 10.0486C493.833 10.0486 493.563 10.1479 493.38 10.3466C493.196 10.5453 493.105 10.8662 493.105 11.3094V13.1816H492.088ZM495.251 13.1816V9.94922H494.602V9.13156H495.251V8.75712C495.251 8.60429 495.271 8.44382 495.312 8.2757C495.353 8.10249 495.422 7.94201 495.519 7.79427C495.62 7.64654 495.76 7.52682 495.939 7.43512C496.122 7.34342 496.351 7.29757 496.627 7.29757C496.779 7.29757 496.904 7.3103 497.001 7.33578C497.103 7.35615 497.154 7.36634 497.154 7.36634V8.10758C497.154 8.10758 497.121 8.10249 497.054 8.0923C496.988 8.07702 496.917 8.06937 496.841 8.06937C496.621 8.06937 496.471 8.13305 496.39 8.26042C496.308 8.38778 496.267 8.55335 496.267 8.75712V9.13156H497.131V9.94922H496.267V13.1816H495.251ZM499.155 13.2581C498.712 13.2581 498.335 13.1587 498.024 12.96C497.713 12.7613 497.477 12.5041 497.314 12.1882C497.156 11.8673 497.077 11.5234 497.077 11.1566C497.077 10.7898 497.156 10.4485 497.314 10.1326C497.477 9.81167 497.713 9.55186 498.024 9.35317C498.335 9.15449 498.712 9.05515 499.155 9.05515C499.604 9.05515 499.981 9.15449 500.286 9.35317C500.597 9.55186 500.831 9.81167 500.989 10.1326C501.152 10.4485 501.234 10.7898 501.234 11.1566C501.234 11.5234 501.152 11.8673 500.989 12.1882C500.831 12.5041 500.597 12.7613 500.286 12.96C499.981 13.1587 499.604 13.2581 499.155 13.2581ZM499.155 12.4098C499.384 12.4098 499.576 12.3512 499.728 12.2341C499.886 12.1169 500.006 11.9641 500.087 11.7756C500.169 11.582 500.21 11.3757 500.21 11.1566C500.21 10.9324 500.169 10.7261 500.087 10.5376C500.006 10.3491 499.886 10.1963 499.728 10.0791C499.576 9.96196 499.384 9.90337 499.155 9.90337C498.931 9.90337 498.74 9.96196 498.582 10.0791C498.424 10.1963 498.304 10.3491 498.223 10.5376C498.141 10.7261 498.101 10.9324 498.101 11.1566C498.101 11.3757 498.141 11.582 498.223 11.7756C498.304 11.9641 498.424 12.1169 498.582 12.2341C498.74 12.3512 498.931 12.4098 499.155 12.4098ZM501.634 13.1816L501.642 7.37398H502.651V13.1816H501.634ZM503.754 8.50495C503.576 8.50495 503.428 8.44636 503.311 8.32919C503.199 8.21202 503.142 8.07192 503.142 7.9089C503.142 7.74588 503.199 7.60578 503.311 7.48861C503.428 7.37144 503.576 7.31285 503.754 7.31285C503.932 7.31285 504.08 7.37144 504.197 7.48861C504.314 7.60578 504.373 7.74588 504.373 7.9089C504.373 8.07192 504.314 8.21202 504.197 8.32919C504.08 8.44636 503.932 8.50495 503.754 8.50495ZM503.249 13.1816V9.13156H504.266V13.1816H503.249ZM506.804 13.2581C506.361 13.2581 505.984 13.1587 505.673 12.96C505.362 12.7613 505.125 12.5041 504.962 12.1882C504.804 11.8673 504.726 11.5234 504.726 11.1566C504.726 10.7898 504.804 10.4485 504.962 10.1326C505.125 9.81167 505.362 9.55186 505.673 9.35317C505.984 9.15449 506.361 9.05515 506.804 9.05515C507.252 9.05515 507.629 9.15449 507.935 9.35317C508.246 9.55186 508.48 9.81167 508.638 10.1326C508.801 10.4485 508.883 10.7898 508.883 11.1566C508.883 11.5234 508.801 11.8673 508.638 12.1882C508.48 12.5041 508.246 12.7613 507.935 12.96C507.629 13.1587 507.252 13.2581 506.804 13.2581ZM506.804 12.4098C507.033 12.4098 507.224 12.3512 507.377 12.2341C507.535 12.1169 507.655 11.9641 507.736 11.7756C507.818 11.582 507.859 11.3757 507.859 11.1566C507.859 10.9324 507.818 10.7261 507.736 10.5376C507.655 10.3491 507.535 10.1963 507.377 10.0791C507.224 9.96196 507.033 9.90337 506.804 9.90337C506.58 9.90337 506.389 9.96196 506.231 10.0791C506.073 10.1963 505.953 10.3491 505.872 10.5376C505.79 10.7261 505.749 10.9324 505.749 11.1566C505.749 11.3757 505.79 11.582 505.872 11.7756C505.953 11.9641 506.073 12.1169 506.231 12.2341C506.389 12.3512 506.58 12.4098 506.804 12.4098ZM509.978 13.2581C509.805 13.2581 509.662 13.1995 509.55 13.0823C509.438 12.96 509.382 12.8174 509.382 12.6544C509.382 12.4913 509.438 12.3512 509.55 12.2341C509.662 12.1169 509.805 12.0583 509.978 12.0583C510.151 12.0583 510.294 12.1169 510.406 12.2341C510.523 12.3512 510.582 12.4913 510.582 12.6544C510.582 12.8225 510.523 12.9651 510.406 13.0823C510.294 13.1995 510.151 13.2581 509.978 13.2581Z" fill="white"/>
<path d="M263.738 13V3.5114L264.994 3.5114V7.79409L269.097 3.52422L270.739 3.52422L266.302 8.07618L270.931 13H269.239L264.994 8.47368V13H263.738ZM275.049 13.1282C274.297 13.1282 273.634 12.9915 273.061 12.7179C272.489 12.4358 272.01 12.064 271.625 11.6024C271.241 11.1322 270.95 10.6065 270.753 10.0252C270.557 9.44391 270.458 8.8498 270.458 8.24288C270.458 7.63595 270.557 7.04612 270.753 6.47338C270.95 5.8921 271.241 5.37065 271.625 4.90904C272.01 4.44743 272.489 4.07986 273.061 3.80631C273.634 3.52422 274.297 3.38317 275.049 3.38317C275.801 3.38317 276.464 3.52422 277.036 3.80631C277.609 4.07986 278.088 4.44743 278.472 4.90904C278.857 5.37065 279.148 5.8921 279.344 6.47338C279.541 7.04612 279.639 7.63595 279.639 8.24288C279.639 8.8498 279.541 9.44391 279.344 10.0252C279.148 10.6065 278.857 11.1322 278.472 11.6024C278.088 12.064 277.609 12.4358 277.036 12.7179C276.464 12.9915 275.801 13.1282 275.049 13.1282ZM275.049 11.9614C275.587 11.9614 276.062 11.8588 276.472 11.6536C276.883 11.4485 277.224 11.1707 277.498 10.8202C277.78 10.4697 277.994 10.0722 278.139 9.6277C278.284 9.18319 278.357 8.72158 278.357 8.24288C278.357 7.77272 278.284 7.31966 278.139 6.8837C277.994 6.43919 277.78 6.04169 277.498 5.69121C277.224 5.34073 276.883 5.06291 276.472 4.85775C276.062 4.65259 275.587 4.55001 275.049 4.55001C274.51 4.55001 274.036 4.65259 273.626 4.85775C273.215 5.06291 272.869 5.34073 272.587 5.69121C272.313 6.04169 272.104 6.43919 271.959 6.8837C271.813 7.31966 271.741 7.77272 271.741 8.24288C271.741 8.72158 271.813 9.18319 271.959 9.6277C272.104 10.0722 272.313 10.4697 272.587 10.8202C272.869 11.1707 273.215 11.4485 273.626 11.6536C274.036 11.8588 274.51 11.9614 275.049 11.9614ZM282.087 13V4.61413L279.125 4.61413V3.5114L286.305 3.5114V4.61413H283.343V13H282.087ZM290.384 13.1282C289.631 13.1282 288.969 12.9915 288.396 12.7179C287.824 12.4358 287.345 12.064 286.96 11.6024C286.575 11.1322 286.285 10.6065 286.088 10.0252C285.892 9.44391 285.793 8.8498 285.793 8.24288C285.793 7.63595 285.892 7.04612 286.088 6.47338C286.285 5.8921 286.575 5.37065 286.96 4.90904C287.345 4.44743 287.824 4.07986 288.396 3.80631C288.969 3.52422 289.631 3.38317 290.384 3.38317C291.136 3.38317 291.798 3.52422 292.371 3.80631C292.944 4.07986 293.423 4.44743 293.807 4.90904C294.192 5.37065 294.483 5.8921 294.679 6.47338C294.876 7.04612 294.974 7.63595 294.974 8.24288C294.974 8.8498 294.876 9.44391 294.679 10.0252C294.483 10.6065 294.192 11.1322 293.807 11.6024C293.423 12.064 292.944 12.4358 292.371 12.7179C291.798 12.9915 291.136 13.1282 290.384 13.1282ZM290.384 11.9614C290.922 11.9614 291.397 11.8588 291.807 11.6536C292.217 11.4485 292.559 11.1707 292.833 10.8202C293.115 10.4697 293.329 10.0722 293.474 9.6277C293.619 9.18319 293.692 8.72158 293.692 8.24288C293.692 7.77272 293.619 7.31966 293.474 6.8837C293.329 6.43919 293.115 6.04169 292.833 5.69121C292.559 5.34073 292.217 5.06291 291.807 4.85775C291.397 4.65259 290.922 4.55001 290.384 4.55001C289.845 4.55001 289.371 4.65259 288.96 4.85775C288.55 5.06291 288.204 5.34073 287.922 5.69121C287.648 6.04169 287.439 6.43919 287.294 6.8837C287.148 7.31966 287.076 7.77272 287.076 8.24288C287.076 8.72158 287.148 9.18319 287.294 9.6277C287.439 10.0722 287.648 10.4697 287.922 10.8202C288.204 11.1707 288.55 11.4485 288.96 11.6536C289.371 11.8588 289.845 11.9614 290.384 11.9614ZM295.81 13V3.5114H296.938L301.888 10.7304V3.5114L303.144 3.5114V13H302.016L297.066 5.79379V13H295.81ZM304.304 13V3.5114L310.33 3.5114V4.61413L305.56 4.61413V7.61458L309.74 7.61458V8.71731H305.56V11.8973H310.394V13H304.304ZM313.415 13V3.5114L315.069 3.5114L317.865 9.15327L320.647 3.5114L322.301 3.5114V13H321.07V5.35783L318.454 10.5637H317.262L314.646 5.33218V13H313.415ZM323 13L326.347 3.5114L327.924 3.5114L331.284 13H329.95L329.155 10.7304H325.129L324.334 13L323 13ZM325.514 9.60205H328.771L327.142 4.94751L325.514 9.60205ZM331.993 13V3.5114H333.122L338.071 10.7304V3.5114L339.328 3.5114V13H338.199L333.25 5.79379V13H331.993ZM344.757 13.1282C344.005 13.1282 343.342 12.9915 342.769 12.7179C342.197 12.4358 341.718 12.064 341.333 11.6024C340.949 11.1322 340.658 10.6065 340.461 10.0252C340.265 9.44391 340.166 8.8498 340.166 8.24288C340.166 7.63595 340.265 7.04612 340.461 6.47338C340.658 5.8921 340.949 5.37065 341.333 4.90904C341.718 4.44743 342.197 4.07986 342.769 3.80631C343.342 3.52422 344.005 3.38317 344.757 3.38317C345.509 3.38317 346.172 3.52422 346.744 3.80631C347.317 4.07986 347.796 4.44743 348.18 4.90904C348.565 5.37065 348.856 5.8921 349.052 6.47338C349.249 7.04612 349.347 7.63595 349.347 8.24288C349.347 8.8498 349.249 9.44391 349.052 10.0252C348.856 10.6065 348.565 11.1322 348.18 11.6024C347.796 12.064 347.317 12.4358 346.744 12.7179C346.172 12.9915 345.509 13.1282 344.757 13.1282ZM344.757 11.9614C345.295 11.9614 345.77 11.8588 346.18 11.6536C346.59 11.4485 346.932 11.1707 347.206 10.8202C347.488 10.4697 347.702 10.0722 347.847 9.6277C347.992 9.18319 348.065 8.72158 348.065 8.24288C348.065 7.77272 347.992 7.31966 347.847 6.8837C347.702 6.43919 347.488 6.04169 347.206 5.69121C346.932 5.34073 346.59 5.06291 346.18 4.85775C345.77 4.65259 345.295 4.55001 344.757 4.55001C344.218 4.55001 343.744 4.65259 343.334 4.85775C342.923 5.06291 342.577 5.34073 342.295 5.69121C342.021 6.04169 341.812 6.43919 341.667 6.8837C341.521 7.31966 341.449 7.77272 341.449 8.24288C341.449 8.72158 341.521 9.18319 341.667 9.6277C341.812 10.0722 342.021 10.4697 342.295 10.8202C342.577 11.1707 342.923 11.4485 343.334 11.6536C343.744 11.8588 344.218 11.9614 344.757 11.9614Z" fill="white"/>
<path d="M351.983 13.1816V7.52682H354.214C354.668 7.52682 355.045 7.61852 355.345 7.80192C355.646 7.98022 355.87 8.21457 356.018 8.50495C356.17 8.79024 356.247 9.08826 356.247 9.39902C356.247 9.70978 356.17 10.0104 356.018 10.3007C355.87 10.586 355.646 10.8204 355.345 11.0038C355.045 11.1872 354.668 11.2789 354.214 11.2789H353.022V13.1816H351.983ZM354.207 8.42853H353.022V10.3772H354.207C354.431 10.3772 354.617 10.3313 354.764 10.2396C354.912 10.1428 355.022 10.0205 355.093 9.8728C355.169 9.71997 355.208 9.56459 355.208 9.40666C355.208 9.24364 355.169 9.08826 355.093 8.94052C355.022 8.79278 354.912 8.67052 354.764 8.57372C354.617 8.47693 354.431 8.42853 354.207 8.42853ZM358.299 13.2581C357.856 13.2581 357.479 13.1587 357.168 12.96C356.858 12.7613 356.621 12.5041 356.458 12.1882C356.3 11.8673 356.221 11.5234 356.221 11.1566C356.221 10.7898 356.3 10.4485 356.458 10.1326C356.621 9.81167 356.858 9.55186 357.168 9.35317C357.479 9.15449 357.856 9.05515 358.299 9.05515C358.748 9.05515 359.125 9.15449 359.43 9.35317C359.741 9.55186 359.975 9.81167 360.133 10.1326C360.296 10.4485 360.378 10.7898 360.378 11.1566C360.378 11.5234 360.296 11.8673 360.133 12.1882C359.975 12.5041 359.741 12.7613 359.43 12.96C359.125 13.1587 358.748 13.2581 358.299 13.2581ZM358.299 12.4098C358.528 12.4098 358.72 12.3512 358.872 12.2341C359.03 12.1169 359.15 11.9641 359.232 11.7756C359.313 11.582 359.354 11.3757 359.354 11.1566C359.354 10.9324 359.313 10.7261 359.232 10.5376C359.15 10.3491 359.03 10.1963 358.872 10.0791C358.72 9.96196 358.528 9.90337 358.299 9.90337C358.075 9.90337 357.884 9.96196 357.726 10.0791C357.568 10.1963 357.448 10.3491 357.367 10.5376C357.285 10.7261 357.245 10.9324 357.245 11.1566C357.245 11.3757 357.285 11.582 357.367 11.7756C357.448 11.9641 357.568 12.1169 357.726 12.2341C357.884 12.3512 358.075 12.4098 358.299 12.4098ZM360.732 13.1816V9.13156H361.741V9.6894H361.779C361.85 9.53148 361.967 9.38629 362.13 9.25383C362.293 9.12138 362.538 9.05515 362.864 9.05515C362.966 9.05515 363.05 9.06279 363.116 9.07807C363.182 9.08826 363.215 9.09336 363.215 9.09336V10.0791C363.215 10.0791 363.177 10.074 363.101 10.0638C363.03 10.0537 362.94 10.0486 362.833 10.0486C362.477 10.0486 362.207 10.1479 362.023 10.3466C361.84 10.5453 361.748 10.8662 361.748 11.3094V13.1816H360.732ZM363.895 13.1816V9.94922H363.245V9.13156H363.895V8.75712C363.895 8.60429 363.915 8.44382 363.956 8.2757C363.996 8.10249 364.065 7.94201 364.162 7.79427C364.264 7.64654 364.404 7.52682 364.582 7.43512C364.766 7.34342 364.995 7.29757 365.27 7.29757C365.423 7.29757 365.548 7.3103 365.645 7.33578C365.746 7.35615 365.797 7.36634 365.797 7.36634V8.10758C365.797 8.10758 365.764 8.10249 365.698 8.0923C365.632 8.07702 365.56 8.06937 365.484 8.06937C365.265 8.06937 365.115 8.13305 365.033 8.26042C364.952 8.38778 364.911 8.55335 364.911 8.75712V9.13156H365.774V9.94922H364.911V13.1816H363.895ZM367.799 13.2581C367.356 13.2581 366.979 13.1587 366.668 12.96C366.357 12.7613 366.12 12.5041 365.957 12.1882C365.799 11.8673 365.72 11.5234 365.72 11.1566C365.72 10.7898 365.799 10.4485 365.957 10.1326C366.12 9.81167 366.357 9.55186 366.668 9.35317C366.979 9.15449 367.356 9.05515 367.799 9.05515C368.247 9.05515 368.624 9.15449 368.93 9.35317C369.24 9.55186 369.475 9.81167 369.633 10.1326C369.796 10.4485 369.877 10.7898 369.877 11.1566C369.877 11.5234 369.796 11.8673 369.633 12.1882C369.475 12.5041 369.24 12.7613 368.93 12.96C368.624 13.1587 368.247 13.2581 367.799 13.2581ZM367.799 12.4098C368.028 12.4098 368.219 12.3512 368.372 12.2341C368.53 12.1169 368.65 11.9641 368.731 11.7756C368.813 11.582 368.853 11.3757 368.853 11.1566C368.853 10.9324 368.813 10.7261 368.731 10.5376C368.65 10.3491 368.53 10.1963 368.372 10.0791C368.219 9.96196 368.028 9.90337 367.799 9.90337C367.575 9.90337 367.384 9.96196 367.226 10.0791C367.068 10.1963 366.948 10.3491 366.866 10.5376C366.785 10.7261 366.744 10.9324 366.744 11.1566C366.744 11.3757 366.785 11.582 366.866 11.7756C366.948 11.9641 367.068 12.1169 367.226 12.2341C367.384 12.3512 367.575 12.4098 367.799 12.4098ZM370.278 13.1816L370.286 7.37398H371.294V13.1816H370.278ZM372.397 8.50495C372.219 8.50495 372.071 8.44636 371.954 8.32919C371.842 8.21202 371.786 8.07192 371.786 7.9089C371.786 7.74588 371.842 7.60578 371.954 7.48861C372.071 7.37144 372.219 7.31285 372.397 7.31285C372.576 7.31285 372.723 7.37144 372.841 7.48861C372.958 7.60578 373.016 7.74588 373.016 7.9089C373.016 8.07192 372.958 8.21202 372.841 8.32919C372.723 8.44636 372.576 8.50495 372.397 8.50495ZM371.893 13.1816V9.13156H372.909V13.1816H371.893ZM375.448 13.2581C375.004 13.2581 374.627 13.1587 374.317 12.96C374.006 12.7613 373.769 12.5041 373.606 12.1882C373.448 11.8673 373.369 11.5234 373.369 11.1566C373.369 10.7898 373.448 10.4485 373.606 10.1326C373.769 9.81167 374.006 9.55186 374.317 9.35317C374.627 9.15449 375.004 9.05515 375.448 9.05515C375.896 9.05515 376.273 9.15449 376.579 9.35317C376.889 9.55186 377.124 9.81167 377.282 10.1326C377.445 10.4485 377.526 10.7898 377.526 11.1566C377.526 11.5234 377.445 11.8673 377.282 12.1882C377.124 12.5041 376.889 12.7613 376.579 12.96C376.273 13.1587 375.896 13.2581 375.448 13.2581ZM375.448 12.4098C375.677 12.4098 375.868 12.3512 376.021 12.2341C376.179 12.1169 376.298 11.9641 376.38 11.7756C376.461 11.582 376.502 11.3757 376.502 11.1566C376.502 10.9324 376.461 10.7261 376.38 10.5376C376.298 10.3491 376.179 10.1963 376.021 10.0791C375.868 9.96196 375.677 9.90337 375.448 9.90337C375.223 9.90337 375.032 9.96196 374.874 10.0791C374.717 10.1963 374.597 10.3491 374.515 10.5376C374.434 10.7261 374.393 10.9324 374.393 11.1566C374.393 11.3757 374.434 11.582 374.515 11.7756C374.597 11.9641 374.717 12.1169 374.874 12.2341C375.032 12.3512 375.223 12.4098 375.448 12.4098ZM378.622 13.2581C378.448 13.2581 378.306 13.1995 378.194 13.0823C378.081 12.96 378.025 12.8174 378.025 12.6544C378.025 12.4913 378.081 12.3512 378.194 12.2341C378.306 12.1169 378.448 12.0583 378.622 12.0583C378.795 12.0583 378.937 12.1169 379.049 12.2341C379.167 12.3512 379.225 12.4913 379.225 12.6544C379.225 12.8225 379.167 12.9651 379.049 13.0823C378.937 13.1995 378.795 13.2581 378.622 13.2581Z" fill="white"/>
<path d="M132.382 13V3.5114L133.639 3.5114V7.79409L137.742 3.52422L139.383 3.52422L134.947 8.07618L139.576 13H137.883L133.639 8.47368V13H132.382ZM143.693 13.1282C142.941 13.1282 142.279 12.9915 141.706 12.7179C141.133 12.4358 140.655 12.064 140.27 11.6024C139.885 11.1322 139.595 10.6065 139.398 10.0252C139.201 9.44391 139.103 8.8498 139.103 8.24288C139.103 7.63595 139.201 7.04612 139.398 6.47338C139.595 5.8921 139.885 5.37065 140.27 4.90904C140.655 4.44743 141.133 4.07986 141.706 3.80631C142.279 3.52422 142.941 3.38317 143.693 3.38317C144.446 3.38317 145.108 3.52422 145.681 3.80631C146.254 4.07986 146.732 4.44743 147.117 4.90904C147.502 5.37065 147.792 5.8921 147.989 6.47338C148.186 7.04612 148.284 7.63595 148.284 8.24288C148.284 8.8498 148.186 9.44391 147.989 10.0252C147.792 10.6065 147.502 11.1322 147.117 11.6024C146.732 12.064 146.254 12.4358 145.681 12.7179C145.108 12.9915 144.446 13.1282 143.693 13.1282ZM143.693 11.9614C144.232 11.9614 144.706 11.8588 145.117 11.6536C145.527 11.4485 145.869 11.1707 146.143 10.8202C146.425 10.4697 146.638 10.0722 146.784 9.6277C146.929 9.18319 147.002 8.72158 147.002 8.24288C147.002 7.77272 146.929 7.31966 146.784 6.8837C146.638 6.43919 146.425 6.04169 146.143 5.69121C145.869 5.34073 145.527 5.06291 145.117 4.85775C144.706 4.65259 144.232 4.55001 143.693 4.55001C143.155 4.55001 142.68 4.65259 142.27 4.85775C141.86 5.06291 141.514 5.34073 141.232 5.69121C140.958 6.04169 140.749 6.43919 140.603 6.8837C140.458 7.31966 140.385 7.77272 140.385 8.24288C140.385 8.72158 140.458 9.18319 140.603 9.6277C140.749 10.0722 140.958 10.4697 141.232 10.8202C141.514 11.1707 141.86 11.4485 142.27 11.6536C142.68 11.8588 143.155 11.9614 143.693 11.9614ZM150.731 13V4.61413L147.769 4.61413V3.5114L154.95 3.5114V4.61413H151.988V13H150.731ZM159.028 13.1282C158.276 13.1282 157.614 12.9915 157.041 12.7179C156.468 12.4358 155.989 12.064 155.605 11.6024C155.22 11.1322 154.929 10.6065 154.733 10.0252C154.536 9.44391 154.438 8.8498 154.438 8.24288C154.438 7.63595 154.536 7.04612 154.733 6.47338C154.929 5.8921 155.22 5.37065 155.605 4.90904C155.989 4.44743 156.468 4.07986 157.041 3.80631C157.614 3.52422 158.276 3.38317 159.028 3.38317C159.781 3.38317 160.443 3.52422 161.016 3.80631C161.588 4.07986 162.067 4.44743 162.452 4.90904C162.837 5.37065 163.127 5.8921 163.324 6.47338C163.52 7.04612 163.619 7.63595 163.619 8.24288C163.619 8.8498 163.52 9.44391 163.324 10.0252C163.127 10.6065 162.837 11.1322 162.452 11.6024C162.067 12.064 161.588 12.4358 161.016 12.7179C160.443 12.9915 159.781 13.1282 159.028 13.1282ZM159.028 11.9614C159.567 11.9614 160.041 11.8588 160.452 11.6536C160.862 11.4485 161.204 11.1707 161.477 10.8202C161.759 10.4697 161.973 10.0722 162.118 9.6277C162.264 9.18319 162.336 8.72158 162.336 8.24288C162.336 7.77272 162.264 7.31966 162.118 6.8837C161.973 6.43919 161.759 6.04169 161.477 5.69121C161.204 5.34073 160.862 5.06291 160.452 4.85775C160.041 4.65259 159.567 4.55001 159.028 4.55001C158.49 4.55001 158.015 4.65259 157.605 4.85775C157.195 5.06291 156.848 5.34073 156.566 5.69121C156.293 6.04169 156.083 6.43919 155.938 6.8837C155.793 7.31966 155.72 7.77272 155.72 8.24288C155.72 8.72158 155.793 9.18319 155.938 9.6277C156.083 10.0722 156.293 10.4697 156.566 10.8202C156.848 11.1707 157.195 11.4485 157.605 11.6536C158.015 11.8588 158.49 11.9614 159.028 11.9614ZM164.454 13V3.5114H165.583L170.532 10.7304V3.5114L171.789 3.5114V13H170.66L165.711 5.79379V13H164.454ZM172.948 13V3.5114L178.975 3.5114V4.61413L174.205 4.61413V7.61458L178.385 7.61458V8.71731H174.205V11.8973H179.039V13H172.948ZM182.06 13V3.5114L183.714 3.5114L186.509 9.15327L189.292 3.5114L190.946 3.5114V13H189.715V5.35783L187.099 10.5637H185.906L183.291 5.33218V13H182.06ZM191.645 13L194.992 3.5114L196.569 3.5114L199.928 13H198.595L197.8 10.7304H193.773L192.978 13L191.645 13ZM194.158 9.60205H197.415L195.787 4.94751L194.158 9.60205ZM200.638 13V3.5114H201.766L206.716 10.7304V3.5114L207.972 3.5114V13H206.844L201.894 5.79379V13H200.638ZM213.401 13.1282C212.649 13.1282 211.987 12.9915 211.414 12.7179C210.841 12.4358 210.362 12.064 209.978 11.6024C209.593 11.1322 209.302 10.6065 209.106 10.0252C208.909 9.44391 208.811 8.8498 208.811 8.24288C208.811 7.63595 208.909 7.04612 209.106 6.47338C209.302 5.8921 209.593 5.37065 209.978 4.90904C210.362 4.44743 210.841 4.07986 211.414 3.80631C211.987 3.52422 212.649 3.38317 213.401 3.38317C214.154 3.38317 214.816 3.52422 215.389 3.80631C215.962 4.07986 216.44 4.44743 216.825 4.90904C217.21 5.37065 217.5 5.8921 217.697 6.47338C217.894 7.04612 217.992 7.63595 217.992 8.24288C217.992 8.8498 217.894 9.44391 217.697 10.0252C217.5 10.6065 217.21 11.1322 216.825 11.6024C216.44 12.064 215.962 12.4358 215.389 12.7179C214.816 12.9915 214.154 13.1282 213.401 13.1282ZM213.401 11.9614C213.94 11.9614 214.414 11.8588 214.825 11.6536C215.235 11.4485 215.577 11.1707 215.85 10.8202C216.133 10.4697 216.346 10.0722 216.492 9.6277C216.637 9.18319 216.71 8.72158 216.71 8.24288C216.71 7.77272 216.637 7.31966 216.492 6.8837C216.346 6.43919 216.133 6.04169 215.85 5.69121C215.577 5.34073 215.235 5.06291 214.825 4.85775C214.414 4.65259 213.94 4.55001 213.401 4.55001C212.863 4.55001 212.388 4.65259 211.978 4.85775C211.568 5.06291 211.222 5.34073 210.939 5.69121C210.666 6.04169 210.457 6.43919 210.311 6.8837C210.166 7.31966 210.093 7.77272 210.093 8.24288C210.093 8.72158 210.166 9.18319 210.311 9.6277C210.457 10.0722 210.666 10.4697 210.939 10.8202C211.222 11.1707 211.568 11.4485 211.978 11.6536C212.388 11.8588 212.863 11.9614 213.401 11.9614Z" fill="white"/>
<path d="M220.627 13.1816V7.52682H222.859C223.312 7.52682 223.689 7.61852 223.99 7.80192C224.29 7.98022 224.514 8.21457 224.662 8.50495C224.815 8.79024 224.891 9.08826 224.891 9.39902C224.891 9.70978 224.815 10.0104 224.662 10.3007C224.514 10.586 224.29 10.8204 223.99 11.0038C223.689 11.1872 223.312 11.2789 222.859 11.2789H221.667V13.1816H220.627ZM222.851 8.42853H221.667V10.3772H222.851C223.075 10.3772 223.261 10.3313 223.409 10.2396C223.557 10.1428 223.666 10.0205 223.738 9.8728C223.814 9.71997 223.852 9.56459 223.852 9.40666C223.852 9.24364 223.814 9.08826 223.738 8.94052C223.666 8.79278 223.557 8.67052 223.409 8.57372C223.261 8.47693 223.075 8.42853 222.851 8.42853ZM226.944 13.2581C226.501 13.2581 226.124 13.1587 225.813 12.96C225.502 12.7613 225.265 12.5041 225.102 12.1882C224.944 11.8673 224.865 11.5234 224.865 11.1566C224.865 10.7898 224.944 10.4485 225.102 10.1326C225.265 9.81167 225.502 9.55186 225.813 9.35317C226.124 9.15449 226.501 9.05515 226.944 9.05515C227.392 9.05515 227.769 9.15449 228.075 9.35317C228.385 9.55186 228.62 9.81167 228.778 10.1326C228.941 10.4485 229.022 10.7898 229.022 11.1566C229.022 11.5234 228.941 11.8673 228.778 12.1882C228.62 12.5041 228.385 12.7613 228.075 12.96C227.769 13.1587 227.392 13.2581 226.944 13.2581ZM226.944 12.4098C227.173 12.4098 227.364 12.3512 227.517 12.2341C227.675 12.1169 227.795 11.9641 227.876 11.7756C227.958 11.582 227.998 11.3757 227.998 11.1566C227.998 10.9324 227.958 10.7261 227.876 10.5376C227.795 10.3491 227.675 10.1963 227.517 10.0791C227.364 9.96196 227.173 9.90337 226.944 9.90337C226.72 9.90337 226.529 9.96196 226.371 10.0791C226.213 10.1963 226.093 10.3491 226.011 10.5376C225.93 10.7261 225.889 10.9324 225.889 11.1566C225.889 11.3757 225.93 11.582 226.011 11.7756C226.093 11.9641 226.213 12.1169 226.371 12.2341C226.529 12.3512 226.72 12.4098 226.944 12.4098ZM229.376 13.1816V9.13156H230.385V9.6894H230.423C230.495 9.53148 230.612 9.38629 230.775 9.25383C230.938 9.12138 231.182 9.05515 231.508 9.05515C231.61 9.05515 231.694 9.06279 231.761 9.07807C231.827 9.08826 231.86 9.09336 231.86 9.09336V10.0791C231.86 10.0791 231.822 10.074 231.745 10.0638C231.674 10.0537 231.585 10.0486 231.478 10.0486C231.121 10.0486 230.851 10.1479 230.668 10.3466C230.484 10.5453 230.393 10.8662 230.393 11.3094V13.1816H229.376ZM232.539 13.1816V9.94922H231.89V9.13156H232.539V8.75712C232.539 8.60429 232.56 8.44382 232.6 8.2757C232.641 8.10249 232.71 7.94201 232.807 7.79427C232.908 7.64654 233.049 7.52682 233.227 7.43512C233.41 7.34342 233.64 7.29757 233.915 7.29757C234.067 7.29757 234.192 7.3103 234.289 7.33578C234.391 7.35615 234.442 7.36634 234.442 7.36634V8.10758C234.442 8.10758 234.409 8.10249 234.343 8.0923C234.276 8.07702 234.205 8.06937 234.129 8.06937C233.91 8.06937 233.759 8.13305 233.678 8.26042C233.596 8.38778 233.555 8.55335 233.555 8.75712V9.13156H234.419V9.94922H233.555V13.1816H232.539ZM236.443 13.2581C236 13.2581 235.623 13.1587 235.312 12.96C235.002 12.7613 234.765 12.5041 234.602 12.1882C234.444 11.8673 234.365 11.5234 234.365 11.1566C234.365 10.7898 234.444 10.4485 234.602 10.1326C234.765 9.81167 235.002 9.55186 235.312 9.35317C235.623 9.15449 236 9.05515 236.443 9.05515C236.892 9.05515 237.269 9.15449 237.574 9.35317C237.885 9.55186 238.119 9.81167 238.277 10.1326C238.44 10.4485 238.522 10.7898 238.522 11.1566C238.522 11.5234 238.44 11.8673 238.277 12.1882C238.119 12.5041 237.885 12.7613 237.574 12.96C237.269 13.1587 236.892 13.2581 236.443 13.2581ZM236.443 12.4098C236.673 12.4098 236.864 12.3512 237.016 12.2341C237.174 12.1169 237.294 11.9641 237.376 11.7756C237.457 11.582 237.498 11.3757 237.498 11.1566C237.498 10.9324 237.457 10.7261 237.376 10.5376C237.294 10.3491 237.174 10.1963 237.016 10.0791C236.864 9.96196 236.673 9.90337 236.443 9.90337C236.219 9.90337 236.028 9.96196 235.87 10.0791C235.712 10.1963 235.593 10.3491 235.511 10.5376C235.43 10.7261 235.389 10.9324 235.389 11.1566C235.389 11.3757 235.43 11.582 235.511 11.7756C235.593 11.9641 235.712 12.1169 235.87 12.2341C236.028 12.3512 236.219 12.4098 236.443 12.4098ZM238.923 13.1816L238.93 7.37398H239.939V13.1816H238.923ZM241.042 8.50495C240.864 8.50495 240.716 8.44636 240.599 8.32919C240.487 8.21202 240.431 8.07192 240.431 7.9089C240.431 7.74588 240.487 7.60578 240.599 7.48861C240.716 7.37144 240.864 7.31285 241.042 7.31285C241.22 7.31285 241.368 7.37144 241.485 7.48861C241.602 7.60578 241.661 7.74588 241.661 7.9089C241.661 8.07192 241.602 8.21202 241.485 8.32919C241.368 8.44636 241.22 8.50495 241.042 8.50495ZM240.538 13.1816V9.13156H241.554V13.1816H240.538ZM244.092 13.2581C243.649 13.2581 243.272 13.1587 242.961 12.96C242.65 12.7613 242.414 12.5041 242.25 12.1882C242.093 11.8673 242.014 11.5234 242.014 11.1566C242.014 10.7898 242.093 10.4485 242.25 10.1326C242.414 9.81167 242.65 9.55186 242.961 9.35317C243.272 9.15449 243.649 9.05515 244.092 9.05515C244.54 9.05515 244.917 9.15449 245.223 9.35317C245.534 9.55186 245.768 9.81167 245.926 10.1326C246.089 10.4485 246.171 10.7898 246.171 11.1566C246.171 11.5234 246.089 11.8673 245.926 12.1882C245.768 12.5041 245.534 12.7613 245.223 12.96C244.917 13.1587 244.54 13.2581 244.092 13.2581ZM244.092 12.4098C244.321 12.4098 244.512 12.3512 244.665 12.2341C244.823 12.1169 244.943 11.9641 245.024 11.7756C245.106 11.582 245.147 11.3757 245.147 11.1566C245.147 10.9324 245.106 10.7261 245.024 10.5376C244.943 10.3491 244.823 10.1963 244.665 10.0791C244.512 9.96196 244.321 9.90337 244.092 9.90337C243.868 9.90337 243.677 9.96196 243.519 10.0791C243.361 10.1963 243.241 10.3491 243.16 10.5376C243.078 10.7261 243.038 10.9324 243.038 11.1566C243.038 11.3757 243.078 11.582 243.16 11.7756C243.241 11.9641 243.361 12.1169 243.519 12.2341C243.677 12.3512 243.868 12.4098 244.092 12.4098ZM247.266 13.2581C247.093 13.2581 246.95 13.1995 246.838 13.0823C246.726 12.96 246.67 12.8174 246.67 12.6544C246.67 12.4913 246.726 12.3512 246.838 12.2341C246.95 12.1169 247.093 12.0583 247.266 12.0583C247.439 12.0583 247.582 12.1169 247.694 12.2341C247.811 12.3512 247.87 12.4913 247.87 12.6544C247.87 12.8225 247.811 12.9651 247.694 13.0823C247.582 13.1995 247.439 13.2581 247.266 13.2581Z" fill="white"/>
<path d="M1.02579 13L1.02579 3.5114L2.28239 3.5114L2.28239 7.79409L6.38557 3.52422L8.02685 3.52422L3.59028 8.07618L8.21918 13H6.52662L2.28239 8.47368L2.28239 13H1.02579ZM12.337 13.1282C11.5847 13.1282 10.9222 12.9915 10.3495 12.7179C9.77677 12.4358 9.29807 12.064 8.9134 11.6024C8.52872 11.1322 8.23808 10.6065 8.04147 10.0252C7.84486 9.44391 7.74655 8.8498 7.74655 8.24288C7.74655 7.63595 7.84486 7.04612 8.04147 6.47338C8.23808 5.8921 8.52872 5.37065 8.9134 4.90904C9.29807 4.44743 9.77677 4.07986 10.3495 3.80631C10.9222 3.52422 11.5847 3.38317 12.337 3.38317C13.0892 3.38317 13.7517 3.52422 14.3245 3.80631C14.8972 4.07986 15.3759 4.44743 15.7606 4.90904C16.1453 5.37065 16.4359 5.8921 16.6325 6.47338C16.8291 7.04612 16.9274 7.63595 16.9274 8.24288C16.9274 8.8498 16.8291 9.44391 16.6325 10.0252C16.4359 10.6065 16.1453 11.1322 15.7606 11.6024C15.3759 12.064 14.8972 12.4358 14.3245 12.7179C13.7517 12.9915 13.0892 13.1282 12.337 13.1282ZM12.337 11.9614C12.8755 11.9614 13.35 11.8588 13.7603 11.6536C14.1706 11.4485 14.5125 11.1707 14.7861 10.8202C15.0682 10.4697 15.2819 10.0722 15.4272 9.6277C15.5725 9.18319 15.6452 8.72158 15.6452 8.24288C15.6452 7.77272 15.5725 7.31966 15.4272 6.8837C15.2819 6.43919 15.0682 6.04169 14.7861 5.69121C14.5125 5.34073 14.1706 5.06291 13.7603 4.85775C13.35 4.65259 12.8755 4.55001 12.337 4.55001C11.7984 4.55001 11.324 4.65259 10.9137 4.85775C10.5034 5.06291 10.1572 5.34073 9.87508 5.69121C9.60153 6.04169 9.3921 6.43919 9.24678 6.8837C9.10146 7.31966 9.0288 7.77272 9.0288 8.24288C9.0288 8.72158 9.10146 9.18319 9.24678 9.6277C9.3921 10.0722 9.60153 10.4697 9.87508 10.8202C10.1572 11.1707 10.5034 11.4485 10.9137 11.6536C11.324 11.8588 11.7984 11.9614 12.337 11.9614ZM19.3747 13L19.3747 4.61413L16.4127 4.61413V3.5114L23.5933 3.5114V4.61413H20.6313L20.6313 13H19.3747ZM27.6718 13.1282C26.9196 13.1282 26.2571 12.9915 25.6843 12.7179C25.1116 12.4358 24.6329 12.064 24.2482 11.6024C23.8636 11.1322 23.5729 10.6065 23.3763 10.0252C23.1797 9.44391 23.0814 8.8498 23.0814 8.24288C23.0814 7.63595 23.1797 7.04612 23.3763 6.47338C23.5729 5.8921 23.8636 5.37065 24.2482 4.90904C24.6329 4.44743 25.1116 4.07986 25.6843 3.80631C26.2571 3.52422 26.9196 3.38317 27.6718 3.38317C28.4241 3.38317 29.0866 3.52422 29.6593 3.80631C30.232 4.07986 30.7107 4.44743 31.0954 4.90904C31.4801 5.37065 31.7707 5.8921 31.9673 6.47338C32.1639 7.04612 32.2623 7.63595 32.2623 8.24288C32.2623 8.8498 32.1639 9.44391 31.9673 10.0252C31.7707 10.6065 31.4801 11.1322 31.0954 11.6024C30.7107 12.064 30.232 12.4358 29.6593 12.7179C29.0866 12.9915 28.4241 13.1282 27.6718 13.1282ZM27.6718 11.9614C28.2104 11.9614 28.6848 11.8588 29.0951 11.6536C29.5054 11.4485 29.8474 11.1707 30.1209 10.8202C30.403 10.4697 30.6167 10.0722 30.762 9.6277C30.9073 9.18319 30.98 8.72158 30.98 8.24288C30.98 7.77272 30.9073 7.31966 30.762 6.8837C30.6167 6.43919 30.403 6.04169 30.1209 5.69121C29.8474 5.34073 29.5054 5.06291 29.0951 4.85775C28.6848 4.65259 28.2104 4.55001 27.6718 4.55001C27.1333 4.55001 26.6588 4.65259 26.2485 4.85775C25.8382 5.06291 25.492 5.34073 25.2099 5.69121C24.9364 6.04169 24.7269 6.43919 24.5816 6.8837C24.4363 7.31966 24.3636 7.77272 24.3636 8.24288C24.3636 8.72158 24.4363 9.18319 24.5816 9.6277C24.7269 10.0722 24.9364 10.4697 25.2099 10.8202C25.492 11.1707 25.8382 11.4485 26.2485 11.6536C26.6588 11.8588 27.1333 11.9614 27.6718 11.9614ZM33.0979 13V3.5114H34.2263L39.1758 10.7304V3.5114L40.4323 3.5114V13H39.304L34.3545 5.79379V13H33.0979ZM41.5918 13V3.5114L47.6183 3.5114V4.61413L42.8484 4.61413V7.61458L47.0285 7.61458V8.71731H42.8484V11.8973H47.6824V13H41.5918ZM50.7032 13V3.5114L52.3573 3.5114L55.1526 9.15327L57.9351 3.5114L59.5892 3.5114V13H58.3582V5.35783L55.7424 10.5637H54.55L51.9342 5.33218V13H50.7032ZM60.2885 13L63.6351 3.5114L65.2123 3.5114L68.5718 13H67.2383L66.4433 10.7304H62.417L61.622 13L60.2885 13ZM62.8017 9.60205H66.0586L64.4301 4.94751L62.8017 9.60205ZM69.2812 13V3.5114H70.4096L75.3591 10.7304V3.5114L76.6157 3.5114V13H75.4873L70.5378 5.79379V13H69.2812ZM82.045 13.1282C81.2927 13.1282 80.6302 12.9915 80.0575 12.7179C79.4847 12.4358 79.006 12.064 78.6214 11.6024C78.2367 11.1322 77.9461 10.6065 77.7494 10.0252C77.5528 9.44391 77.4545 8.8498 77.4545 8.24288C77.4545 7.63595 77.5528 7.04612 77.7494 6.47338C77.9461 5.8921 78.2367 5.37065 78.6214 4.90904C79.006 4.44743 79.4847 4.07986 80.0575 3.80631C80.6302 3.52422 81.2927 3.38317 82.045 3.38317C82.7972 3.38317 83.4597 3.52422 84.0324 3.80631C84.6052 4.07986 85.0839 4.44743 85.4685 4.90904C85.8532 5.37065 86.1439 5.8921 86.3405 6.47338C86.5371 7.04612 86.6354 7.63595 86.6354 8.24288C86.6354 8.8498 86.5371 9.44391 86.3405 10.0252C86.1439 10.6065 85.8532 11.1322 85.4685 11.6024C85.0839 12.064 84.6052 12.4358 84.0324 12.7179C83.4597 12.9915 82.7972 13.1282 82.045 13.1282ZM82.045 11.9614C82.5835 11.9614 83.0579 11.8588 83.4682 11.6536C83.8786 11.4485 84.2205 11.1707 84.494 10.8202C84.7761 10.4697 84.9898 10.0722 85.1352 9.6277C85.2805 9.18319 85.3531 8.72158 85.3531 8.24288C85.3531 7.77272 85.2805 7.31966 85.1352 6.8837C84.9898 6.43919 84.7761 6.04169 84.494 5.69121C84.2205 5.34073 83.8786 5.06291 83.4682 4.85775C83.0579 4.65259 82.5835 4.55001 82.045 4.55001C81.5064 4.55001 81.032 4.65259 80.6217 4.85775C80.2113 5.06291 79.8651 5.34073 79.583 5.69121C79.3095 6.04169 79.1001 6.43919 78.9547 6.8837C78.8094 7.31966 78.7368 7.77272 78.7368 8.24288C78.7368 8.72158 78.8094 9.18319 78.9547 9.6277C79.1001 10.0722 79.3095 10.4697 79.583 10.8202C79.8651 11.1707 80.2113 11.4485 80.6217 11.6536C81.032 11.8588 81.5064 11.9614 82.045 11.9614Z" fill="white"/>
<path d="M89.2709 13.1816V7.52682H91.5023C91.9557 7.52682 92.3327 7.61852 92.6332 7.80192C92.9338 7.98022 93.158 8.21457 93.3057 8.50495C93.4585 8.79024 93.5349 9.08826 93.5349 9.39902C93.5349 9.70978 93.4585 10.0104 93.3057 10.3007C93.158 10.586 92.9338 10.8204 92.6332 11.0038C92.3327 11.1872 91.9557 11.2789 91.5023 11.2789H90.3102V13.1816H89.2709ZM91.4946 8.42853H90.3102V10.3772H91.4946C91.7188 10.3772 91.9047 10.3313 92.0525 10.2396C92.2002 10.1428 92.3097 10.0205 92.3811 9.8728C92.4575 9.71997 92.4957 9.56459 92.4957 9.40666C92.4957 9.24364 92.4575 9.08826 92.3811 8.94052C92.3097 8.79278 92.2002 8.67052 92.0525 8.57372C91.9047 8.47693 91.7188 8.42853 91.4946 8.42853ZM95.5873 13.2581C95.1441 13.2581 94.7671 13.1587 94.4564 12.96C94.1456 12.7613 93.9087 12.5041 93.7457 12.1882C93.5878 11.8673 93.5088 11.5234 93.5088 11.1566C93.5088 10.7898 93.5878 10.4485 93.7457 10.1326C93.9087 9.81167 94.1456 9.55186 94.4564 9.35317C94.7671 9.15449 95.1441 9.05515 95.5873 9.05515C96.0356 9.05515 96.4126 9.15449 96.7183 9.35317C97.0291 9.55186 97.2634 9.81167 97.4213 10.1326C97.5843 10.4485 97.6659 10.7898 97.6659 11.1566C97.6659 11.5234 97.5843 11.8673 97.4213 12.1882C97.2634 12.5041 97.0291 12.7613 96.7183 12.96C96.4126 13.1587 96.0356 13.2581 95.5873 13.2581ZM95.5873 12.4098C95.8166 12.4098 96.0076 12.3512 96.1604 12.2341C96.3184 12.1169 96.4381 11.9641 96.5196 11.7756C96.6011 11.582 96.6419 11.3757 96.6419 11.1566C96.6419 10.9324 96.6011 10.7261 96.5196 10.5376C96.4381 10.3491 96.3184 10.1963 96.1604 10.0791C96.0076 9.96196 95.8166 9.90337 95.5873 9.90337C95.3632 9.90337 95.1721 9.96196 95.0142 10.0791C94.8563 10.1963 94.7366 10.3491 94.655 10.5376C94.5735 10.7261 94.5328 10.9324 94.5328 11.1566C94.5328 11.3757 94.5735 11.582 94.655 11.7756C94.7366 11.9641 94.8563 12.1169 95.0142 12.2341C95.1721 12.3512 95.3632 12.4098 95.5873 12.4098ZM98.02 13.1816V9.13156H99.0287V9.6894H99.0669C99.1382 9.53148 99.2554 9.38629 99.4184 9.25383C99.5814 9.12138 99.826 9.05515 100.152 9.05515C100.254 9.05515 100.338 9.06279 100.404 9.07807C100.47 9.08826 100.504 9.09336 100.504 9.09336V10.0791C100.504 10.0791 100.465 10.074 100.389 10.0638C100.318 10.0537 100.228 10.0486 100.121 10.0486C99.7648 10.0486 99.4948 10.1479 99.3114 10.3466C99.128 10.5453 99.0363 10.8662 99.0363 11.3094V13.1816H98.02ZM101.183 13.1816V9.94922H100.533V9.13156H101.183V8.75712C101.183 8.60429 101.203 8.44382 101.244 8.2757C101.285 8.10249 101.353 7.94201 101.45 7.79427C101.552 7.64654 101.692 7.52682 101.87 7.43512C102.054 7.34342 102.283 7.29757 102.558 7.29757C102.711 7.29757 102.836 7.3103 102.933 7.33578C103.035 7.35615 103.085 7.36634 103.085 7.36634V8.10758C103.085 8.10758 103.052 8.10249 102.986 8.0923C102.92 8.07702 102.849 8.06937 102.772 8.06937C102.553 8.06937 102.403 8.13305 102.321 8.26042C102.24 8.38778 102.199 8.55335 102.199 8.75712V9.13156H103.063V9.94922H102.199V13.1816H101.183ZM105.087 13.2581C104.644 13.2581 104.267 13.1587 103.956 12.96C103.645 12.7613 103.408 12.5041 103.245 12.1882C103.087 11.8673 103.008 11.5234 103.008 11.1566C103.008 10.7898 103.087 10.4485 103.245 10.1326C103.408 9.81167 103.645 9.55186 103.956 9.35317C104.267 9.15449 104.644 9.05515 105.087 9.05515C105.535 9.05515 105.912 9.15449 106.218 9.35317C106.529 9.55186 106.763 9.81167 106.921 10.1326C107.084 10.4485 107.165 10.7898 107.165 11.1566C107.165 11.5234 107.084 11.8673 106.921 12.1882C106.763 12.5041 106.529 12.7613 106.218 12.96C105.912 13.1587 105.535 13.2581 105.087 13.2581ZM105.087 12.4098C105.316 12.4098 105.507 12.3512 105.66 12.2341C105.818 12.1169 105.938 11.9641 106.019 11.7756C106.101 11.582 106.141 11.3757 106.141 11.1566C106.141 10.9324 106.101 10.7261 106.019 10.5376C105.938 10.3491 105.818 10.1963 105.66 10.0791C105.507 9.96196 105.316 9.90337 105.087 9.90337C104.863 9.90337 104.672 9.96196 104.514 10.0791C104.356 10.1963 104.236 10.3491 104.155 10.5376C104.073 10.7261 104.032 10.9324 104.032 11.1566C104.032 11.3757 104.073 11.582 104.155 11.7756C104.236 11.9641 104.356 12.1169 104.514 12.2341C104.672 12.3512 104.863 12.4098 105.087 12.4098ZM107.566 13.1816L107.574 7.37398H108.582V13.1816H107.566ZM109.685 8.50495C109.507 8.50495 109.359 8.44636 109.242 8.32919C109.13 8.21202 109.074 8.07192 109.074 7.9089C109.074 7.74588 109.13 7.60578 109.242 7.48861C109.359 7.37144 109.507 7.31285 109.685 7.31285C109.864 7.31285 110.012 7.37144 110.129 7.48861C110.246 7.60578 110.304 7.74588 110.304 7.9089C110.304 8.07192 110.246 8.21202 110.129 8.32919C110.012 8.44636 109.864 8.50495 109.685 8.50495ZM109.181 13.1816V9.13156H110.197V13.1816H109.181ZM112.736 13.2581C112.292 13.2581 111.915 13.1587 111.605 12.96C111.294 12.7613 111.057 12.5041 110.894 12.1882C110.736 11.8673 110.657 11.5234 110.657 11.1566C110.657 10.7898 110.736 10.4485 110.894 10.1326C111.057 9.81167 111.294 9.55186 111.605 9.35317C111.915 9.15449 112.292 9.05515 112.736 9.05515C113.184 9.05515 113.561 9.15449 113.867 9.35317C114.177 9.55186 114.412 9.81167 114.57 10.1326C114.733 10.4485 114.814 10.7898 114.814 11.1566C114.814 11.5234 114.733 11.8673 114.57 12.1882C114.412 12.5041 114.177 12.7613 113.867 12.96C113.561 13.1587 113.184 13.2581 112.736 13.2581ZM112.736 12.4098C112.965 12.4098 113.156 12.3512 113.309 12.2341C113.467 12.1169 113.586 11.9641 113.668 11.7756C113.749 11.582 113.79 11.3757 113.79 11.1566C113.79 10.9324 113.749 10.7261 113.668 10.5376C113.586 10.3491 113.467 10.1963 113.309 10.0791C113.156 9.96196 112.965 9.90337 112.736 9.90337C112.512 9.90337 112.32 9.96196 112.163 10.0791C112.005 10.1963 111.885 10.3491 111.803 10.5376C111.722 10.7261 111.681 10.9324 111.681 11.1566C111.681 11.3757 111.722 11.582 111.803 11.7756C111.885 11.9641 112.005 12.1169 112.163 12.2341C112.32 12.3512 112.512 12.4098 112.736 12.4098ZM115.91 13.2581C115.736 13.2581 115.594 13.1995 115.482 13.0823C115.37 12.96 115.314 12.8174 115.314 12.6544C115.314 12.4913 115.37 12.3512 115.482 12.2341C115.594 12.1169 115.736 12.0583 115.91 12.0583C116.083 12.0583 116.225 12.1169 116.338 12.2341C116.455 12.3512 116.513 12.4913 116.513 12.6544C116.513 12.8225 116.455 12.9651 116.338 13.0823C116.225 13.1995 116.083 13.2581 115.91 13.2581Z" fill="white"/>
</svg>
