<svg width="2186" height="46" viewBox="0 0 2186 46" fill="none" xmlns="http://www.w3.org/2000/svg">
<path d="M1856.9 36V9.20055L1860.45 9.20055V21.2965L1872.04 9.23676H1876.67L1864.14 22.0933L1877.21 36L1872.43 36L1860.45 23.2159V36H1856.9ZM1888.84 36.3622C1886.72 36.3622 1884.85 35.9759 1883.23 35.2033C1881.61 34.4065 1880.26 33.3563 1879.17 32.0525C1878.09 30.7246 1877.27 29.2398 1876.71 27.598C1876.16 25.9562 1875.88 24.2783 1875.88 22.5641C1875.88 20.8499 1876.16 19.1839 1876.71 17.5663C1877.27 15.9246 1878.09 14.4518 1879.17 13.148C1880.26 11.8443 1881.61 10.8061 1883.23 10.0335C1884.85 9.23676 1886.72 8.83839 1888.84 8.83839C1890.97 8.83839 1892.84 9.23676 1894.46 10.0335C1896.08 10.8061 1897.43 11.8443 1898.51 13.148C1899.6 14.4518 1900.42 15.9246 1900.98 17.5663C1901.53 19.1839 1901.81 20.8499 1901.81 22.5641C1901.81 24.2783 1901.53 25.9562 1900.98 27.598C1900.42 29.2398 1899.6 30.7246 1898.51 32.0525C1897.43 33.3563 1896.08 34.4065 1894.46 35.2033C1892.84 35.9759 1890.97 36.3622 1888.84 36.3622ZM1888.84 33.0665C1890.37 33.0665 1891.71 32.7768 1892.86 32.1974C1894.02 31.6179 1894.99 30.8333 1895.76 29.8434C1896.56 28.8535 1897.16 27.7308 1897.57 26.4753C1897.98 25.2199 1898.19 23.9161 1898.19 22.5641C1898.19 21.2362 1897.98 19.9565 1897.57 18.7252C1897.16 17.4697 1896.56 16.3471 1895.76 15.3572C1894.99 14.3673 1894.02 13.5826 1892.86 13.0032C1891.71 12.4237 1890.37 12.134 1888.84 12.134C1887.32 12.134 1885.98 12.4237 1884.82 13.0032C1883.67 13.5826 1882.69 14.3673 1881.89 15.3572C1881.12 16.3471 1880.53 17.4697 1880.12 18.7252C1879.71 19.9565 1879.5 21.2362 1879.5 22.5641C1879.5 23.9161 1879.71 25.2199 1880.12 26.4753C1880.53 27.7308 1881.12 28.8535 1881.89 29.8434C1882.69 30.8333 1883.67 31.6179 1884.82 32.1974C1885.98 32.7768 1887.32 33.0665 1888.84 33.0665ZM1908.72 36V12.3151L1900.36 12.3151V9.20055L1920.64 9.20055V12.3151L1912.27 12.3151V36H1908.72ZM1932.16 36.3622C1930.03 36.3622 1928.16 35.9759 1926.54 35.2033C1924.92 34.4065 1923.57 33.3563 1922.49 32.0525C1921.4 30.7246 1920.58 29.2398 1920.02 27.598C1919.47 25.9562 1919.19 24.2783 1919.19 22.5641C1919.19 20.8499 1919.47 19.1839 1920.02 17.5663C1920.58 15.9246 1921.4 14.4518 1922.49 13.148C1923.57 11.8443 1924.92 10.8061 1926.54 10.0335C1928.16 9.23676 1930.03 8.83839 1932.16 8.83839C1934.28 8.83839 1936.15 9.23676 1937.77 10.0335C1939.39 10.8061 1940.74 11.8443 1941.83 13.148C1942.91 14.4518 1943.73 15.9246 1944.29 17.5663C1944.84 19.1839 1945.12 20.8499 1945.12 22.5641C1945.12 24.2783 1944.84 25.9562 1944.29 27.598C1943.73 29.2398 1942.91 30.7246 1941.83 32.0525C1940.74 33.3563 1939.39 34.4065 1937.77 35.2033C1936.15 35.9759 1934.28 36.3622 1932.16 36.3622ZM1932.16 33.0665C1933.68 33.0665 1935.02 32.7768 1936.18 32.1974C1937.33 31.6179 1938.3 30.8333 1939.07 29.8434C1939.87 28.8535 1940.47 27.7308 1940.88 26.4753C1941.29 25.2199 1941.5 23.9161 1941.5 22.5641C1941.5 21.2362 1941.29 19.9565 1940.88 18.7252C1940.47 17.4697 1939.87 16.3471 1939.07 15.3572C1938.3 14.3673 1937.33 13.5826 1936.18 13.0032C1935.02 12.4237 1933.68 12.134 1932.16 12.134C1930.63 12.134 1929.29 12.4237 1928.14 13.0032C1926.98 13.5826 1926 14.3673 1925.2 15.3572C1924.43 16.3471 1923.84 17.4697 1923.43 18.7252C1923.02 19.9565 1922.81 21.2362 1922.81 22.5641C1922.81 23.9161 1923.02 25.2199 1923.43 26.4753C1923.84 27.7308 1924.43 28.8535 1925.2 29.8434C1926 30.8333 1926.98 31.6179 1928.14 32.1974C1929.29 32.7768 1930.63 33.0665 1932.16 33.0665ZM1947.48 36V9.20055L1950.67 9.20055L1964.65 29.5899V9.20055H1968.2V36H1965.01L1951.03 15.6469V36H1947.48ZM1971.47 36V9.20055L1988.49 9.20055V12.3151L1975.02 12.3151V20.7895L1986.83 20.7895V23.904L1975.02 23.904V32.8855H1988.67V36H1971.47ZM1997.21 36V9.20055H2001.88L2009.77 25.1354L2017.63 9.20055H2022.3V36H2018.83V14.4156L2011.44 29.1191H2008.07L2000.68 14.3431V36H1997.21ZM2024.28 36L2033.73 9.20055L2038.18 9.20055L2047.67 36H2043.91L2041.66 29.5899H2030.29L2028.04 36H2024.28ZM2031.38 26.4029H2040.57L2035.98 13.2567L2031.38 26.4029ZM2049.68 36V9.20055H2052.86L2066.84 29.5899V9.20055L2070.39 9.20055V36H2067.21L2053.23 15.6469V36L2049.68 36ZM2085.73 36.3622C2083.6 36.3622 2081.73 35.9759 2080.11 35.2033C2078.5 34.4065 2077.14 33.3563 2076.06 32.0525C2074.97 30.7246 2074.15 29.2398 2073.59 27.598C2073.04 25.9562 2072.76 24.2783 2072.76 22.5641C2072.76 20.8499 2073.04 19.1839 2073.59 17.5663C2074.15 15.9246 2074.97 14.4518 2076.06 13.148C2077.14 11.8443 2078.5 10.8061 2080.11 10.0335C2081.73 9.23676 2083.6 8.83839 2085.73 8.83839C2087.85 8.83839 2089.72 9.23676 2091.34 10.0335C2092.96 10.8061 2094.31 11.8443 2095.4 13.148C2096.48 14.4518 2097.3 15.9246 2097.86 17.5663C2098.41 19.1839 2098.69 20.8499 2098.69 22.5641C2098.69 24.2783 2098.41 25.9562 2097.86 27.598C2097.3 29.2398 2096.48 30.7246 2095.4 32.0525C2094.31 33.3563 2092.96 34.4065 2091.34 35.2033C2089.72 35.9759 2087.85 36.3622 2085.73 36.3622ZM2085.73 33.0665C2087.25 33.0665 2088.59 32.7768 2089.75 32.1974C2090.91 31.6179 2091.87 30.8333 2092.64 29.8434C2093.44 28.8535 2094.04 27.7308 2094.45 26.4753C2094.86 25.2199 2095.07 23.9161 2095.07 22.5641C2095.07 21.2362 2094.86 19.9565 2094.45 18.7252C2094.04 17.4697 2093.44 16.3471 2092.64 15.3572C2091.87 14.3673 2090.91 13.5826 2089.75 13.0032C2088.59 12.4237 2087.25 12.134 2085.73 12.134C2084.21 12.134 2082.87 12.4237 2081.71 13.0032C2080.55 13.5826 2079.57 14.3673 2078.77 15.3572C2078 16.3471 2077.41 17.4697 2077 18.7252C2076.59 19.9565 2076.38 21.2362 2076.38 22.5641C2076.38 23.9161 2076.59 25.2199 2077 26.4753C2077.41 27.7308 2078 28.8535 2078.77 29.8434C2079.57 30.8333 2080.55 31.6179 2081.71 32.1974C2082.87 32.7768 2084.21 33.0665 2085.73 33.0665Z" fill="white"/>
<path d="M2106.14 35.6318V19.6604H2112.44C2113.72 19.6604 2114.78 19.9194 2115.63 20.4374C2116.48 20.941 2117.11 21.6029 2117.53 22.4231C2117.96 23.2288 2118.18 24.0706 2118.18 24.9483C2118.18 25.826 2117.96 26.6749 2117.53 27.4951C2117.11 28.3008 2116.48 28.9627 2115.63 29.4807C2114.78 29.9987 2113.72 30.2577 2112.44 30.2577H2109.07V35.6318H2106.14ZM2112.42 22.2072H2109.07V27.7109H2112.42C2113.05 27.7109 2113.57 27.5814 2113.99 27.3224C2114.41 27.049 2114.72 26.7037 2114.92 26.2864C2115.14 25.8548 2115.24 25.4159 2115.24 24.9699C2115.24 24.5094 2115.14 24.0706 2114.92 23.6533C2114.72 23.236 2114.41 22.8907 2113.99 22.6173C2113.57 22.3439 2113.05 22.2072 2112.42 22.2072ZM2123.98 35.8477C2122.72 35.8477 2121.66 35.5671 2120.78 35.0059C2119.9 34.4448 2119.23 33.7181 2118.77 32.8261C2118.33 31.9196 2118.11 30.9483 2118.11 29.9124C2118.11 28.8764 2118.33 27.9123 2118.77 27.0202C2119.23 26.1138 2119.9 25.3799 2120.78 24.8188C2121.66 24.2576 2122.72 23.977 2123.98 23.977C2125.24 23.977 2126.31 24.2576 2127.17 24.8188C2128.05 25.3799 2128.71 26.1138 2129.16 27.0202C2129.62 27.9123 2129.85 28.8764 2129.85 29.9124C2129.85 30.9483 2129.62 31.9196 2129.16 32.8261C2128.71 33.7181 2128.05 34.4448 2127.17 35.0059C2126.31 35.5671 2125.24 35.8477 2123.98 35.8477ZM2123.98 33.452C2124.62 33.452 2125.16 33.2865 2125.59 32.9555C2126.04 32.6246 2126.38 32.193 2126.61 31.6606C2126.84 31.1138 2126.95 30.5311 2126.95 29.9124C2126.95 29.2793 2126.84 28.6965 2126.61 28.1641C2126.38 27.6318 2126.04 27.2001 2125.59 26.8692C2125.16 26.5382 2124.62 26.3727 2123.98 26.3727C2123.34 26.3727 2122.8 26.5382 2122.36 26.8692C2121.91 27.2001 2121.57 27.6318 2121.34 28.1641C2121.11 28.6965 2121 29.2793 2121 29.9124C2121 30.5311 2121.11 31.1138 2121.34 31.6606C2121.57 32.193 2121.91 32.6246 2122.36 32.9555C2122.8 33.2865 2123.34 33.452 2123.98 33.452ZM2130.85 35.6318V24.1929H2133.7V25.7684H2133.8C2134.01 25.3224 2134.34 24.9123 2134.8 24.5382C2135.26 24.1641 2135.95 23.977 2136.87 23.977C2137.16 23.977 2137.39 23.9986 2137.58 24.0418C2137.77 24.0706 2137.86 24.085 2137.86 24.085V26.8692C2137.86 26.8692 2137.75 26.8548 2137.54 26.826C2137.34 26.7972 2137.08 26.7828 2136.78 26.7828C2135.77 26.7828 2135.01 27.0634 2134.49 27.6246C2133.98 28.1857 2133.72 29.0922 2133.72 30.344V35.6318H2130.85ZM2139.78 35.6318V26.5022H2137.94V24.1929H2139.78V23.1353C2139.78 22.7036 2139.84 22.2504 2139.95 21.7756C2140.07 21.2864 2140.26 20.8331 2140.53 20.4158C2140.82 19.9986 2141.22 19.6604 2141.72 19.4014C2142.24 19.1425 2142.89 19.013 2143.66 19.013C2144.1 19.013 2144.45 19.0489 2144.72 19.1209C2145.01 19.1784 2145.15 19.2072 2145.15 19.2072V21.3007C2145.15 21.3007 2145.06 21.2864 2144.87 21.2576C2144.69 21.2144 2144.48 21.1928 2144.27 21.1928C2143.65 21.1928 2143.23 21.3727 2143 21.7324C2142.77 22.0921 2142.65 22.5598 2142.65 23.1353V24.1929H2145.09V26.5022H2142.65V35.6318H2139.78ZM2150.81 35.8477C2149.55 35.8477 2148.49 35.5671 2147.61 35.0059C2146.73 34.4448 2146.07 33.7181 2145.6 32.8261C2145.16 31.9196 2144.94 30.9483 2144.94 29.9124C2144.94 28.8764 2145.16 27.9123 2145.6 27.0202C2146.07 26.1138 2146.73 25.3799 2147.61 24.8188C2148.49 24.2576 2149.55 23.977 2150.81 23.977C2152.07 23.977 2153.14 24.2576 2154 24.8188C2154.88 25.3799 2155.54 26.1138 2155.99 27.0202C2156.45 27.9123 2156.68 28.8764 2156.68 29.9124C2156.68 30.9483 2156.45 31.9196 2155.99 32.8261C2155.54 33.7181 2154.88 34.4448 2154 35.0059C2153.14 35.5671 2152.07 35.8477 2150.81 35.8477ZM2150.81 33.452C2151.45 33.452 2151.99 33.2865 2152.43 32.9555C2152.87 32.6246 2153.21 32.193 2153.44 31.6606C2153.67 31.1138 2153.78 30.5311 2153.78 29.9124C2153.78 29.2793 2153.67 28.6965 2153.44 28.1641C2153.21 27.6318 2152.87 27.2001 2152.43 26.8692C2151.99 26.5382 2151.45 26.3727 2150.81 26.3727C2150.17 26.3727 2149.63 26.5382 2149.19 26.8692C2148.74 27.2001 2148.4 27.6318 2148.17 28.1641C2147.94 28.6965 2147.83 29.2793 2147.83 29.9124C2147.83 30.5311 2147.94 31.1138 2148.17 31.6606C2148.4 32.193 2148.74 32.6246 2149.19 32.9555C2149.63 33.2865 2150.17 33.452 2150.81 33.452ZM2157.81 35.6318L2157.83 19.2288H2160.68V35.6318H2157.81ZM2163.79 22.4231C2163.29 22.4231 2162.87 22.2576 2162.54 21.9267C2162.23 21.5957 2162.07 21.2 2162.07 20.7396C2162.07 20.2792 2162.23 19.8835 2162.54 19.5525C2162.87 19.2216 2163.29 19.0561 2163.79 19.0561C2164.3 19.0561 2164.72 19.2216 2165.05 19.5525C2165.38 19.8835 2165.54 20.2792 2165.54 20.7396C2165.54 21.2 2165.38 21.5957 2165.05 21.9267C2164.72 22.2576 2164.3 22.4231 2163.79 22.4231ZM2162.37 35.6318V24.1929H2165.24V35.6318H2162.37ZM2172.41 35.8477C2171.16 35.8477 2170.09 35.5671 2169.22 35.0059C2168.34 34.4448 2167.67 33.7181 2167.21 32.8261C2166.76 31.9196 2166.54 30.9483 2166.54 29.9124C2166.54 28.8764 2166.76 27.9123 2167.21 27.0202C2167.67 26.1138 2168.34 25.3799 2169.22 24.8188C2170.09 24.2576 2171.16 23.977 2172.41 23.977C2173.68 23.977 2174.74 24.2576 2175.6 24.8188C2176.48 25.3799 2177.14 26.1138 2177.59 27.0202C2178.05 27.9123 2178.28 28.8764 2178.28 29.9124C2178.28 30.9483 2178.05 31.9196 2177.59 32.8261C2177.14 33.7181 2176.48 34.4448 2175.6 35.0059C2174.74 35.5671 2173.68 35.8477 2172.41 35.8477ZM2172.41 33.452C2173.06 33.452 2173.6 33.2865 2174.03 32.9555C2174.47 32.6246 2174.81 32.193 2175.04 31.6606C2175.27 31.1138 2175.39 30.5311 2175.39 29.9124C2175.39 29.2793 2175.27 28.6965 2175.04 28.1641C2174.81 27.6318 2174.47 27.2001 2174.03 26.8692C2173.6 26.5382 2173.06 26.3727 2172.41 26.3727C2171.78 26.3727 2171.24 26.5382 2170.79 26.8692C2170.34 27.2001 2170.01 27.6318 2169.78 28.1641C2169.55 28.6965 2169.43 29.2793 2169.43 29.9124C2169.43 30.5311 2169.55 31.1138 2169.78 31.6606C2170.01 32.193 2170.34 32.6246 2170.79 32.9555C2171.24 33.2865 2171.78 33.452 2172.41 33.452ZM2181.37 35.8477C2180.88 35.8477 2180.48 35.6822 2180.17 35.3513C2179.85 35.0059 2179.69 34.603 2179.69 34.1426C2179.69 33.6822 2179.85 33.2865 2180.17 32.9555C2180.48 32.6246 2180.88 32.4591 2181.37 32.4591C2181.86 32.4591 2182.27 32.6246 2182.58 32.9555C2182.91 33.2865 2183.08 33.6822 2183.08 34.1426C2183.08 34.6174 2182.91 35.0203 2182.58 35.3513C2182.27 35.6822 2181.86 35.8477 2181.37 35.8477Z" fill="white"/>
<path d="M1486.9 36V9.20055L1490.45 9.20055V21.2965L1502.04 9.23676H1506.67L1494.14 22.0933L1507.21 36L1502.43 36L1490.45 23.2159V36H1486.9ZM1518.84 36.3622C1516.72 36.3622 1514.85 35.9759 1513.23 35.2033C1511.61 34.4065 1510.26 33.3563 1509.17 32.0525C1508.09 30.7246 1507.27 29.2398 1506.71 27.598C1506.16 25.9562 1505.88 24.2783 1505.88 22.5641C1505.88 20.8499 1506.16 19.1839 1506.71 17.5663C1507.27 15.9246 1508.09 14.4518 1509.17 13.148C1510.26 11.8443 1511.61 10.8061 1513.23 10.0335C1514.85 9.23676 1516.72 8.83839 1518.84 8.83839C1520.97 8.83839 1522.84 9.23676 1524.46 10.0335C1526.08 10.8061 1527.43 11.8443 1528.51 13.148C1529.6 14.4518 1530.42 15.9246 1530.98 17.5663C1531.53 19.1839 1531.81 20.8499 1531.81 22.5641C1531.81 24.2783 1531.53 25.9562 1530.98 27.598C1530.42 29.2398 1529.6 30.7246 1528.51 32.0525C1527.43 33.3563 1526.08 34.4065 1524.46 35.2033C1522.84 35.9759 1520.97 36.3622 1518.84 36.3622ZM1518.84 33.0665C1520.37 33.0665 1521.71 32.7768 1522.86 32.1974C1524.02 31.6179 1524.99 30.8333 1525.76 29.8434C1526.56 28.8535 1527.16 27.7308 1527.57 26.4753C1527.98 25.2199 1528.19 23.9161 1528.19 22.5641C1528.19 21.2362 1527.98 19.9565 1527.57 18.7252C1527.16 17.4697 1526.56 16.3471 1525.76 15.3572C1524.99 14.3673 1524.02 13.5826 1522.86 13.0032C1521.71 12.4237 1520.37 12.134 1518.84 12.134C1517.32 12.134 1515.98 12.4237 1514.82 13.0032C1513.67 13.5826 1512.69 14.3673 1511.89 15.3572C1511.12 16.3471 1510.53 17.4697 1510.12 18.7252C1509.71 19.9565 1509.5 21.2362 1509.5 22.5641C1509.5 23.9161 1509.71 25.2199 1510.12 26.4753C1510.53 27.7308 1511.12 28.8535 1511.89 29.8434C1512.69 30.8333 1513.67 31.6179 1514.82 32.1974C1515.98 32.7768 1517.32 33.0665 1518.84 33.0665ZM1538.72 36V12.3151L1530.36 12.3151V9.20055L1550.64 9.20055V12.3151L1542.27 12.3151V36H1538.72ZM1562.16 36.3622C1560.03 36.3622 1558.16 35.9759 1556.54 35.2033C1554.92 34.4065 1553.57 33.3563 1552.49 32.0525C1551.4 30.7246 1550.58 29.2398 1550.02 27.598C1549.47 25.9562 1549.19 24.2783 1549.19 22.5641C1549.19 20.8499 1549.47 19.1839 1550.02 17.5663C1550.58 15.9246 1551.4 14.4518 1552.49 13.148C1553.57 11.8443 1554.92 10.8061 1556.54 10.0335C1558.16 9.23676 1560.03 8.83839 1562.16 8.83839C1564.28 8.83839 1566.15 9.23676 1567.77 10.0335C1569.39 10.8061 1570.74 11.8443 1571.83 13.148C1572.91 14.4518 1573.73 15.9246 1574.29 17.5663C1574.84 19.1839 1575.12 20.8499 1575.12 22.5641C1575.12 24.2783 1574.84 25.9562 1574.29 27.598C1573.73 29.2398 1572.91 30.7246 1571.83 32.0525C1570.74 33.3563 1569.39 34.4065 1567.77 35.2033C1566.15 35.9759 1564.28 36.3622 1562.16 36.3622ZM1562.16 33.0665C1563.68 33.0665 1565.02 32.7768 1566.18 32.1974C1567.33 31.6179 1568.3 30.8333 1569.07 29.8434C1569.87 28.8535 1570.47 27.7308 1570.88 26.4753C1571.29 25.2199 1571.5 23.9161 1571.5 22.5641C1571.5 21.2362 1571.29 19.9565 1570.88 18.7252C1570.47 17.4697 1569.87 16.3471 1569.07 15.3572C1568.3 14.3673 1567.33 13.5826 1566.18 13.0032C1565.02 12.4237 1563.68 12.134 1562.16 12.134C1560.63 12.134 1559.29 12.4237 1558.14 13.0032C1556.98 13.5826 1556 14.3673 1555.2 15.3572C1554.43 16.3471 1553.84 17.4697 1553.43 18.7252C1553.02 19.9565 1552.81 21.2362 1552.81 22.5641C1552.81 23.9161 1553.02 25.2199 1553.43 26.4753C1553.84 27.7308 1554.43 28.8535 1555.2 29.8434C1556 30.8333 1556.98 31.6179 1558.14 32.1974C1559.29 32.7768 1560.63 33.0665 1562.16 33.0665ZM1577.48 36V9.20055L1580.67 9.20055L1594.65 29.5899V9.20055H1598.2V36H1595.01L1581.03 15.6469V36H1577.48ZM1601.47 36V9.20055L1618.49 9.20055V12.3151L1605.02 12.3151V20.7895L1616.83 20.7895V23.904L1605.02 23.904V32.8855H1618.67V36H1601.47ZM1627.21 36V9.20055H1631.88L1639.77 25.1354L1647.63 9.20055H1652.3V36H1648.83V14.4156L1641.44 29.1191H1638.07L1630.68 14.3431V36H1627.21ZM1654.28 36L1663.73 9.20055L1668.18 9.20055L1677.67 36H1673.91L1671.66 29.5899H1660.29L1658.04 36H1654.28ZM1661.38 26.4029H1670.57L1665.98 13.2567L1661.38 26.4029ZM1679.68 36V9.20055H1682.86L1696.84 29.5899V9.20055L1700.39 9.20055V36H1697.21L1683.23 15.6469V36L1679.68 36ZM1715.73 36.3622C1713.6 36.3622 1711.73 35.9759 1710.11 35.2033C1708.5 34.4065 1707.14 33.3563 1706.06 32.0525C1704.97 30.7246 1704.15 29.2398 1703.59 27.598C1703.04 25.9562 1702.76 24.2783 1702.76 22.5641C1702.76 20.8499 1703.04 19.1839 1703.59 17.5663C1704.15 15.9246 1704.97 14.4518 1706.06 13.148C1707.14 11.8443 1708.5 10.8061 1710.11 10.0335C1711.73 9.23676 1713.6 8.83839 1715.73 8.83839C1717.85 8.83839 1719.72 9.23676 1721.34 10.0335C1722.96 10.8061 1724.31 11.8443 1725.4 13.148C1726.48 14.4518 1727.3 15.9246 1727.86 17.5663C1728.41 19.1839 1728.69 20.8499 1728.69 22.5641C1728.69 24.2783 1728.41 25.9562 1727.86 27.598C1727.3 29.2398 1726.48 30.7246 1725.4 32.0525C1724.31 33.3563 1722.96 34.4065 1721.34 35.2033C1719.72 35.9759 1717.85 36.3622 1715.73 36.3622ZM1715.73 33.0665C1717.25 33.0665 1718.59 32.7768 1719.75 32.1974C1720.91 31.6179 1721.87 30.8333 1722.64 29.8434C1723.44 28.8535 1724.04 27.7308 1724.45 26.4753C1724.86 25.2199 1725.07 23.9161 1725.07 22.5641C1725.07 21.2362 1724.86 19.9565 1724.45 18.7252C1724.04 17.4697 1723.44 16.3471 1722.64 15.3572C1721.87 14.3673 1720.91 13.5826 1719.75 13.0032C1718.59 12.4237 1717.25 12.134 1715.73 12.134C1714.21 12.134 1712.87 12.4237 1711.71 13.0032C1710.55 13.5826 1709.57 14.3673 1708.77 15.3572C1708 16.3471 1707.41 17.4697 1707 18.7252C1706.59 19.9565 1706.38 21.2362 1706.38 22.5641C1706.38 23.9161 1706.59 25.2199 1707 26.4753C1707.41 27.7308 1708 28.8535 1708.77 29.8434C1709.57 30.8333 1710.55 31.6179 1711.71 32.1974C1712.87 32.7768 1714.21 33.0665 1715.73 33.0665Z" fill="white"/>
<path d="M1736.14 35.6318V19.6604H1742.44C1743.72 19.6604 1744.78 19.9194 1745.63 20.4374C1746.48 20.941 1747.11 21.6029 1747.53 22.4231C1747.96 23.2288 1748.18 24.0706 1748.18 24.9483C1748.18 25.826 1747.96 26.6749 1747.53 27.4951C1747.11 28.3008 1746.48 28.9627 1745.63 29.4807C1744.78 29.9987 1743.72 30.2577 1742.44 30.2577H1739.07V35.6318H1736.14ZM1742.42 22.2072H1739.07V27.7109H1742.42C1743.05 27.7109 1743.57 27.5814 1743.99 27.3224C1744.41 27.049 1744.72 26.7037 1744.92 26.2864C1745.14 25.8548 1745.24 25.4159 1745.24 24.9699C1745.24 24.5094 1745.14 24.0706 1744.92 23.6533C1744.72 23.236 1744.41 22.8907 1743.99 22.6173C1743.57 22.3439 1743.05 22.2072 1742.42 22.2072ZM1753.98 35.8477C1752.72 35.8477 1751.66 35.5671 1750.78 35.0059C1749.9 34.4448 1749.23 33.7181 1748.77 32.8261C1748.33 31.9196 1748.11 30.9483 1748.11 29.9124C1748.11 28.8764 1748.33 27.9123 1748.77 27.0202C1749.23 26.1138 1749.9 25.3799 1750.78 24.8188C1751.66 24.2576 1752.72 23.977 1753.98 23.977C1755.24 23.977 1756.31 24.2576 1757.17 24.8188C1758.05 25.3799 1758.71 26.1138 1759.16 27.0202C1759.62 27.9123 1759.85 28.8764 1759.85 29.9124C1759.85 30.9483 1759.62 31.9196 1759.16 32.8261C1758.71 33.7181 1758.05 34.4448 1757.17 35.0059C1756.31 35.5671 1755.24 35.8477 1753.98 35.8477ZM1753.98 33.452C1754.62 33.452 1755.16 33.2865 1755.59 32.9555C1756.04 32.6246 1756.38 32.193 1756.61 31.6606C1756.84 31.1138 1756.95 30.5311 1756.95 29.9124C1756.95 29.2793 1756.84 28.6965 1756.61 28.1641C1756.38 27.6318 1756.04 27.2001 1755.59 26.8692C1755.16 26.5382 1754.62 26.3727 1753.98 26.3727C1753.34 26.3727 1752.8 26.5382 1752.36 26.8692C1751.91 27.2001 1751.57 27.6318 1751.34 28.1641C1751.11 28.6965 1751 29.2793 1751 29.9124C1751 30.5311 1751.11 31.1138 1751.34 31.6606C1751.57 32.193 1751.91 32.6246 1752.36 32.9555C1752.8 33.2865 1753.34 33.452 1753.98 33.452ZM1760.85 35.6318V24.1929H1763.7V25.7684H1763.8C1764.01 25.3224 1764.34 24.9123 1764.8 24.5382C1765.26 24.1641 1765.95 23.977 1766.87 23.977C1767.16 23.977 1767.39 23.9986 1767.58 24.0418C1767.77 24.0706 1767.86 24.085 1767.86 24.085V26.8692C1767.86 26.8692 1767.75 26.8548 1767.54 26.826C1767.34 26.7972 1767.08 26.7828 1766.78 26.7828C1765.77 26.7828 1765.01 27.0634 1764.49 27.6246C1763.98 28.1857 1763.72 29.0922 1763.72 30.344V35.6318H1760.85ZM1769.78 35.6318V26.5022H1767.94V24.1929H1769.78V23.1353C1769.78 22.7036 1769.84 22.2504 1769.95 21.7756C1770.07 21.2864 1770.26 20.8331 1770.53 20.4158C1770.82 19.9986 1771.22 19.6604 1771.72 19.4014C1772.24 19.1425 1772.89 19.013 1773.66 19.013C1774.1 19.013 1774.45 19.0489 1774.72 19.1209C1775.01 19.1784 1775.15 19.2072 1775.15 19.2072V21.3007C1775.15 21.3007 1775.06 21.2864 1774.87 21.2576C1774.69 21.2144 1774.48 21.1928 1774.27 21.1928C1773.65 21.1928 1773.23 21.3727 1773 21.7324C1772.77 22.0921 1772.65 22.5598 1772.65 23.1353V24.1929H1775.09V26.5022H1772.65V35.6318H1769.78ZM1780.81 35.8477C1779.55 35.8477 1778.49 35.5671 1777.61 35.0059C1776.73 34.4448 1776.07 33.7181 1775.6 32.8261C1775.16 31.9196 1774.94 30.9483 1774.94 29.9124C1774.94 28.8764 1775.16 27.9123 1775.6 27.0202C1776.07 26.1138 1776.73 25.3799 1777.61 24.8188C1778.49 24.2576 1779.55 23.977 1780.81 23.977C1782.07 23.977 1783.14 24.2576 1784 24.8188C1784.88 25.3799 1785.54 26.1138 1785.99 27.0202C1786.45 27.9123 1786.68 28.8764 1786.68 29.9124C1786.68 30.9483 1786.45 31.9196 1785.99 32.8261C1785.54 33.7181 1784.88 34.4448 1784 35.0059C1783.14 35.5671 1782.07 35.8477 1780.81 35.8477ZM1780.81 33.452C1781.45 33.452 1781.99 33.2865 1782.43 32.9555C1782.87 32.6246 1783.21 32.193 1783.44 31.6606C1783.67 31.1138 1783.78 30.5311 1783.78 29.9124C1783.78 29.2793 1783.67 28.6965 1783.44 28.1641C1783.21 27.6318 1782.87 27.2001 1782.43 26.8692C1781.99 26.5382 1781.45 26.3727 1780.81 26.3727C1780.17 26.3727 1779.63 26.5382 1779.19 26.8692C1778.74 27.2001 1778.4 27.6318 1778.17 28.1641C1777.94 28.6965 1777.83 29.2793 1777.83 29.9124C1777.83 30.5311 1777.94 31.1138 1778.17 31.6606C1778.4 32.193 1778.74 32.6246 1779.19 32.9555C1779.63 33.2865 1780.17 33.452 1780.81 33.452ZM1787.81 35.6318L1787.83 19.2288H1790.68V35.6318H1787.81ZM1793.79 22.4231C1793.29 22.4231 1792.87 22.2576 1792.54 21.9267C1792.23 21.5957 1792.07 21.2 1792.07 20.7396C1792.07 20.2792 1792.23 19.8835 1792.54 19.5525C1792.87 19.2216 1793.29 19.0561 1793.79 19.0561C1794.3 19.0561 1794.72 19.2216 1795.05 19.5525C1795.38 19.8835 1795.54 20.2792 1795.54 20.7396C1795.54 21.2 1795.38 21.5957 1795.05 21.9267C1794.72 22.2576 1794.3 22.4231 1793.79 22.4231ZM1792.37 35.6318V24.1929H1795.24V35.6318H1792.37ZM1802.41 35.8477C1801.16 35.8477 1800.09 35.5671 1799.22 35.0059C1798.34 34.4448 1797.67 33.7181 1797.21 32.8261C1796.76 31.9196 1796.54 30.9483 1796.54 29.9124C1796.54 28.8764 1796.76 27.9123 1797.21 27.0202C1797.67 26.1138 1798.34 25.3799 1799.22 24.8188C1800.09 24.2576 1801.16 23.977 1802.41 23.977C1803.68 23.977 1804.74 24.2576 1805.6 24.8188C1806.48 25.3799 1807.14 26.1138 1807.59 27.0202C1808.05 27.9123 1808.28 28.8764 1808.28 29.9124C1808.28 30.9483 1808.05 31.9196 1807.59 32.8261C1807.14 33.7181 1806.48 34.4448 1805.6 35.0059C1804.74 35.5671 1803.68 35.8477 1802.41 35.8477ZM1802.41 33.452C1803.06 33.452 1803.6 33.2865 1804.03 32.9555C1804.47 32.6246 1804.81 32.193 1805.04 31.6606C1805.27 31.1138 1805.39 30.5311 1805.39 29.9124C1805.39 29.2793 1805.27 28.6965 1805.04 28.1641C1804.81 27.6318 1804.47 27.2001 1804.03 26.8692C1803.6 26.5382 1803.06 26.3727 1802.41 26.3727C1801.78 26.3727 1801.24 26.5382 1800.79 26.8692C1800.34 27.2001 1800.01 27.6318 1799.78 28.1641C1799.55 28.6965 1799.43 29.2793 1799.43 29.9124C1799.43 30.5311 1799.55 31.1138 1799.78 31.6606C1800.01 32.193 1800.34 32.6246 1800.79 32.9555C1801.24 33.2865 1801.78 33.452 1802.41 33.452ZM1811.37 35.8477C1810.88 35.8477 1810.48 35.6822 1810.17 35.3513C1809.85 35.0059 1809.69 34.603 1809.69 34.1426C1809.69 33.6822 1809.85 33.2865 1810.17 32.9555C1810.48 32.6246 1810.88 32.4591 1811.37 32.4591C1811.86 32.4591 1812.27 32.6246 1812.58 32.9555C1812.91 33.2865 1813.08 33.6822 1813.08 34.1426C1813.08 34.6174 1812.91 35.0203 1812.58 35.3513C1812.27 35.6822 1811.86 35.8477 1811.37 35.8477Z" fill="white"/>
<path d="M1115.9 36V9.20055L1119.45 9.20055V21.2965L1131.04 9.23676H1135.67L1123.14 22.0933L1136.21 36L1131.43 36L1119.45 23.2159V36H1115.9ZM1147.84 36.3622C1145.72 36.3622 1143.85 35.9759 1142.23 35.2033C1140.61 34.4065 1139.26 33.3563 1138.17 32.0525C1137.09 30.7246 1136.27 29.2398 1135.71 27.598C1135.16 25.9562 1134.88 24.2783 1134.88 22.5641C1134.88 20.8499 1135.16 19.1839 1135.71 17.5663C1136.27 15.9246 1137.09 14.4518 1138.17 13.148C1139.26 11.8443 1140.61 10.8061 1142.23 10.0335C1143.85 9.23676 1145.72 8.83839 1147.84 8.83839C1149.97 8.83839 1151.84 9.23676 1153.46 10.0335C1155.08 10.8061 1156.43 11.8443 1157.51 13.148C1158.6 14.4518 1159.42 15.9246 1159.98 17.5663C1160.53 19.1839 1160.81 20.8499 1160.81 22.5641C1160.81 24.2783 1160.53 25.9562 1159.98 27.598C1159.42 29.2398 1158.6 30.7246 1157.51 32.0525C1156.43 33.3563 1155.08 34.4065 1153.46 35.2033C1151.84 35.9759 1149.97 36.3622 1147.84 36.3622ZM1147.84 33.0665C1149.37 33.0665 1150.71 32.7768 1151.86 32.1974C1153.02 31.6179 1153.99 30.8333 1154.76 29.8434C1155.56 28.8535 1156.16 27.7308 1156.57 26.4753C1156.98 25.2199 1157.19 23.9161 1157.19 22.5641C1157.19 21.2362 1156.98 19.9565 1156.57 18.7252C1156.16 17.4697 1155.56 16.3471 1154.76 15.3572C1153.99 14.3673 1153.02 13.5826 1151.86 13.0032C1150.71 12.4237 1149.37 12.134 1147.84 12.134C1146.32 12.134 1144.98 12.4237 1143.82 13.0032C1142.67 13.5826 1141.69 14.3673 1140.89 15.3572C1140.12 16.3471 1139.53 17.4697 1139.12 18.7252C1138.71 19.9565 1138.5 21.2362 1138.5 22.5641C1138.5 23.9161 1138.71 25.2199 1139.12 26.4753C1139.53 27.7308 1140.12 28.8535 1140.89 29.8434C1141.69 30.8333 1142.67 31.6179 1143.82 32.1974C1144.98 32.7768 1146.32 33.0665 1147.84 33.0665ZM1167.72 36V12.3151L1159.36 12.3151V9.20055L1179.64 9.20055V12.3151L1171.27 12.3151V36H1167.72ZM1191.16 36.3622C1189.03 36.3622 1187.16 35.9759 1185.54 35.2033C1183.92 34.4065 1182.57 33.3563 1181.49 32.0525C1180.4 30.7246 1179.58 29.2398 1179.02 27.598C1178.47 25.9562 1178.19 24.2783 1178.19 22.5641C1178.19 20.8499 1178.47 19.1839 1179.02 17.5663C1179.58 15.9246 1180.4 14.4518 1181.49 13.148C1182.57 11.8443 1183.92 10.8061 1185.54 10.0335C1187.16 9.23676 1189.03 8.83839 1191.16 8.83839C1193.28 8.83839 1195.15 9.23676 1196.77 10.0335C1198.39 10.8061 1199.74 11.8443 1200.83 13.148C1201.91 14.4518 1202.73 15.9246 1203.29 17.5663C1203.84 19.1839 1204.12 20.8499 1204.12 22.5641C1204.12 24.2783 1203.84 25.9562 1203.29 27.598C1202.73 29.2398 1201.91 30.7246 1200.83 32.0525C1199.74 33.3563 1198.39 34.4065 1196.77 35.2033C1195.15 35.9759 1193.28 36.3622 1191.16 36.3622ZM1191.16 33.0665C1192.68 33.0665 1194.02 32.7768 1195.18 32.1974C1196.33 31.6179 1197.3 30.8333 1198.07 29.8434C1198.87 28.8535 1199.47 27.7308 1199.88 26.4753C1200.29 25.2199 1200.5 23.9161 1200.5 22.5641C1200.5 21.2362 1200.29 19.9565 1199.88 18.7252C1199.47 17.4697 1198.87 16.3471 1198.07 15.3572C1197.3 14.3673 1196.33 13.5826 1195.18 13.0032C1194.02 12.4237 1192.68 12.134 1191.16 12.134C1189.63 12.134 1188.29 12.4237 1187.14 13.0032C1185.98 13.5826 1185 14.3673 1184.2 15.3572C1183.43 16.3471 1182.84 17.4697 1182.43 18.7252C1182.02 19.9565 1181.81 21.2362 1181.81 22.5641C1181.81 23.9161 1182.02 25.2199 1182.43 26.4753C1182.84 27.7308 1183.43 28.8535 1184.2 29.8434C1185 30.8333 1185.98 31.6179 1187.14 32.1974C1188.29 32.7768 1189.63 33.0665 1191.16 33.0665ZM1206.48 36V9.20055L1209.67 9.20055L1223.65 29.5899V9.20055H1227.2V36H1224.01L1210.03 15.6469V36H1206.48ZM1230.47 36V9.20055L1247.49 9.20055V12.3151L1234.02 12.3151V20.7895L1245.83 20.7895V23.904L1234.02 23.904V32.8855H1247.67V36H1230.47ZM1256.21 36V9.20055H1260.88L1268.77 25.1354L1276.63 9.20055H1281.3V36H1277.83V14.4156L1270.44 29.1191H1267.07L1259.68 14.3431V36H1256.21ZM1283.28 36L1292.73 9.20055L1297.18 9.20055L1306.67 36H1302.91L1300.66 29.5899H1289.29L1287.04 36H1283.28ZM1290.38 26.4029H1299.57L1294.98 13.2567L1290.38 26.4029ZM1308.68 36V9.20055H1311.86L1325.84 29.5899V9.20055L1329.39 9.20055V36H1326.21L1312.23 15.6469V36L1308.68 36ZM1344.73 36.3622C1342.6 36.3622 1340.73 35.9759 1339.11 35.2033C1337.5 34.4065 1336.14 33.3563 1335.06 32.0525C1333.97 30.7246 1333.15 29.2398 1332.59 27.598C1332.04 25.9562 1331.76 24.2783 1331.76 22.5641C1331.76 20.8499 1332.04 19.1839 1332.59 17.5663C1333.15 15.9246 1333.97 14.4518 1335.06 13.148C1336.14 11.8443 1337.5 10.8061 1339.11 10.0335C1340.73 9.23676 1342.6 8.83839 1344.73 8.83839C1346.85 8.83839 1348.72 9.23676 1350.34 10.0335C1351.96 10.8061 1353.31 11.8443 1354.4 13.148C1355.48 14.4518 1356.3 15.9246 1356.86 17.5663C1357.41 19.1839 1357.69 20.8499 1357.69 22.5641C1357.69 24.2783 1357.41 25.9562 1356.86 27.598C1356.3 29.2398 1355.48 30.7246 1354.4 32.0525C1353.31 33.3563 1351.96 34.4065 1350.34 35.2033C1348.72 35.9759 1346.85 36.3622 1344.73 36.3622ZM1344.73 33.0665C1346.25 33.0665 1347.59 32.7768 1348.75 32.1974C1349.91 31.6179 1350.87 30.8333 1351.64 29.8434C1352.44 28.8535 1353.04 27.7308 1353.45 26.4753C1353.86 25.2199 1354.07 23.9161 1354.07 22.5641C1354.07 21.2362 1353.86 19.9565 1353.45 18.7252C1353.04 17.4697 1352.44 16.3471 1351.64 15.3572C1350.87 14.3673 1349.91 13.5826 1348.75 13.0032C1347.59 12.4237 1346.25 12.134 1344.73 12.134C1343.21 12.134 1341.87 12.4237 1340.71 13.0032C1339.55 13.5826 1338.57 14.3673 1337.77 15.3572C1337 16.3471 1336.41 17.4697 1336 18.7252C1335.59 19.9565 1335.38 21.2362 1335.38 22.5641C1335.38 23.9161 1335.59 25.2199 1336 26.4753C1336.41 27.7308 1337 28.8535 1337.77 29.8434C1338.57 30.8333 1339.55 31.6179 1340.71 32.1974C1341.87 32.7768 1343.21 33.0665 1344.73 33.0665Z" fill="white"/>
<path d="M1365.14 35.6318V19.6604H1371.44C1372.72 19.6604 1373.78 19.9194 1374.63 20.4374C1375.48 20.941 1376.11 21.6029 1376.53 22.4231C1376.96 23.2288 1377.18 24.0706 1377.18 24.9483C1377.18 25.826 1376.96 26.6749 1376.53 27.4951C1376.11 28.3008 1375.48 28.9627 1374.63 29.4807C1373.78 29.9987 1372.72 30.2577 1371.44 30.2577H1368.07V35.6318H1365.14ZM1371.42 22.2072H1368.07V27.7109H1371.42C1372.05 27.7109 1372.57 27.5814 1372.99 27.3224C1373.41 27.049 1373.72 26.7037 1373.92 26.2864C1374.14 25.8548 1374.24 25.4159 1374.24 24.9699C1374.24 24.5094 1374.14 24.0706 1373.92 23.6533C1373.72 23.236 1373.41 22.8907 1372.99 22.6173C1372.57 22.3439 1372.05 22.2072 1371.42 22.2072ZM1382.98 35.8477C1381.72 35.8477 1380.66 35.5671 1379.78 35.0059C1378.9 34.4448 1378.23 33.7181 1377.77 32.8261C1377.33 31.9196 1377.11 30.9483 1377.11 29.9124C1377.11 28.8764 1377.33 27.9123 1377.77 27.0202C1378.23 26.1138 1378.9 25.3799 1379.78 24.8188C1380.66 24.2576 1381.72 23.977 1382.98 23.977C1384.24 23.977 1385.31 24.2576 1386.17 24.8188C1387.05 25.3799 1387.71 26.1138 1388.16 27.0202C1388.62 27.9123 1388.85 28.8764 1388.85 29.9124C1388.85 30.9483 1388.62 31.9196 1388.16 32.8261C1387.71 33.7181 1387.05 34.4448 1386.17 35.0059C1385.31 35.5671 1384.24 35.8477 1382.98 35.8477ZM1382.98 33.452C1383.62 33.452 1384.16 33.2865 1384.59 32.9555C1385.04 32.6246 1385.38 32.193 1385.61 31.6606C1385.84 31.1138 1385.95 30.5311 1385.95 29.9124C1385.95 29.2793 1385.84 28.6965 1385.61 28.1641C1385.38 27.6318 1385.04 27.2001 1384.59 26.8692C1384.16 26.5382 1383.62 26.3727 1382.98 26.3727C1382.34 26.3727 1381.8 26.5382 1381.36 26.8692C1380.91 27.2001 1380.57 27.6318 1380.34 28.1641C1380.11 28.6965 1380 29.2793 1380 29.9124C1380 30.5311 1380.11 31.1138 1380.34 31.6606C1380.57 32.193 1380.91 32.6246 1381.36 32.9555C1381.8 33.2865 1382.34 33.452 1382.98 33.452ZM1389.85 35.6318V24.1929H1392.7V25.7684H1392.8C1393.01 25.3224 1393.34 24.9123 1393.8 24.5382C1394.26 24.1641 1394.95 23.977 1395.87 23.977C1396.16 23.977 1396.39 23.9986 1396.58 24.0418C1396.77 24.0706 1396.86 24.085 1396.86 24.085V26.8692C1396.86 26.8692 1396.75 26.8548 1396.54 26.826C1396.34 26.7972 1396.08 26.7828 1395.78 26.7828C1394.77 26.7828 1394.01 27.0634 1393.49 27.6246C1392.98 28.1857 1392.72 29.0922 1392.72 30.344V35.6318H1389.85ZM1398.78 35.6318V26.5022H1396.94V24.1929H1398.78V23.1353C1398.78 22.7036 1398.84 22.2504 1398.95 21.7756C1399.07 21.2864 1399.26 20.8331 1399.53 20.4158C1399.82 19.9986 1400.22 19.6604 1400.72 19.4014C1401.24 19.1425 1401.89 19.013 1402.66 19.013C1403.1 19.013 1403.45 19.0489 1403.72 19.1209C1404.01 19.1784 1404.15 19.2072 1404.15 19.2072V21.3007C1404.15 21.3007 1404.06 21.2864 1403.87 21.2576C1403.69 21.2144 1403.48 21.1928 1403.27 21.1928C1402.65 21.1928 1402.23 21.3727 1402 21.7324C1401.77 22.0921 1401.65 22.5598 1401.65 23.1353V24.1929H1404.09V26.5022H1401.65V35.6318H1398.78ZM1409.81 35.8477C1408.55 35.8477 1407.49 35.5671 1406.61 35.0059C1405.73 34.4448 1405.07 33.7181 1404.6 32.8261C1404.16 31.9196 1403.94 30.9483 1403.94 29.9124C1403.94 28.8764 1404.16 27.9123 1404.6 27.0202C1405.07 26.1138 1405.73 25.3799 1406.61 24.8188C1407.49 24.2576 1408.55 23.977 1409.81 23.977C1411.07 23.977 1412.14 24.2576 1413 24.8188C1413.88 25.3799 1414.54 26.1138 1414.99 27.0202C1415.45 27.9123 1415.68 28.8764 1415.68 29.9124C1415.68 30.9483 1415.45 31.9196 1414.99 32.8261C1414.54 33.7181 1413.88 34.4448 1413 35.0059C1412.14 35.5671 1411.07 35.8477 1409.81 35.8477ZM1409.81 33.452C1410.45 33.452 1410.99 33.2865 1411.43 32.9555C1411.87 32.6246 1412.21 32.193 1412.44 31.6606C1412.67 31.1138 1412.78 30.5311 1412.78 29.9124C1412.78 29.2793 1412.67 28.6965 1412.44 28.1641C1412.21 27.6318 1411.87 27.2001 1411.43 26.8692C1410.99 26.5382 1410.45 26.3727 1409.81 26.3727C1409.17 26.3727 1408.63 26.5382 1408.19 26.8692C1407.74 27.2001 1407.4 27.6318 1407.17 28.1641C1406.94 28.6965 1406.83 29.2793 1406.83 29.9124C1406.83 30.5311 1406.94 31.1138 1407.17 31.6606C1407.4 32.193 1407.74 32.6246 1408.19 32.9555C1408.63 33.2865 1409.17 33.452 1409.81 33.452ZM1416.81 35.6318L1416.83 19.2288H1419.68V35.6318H1416.81ZM1422.79 22.4231C1422.29 22.4231 1421.87 22.2576 1421.54 21.9267C1421.23 21.5957 1421.07 21.2 1421.07 20.7396C1421.07 20.2792 1421.23 19.8835 1421.54 19.5525C1421.87 19.2216 1422.29 19.0561 1422.79 19.0561C1423.3 19.0561 1423.72 19.2216 1424.05 19.5525C1424.38 19.8835 1424.54 20.2792 1424.54 20.7396C1424.54 21.2 1424.38 21.5957 1424.05 21.9267C1423.72 22.2576 1423.3 22.4231 1422.79 22.4231ZM1421.37 35.6318V24.1929H1424.24V35.6318H1421.37ZM1431.41 35.8477C1430.16 35.8477 1429.09 35.5671 1428.22 35.0059C1427.34 34.4448 1426.67 33.7181 1426.21 32.8261C1425.76 31.9196 1425.54 30.9483 1425.54 29.9124C1425.54 28.8764 1425.76 27.9123 1426.21 27.0202C1426.67 26.1138 1427.34 25.3799 1428.22 24.8188C1429.09 24.2576 1430.16 23.977 1431.41 23.977C1432.68 23.977 1433.74 24.2576 1434.6 24.8188C1435.48 25.3799 1436.14 26.1138 1436.59 27.0202C1437.05 27.9123 1437.28 28.8764 1437.28 29.9124C1437.28 30.9483 1437.05 31.9196 1436.59 32.8261C1436.14 33.7181 1435.48 34.4448 1434.6 35.0059C1433.74 35.5671 1432.68 35.8477 1431.41 35.8477ZM1431.41 33.452C1432.06 33.452 1432.6 33.2865 1433.03 32.9555C1433.47 32.6246 1433.81 32.193 1434.04 31.6606C1434.27 31.1138 1434.39 30.5311 1434.39 29.9124C1434.39 29.2793 1434.27 28.6965 1434.04 28.1641C1433.81 27.6318 1433.47 27.2001 1433.03 26.8692C1432.6 26.5382 1432.06 26.3727 1431.41 26.3727C1430.78 26.3727 1430.24 26.5382 1429.79 26.8692C1429.34 27.2001 1429.01 27.6318 1428.78 28.1641C1428.55 28.6965 1428.43 29.2793 1428.43 29.9124C1428.43 30.5311 1428.55 31.1138 1428.78 31.6606C1429.01 32.193 1429.34 32.6246 1429.79 32.9555C1430.24 33.2865 1430.78 33.452 1431.41 33.452ZM1440.37 35.8477C1439.88 35.8477 1439.48 35.6822 1439.17 35.3513C1438.85 35.0059 1438.69 34.603 1438.69 34.1426C1438.69 33.6822 1438.85 33.2865 1439.17 32.9555C1439.48 32.6246 1439.88 32.4591 1440.37 32.4591C1440.86 32.4591 1441.27 32.6246 1441.58 32.9555C1441.91 33.2865 1442.08 33.6822 1442.08 34.1426C1442.08 34.6174 1441.91 35.0203 1441.58 35.3513C1441.27 35.6822 1440.86 35.8477 1440.37 35.8477Z" fill="white"/>
<path d="M744.897 36V9.20055L748.446 9.20055V21.2965L760.035 9.23676H764.671L752.14 22.0933L765.214 36L760.434 36L748.446 23.2159V36H744.897ZM776.844 36.3622C774.72 36.3622 772.849 35.9759 771.231 35.2033C769.613 34.4065 768.261 33.3563 767.175 32.0525C766.088 30.7246 765.268 29.2398 764.712 27.598C764.157 25.9562 763.879 24.2783 763.879 22.5641C763.879 20.8499 764.157 19.1839 764.712 17.5663C765.268 15.9246 766.088 14.4518 767.175 13.148C768.261 11.8443 769.613 10.8061 771.231 10.0335C772.849 9.23676 774.72 8.83839 776.844 8.83839C778.969 8.83839 780.84 9.23676 782.458 10.0335C784.075 10.8061 785.427 11.8443 786.514 13.148C787.6 14.4518 788.421 15.9246 788.977 17.5663C789.532 19.1839 789.81 20.8499 789.81 22.5641C789.81 24.2783 789.532 25.9562 788.977 27.598C788.421 29.2398 787.6 30.7246 786.514 32.0525C785.427 33.3563 784.075 34.4065 782.458 35.2033C780.84 35.9759 778.969 36.3622 776.844 36.3622ZM776.844 33.0665C778.365 33.0665 779.705 32.7768 780.864 32.1974C782.023 31.6179 782.989 30.8333 783.762 29.8434C784.558 28.8535 785.162 27.7308 785.572 26.4753C785.983 25.2199 786.188 23.9161 786.188 22.5641C786.188 21.2362 785.983 19.9565 785.572 18.7252C785.162 17.4697 784.558 16.3471 783.762 15.3572C782.989 14.3673 782.023 13.5826 780.864 13.0032C779.705 12.4237 778.365 12.134 776.844 12.134C775.323 12.134 773.983 12.4237 772.824 13.0032C771.666 13.5826 770.688 14.3673 769.891 15.3572C769.118 16.3471 768.527 17.4697 768.116 18.7252C767.706 19.9565 767.501 21.2362 767.501 22.5641C767.501 23.9161 767.706 25.2199 768.116 26.4753C768.527 27.7308 769.118 28.8535 769.891 29.8434C770.688 30.8333 771.666 31.6179 772.824 32.1974C773.983 32.7768 775.323 33.0665 776.844 33.0665ZM796.722 36V12.3151L788.356 12.3151V9.20055L808.636 9.20055V12.3151L800.271 12.3151V36H796.722ZM820.156 36.3622C818.031 36.3622 816.16 35.9759 814.542 35.2033C812.925 34.4065 811.573 33.3563 810.486 32.0525C809.4 30.7246 808.579 29.2398 808.024 27.598C807.468 25.9562 807.191 24.2783 807.191 22.5641C807.191 20.8499 807.468 19.1839 808.024 17.5663C808.579 15.9246 809.4 14.4518 810.486 13.148C811.573 11.8443 812.925 10.8061 814.542 10.0335C816.16 9.23676 818.031 8.83839 820.156 8.83839C822.28 8.83839 824.152 9.23676 825.769 10.0335C827.387 10.8061 828.739 11.8443 829.825 13.148C830.912 14.4518 831.733 15.9246 832.288 17.5663C832.843 19.1839 833.121 20.8499 833.121 22.5641C833.121 24.2783 832.843 25.9562 832.288 27.598C831.733 29.2398 830.912 30.7246 829.825 32.0525C828.739 33.3563 827.387 34.4065 825.769 35.2033C824.152 35.9759 822.28 36.3622 820.156 36.3622ZM820.156 33.0665C821.677 33.0665 823.017 32.7768 824.176 32.1974C825.335 31.6179 826.3 30.8333 827.073 29.8434C827.87 28.8535 828.473 27.7308 828.884 26.4753C829.294 25.2199 829.499 23.9161 829.499 22.5641C829.499 21.2362 829.294 19.9565 828.884 18.7252C828.473 17.4697 827.87 16.3471 827.073 15.3572C826.3 14.3673 825.335 13.5826 824.176 13.0032C823.017 12.4237 821.677 12.134 820.156 12.134C818.635 12.134 817.295 12.4237 816.136 13.0032C814.977 13.5826 813.999 14.3673 813.202 15.3572C812.43 16.3471 811.838 17.4697 811.428 18.7252C811.017 19.9565 810.812 21.2362 810.812 22.5641C810.812 23.9161 811.017 25.2199 811.428 26.4753C811.838 27.7308 812.43 28.8535 813.202 29.8434C813.999 30.8333 814.977 31.6179 816.136 32.1974C817.295 32.7768 818.635 33.0665 820.156 33.0665ZM835.481 36V9.20055L838.668 9.20055L852.647 29.5899V9.20055H856.196V36H853.009L839.03 15.6469V36H835.481ZM859.471 36V9.20055L876.492 9.20055V12.3151L863.02 12.3151V20.7895L874.826 20.7895V23.904L863.02 23.904V32.8855H876.673V36H859.471ZM885.205 36V9.20055H889.877L897.772 25.1354L905.631 9.20055H910.303V36H906.826V14.4156L899.438 29.1191H896.07L888.682 14.3431V36H885.205ZM912.278 36L921.73 9.20055L926.185 9.20055L935.673 36H931.907L929.661 29.5899H918.29L916.044 36H912.278ZM919.376 26.4029H928.575L923.975 13.2567L919.376 26.4029ZM937.677 36V9.20055H940.864L954.843 29.5899V9.20055L958.392 9.20055V36H955.205L941.226 15.6469V36L937.677 36ZM973.726 36.3622C971.602 36.3622 969.731 35.9759 968.113 35.2033C966.495 34.4065 965.143 33.3563 964.057 32.0525C962.97 30.7246 962.15 29.2398 961.594 27.598C961.039 25.9562 960.761 24.2783 960.761 22.5641C960.761 20.8499 961.039 19.1839 961.594 17.5663C962.15 15.9246 962.97 14.4518 964.057 13.148C965.143 11.8443 966.495 10.8061 968.113 10.0335C969.731 9.23676 971.602 8.83839 973.726 8.83839C975.851 8.83839 977.722 9.23676 979.34 10.0335C980.957 10.8061 982.31 11.8443 983.396 13.148C984.482 14.4518 985.303 15.9246 985.859 17.5663C986.414 19.1839 986.692 20.8499 986.692 22.5641C986.692 24.2783 986.414 25.9562 985.859 27.598C985.303 29.2398 984.482 30.7246 983.396 32.0525C982.31 33.3563 980.957 34.4065 979.34 35.2033C977.722 35.9759 975.851 36.3622 973.726 36.3622ZM973.726 33.0665C975.247 33.0665 976.587 32.7768 977.746 32.1974C978.905 31.6179 979.871 30.8333 980.644 29.8434C981.44 28.8535 982.044 27.7308 982.454 26.4753C982.865 25.2199 983.07 23.9161 983.07 22.5641C983.07 21.2362 982.865 19.9565 982.454 18.7252C982.044 17.4697 981.44 16.3471 980.644 15.3572C979.871 14.3673 978.905 13.5826 977.746 13.0032C976.587 12.4237 975.247 12.134 973.726 12.134C972.205 12.134 970.865 12.4237 969.707 13.0032C968.548 13.5826 967.57 14.3673 966.773 15.3572C966 16.3471 965.409 17.4697 964.999 18.7252C964.588 19.9565 964.383 21.2362 964.383 22.5641C964.383 23.9161 964.588 25.2199 964.999 26.4753C965.409 27.7308 966 28.8535 966.773 29.8434C967.57 30.8333 968.548 31.6179 969.707 32.1974C970.865 32.7768 972.205 33.0665 973.726 33.0665Z" fill="white"/>
<path d="M994.136 35.6318V19.6604H1000.44C1001.72 19.6604 1002.78 19.9194 1003.63 20.4374C1004.48 20.941 1005.11 21.6029 1005.53 22.4231C1005.96 23.2288 1006.18 24.0706 1006.18 24.9483C1006.18 25.826 1005.96 26.6749 1005.53 27.4951C1005.11 28.3008 1004.48 28.9627 1003.63 29.4807C1002.78 29.9987 1001.72 30.2577 1000.44 30.2577H997.071V35.6318H994.136ZM1000.42 22.2072H997.071V27.7109H1000.42C1001.05 27.7109 1001.57 27.5814 1001.99 27.3224C1002.41 27.049 1002.72 26.7037 1002.92 26.2864C1003.14 25.8548 1003.24 25.4159 1003.24 24.9699C1003.24 24.5094 1003.14 24.0706 1002.92 23.6533C1002.72 23.236 1002.41 22.8907 1001.99 22.6173C1001.57 22.3439 1001.05 22.2072 1000.42 22.2072ZM1011.98 35.8477C1010.72 35.8477 1009.66 35.5671 1008.78 35.0059C1007.9 34.4448 1007.23 33.7181 1006.77 32.8261C1006.33 31.9196 1006.11 30.9483 1006.11 29.9124C1006.11 28.8764 1006.33 27.9123 1006.77 27.0202C1007.23 26.1138 1007.9 25.3799 1008.78 24.8188C1009.66 24.2576 1010.72 23.977 1011.98 23.977C1013.24 23.977 1014.31 24.2576 1015.17 24.8188C1016.05 25.3799 1016.71 26.1138 1017.16 27.0202C1017.62 27.9123 1017.85 28.8764 1017.85 29.9124C1017.85 30.9483 1017.62 31.9196 1017.16 32.8261C1016.71 33.7181 1016.05 34.4448 1015.17 35.0059C1014.31 35.5671 1013.24 35.8477 1011.98 35.8477ZM1011.98 33.452C1012.62 33.452 1013.16 33.2865 1013.59 32.9555C1014.04 32.6246 1014.38 32.193 1014.61 31.6606C1014.84 31.1138 1014.95 30.5311 1014.95 29.9124C1014.95 29.2793 1014.84 28.6965 1014.61 28.1641C1014.38 27.6318 1014.04 27.2001 1013.59 26.8692C1013.16 26.5382 1012.62 26.3727 1011.98 26.3727C1011.34 26.3727 1010.8 26.5382 1010.36 26.8692C1009.91 27.2001 1009.57 27.6318 1009.34 28.1641C1009.11 28.6965 1009 29.2793 1009 29.9124C1009 30.5311 1009.11 31.1138 1009.34 31.6606C1009.57 32.193 1009.91 32.6246 1010.36 32.9555C1010.8 33.2865 1011.34 33.452 1011.98 33.452ZM1018.85 35.6318V24.1929H1021.7V25.7684H1021.8C1022.01 25.3224 1022.34 24.9123 1022.8 24.5382C1023.26 24.1641 1023.95 23.977 1024.87 23.977C1025.16 23.977 1025.39 23.9986 1025.58 24.0418C1025.77 24.0706 1025.86 24.085 1025.86 24.085V26.8692C1025.86 26.8692 1025.75 26.8548 1025.54 26.826C1025.34 26.7972 1025.08 26.7828 1024.78 26.7828C1023.77 26.7828 1023.01 27.0634 1022.49 27.6246C1021.98 28.1857 1021.72 29.0922 1021.72 30.344V35.6318H1018.85ZM1027.78 35.6318V26.5022H1025.94V24.1929H1027.78V23.1353C1027.78 22.7036 1027.84 22.2504 1027.95 21.7756C1028.07 21.2864 1028.26 20.8331 1028.53 20.4158C1028.82 19.9986 1029.22 19.6604 1029.72 19.4014C1030.24 19.1425 1030.89 19.013 1031.66 19.013C1032.1 19.013 1032.45 19.0489 1032.72 19.1209C1033.01 19.1784 1033.15 19.2072 1033.15 19.2072V21.3007C1033.15 21.3007 1033.06 21.2864 1032.87 21.2576C1032.69 21.2144 1032.48 21.1928 1032.27 21.1928C1031.65 21.1928 1031.23 21.3727 1031 21.7324C1030.77 22.0921 1030.65 22.5598 1030.65 23.1353V24.1929H1033.09V26.5022H1030.65V35.6318H1027.78ZM1038.81 35.8477C1037.55 35.8477 1036.49 35.5671 1035.61 35.0059C1034.73 34.4448 1034.07 33.7181 1033.6 32.8261C1033.16 31.9196 1032.94 30.9483 1032.94 29.9124C1032.94 28.8764 1033.16 27.9123 1033.6 27.0202C1034.07 26.1138 1034.73 25.3799 1035.61 24.8188C1036.49 24.2576 1037.55 23.977 1038.81 23.977C1040.07 23.977 1041.14 24.2576 1042 24.8188C1042.88 25.3799 1043.54 26.1138 1043.99 27.0202C1044.45 27.9123 1044.68 28.8764 1044.68 29.9124C1044.68 30.9483 1044.45 31.9196 1043.99 32.8261C1043.54 33.7181 1042.88 34.4448 1042 35.0059C1041.14 35.5671 1040.07 35.8477 1038.81 35.8477ZM1038.81 33.452C1039.45 33.452 1039.99 33.2865 1040.43 32.9555C1040.87 32.6246 1041.21 32.193 1041.44 31.6606C1041.67 31.1138 1041.78 30.5311 1041.78 29.9124C1041.78 29.2793 1041.67 28.6965 1041.44 28.1641C1041.21 27.6318 1040.87 27.2001 1040.43 26.8692C1039.99 26.5382 1039.45 26.3727 1038.81 26.3727C1038.17 26.3727 1037.63 26.5382 1037.19 26.8692C1036.74 27.2001 1036.4 27.6318 1036.17 28.1641C1035.94 28.6965 1035.83 29.2793 1035.83 29.9124C1035.83 30.5311 1035.94 31.1138 1036.17 31.6606C1036.4 32.193 1036.74 32.6246 1037.19 32.9555C1037.63 33.2865 1038.17 33.452 1038.81 33.452ZM1045.81 35.6318L1045.83 19.2288H1048.68V35.6318H1045.81ZM1051.79 22.4231C1051.29 22.4231 1050.87 22.2576 1050.54 21.9267C1050.23 21.5957 1050.07 21.2 1050.07 20.7396C1050.07 20.2792 1050.23 19.8835 1050.54 19.5525C1050.87 19.2216 1051.29 19.0561 1051.79 19.0561C1052.3 19.0561 1052.72 19.2216 1053.05 19.5525C1053.38 19.8835 1053.54 20.2792 1053.54 20.7396C1053.54 21.2 1053.38 21.5957 1053.05 21.9267C1052.72 22.2576 1052.3 22.4231 1051.79 22.4231ZM1050.37 35.6318V24.1929H1053.24V35.6318H1050.37ZM1060.41 35.8477C1059.16 35.8477 1058.09 35.5671 1057.22 35.0059C1056.34 34.4448 1055.67 33.7181 1055.21 32.8261C1054.76 31.9196 1054.54 30.9483 1054.54 29.9124C1054.54 28.8764 1054.76 27.9123 1055.21 27.0202C1055.67 26.1138 1056.34 25.3799 1057.22 24.8188C1058.09 24.2576 1059.16 23.977 1060.41 23.977C1061.68 23.977 1062.74 24.2576 1063.6 24.8188C1064.48 25.3799 1065.14 26.1138 1065.59 27.0202C1066.05 27.9123 1066.28 28.8764 1066.28 29.9124C1066.28 30.9483 1066.05 31.9196 1065.59 32.8261C1065.14 33.7181 1064.48 34.4448 1063.6 35.0059C1062.74 35.5671 1061.68 35.8477 1060.41 35.8477ZM1060.41 33.452C1061.06 33.452 1061.6 33.2865 1062.03 32.9555C1062.47 32.6246 1062.81 32.193 1063.04 31.6606C1063.27 31.1138 1063.39 30.5311 1063.39 29.9124C1063.39 29.2793 1063.27 28.6965 1063.04 28.1641C1062.81 27.6318 1062.47 27.2001 1062.03 26.8692C1061.6 26.5382 1061.06 26.3727 1060.41 26.3727C1059.78 26.3727 1059.24 26.5382 1058.79 26.8692C1058.34 27.2001 1058.01 27.6318 1057.78 28.1641C1057.55 28.6965 1057.43 29.2793 1057.43 29.9124C1057.43 30.5311 1057.55 31.1138 1057.78 31.6606C1058.01 32.193 1058.34 32.6246 1058.79 32.9555C1059.24 33.2865 1059.78 33.452 1060.41 33.452ZM1069.37 35.8477C1068.88 35.8477 1068.48 35.6822 1068.17 35.3513C1067.85 35.0059 1067.69 34.603 1067.69 34.1426C1067.69 33.6822 1067.85 33.2865 1068.17 32.9555C1068.48 32.6246 1068.88 32.4591 1069.37 32.4591C1069.86 32.4591 1070.27 32.6246 1070.58 32.9555C1070.91 33.2865 1071.08 33.6822 1071.08 34.1426C1071.08 34.6174 1070.91 35.0203 1070.58 35.3513C1070.27 35.6822 1069.86 35.8477 1069.37 35.8477Z" fill="white"/>
<path d="M373.897 36V9.20055L377.446 9.20055V21.2965L389.035 9.23676H393.671L381.14 22.0933L394.214 36L389.434 36L377.446 23.2159V36H373.897ZM405.844 36.3622C403.72 36.3622 401.849 35.9759 400.231 35.2033C398.613 34.4065 397.261 33.3563 396.175 32.0525C395.088 30.7246 394.268 29.2398 393.712 27.598C393.157 25.9562 392.879 24.2783 392.879 22.5641C392.879 20.8499 393.157 19.1839 393.712 17.5663C394.268 15.9246 395.088 14.4518 396.175 13.148C397.261 11.8443 398.613 10.8061 400.231 10.0335C401.849 9.23676 403.72 8.83839 405.844 8.83839C407.969 8.83839 409.84 9.23676 411.458 10.0335C413.075 10.8061 414.427 11.8443 415.514 13.148C416.6 14.4518 417.421 15.9246 417.977 17.5663C418.532 19.1839 418.81 20.8499 418.81 22.5641C418.81 24.2783 418.532 25.9562 417.977 27.598C417.421 29.2398 416.6 30.7246 415.514 32.0525C414.427 33.3563 413.075 34.4065 411.458 35.2033C409.84 35.9759 407.969 36.3622 405.844 36.3622ZM405.844 33.0665C407.365 33.0665 408.705 32.7768 409.864 32.1974C411.023 31.6179 411.989 30.8333 412.762 29.8434C413.558 28.8535 414.162 27.7308 414.572 26.4753C414.983 25.2199 415.188 23.9161 415.188 22.5641C415.188 21.2362 414.983 19.9565 414.572 18.7252C414.162 17.4697 413.558 16.3471 412.762 15.3572C411.989 14.3673 411.023 13.5826 409.864 13.0032C408.705 12.4237 407.365 12.134 405.844 12.134C404.323 12.134 402.983 12.4237 401.824 13.0032C400.666 13.5826 399.688 14.3673 398.891 15.3572C398.118 16.3471 397.527 17.4697 397.116 18.7252C396.706 19.9565 396.501 21.2362 396.501 22.5641C396.501 23.9161 396.706 25.2199 397.116 26.4753C397.527 27.7308 398.118 28.8535 398.891 29.8434C399.688 30.8333 400.666 31.6179 401.824 32.1974C402.983 32.7768 404.323 33.0665 405.844 33.0665ZM425.722 36V12.3151L417.356 12.3151V9.20055L437.636 9.20055V12.3151L429.271 12.3151V36H425.722ZM449.156 36.3622C447.031 36.3622 445.16 35.9759 443.542 35.2033C441.925 34.4065 440.573 33.3563 439.486 32.0525C438.4 30.7246 437.579 29.2398 437.024 27.598C436.468 25.9562 436.191 24.2783 436.191 22.5641C436.191 20.8499 436.468 19.1839 437.024 17.5663C437.579 15.9246 438.4 14.4518 439.486 13.148C440.573 11.8443 441.925 10.8061 443.542 10.0335C445.16 9.23676 447.031 8.83839 449.156 8.83839C451.28 8.83839 453.152 9.23676 454.769 10.0335C456.387 10.8061 457.739 11.8443 458.825 13.148C459.912 14.4518 460.733 15.9246 461.288 17.5663C461.843 19.1839 462.121 20.8499 462.121 22.5641C462.121 24.2783 461.843 25.9562 461.288 27.598C460.733 29.2398 459.912 30.7246 458.825 32.0525C457.739 33.3563 456.387 34.4065 454.769 35.2033C453.152 35.9759 451.28 36.3622 449.156 36.3622ZM449.156 33.0665C450.677 33.0665 452.017 32.7768 453.176 32.1974C454.335 31.6179 455.3 30.8333 456.073 29.8434C456.87 28.8535 457.473 27.7308 457.884 26.4753C458.294 25.2199 458.499 23.9161 458.499 22.5641C458.499 21.2362 458.294 19.9565 457.884 18.7252C457.473 17.4697 456.87 16.3471 456.073 15.3572C455.3 14.3673 454.335 13.5826 453.176 13.0032C452.017 12.4237 450.677 12.134 449.156 12.134C447.635 12.134 446.295 12.4237 445.136 13.0032C443.977 13.5826 442.999 14.3673 442.202 15.3572C441.43 16.3471 440.838 17.4697 440.428 18.7252C440.017 19.9565 439.812 21.2362 439.812 22.5641C439.812 23.9161 440.017 25.2199 440.428 26.4753C440.838 27.7308 441.43 28.8535 442.202 29.8434C442.999 30.8333 443.977 31.6179 445.136 32.1974C446.295 32.7768 447.635 33.0665 449.156 33.0665ZM464.481 36V9.20055L467.668 9.20055L481.647 29.5899V9.20055H485.196V36H482.009L468.03 15.6469V36H464.481ZM488.471 36V9.20055L505.492 9.20055V12.3151L492.02 12.3151V20.7895L503.826 20.7895V23.904L492.02 23.904V32.8855H505.673V36H488.471ZM514.205 36V9.20055H518.877L526.772 25.1354L534.631 9.20055H539.303V36H535.826V14.4156L528.438 29.1191H525.07L517.682 14.3431V36H514.205ZM541.278 36L550.73 9.20055L555.185 9.20055L564.673 36H560.907L558.661 29.5899H547.29L545.044 36H541.278ZM548.376 26.4029H557.575L552.975 13.2567L548.376 26.4029ZM566.677 36V9.20055H569.864L583.843 29.5899V9.20055L587.392 9.20055V36H584.205L570.226 15.6469V36L566.677 36ZM602.726 36.3622C600.602 36.3622 598.731 35.9759 597.113 35.2033C595.495 34.4065 594.143 33.3563 593.057 32.0525C591.97 30.7246 591.15 29.2398 590.594 27.598C590.039 25.9562 589.761 24.2783 589.761 22.5641C589.761 20.8499 590.039 19.1839 590.594 17.5663C591.15 15.9246 591.97 14.4518 593.057 13.148C594.143 11.8443 595.495 10.8061 597.113 10.0335C598.731 9.23676 600.602 8.83839 602.726 8.83839C604.851 8.83839 606.722 9.23676 608.34 10.0335C609.957 10.8061 611.31 11.8443 612.396 13.148C613.482 14.4518 614.303 15.9246 614.859 17.5663C615.414 19.1839 615.692 20.8499 615.692 22.5641C615.692 24.2783 615.414 25.9562 614.859 27.598C614.303 29.2398 613.482 30.7246 612.396 32.0525C611.31 33.3563 609.957 34.4065 608.34 35.2033C606.722 35.9759 604.851 36.3622 602.726 36.3622ZM602.726 33.0665C604.247 33.0665 605.587 32.7768 606.746 32.1974C607.905 31.6179 608.871 30.8333 609.644 29.8434C610.44 28.8535 611.044 27.7308 611.454 26.4753C611.865 25.2199 612.07 23.9161 612.07 22.5641C612.07 21.2362 611.865 19.9565 611.454 18.7252C611.044 17.4697 610.44 16.3471 609.644 15.3572C608.871 14.3673 607.905 13.5826 606.746 13.0032C605.587 12.4237 604.247 12.134 602.726 12.134C601.205 12.134 599.865 12.4237 598.707 13.0032C597.548 13.5826 596.57 14.3673 595.773 15.3572C595 16.3471 594.409 17.4697 593.999 18.7252C593.588 19.9565 593.383 21.2362 593.383 22.5641C593.383 23.9161 593.588 25.2199 593.999 26.4753C594.409 27.7308 595 28.8535 595.773 29.8434C596.57 30.8333 597.548 31.6179 598.707 32.1974C599.865 32.7768 601.205 33.0665 602.726 33.0665Z" fill="white"/>
<path d="M623.136 35.6318V19.6604H629.438C630.719 19.6604 631.784 19.9194 632.633 20.4374C633.481 20.941 634.115 21.6029 634.532 22.4231C634.963 23.2288 635.179 24.0706 635.179 24.9483C635.179 25.826 634.963 26.6749 634.532 27.4951C634.115 28.3008 633.481 28.9627 632.633 29.4807C631.784 29.9987 630.719 30.2577 629.438 30.2577H626.071V35.6318H623.136ZM629.417 22.2072H626.071V27.7109H629.417C630.05 27.7109 630.575 27.5814 630.992 27.3224C631.409 27.049 631.719 26.7037 631.92 26.2864C632.136 25.8548 632.244 25.4159 632.244 24.9699C632.244 24.5094 632.136 24.0706 631.92 23.6533C631.719 23.236 631.409 22.8907 630.992 22.6173C630.575 22.3439 630.05 22.2072 629.417 22.2072ZM640.976 35.8477C639.724 35.8477 638.659 35.5671 637.782 35.0059C636.904 34.4448 636.235 33.7181 635.775 32.8261C635.328 31.9196 635.105 30.9483 635.105 29.9124C635.105 28.8764 635.328 27.9123 635.775 27.0202C636.235 26.1138 636.904 25.3799 637.782 24.8188C638.659 24.2576 639.724 23.977 640.976 23.977C642.242 23.977 643.307 24.2576 644.17 24.8188C645.048 25.3799 645.71 26.1138 646.156 27.0202C646.616 27.9123 646.847 28.8764 646.847 29.9124C646.847 30.9483 646.616 31.9196 646.156 32.8261C645.71 33.7181 645.048 34.4448 644.17 35.0059C643.307 35.5671 642.242 35.8477 640.976 35.8477ZM640.976 33.452C641.623 33.452 642.163 33.2865 642.595 32.9555C643.041 32.6246 643.379 32.193 643.609 31.6606C643.839 31.1138 643.954 30.5311 643.954 29.9124C643.954 29.2793 643.839 28.6965 643.609 28.1641C643.379 27.6318 643.041 27.2001 642.595 26.8692C642.163 26.5382 641.623 26.3727 640.976 26.3727C640.343 26.3727 639.803 26.5382 639.357 26.8692C638.911 27.2001 638.573 27.6318 638.343 28.1641C638.113 28.6965 637.998 29.2793 637.998 29.9124C637.998 30.5311 638.113 31.1138 638.343 31.6606C638.573 32.193 638.911 32.6246 639.357 32.9555C639.803 33.2865 640.343 33.452 640.976 33.452ZM647.847 35.6318V24.1929H650.696V25.7684H650.804C651.005 25.3224 651.336 24.9123 651.796 24.5382C652.257 24.1641 652.948 23.977 653.868 23.977C654.156 23.977 654.394 23.9986 654.581 24.0418C654.768 24.0706 654.861 24.085 654.861 24.085V26.8692C654.861 26.8692 654.753 26.8548 654.538 26.826C654.336 26.7972 654.084 26.7828 653.782 26.7828C652.775 26.7828 652.012 27.0634 651.494 27.6246C650.976 28.1857 650.717 29.0922 650.717 30.344V35.6318H647.847ZM656.779 35.6318V26.5022H654.945V24.1929H656.779V23.1353C656.779 22.7036 656.837 22.2504 656.952 21.7756C657.067 21.2864 657.261 20.8331 657.535 20.4158C657.823 19.9986 658.218 19.6604 658.722 19.4014C659.24 19.1425 659.887 19.013 660.664 19.013C661.096 19.013 661.449 19.0489 661.722 19.1209C662.01 19.1784 662.154 19.2072 662.154 19.2072V21.3007C662.154 21.3007 662.06 21.2864 661.873 21.2576C661.686 21.2144 661.485 21.1928 661.269 21.1928C660.65 21.1928 660.226 21.3727 659.995 21.7324C659.765 22.0921 659.65 22.5598 659.65 23.1353V24.1929H662.089V26.5022H659.65V35.6318H656.779ZM667.806 35.8477C666.555 35.8477 665.49 35.5671 664.612 35.0059C663.734 34.4448 663.065 33.7181 662.605 32.8261C662.159 31.9196 661.936 30.9483 661.936 29.9124C661.936 28.8764 662.159 27.9123 662.605 27.0202C663.065 26.1138 663.734 25.3799 664.612 24.8188C665.49 24.2576 666.555 23.977 667.806 23.977C669.073 23.977 670.137 24.2576 671.001 24.8188C671.878 25.3799 672.54 26.1138 672.986 27.0202C673.447 27.9123 673.677 28.8764 673.677 29.9124C673.677 30.9483 673.447 31.9196 672.986 32.8261C672.54 33.7181 671.878 34.4448 671.001 35.0059C670.137 35.5671 669.073 35.8477 667.806 35.8477ZM667.806 33.452C668.454 33.452 668.993 33.2865 669.425 32.9555C669.871 32.6246 670.209 32.193 670.439 31.6606C670.67 31.1138 670.785 30.5311 670.785 29.9124C670.785 29.2793 670.67 28.6965 670.439 28.1641C670.209 27.6318 669.871 27.2001 669.425 26.8692C668.993 26.5382 668.454 26.3727 667.806 26.3727C667.173 26.3727 666.634 26.5382 666.188 26.8692C665.742 27.2001 665.403 27.6318 665.173 28.1641C664.943 28.6965 664.828 29.2793 664.828 29.9124C664.828 30.5311 664.943 31.1138 665.173 31.6606C665.403 32.193 665.742 32.6246 666.188 32.9555C666.634 33.2865 667.173 33.452 667.806 33.452ZM674.809 35.6318L674.83 19.2288H677.679V35.6318H674.809ZM680.795 22.4231C680.291 22.4231 679.874 22.2576 679.543 21.9267C679.226 21.5957 679.068 21.2 679.068 20.7396C679.068 20.2792 679.226 19.8835 679.543 19.5525C679.874 19.2216 680.291 19.0561 680.795 19.0561C681.298 19.0561 681.715 19.2216 682.046 19.5525C682.377 19.8835 682.543 20.2792 682.543 20.7396C682.543 21.2 682.377 21.5957 682.046 21.9267C681.715 22.2576 681.298 22.4231 680.795 22.4231ZM679.37 35.6318V24.1929H682.241V35.6318H679.37ZM689.41 35.8477C688.158 35.8477 687.093 35.5671 686.215 35.0059C685.338 34.4448 684.668 33.7181 684.208 32.8261C683.762 31.9196 683.539 30.9483 683.539 29.9124C683.539 28.8764 683.762 27.9123 684.208 27.0202C684.668 26.1138 685.338 25.3799 686.215 24.8188C687.093 24.2576 688.158 23.977 689.41 23.977C690.676 23.977 691.74 24.2576 692.604 24.8188C693.482 25.3799 694.143 26.1138 694.589 27.0202C695.05 27.9123 695.28 28.8764 695.28 29.9124C695.28 30.9483 695.05 31.9196 694.589 32.8261C694.143 33.7181 693.482 34.4448 692.604 35.0059C691.74 35.5671 690.676 35.8477 689.41 35.8477ZM689.41 33.452C690.057 33.452 690.597 33.2865 691.028 32.9555C691.474 32.6246 691.812 32.193 692.043 31.6606C692.273 31.1138 692.388 30.5311 692.388 29.9124C692.388 29.2793 692.273 28.6965 692.043 28.1641C691.812 27.6318 691.474 27.2001 691.028 26.8692C690.597 26.5382 690.057 26.3727 689.41 26.3727C688.776 26.3727 688.237 26.5382 687.791 26.8692C687.345 27.2001 687.007 27.6318 686.776 28.1641C686.546 28.6965 686.431 29.2793 686.431 29.9124C686.431 30.5311 686.546 31.1138 686.776 31.6606C687.007 32.193 687.345 32.6246 687.791 32.9555C688.237 33.2865 688.776 33.452 689.41 33.452ZM698.374 35.8477C697.885 35.8477 697.482 35.6822 697.165 35.3513C696.849 35.0059 696.69 34.603 696.69 34.1426C696.69 33.6822 696.849 33.2865 697.165 32.9555C697.482 32.6246 697.885 32.4591 698.374 32.4591C698.863 32.4591 699.266 32.6246 699.583 32.9555C699.913 33.2865 700.079 33.6822 700.079 34.1426C700.079 34.6174 699.913 35.0203 699.583 35.3513C699.266 35.6822 698.863 35.8477 698.374 35.8477Z" fill="white"/>
<path d="M2.89724 36L2.89724 9.20055L6.44636 9.20055L6.44636 21.2965L18.0353 9.23676H22.6709L10.1403 22.0933L23.2141 36L18.4337 36L6.44636 23.2159L6.44636 36H2.89724ZM34.8444 36.3622C32.7197 36.3622 30.8486 35.9759 29.231 35.2033C27.6134 34.4065 26.2613 33.3563 25.1749 32.0525C24.0884 30.7246 23.2675 29.2398 22.7122 27.598C22.1569 25.9562 21.8792 24.2783 21.8792 22.5641C21.8792 20.8499 22.1569 19.1839 22.7122 17.5663C23.2675 15.9246 24.0884 14.4518 25.1749 13.148C26.2613 11.8443 27.6134 10.8061 29.231 10.0335C30.8486 9.23676 32.7197 8.83839 34.8444 8.83839C36.969 8.83839 38.8402 9.23676 40.4578 10.0335C42.0754 10.8061 43.4275 11.8443 44.5139 13.148C45.6004 14.4518 46.4213 15.9246 46.9766 17.5663C47.5319 19.1839 47.8095 20.8499 47.8095 22.5641C47.8095 24.2783 47.5319 25.9562 46.9766 27.598C46.4213 29.2398 45.6004 30.7246 44.5139 32.0525C43.4275 33.3563 42.0754 34.4065 40.4578 35.2033C38.8402 35.9759 36.969 36.3622 34.8444 36.3622ZM34.8444 33.0665C36.3654 33.0665 37.7054 32.7768 38.8643 32.1974C40.0232 31.6179 40.9889 30.8333 41.7615 29.8434C42.5583 28.8535 43.1619 27.7308 43.5723 26.4753C43.9828 25.2199 44.188 23.9161 44.188 22.5641C44.188 21.2362 43.9828 19.9565 43.5723 18.7252C43.1619 17.4697 42.5583 16.3471 41.7615 15.3572C40.9889 14.3673 40.0232 13.5826 38.8643 13.0032C37.7054 12.4237 36.3654 12.134 34.8444 12.134C33.3233 12.134 31.9834 12.4237 30.8245 13.0032C29.6656 13.5826 28.6878 14.3673 27.891 15.3572C27.1184 16.3471 26.5269 17.4697 26.1165 18.7252C25.706 19.9565 25.5008 21.2362 25.5008 22.5641C25.5008 23.9161 25.706 25.2199 26.1165 26.4753C26.5269 27.7308 27.1184 28.8535 27.891 29.8434C28.6878 30.8333 29.6656 31.6179 30.8245 32.1974C31.9834 32.7768 33.3233 33.0665 34.8444 33.0665ZM54.7216 36L54.7216 12.3151L46.3558 12.3151V9.20055L66.6365 9.20055V12.3151L58.2707 12.3151L58.2707 36H54.7216ZM78.1558 36.3622C76.0312 36.3622 74.1601 35.9759 72.5424 35.2033C70.9248 34.4065 69.5728 33.3563 68.4863 32.0525C67.3998 30.7246 66.5789 29.2398 66.0236 27.598C65.4683 25.9562 65.1907 24.2783 65.1907 22.5641C65.1907 20.8499 65.4683 19.1839 66.0236 17.5663C66.5789 15.9246 67.3998 14.4518 68.4863 13.148C69.5728 11.8443 70.9248 10.8061 72.5424 10.0335C74.1601 9.23676 76.0312 8.83839 78.1558 8.83839C80.2805 8.83839 82.1516 9.23676 83.7692 10.0335C85.3869 10.8061 86.7389 11.8443 87.8254 13.148C88.9118 14.4518 89.7327 15.9246 90.288 17.5663C90.8433 19.1839 91.121 20.8499 91.121 22.5641C91.121 24.2783 90.8433 25.9562 90.288 27.598C89.7327 29.2398 88.9118 30.7246 87.8254 32.0525C86.7389 33.3563 85.3869 34.4065 83.7692 35.2033C82.1516 35.9759 80.2805 36.3622 78.1558 36.3622ZM78.1558 33.0665C79.6769 33.0665 81.0169 32.7768 82.1757 32.1974C83.3346 31.6179 84.3004 30.8333 85.073 29.8434C85.8697 28.8535 86.4733 27.7308 86.8838 26.4753C87.2942 25.2199 87.4994 23.9161 87.4994 22.5641C87.4994 21.2362 87.2942 19.9565 86.8838 18.7252C86.4733 17.4697 85.8697 16.3471 85.073 15.3572C84.3004 14.3673 83.3346 13.5826 82.1757 13.0032C81.0169 12.4237 79.6769 12.134 78.1558 12.134C76.6348 12.134 75.2948 12.4237 74.1359 13.0032C72.977 13.5826 71.9992 14.3673 71.2025 15.3572C70.4299 16.3471 69.8383 17.4697 69.4279 18.7252C69.0175 19.9565 68.8122 21.2362 68.8122 22.5641C68.8122 23.9161 69.0175 25.2199 69.4279 26.4753C69.8383 27.7308 70.4299 28.8535 71.2025 29.8434C71.9992 30.8333 72.977 31.6179 74.1359 32.1974C75.2948 32.7768 76.6348 33.0665 78.1558 33.0665ZM93.4812 36V9.20055L96.6682 9.20055L110.647 29.5899V9.20055H114.196V36H111.009L97.0303 15.6469V36H93.4812ZM117.471 36V9.20055L134.492 9.20055V12.3151L121.02 12.3151V20.7895L132.826 20.7895V23.904L121.02 23.904V32.8855H134.673V36H117.471ZM143.205 36V9.20055H147.877L155.772 25.1354L163.631 9.20055H168.303V36H164.826V14.4156L157.438 29.1191H154.07L146.682 14.3431V36H143.205ZM170.278 36L179.73 9.20055L184.185 9.20055L193.673 36H189.907L187.661 29.5899H176.29L174.044 36H170.278ZM177.376 26.4029H186.575L181.975 13.2567L177.376 26.4029ZM195.677 36V9.20055H198.864L212.843 29.5899V9.20055L216.392 9.20055V36H213.205L199.226 15.6469V36L195.677 36ZM231.726 36.3622C229.602 36.3622 227.731 35.9759 226.113 35.2033C224.495 34.4065 223.143 33.3563 222.057 32.0525C220.97 30.7246 220.15 29.2398 219.594 27.598C219.039 25.9562 218.761 24.2783 218.761 22.5641C218.761 20.8499 219.039 19.1839 219.594 17.5663C220.15 15.9246 220.97 14.4518 222.057 13.148C223.143 11.8443 224.495 10.8061 226.113 10.0335C227.731 9.23676 229.602 8.83839 231.726 8.83839C233.851 8.83839 235.722 9.23676 237.34 10.0335C238.957 10.8061 240.31 11.8443 241.396 13.148C242.482 14.4518 243.303 15.9246 243.859 17.5663C244.414 19.1839 244.692 20.8499 244.692 22.5641C244.692 24.2783 244.414 25.9562 243.859 27.598C243.303 29.2398 242.482 30.7246 241.396 32.0525C240.31 33.3563 238.957 34.4065 237.34 35.2033C235.722 35.9759 233.851 36.3622 231.726 36.3622ZM231.726 33.0665C233.247 33.0665 234.587 32.7768 235.746 32.1974C236.905 31.6179 237.871 30.8333 238.644 29.8434C239.44 28.8535 240.044 27.7308 240.454 26.4753C240.865 25.2199 241.07 23.9161 241.07 22.5641C241.07 21.2362 240.865 19.9565 240.454 18.7252C240.044 17.4697 239.44 16.3471 238.644 15.3572C237.871 14.3673 236.905 13.5826 235.746 13.0032C234.587 12.4237 233.247 12.134 231.726 12.134C230.205 12.134 228.865 12.4237 227.707 13.0032C226.548 13.5826 225.57 14.3673 224.773 15.3572C224 16.3471 223.409 17.4697 222.999 18.7252C222.588 19.9565 222.383 21.2362 222.383 22.5641C222.383 23.9161 222.588 25.2199 222.999 26.4753C223.409 27.7308 224 28.8535 224.773 29.8434C225.57 30.8333 226.548 31.6179 227.707 32.1974C228.865 32.7768 230.205 33.0665 231.726 33.0665Z" fill="white"/>
<path d="M252.136 35.6318V19.6604H258.438C259.719 19.6604 260.784 19.9194 261.633 20.4374C262.481 20.941 263.115 21.6029 263.532 22.4231C263.963 23.2288 264.179 24.0706 264.179 24.9483C264.179 25.826 263.963 26.6749 263.532 27.4951C263.115 28.3008 262.481 28.9627 261.633 29.4807C260.784 29.9987 259.719 30.2577 258.438 30.2577H255.071V35.6318H252.136ZM258.417 22.2072H255.071V27.7109H258.417C259.05 27.7109 259.575 27.5814 259.992 27.3224C260.409 27.049 260.719 26.7037 260.92 26.2864C261.136 25.8548 261.244 25.4159 261.244 24.9699C261.244 24.5094 261.136 24.0706 260.92 23.6533C260.719 23.236 260.409 22.8907 259.992 22.6173C259.575 22.3439 259.05 22.2072 258.417 22.2072ZM269.976 35.8477C268.724 35.8477 267.659 35.5671 266.782 35.0059C265.904 34.4448 265.235 33.7181 264.775 32.8261C264.328 31.9196 264.105 30.9483 264.105 29.9124C264.105 28.8764 264.328 27.9123 264.775 27.0202C265.235 26.1138 265.904 25.3799 266.782 24.8188C267.659 24.2576 268.724 23.977 269.976 23.977C271.242 23.977 272.307 24.2576 273.17 24.8188C274.048 25.3799 274.71 26.1138 275.156 27.0202C275.616 27.9123 275.847 28.8764 275.847 29.9124C275.847 30.9483 275.616 31.9196 275.156 32.8261C274.71 33.7181 274.048 34.4448 273.17 35.0059C272.307 35.5671 271.242 35.8477 269.976 35.8477ZM269.976 33.452C270.623 33.452 271.163 33.2865 271.595 32.9555C272.041 32.6246 272.379 32.193 272.609 31.6606C272.839 31.1138 272.954 30.5311 272.954 29.9124C272.954 29.2793 272.839 28.6965 272.609 28.1641C272.379 27.6318 272.041 27.2001 271.595 26.8692C271.163 26.5382 270.623 26.3727 269.976 26.3727C269.343 26.3727 268.803 26.5382 268.357 26.8692C267.911 27.2001 267.573 27.6318 267.343 28.1641C267.113 28.6965 266.998 29.2793 266.998 29.9124C266.998 30.5311 267.113 31.1138 267.343 31.6606C267.573 32.193 267.911 32.6246 268.357 32.9555C268.803 33.2865 269.343 33.452 269.976 33.452ZM276.847 35.6318V24.1929H279.696V25.7684H279.804C280.005 25.3224 280.336 24.9123 280.796 24.5382C281.257 24.1641 281.948 23.977 282.868 23.977C283.156 23.977 283.394 23.9986 283.581 24.0418C283.768 24.0706 283.861 24.085 283.861 24.085V26.8692C283.861 26.8692 283.753 26.8548 283.538 26.826C283.336 26.7972 283.084 26.7828 282.782 26.7828C281.775 26.7828 281.012 27.0634 280.494 27.6246C279.976 28.1857 279.717 29.0922 279.717 30.344V35.6318H276.847ZM285.779 35.6318V26.5022H283.945V24.1929H285.779V23.1353C285.779 22.7036 285.837 22.2504 285.952 21.7756C286.067 21.2864 286.261 20.8331 286.535 20.4158C286.823 19.9986 287.218 19.6604 287.722 19.4014C288.24 19.1425 288.887 19.013 289.664 19.013C290.096 19.013 290.449 19.0489 290.722 19.1209C291.01 19.1784 291.154 19.2072 291.154 19.2072V21.3007C291.154 21.3007 291.06 21.2864 290.873 21.2576C290.686 21.2144 290.485 21.1928 290.269 21.1928C289.65 21.1928 289.226 21.3727 288.995 21.7324C288.765 22.0921 288.65 22.5598 288.65 23.1353V24.1929H291.089V26.5022H288.65V35.6318H285.779ZM296.806 35.8477C295.555 35.8477 294.49 35.5671 293.612 35.0059C292.734 34.4448 292.065 33.7181 291.605 32.8261C291.159 31.9196 290.936 30.9483 290.936 29.9124C290.936 28.8764 291.159 27.9123 291.605 27.0202C292.065 26.1138 292.734 25.3799 293.612 24.8188C294.49 24.2576 295.555 23.977 296.806 23.977C298.073 23.977 299.137 24.2576 300.001 24.8188C300.878 25.3799 301.54 26.1138 301.986 27.0202C302.447 27.9123 302.677 28.8764 302.677 29.9124C302.677 30.9483 302.447 31.9196 301.986 32.8261C301.54 33.7181 300.878 34.4448 300.001 35.0059C299.137 35.5671 298.073 35.8477 296.806 35.8477ZM296.806 33.452C297.454 33.452 297.993 33.2865 298.425 32.9555C298.871 32.6246 299.209 32.193 299.439 31.6606C299.67 31.1138 299.785 30.5311 299.785 29.9124C299.785 29.2793 299.67 28.6965 299.439 28.1641C299.209 27.6318 298.871 27.2001 298.425 26.8692C297.993 26.5382 297.454 26.3727 296.806 26.3727C296.173 26.3727 295.634 26.5382 295.188 26.8692C294.742 27.2001 294.403 27.6318 294.173 28.1641C293.943 28.6965 293.828 29.2793 293.828 29.9124C293.828 30.5311 293.943 31.1138 294.173 31.6606C294.403 32.193 294.742 32.6246 295.188 32.9555C295.634 33.2865 296.173 33.452 296.806 33.452ZM303.809 35.6318L303.83 19.2288H306.679V35.6318H303.809ZM309.795 22.4231C309.291 22.4231 308.874 22.2576 308.543 21.9267C308.226 21.5957 308.068 21.2 308.068 20.7396C308.068 20.2792 308.226 19.8835 308.543 19.5525C308.874 19.2216 309.291 19.0561 309.795 19.0561C310.298 19.0561 310.715 19.2216 311.046 19.5525C311.377 19.8835 311.543 20.2792 311.543 20.7396C311.543 21.2 311.377 21.5957 311.046 21.9267C310.715 22.2576 310.298 22.4231 309.795 22.4231ZM308.37 35.6318V24.1929H311.241V35.6318H308.37ZM318.41 35.8477C317.158 35.8477 316.093 35.5671 315.215 35.0059C314.338 34.4448 313.668 33.7181 313.208 32.8261C312.762 31.9196 312.539 30.9483 312.539 29.9124C312.539 28.8764 312.762 27.9123 313.208 27.0202C313.668 26.1138 314.338 25.3799 315.215 24.8188C316.093 24.2576 317.158 23.977 318.41 23.977C319.676 23.977 320.74 24.2576 321.604 24.8188C322.482 25.3799 323.143 26.1138 323.589 27.0202C324.05 27.9123 324.28 28.8764 324.28 29.9124C324.28 30.9483 324.05 31.9196 323.589 32.8261C323.143 33.7181 322.482 34.4448 321.604 35.0059C320.74 35.5671 319.676 35.8477 318.41 35.8477ZM318.41 33.452C319.057 33.452 319.597 33.2865 320.028 32.9555C320.474 32.6246 320.812 32.193 321.043 31.6606C321.273 31.1138 321.388 30.5311 321.388 29.9124C321.388 29.2793 321.273 28.6965 321.043 28.1641C320.812 27.6318 320.474 27.2001 320.028 26.8692C319.597 26.5382 319.057 26.3727 318.41 26.3727C317.776 26.3727 317.237 26.5382 316.791 26.8692C316.345 27.2001 316.007 27.6318 315.776 28.1641C315.546 28.6965 315.431 29.2793 315.431 29.9124C315.431 30.5311 315.546 31.1138 315.776 31.6606C316.007 32.193 316.345 32.6246 316.791 32.9555C317.237 33.2865 317.776 33.452 318.41 33.452ZM327.374 35.8477C326.885 35.8477 326.482 35.6822 326.165 35.3513C325.849 35.0059 325.69 34.603 325.69 34.1426C325.69 33.6822 325.849 33.2865 326.165 32.9555C326.482 32.6246 326.885 32.4591 327.374 32.4591C327.863 32.4591 328.266 32.6246 328.583 32.9555C328.913 33.2865 329.079 33.6822 329.079 34.1426C329.079 34.6174 328.913 35.0203 328.583 35.3513C328.266 35.6822 327.863 35.8477 327.374 35.8477Z" fill="white"/>
</svg>
