<svg width="512" height="16" viewBox="0 0 512 16" fill="none" xmlns="http://www.w3.org/2000/svg">
<path d="M395.094 13V3.5114L396.351 3.5114V7.79409L400.454 3.52422L402.095 3.52422L397.659 8.07618L402.288 13H400.595L396.351 8.47368V13H395.094ZM406.405 13.1282C405.653 13.1282 404.991 12.9915 404.418 12.7179C403.845 12.4358 403.366 12.064 402.982 11.6024C402.597 11.1322 402.306 10.6065 402.11 10.0252C401.913 9.44391 401.815 8.8498 401.815 8.24288C401.815 7.63595 401.913 7.04612 402.11 6.47338C402.306 5.8921 402.597 5.37065 402.982 4.90904C403.366 4.44743 403.845 4.07986 404.418 3.80631C404.991 3.52422 405.653 3.38317 406.405 3.38317C407.158 3.38317 407.82 3.52422 408.393 3.80631C408.966 4.07986 409.444 4.44743 409.829 4.90904C410.214 5.37065 410.504 5.8921 410.701 6.47338C410.897 7.04612 410.996 7.63595 410.996 8.24288C410.996 8.8498 410.897 9.44391 410.701 10.0252C410.504 10.6065 410.214 11.1322 409.829 11.6024C409.444 12.064 408.966 12.4358 408.393 12.7179C407.82 12.9915 407.158 13.1282 406.405 13.1282ZM406.405 11.9614C406.944 11.9614 407.418 11.8588 407.829 11.6536C408.239 11.4485 408.581 11.1707 408.854 10.8202C409.137 10.4697 409.35 10.0722 409.496 9.6277C409.641 9.18319 409.714 8.72158 409.714 8.24288C409.714 7.77272 409.641 7.31966 409.496 6.8837C409.35 6.43919 409.137 6.04169 408.854 5.69121C408.581 5.34073 408.239 5.06291 407.829 4.85775C407.418 4.65259 406.944 4.55001 406.405 4.55001C405.867 4.55001 405.392 4.65259 404.982 4.85775C404.572 5.06291 404.226 5.34073 403.943 5.69121C403.67 6.04169 403.46 6.43919 403.315 6.8837C403.17 7.31966 403.097 7.77272 403.097 8.24288C403.097 8.72158 403.17 9.18319 403.315 9.6277C403.46 10.0722 403.67 10.4697 403.943 10.8202C404.226 11.1707 404.572 11.4485 404.982 11.6536C405.392 11.8588 405.867 11.9614 406.405 11.9614ZM413.443 13V4.61413L410.481 4.61413V3.5114L417.662 3.5114V4.61413H414.7V13H413.443ZM421.74 13.1282C420.988 13.1282 420.325 12.9915 419.753 12.7179C419.18 12.4358 418.701 12.064 418.317 11.6024C417.932 11.1322 417.641 10.6065 417.445 10.0252C417.248 9.44391 417.15 8.8498 417.15 8.24288C417.15 7.63595 417.248 7.04612 417.445 6.47338C417.641 5.8921 417.932 5.37065 418.317 4.90904C418.701 4.44743 419.18 4.07986 419.753 3.80631C420.325 3.52422 420.988 3.38317 421.74 3.38317C422.492 3.38317 423.155 3.52422 423.728 3.80631C424.3 4.07986 424.779 4.44743 425.164 4.90904C425.548 5.37065 425.839 5.8921 426.036 6.47338C426.232 7.04612 426.331 7.63595 426.331 8.24288C426.331 8.8498 426.232 9.44391 426.036 10.0252C425.839 10.6065 425.548 11.1322 425.164 11.6024C424.779 12.064 424.3 12.4358 423.728 12.7179C423.155 12.9915 422.492 13.1282 421.74 13.1282ZM421.74 11.9614C422.279 11.9614 422.753 11.8588 423.163 11.6536C423.574 11.4485 423.916 11.1707 424.189 10.8202C424.471 10.4697 424.685 10.0722 424.83 9.6277C424.976 9.18319 425.048 8.72158 425.048 8.24288C425.048 7.77272 424.976 7.31966 424.83 6.8837C424.685 6.43919 424.471 6.04169 424.189 5.69121C423.916 5.34073 423.574 5.06291 423.163 4.85775C422.753 4.65259 422.279 4.55001 421.74 4.55001C421.202 4.55001 420.727 4.65259 420.317 4.85775C419.907 5.06291 419.56 5.34073 419.278 5.69121C419.005 6.04169 418.795 6.43919 418.65 6.8837C418.505 7.31966 418.432 7.77272 418.432 8.24288C418.432 8.72158 418.505 9.18319 418.65 9.6277C418.795 10.0722 419.005 10.4697 419.278 10.8202C419.56 11.1707 419.907 11.4485 420.317 11.6536C420.727 11.8588 421.202 11.9614 421.74 11.9614ZM427.166 13V3.5114H428.295L433.244 10.7304V3.5114L434.501 3.5114V13H433.372L428.423 5.79379V13H427.166ZM435.66 13V3.5114L441.687 3.5114V4.61413L436.917 4.61413V7.61458L441.097 7.61458V8.71731H436.917V11.8973H441.751V13H435.66ZM444.772 13V3.5114L446.426 3.5114L449.221 9.15327L452.003 3.5114L453.658 3.5114V13H452.427V5.35783L449.811 10.5637H448.618L446.003 5.33218V13H444.772ZM454.357 13L457.704 3.5114L459.281 3.5114L462.64 13H461.307L460.512 10.7304H456.485L455.69 13L454.357 13ZM456.87 9.60205H460.127L458.498 4.94751L456.87 9.60205ZM463.35 13V3.5114H464.478L469.427 10.7304V3.5114L470.684 3.5114V13H469.556L464.606 5.79379V13H463.35ZM476.113 13.1282C475.361 13.1282 474.699 12.9915 474.126 12.7179C473.553 12.4358 473.074 12.064 472.69 11.6024C472.305 11.1322 472.014 10.6065 471.818 10.0252C471.621 9.44391 471.523 8.8498 471.523 8.24288C471.523 7.63595 471.621 7.04612 471.818 6.47338C472.014 5.8921 472.305 5.37065 472.69 4.90904C473.074 4.44743 473.553 4.07986 474.126 3.80631C474.699 3.52422 475.361 3.38317 476.113 3.38317C476.866 3.38317 477.528 3.52422 478.101 3.80631C478.674 4.07986 479.152 4.44743 479.537 4.90904C479.922 5.37065 480.212 5.8921 480.409 6.47338C480.605 7.04612 480.704 7.63595 480.704 8.24288C480.704 8.8498 480.605 9.44391 480.409 10.0252C480.212 10.6065 479.922 11.1322 479.537 11.6024C479.152 12.064 478.674 12.4358 478.101 12.7179C477.528 12.9915 476.866 13.1282 476.113 13.1282ZM476.113 11.9614C476.652 11.9614 477.126 11.8588 477.537 11.6536C477.947 11.4485 478.289 11.1707 478.562 10.8202C478.844 10.4697 479.058 10.0722 479.204 9.6277C479.349 9.18319 479.422 8.72158 479.422 8.24288C479.422 7.77272 479.349 7.31966 479.204 6.8837C479.058 6.43919 478.844 6.04169 478.562 5.69121C478.289 5.34073 477.947 5.06291 477.537 4.85775C477.126 4.65259 476.652 4.55001 476.113 4.55001C475.575 4.55001 475.1 4.65259 474.69 4.85775C474.28 5.06291 473.934 5.34073 473.651 5.69121C473.378 6.04169 473.168 6.43919 473.023 6.8837C472.878 7.31966 472.805 7.77272 472.805 8.24288C472.805 8.72158 472.878 9.18319 473.023 9.6277C473.168 10.0722 473.378 10.4697 473.651 10.8202C473.934 11.1707 474.28 11.4485 474.69 11.6536C475.1 11.8588 475.575 11.9614 476.113 11.9614Z" fill="white"/>
<path d="M483.339 13.1816V7.52682H485.571C486.024 7.52682 486.401 7.61852 486.702 7.80192C487.002 7.98022 487.226 8.21457 487.374 8.50495C487.527 8.79024 487.603 9.08826 487.603 9.39902C487.603 9.70978 487.527 10.0104 487.374 10.3007C487.226 10.586 487.002 10.8204 486.702 11.0038C486.401 11.1872 486.024 11.2789 485.571 11.2789H484.379V13.1816H483.339ZM485.563 8.42853H484.379V10.3772H485.563C485.787 10.3772 485.973 10.3313 486.121 10.2396C486.269 10.1428 486.378 10.0205 486.449 9.8728C486.526 9.71997 486.564 9.56459 486.564 9.40666C486.564 9.24364 486.526 9.08826 486.449 8.94052C486.378 8.79278 486.269 8.67052 486.121 8.57372C485.973 8.47693 485.787 8.42853 485.563 8.42853ZM489.656 13.2581C489.212 13.2581 488.835 13.1587 488.525 12.96C488.214 12.7613 487.977 12.5041 487.814 12.1882C487.656 11.8673 487.577 11.5234 487.577 11.1566C487.577 10.7898 487.656 10.4485 487.814 10.1326C487.977 9.81167 488.214 9.55186 488.525 9.35317C488.835 9.15449 489.212 9.05515 489.656 9.05515C490.104 9.05515 490.481 9.15449 490.787 9.35317C491.097 9.55186 491.332 9.81167 491.49 10.1326C491.653 10.4485 491.734 10.7898 491.734 11.1566C491.734 11.5234 491.653 11.8673 491.49 12.1882C491.332 12.5041 491.097 12.7613 490.787 12.96C490.481 13.1587 490.104 13.2581 489.656 13.2581ZM489.656 12.4098C489.885 12.4098 490.076 12.3512 490.229 12.2341C490.387 12.1169 490.506 11.9641 490.588 11.7756C490.669 11.582 490.71 11.3757 490.71 11.1566C490.71 10.9324 490.669 10.7261 490.588 10.5376C490.506 10.3491 490.387 10.1963 490.229 10.0791C490.076 9.96196 489.885 9.90337 489.656 9.90337C489.432 9.90337 489.24 9.96196 489.083 10.0791C488.925 10.1963 488.805 10.3491 488.723 10.5376C488.642 10.7261 488.601 10.9324 488.601 11.1566C488.601 11.3757 488.642 11.582 488.723 11.7756C488.805 11.9641 488.925 12.1169 489.083 12.2341C489.24 12.3512 489.432 12.4098 489.656 12.4098ZM492.088 13.1816V9.13156H493.097V9.6894H493.135C493.207 9.53148 493.324 9.38629 493.487 9.25383C493.65 9.12138 493.894 9.05515 494.22 9.05515C494.322 9.05515 494.406 9.06279 494.473 9.07807C494.539 9.08826 494.572 9.09336 494.572 9.09336V10.0791C494.572 10.0791 494.534 10.074 494.457 10.0638C494.386 10.0537 494.297 10.0486 494.19 10.0486C493.833 10.0486 493.563 10.1479 493.38 10.3466C493.196 10.5453 493.105 10.8662 493.105 11.3094V13.1816H492.088ZM495.251 13.1816V9.94922H494.602V9.13156H495.251V8.75712C495.251 8.60429 495.271 8.44382 495.312 8.2757C495.353 8.10249 495.422 7.94201 495.519 7.79427C495.62 7.64654 495.76 7.52682 495.939 7.43512C496.122 7.34342 496.351 7.29757 496.627 7.29757C496.779 7.29757 496.904 7.3103 497.001 7.33578C497.103 7.35615 497.154 7.36634 497.154 7.36634V8.10758C497.154 8.10758 497.121 8.10249 497.054 8.0923C496.988 8.07702 496.917 8.06937 496.841 8.06937C496.621 8.06937 496.471 8.13305 496.39 8.26042C496.308 8.38778 496.267 8.55335 496.267 8.75712V9.13156H497.131V9.94922H496.267V13.1816H495.251ZM499.155 13.2581C498.712 13.2581 498.335 13.1587 498.024 12.96C497.713 12.7613 497.477 12.5041 497.314 12.1882C497.156 11.8673 497.077 11.5234 497.077 11.1566C497.077 10.7898 497.156 10.4485 497.314 10.1326C497.477 9.81167 497.713 9.55186 498.024 9.35317C498.335 9.15449 498.712 9.05515 499.155 9.05515C499.604 9.05515 499.981 9.15449 500.286 9.35317C500.597 9.55186 500.831 9.81167 500.989 10.1326C501.152 10.4485 501.234 10.7898 501.234 11.1566C501.234 11.5234 501.152 11.8673 500.989 12.1882C500.831 12.5041 500.597 12.7613 500.286 12.96C499.981 13.1587 499.604 13.2581 499.155 13.2581ZM499.155 12.4098C499.384 12.4098 499.576 12.3512 499.728 12.2341C499.886 12.1169 500.006 11.9641 500.087 11.7756C500.169 11.582 500.21 11.3757 500.21 11.1566C500.21 10.9324 500.169 10.7261 500.087 10.5376C500.006 10.3491 499.886 10.1963 499.728 10.0791C499.576 9.96196 499.384 9.90337 499.155 9.90337C498.931 9.90337 498.74 9.96196 498.582 10.0791C498.424 10.1963 498.304 10.3491 498.223 10.5376C498.141 10.7261 498.101 10.9324 498.101 11.1566C498.101 11.3757 498.141 11.582 498.223 11.7756C498.304 11.9641 498.424 12.1169 498.582 12.2341C498.74 12.3512 498.931 12.4098 499.155 12.4098ZM501.634 13.1816L501.642 7.37398H502.651V13.1816H501.634ZM503.754 8.50495C503.576 8.50495 503.428 8.44636 503.311 8.32919C503.199 8.21202 503.142 8.07192 503.142 7.9089C503.142 7.74588 503.199 7.60578 503.311 7.48861C503.428 7.37144 503.576 7.31285 503.754 7.31285C503.932 7.31285 504.08 7.37144 504.197 7.48861C504.314 7.60578 504.373 7.74588 504.373 7.9089C504.373 8.07192 504.314 8.21202 504.197 8.32919C504.08 8.44636 503.932 8.50495 503.754 8.50495ZM503.249 13.1816V9.13156H504.266V13.1816H503.249ZM506.804 13.2581C506.361 13.2581 505.984 13.1587 505.673 12.96C505.362 12.7613 505.125 12.5041 504.962 12.1882C504.804 11.8673 504.726 11.5234 504.726 11.1566C504.726 10.7898 504.804 10.4485 504.962 10.1326C505.125 9.81167 505.362 9.55186 505.673 9.35317C505.984 9.15449 506.361 9.05515 506.804 9.05515C507.252 9.05515 507.629 9.15449 507.935 9.35317C508.246 9.55186 508.48 9.81167 508.638 10.1326C508.801 10.4485 508.883 10.7898 508.883 11.1566C508.883 11.5234 508.801 11.8673 508.638 12.1882C508.48 12.5041 508.246 12.7613 507.935 12.96C507.629 13.1587 507.252 13.2581 506.804 13.2581ZM506.804 12.4098C507.033 12.4098 507.224 12.3512 507.377 12.2341C507.535 12.1169 507.655 11.9641 507.736 11.7756C507.818 11.582 507.859 11.3757 507.859 11.1566C507.859 10.9324 507.818 10.7261 507.736 10.5376C507.655 10.3491 507.535 10.1963 507.377 10.0791C507.224 9.96196 507.033 9.90337 506.804 9.90337C506.58 9.90337 506.389 9.96196 506.231 10.0791C506.073 10.1963 505.953 10.3491 505.872 10.5376C505.79 10.7261 505.749 10.9324 505.749 11.1566C505.749 11.3757 505.79 11.582 505.872 11.7756C505.953 11.9641 506.073 12.1169 506.231 12.2341C506.389 12.3512 506.58 12.4098 506.804 12.4098ZM509.978 13.2581C509.805 13.2581 509.662 13.1995 509.55 13.0823C509.438 12.96 509.382 12.8174 509.382 12.6544C509.382 12.4913 509.438 12.3512 509.55 12.2341C509.662 12.1169 509.805 12.0583 509.978 12.0583C510.151 12.0583 510.294 12.1169 510.406 12.2341C510.523 12.3512 510.582 12.4913 510.582 12.6544C510.582 12.8225 510.523 12.9651 510.406 13.0823C510.294 13.1995 510.151 13.2581 509.978 13.2581Z" fill="white"/>
<path d="M263.737 13V3.5114L264.993 3.5114V7.79409L269.097 3.52422L270.738 3.52422L266.301 8.07618L270.93 13H269.238L264.993 8.47368V13H263.737ZM275.048 13.1282C274.296 13.1282 273.633 12.9915 273.06 12.7179C272.488 12.4358 272.009 12.064 271.624 11.6024C271.24 11.1322 270.949 10.6065 270.752 10.0252C270.556 9.44391 270.457 8.8498 270.457 8.24288C270.457 7.63595 270.556 7.04612 270.752 6.47338C270.949 5.8921 271.24 5.37065 271.624 4.90904C272.009 4.44743 272.488 4.07986 273.06 3.80631C273.633 3.52422 274.296 3.38317 275.048 3.38317C275.8 3.38317 276.463 3.52422 277.035 3.80631C277.608 4.07986 278.087 4.44743 278.472 4.90904C278.856 5.37065 279.147 5.8921 279.343 6.47338C279.54 7.04612 279.638 7.63595 279.638 8.24288C279.638 8.8498 279.54 9.44391 279.343 10.0252C279.147 10.6065 278.856 11.1322 278.472 11.6024C278.087 12.064 277.608 12.4358 277.035 12.7179C276.463 12.9915 275.8 13.1282 275.048 13.1282ZM275.048 11.9614C275.586 11.9614 276.061 11.8588 276.471 11.6536C276.882 11.4485 277.223 11.1707 277.497 10.8202C277.779 10.4697 277.993 10.0722 278.138 9.6277C278.283 9.18319 278.356 8.72158 278.356 8.24288C278.356 7.77272 278.283 7.31966 278.138 6.8837C277.993 6.43919 277.779 6.04169 277.497 5.69121C277.223 5.34073 276.882 5.06291 276.471 4.85775C276.061 4.65259 275.586 4.55001 275.048 4.55001C274.509 4.55001 274.035 4.65259 273.625 4.85775C273.214 5.06291 272.868 5.34073 272.586 5.69121C272.312 6.04169 272.103 6.43919 271.958 6.8837C271.812 7.31966 271.74 7.77272 271.74 8.24288C271.74 8.72158 271.812 9.18319 271.958 9.6277C272.103 10.0722 272.312 10.4697 272.586 10.8202C272.868 11.1707 273.214 11.4485 273.625 11.6536C274.035 11.8588 274.509 11.9614 275.048 11.9614ZM282.086 13V4.61413L279.124 4.61413V3.5114L286.304 3.5114V4.61413H283.342V13H282.086ZM290.383 13.1282C289.631 13.1282 288.968 12.9915 288.395 12.7179C287.823 12.4358 287.344 12.064 286.959 11.6024C286.574 11.1322 286.284 10.6065 286.087 10.0252C285.891 9.44391 285.792 8.8498 285.792 8.24288C285.792 7.63595 285.891 7.04612 286.087 6.47338C286.284 5.8921 286.574 5.37065 286.959 4.90904C287.344 4.44743 287.823 4.07986 288.395 3.80631C288.968 3.52422 289.631 3.38317 290.383 3.38317C291.135 3.38317 291.798 3.52422 292.37 3.80631C292.943 4.07986 293.422 4.44743 293.806 4.90904C294.191 5.37065 294.482 5.8921 294.678 6.47338C294.875 7.04612 294.973 7.63595 294.973 8.24288C294.973 8.8498 294.875 9.44391 294.678 10.0252C294.482 10.6065 294.191 11.1322 293.806 11.6024C293.422 12.064 292.943 12.4358 292.37 12.7179C291.798 12.9915 291.135 13.1282 290.383 13.1282ZM290.383 11.9614C290.921 11.9614 291.396 11.8588 291.806 11.6536C292.216 11.4485 292.558 11.1707 292.832 10.8202C293.114 10.4697 293.328 10.0722 293.473 9.6277C293.618 9.18319 293.691 8.72158 293.691 8.24288C293.691 7.77272 293.618 7.31966 293.473 6.8837C293.328 6.43919 293.114 6.04169 292.832 5.69121C292.558 5.34073 292.216 5.06291 291.806 4.85775C291.396 4.65259 290.921 4.55001 290.383 4.55001C289.844 4.55001 289.37 4.65259 288.959 4.85775C288.549 5.06291 288.203 5.34073 287.921 5.69121C287.647 6.04169 287.438 6.43919 287.293 6.8837C287.147 7.31966 287.075 7.77272 287.075 8.24288C287.075 8.72158 287.147 9.18319 287.293 9.6277C287.438 10.0722 287.647 10.4697 287.921 10.8202C288.203 11.1707 288.549 11.4485 288.959 11.6536C289.37 11.8588 289.844 11.9614 290.383 11.9614ZM295.809 13V3.5114H296.937L301.887 10.7304V3.5114L303.143 3.5114V13H302.015L297.065 5.79379V13H295.809ZM304.303 13V3.5114L310.329 3.5114V4.61413L305.559 4.61413V7.61458L309.739 7.61458V8.71731H305.559V11.8973H310.393V13H304.303ZM313.414 13V3.5114L315.068 3.5114L317.864 9.15327L320.646 3.5114L322.3 3.5114V13H321.069V5.35783L318.453 10.5637H317.261L314.645 5.33218V13H313.414ZM322.999 13L326.346 3.5114L327.923 3.5114L331.283 13H329.949L329.154 10.7304H325.128L324.333 13L322.999 13ZM325.513 9.60205H328.77L327.141 4.94751L325.513 9.60205ZM331.992 13V3.5114H333.121L338.07 10.7304V3.5114L339.327 3.5114V13H338.198L333.249 5.79379V13H331.992ZM344.756 13.1282C344.004 13.1282 343.341 12.9915 342.768 12.7179C342.196 12.4358 341.717 12.064 341.332 11.6024C340.948 11.1322 340.657 10.6065 340.46 10.0252C340.264 9.44391 340.165 8.8498 340.165 8.24288C340.165 7.63595 340.264 7.04612 340.46 6.47338C340.657 5.8921 340.948 5.37065 341.332 4.90904C341.717 4.44743 342.196 4.07986 342.768 3.80631C343.341 3.52422 344.004 3.38317 344.756 3.38317C345.508 3.38317 346.171 3.52422 346.743 3.80631C347.316 4.07986 347.795 4.44743 348.179 4.90904C348.564 5.37065 348.855 5.8921 349.051 6.47338C349.248 7.04612 349.346 7.63595 349.346 8.24288C349.346 8.8498 349.248 9.44391 349.051 10.0252C348.855 10.6065 348.564 11.1322 348.179 11.6024C347.795 12.064 347.316 12.4358 346.743 12.7179C346.171 12.9915 345.508 13.1282 344.756 13.1282ZM344.756 11.9614C345.294 11.9614 345.769 11.8588 346.179 11.6536C346.59 11.4485 346.931 11.1707 347.205 10.8202C347.487 10.4697 347.701 10.0722 347.846 9.6277C347.991 9.18319 348.064 8.72158 348.064 8.24288C348.064 7.77272 347.991 7.31966 347.846 6.8837C347.701 6.43919 347.487 6.04169 347.205 5.69121C346.931 5.34073 346.59 5.06291 346.179 4.85775C345.769 4.65259 345.294 4.55001 344.756 4.55001C344.217 4.55001 343.743 4.65259 343.333 4.85775C342.922 5.06291 342.576 5.34073 342.294 5.69121C342.02 6.04169 341.811 6.43919 341.666 6.8837C341.52 7.31966 341.448 7.77272 341.448 8.24288C341.448 8.72158 341.52 9.18319 341.666 9.6277C341.811 10.0722 342.02 10.4697 342.294 10.8202C342.576 11.1707 342.922 11.4485 343.333 11.6536C343.743 11.8588 344.217 11.9614 344.756 11.9614Z" fill="white"/>
<path d="M351.982 13.1816V7.52682H354.213C354.667 7.52682 355.044 7.61852 355.344 7.80192C355.645 7.98022 355.869 8.21457 356.017 8.50495C356.169 8.79024 356.246 9.08826 356.246 9.39902C356.246 9.70978 356.169 10.0104 356.017 10.3007C355.869 10.586 355.645 10.8204 355.344 11.0038C355.044 11.1872 354.667 11.2789 354.213 11.2789H353.021V13.1816H351.982ZM354.206 8.42853H353.021V10.3772H354.206C354.43 10.3772 354.616 10.3313 354.763 10.2396C354.911 10.1428 355.021 10.0205 355.092 9.8728C355.168 9.71997 355.207 9.56459 355.207 9.40666C355.207 9.24364 355.168 9.08826 355.092 8.94052C355.021 8.79278 354.911 8.67052 354.763 8.57372C354.616 8.47693 354.43 8.42853 354.206 8.42853ZM358.298 13.2581C357.855 13.2581 357.478 13.1587 357.167 12.96C356.857 12.7613 356.62 12.5041 356.457 12.1882C356.299 11.8673 356.22 11.5234 356.22 11.1566C356.22 10.7898 356.299 10.4485 356.457 10.1326C356.62 9.81167 356.857 9.55186 357.167 9.35317C357.478 9.15449 357.855 9.05515 358.298 9.05515C358.747 9.05515 359.124 9.15449 359.429 9.35317C359.74 9.55186 359.974 9.81167 360.132 10.1326C360.295 10.4485 360.377 10.7898 360.377 11.1566C360.377 11.5234 360.295 11.8673 360.132 12.1882C359.974 12.5041 359.74 12.7613 359.429 12.96C359.124 13.1587 358.747 13.2581 358.298 13.2581ZM358.298 12.4098C358.528 12.4098 358.719 12.3512 358.871 12.2341C359.029 12.1169 359.149 11.9641 359.231 11.7756C359.312 11.582 359.353 11.3757 359.353 11.1566C359.353 10.9324 359.312 10.7261 359.231 10.5376C359.149 10.3491 359.029 10.1963 358.871 10.0791C358.719 9.96196 358.528 9.90337 358.298 9.90337C358.074 9.90337 357.883 9.96196 357.725 10.0791C357.567 10.1963 357.447 10.3491 357.366 10.5376C357.284 10.7261 357.244 10.9324 357.244 11.1566C357.244 11.3757 357.284 11.582 357.366 11.7756C357.447 11.9641 357.567 12.1169 357.725 12.2341C357.883 12.3512 358.074 12.4098 358.298 12.4098ZM360.731 13.1816V9.13156H361.74V9.6894H361.778C361.849 9.53148 361.966 9.38629 362.129 9.25383C362.292 9.12138 362.537 9.05515 362.863 9.05515C362.965 9.05515 363.049 9.06279 363.115 9.07807C363.181 9.08826 363.214 9.09336 363.214 9.09336V10.0791C363.214 10.0791 363.176 10.074 363.1 10.0638C363.029 10.0537 362.939 10.0486 362.832 10.0486C362.476 10.0486 362.206 10.1479 362.022 10.3466C361.839 10.5453 361.747 10.8662 361.747 11.3094V13.1816H360.731ZM363.894 13.1816V9.94922H363.244V9.13156H363.894V8.75712C363.894 8.60429 363.914 8.44382 363.955 8.2757C363.996 8.10249 364.064 7.94201 364.161 7.79427C364.263 7.64654 364.403 7.52682 364.581 7.43512C364.765 7.34342 364.994 7.29757 365.269 7.29757C365.422 7.29757 365.547 7.3103 365.644 7.33578C365.745 7.35615 365.796 7.36634 365.796 7.36634V8.10758C365.796 8.10758 365.763 8.10249 365.697 8.0923C365.631 8.07702 365.56 8.06937 365.483 8.06937C365.264 8.06937 365.114 8.13305 365.032 8.26042C364.951 8.38778 364.91 8.55335 364.91 8.75712V9.13156H365.773V9.94922H364.91V13.1816H363.894ZM367.798 13.2581C367.355 13.2581 366.978 13.1587 366.667 12.96C366.356 12.7613 366.119 12.5041 365.956 12.1882C365.798 11.8673 365.719 11.5234 365.719 11.1566C365.719 10.7898 365.798 10.4485 365.956 10.1326C366.119 9.81167 366.356 9.55186 366.667 9.35317C366.978 9.15449 367.355 9.05515 367.798 9.05515C368.246 9.05515 368.623 9.15449 368.929 9.35317C369.24 9.55186 369.474 9.81167 369.632 10.1326C369.795 10.4485 369.876 10.7898 369.876 11.1566C369.876 11.5234 369.795 11.8673 369.632 12.1882C369.474 12.5041 369.24 12.7613 368.929 12.96C368.623 13.1587 368.246 13.2581 367.798 13.2581ZM367.798 12.4098C368.027 12.4098 368.218 12.3512 368.371 12.2341C368.529 12.1169 368.649 11.9641 368.73 11.7756C368.812 11.582 368.852 11.3757 368.852 11.1566C368.852 10.9324 368.812 10.7261 368.73 10.5376C368.649 10.3491 368.529 10.1963 368.371 10.0791C368.218 9.96196 368.027 9.90337 367.798 9.90337C367.574 9.90337 367.383 9.96196 367.225 10.0791C367.067 10.1963 366.947 10.3491 366.866 10.5376C366.784 10.7261 366.743 10.9324 366.743 11.1566C366.743 11.3757 366.784 11.582 366.866 11.7756C366.947 11.9641 367.067 12.1169 367.225 12.2341C367.383 12.3512 367.574 12.4098 367.798 12.4098ZM370.277 13.1816L370.285 7.37398H371.293V13.1816H370.277ZM372.396 8.50495C372.218 8.50495 372.07 8.44636 371.953 8.32919C371.841 8.21202 371.785 8.07192 371.785 7.9089C371.785 7.74588 371.841 7.60578 371.953 7.48861C372.07 7.37144 372.218 7.31285 372.396 7.31285C372.575 7.31285 372.722 7.37144 372.84 7.48861C372.957 7.60578 373.015 7.74588 373.015 7.9089C373.015 8.07192 372.957 8.21202 372.84 8.32919C372.722 8.44636 372.575 8.50495 372.396 8.50495ZM371.892 13.1816V9.13156H372.908V13.1816H371.892ZM375.447 13.2581C375.003 13.2581 374.626 13.1587 374.316 12.96C374.005 12.7613 373.768 12.5041 373.605 12.1882C373.447 11.8673 373.368 11.5234 373.368 11.1566C373.368 10.7898 373.447 10.4485 373.605 10.1326C373.768 9.81167 374.005 9.55186 374.316 9.35317C374.626 9.15449 375.003 9.05515 375.447 9.05515C375.895 9.05515 376.272 9.15449 376.578 9.35317C376.888 9.55186 377.123 9.81167 377.281 10.1326C377.444 10.4485 377.525 10.7898 377.525 11.1566C377.525 11.5234 377.444 11.8673 377.281 12.1882C377.123 12.5041 376.888 12.7613 376.578 12.96C376.272 13.1587 375.895 13.2581 375.447 13.2581ZM375.447 12.4098C375.676 12.4098 375.867 12.3512 376.02 12.2341C376.178 12.1169 376.297 11.9641 376.379 11.7756C376.46 11.582 376.501 11.3757 376.501 11.1566C376.501 10.9324 376.46 10.7261 376.379 10.5376C376.297 10.3491 376.178 10.1963 376.02 10.0791C375.867 9.96196 375.676 9.90337 375.447 9.90337C375.222 9.90337 375.031 9.96196 374.873 10.0791C374.716 10.1963 374.596 10.3491 374.514 10.5376C374.433 10.7261 374.392 10.9324 374.392 11.1566C374.392 11.3757 374.433 11.582 374.514 11.7756C374.596 11.9641 374.716 12.1169 374.873 12.2341C375.031 12.3512 375.222 12.4098 375.447 12.4098ZM378.621 13.2581C378.447 13.2581 378.305 13.1995 378.193 13.0823C378.081 12.96 378.024 12.8174 378.024 12.6544C378.024 12.4913 378.081 12.3512 378.193 12.2341C378.305 12.1169 378.447 12.0583 378.621 12.0583C378.794 12.0583 378.936 12.1169 379.048 12.2341C379.166 12.3512 379.224 12.4913 379.224 12.6544C379.224 12.8225 379.166 12.9651 379.048 13.0823C378.936 13.1995 378.794 13.2581 378.621 13.2581Z" fill="white"/>
<path d="M132.381 13V3.5114L133.638 3.5114V7.79409L137.741 3.52422L139.382 3.52422L134.946 8.07618L139.575 13H137.882L133.638 8.47368V13H132.381ZM143.692 13.1282C142.94 13.1282 142.278 12.9915 141.705 12.7179C141.132 12.4358 140.654 12.064 140.269 11.6024C139.884 11.1322 139.594 10.6065 139.397 10.0252C139.2 9.44391 139.102 8.8498 139.102 8.24288C139.102 7.63595 139.2 7.04612 139.397 6.47338C139.594 5.8921 139.884 5.37065 140.269 4.90904C140.654 4.44743 141.132 4.07986 141.705 3.80631C142.278 3.52422 142.94 3.38317 143.692 3.38317C144.445 3.38317 145.107 3.52422 145.68 3.80631C146.253 4.07986 146.731 4.44743 147.116 4.90904C147.501 5.37065 147.791 5.8921 147.988 6.47338C148.185 7.04612 148.283 7.63595 148.283 8.24288C148.283 8.8498 148.185 9.44391 147.988 10.0252C147.791 10.6065 147.501 11.1322 147.116 11.6024C146.731 12.064 146.253 12.4358 145.68 12.7179C145.107 12.9915 144.445 13.1282 143.692 13.1282ZM143.692 11.9614C144.231 11.9614 144.705 11.8588 145.116 11.6536C145.526 11.4485 145.868 11.1707 146.142 10.8202C146.424 10.4697 146.637 10.0722 146.783 9.6277C146.928 9.18319 147.001 8.72158 147.001 8.24288C147.001 7.77272 146.928 7.31966 146.783 6.8837C146.637 6.43919 146.424 6.04169 146.142 5.69121C145.868 5.34073 145.526 5.06291 145.116 4.85775C144.705 4.65259 144.231 4.55001 143.692 4.55001C143.154 4.55001 142.679 4.65259 142.269 4.85775C141.859 5.06291 141.513 5.34073 141.231 5.69121C140.957 6.04169 140.748 6.43919 140.602 6.8837C140.457 7.31966 140.384 7.77272 140.384 8.24288C140.384 8.72158 140.457 9.18319 140.602 9.6277C140.748 10.0722 140.957 10.4697 141.231 10.8202C141.513 11.1707 141.859 11.4485 142.269 11.6536C142.679 11.8588 143.154 11.9614 143.692 11.9614ZM150.73 13V4.61413L147.768 4.61413V3.5114L154.949 3.5114V4.61413H151.987V13H150.73ZM159.027 13.1282C158.275 13.1282 157.613 12.9915 157.04 12.7179C156.467 12.4358 155.988 12.064 155.604 11.6024C155.219 11.1322 154.928 10.6065 154.732 10.0252C154.535 9.44391 154.437 8.8498 154.437 8.24288C154.437 7.63595 154.535 7.04612 154.732 6.47338C154.928 5.8921 155.219 5.37065 155.604 4.90904C155.988 4.44743 156.467 4.07986 157.04 3.80631C157.613 3.52422 158.275 3.38317 159.027 3.38317C159.78 3.38317 160.442 3.52422 161.015 3.80631C161.588 4.07986 162.066 4.44743 162.451 4.90904C162.836 5.37065 163.126 5.8921 163.323 6.47338C163.519 7.04612 163.618 7.63595 163.618 8.24288C163.618 8.8498 163.519 9.44391 163.323 10.0252C163.126 10.6065 162.836 11.1322 162.451 11.6024C162.066 12.064 161.588 12.4358 161.015 12.7179C160.442 12.9915 159.78 13.1282 159.027 13.1282ZM159.027 11.9614C159.566 11.9614 160.04 11.8588 160.451 11.6536C160.861 11.4485 161.203 11.1707 161.476 10.8202C161.758 10.4697 161.972 10.0722 162.117 9.6277C162.263 9.18319 162.335 8.72158 162.335 8.24288C162.335 7.77272 162.263 7.31966 162.117 6.8837C161.972 6.43919 161.758 6.04169 161.476 5.69121C161.203 5.34073 160.861 5.06291 160.451 4.85775C160.04 4.65259 159.566 4.55001 159.027 4.55001C158.489 4.55001 158.014 4.65259 157.604 4.85775C157.194 5.06291 156.847 5.34073 156.565 5.69121C156.292 6.04169 156.082 6.43919 155.937 6.8837C155.792 7.31966 155.719 7.77272 155.719 8.24288C155.719 8.72158 155.792 9.18319 155.937 9.6277C156.082 10.0722 156.292 10.4697 156.565 10.8202C156.847 11.1707 157.194 11.4485 157.604 11.6536C158.014 11.8588 158.489 11.9614 159.027 11.9614ZM164.453 13V3.5114H165.582L170.531 10.7304V3.5114L171.788 3.5114V13H170.659L165.71 5.79379V13H164.453ZM172.947 13V3.5114L178.974 3.5114V4.61413L174.204 4.61413V7.61458L178.384 7.61458V8.71731H174.204V11.8973H179.038V13H172.947ZM182.059 13V3.5114L183.713 3.5114L186.508 9.15327L189.291 3.5114L190.945 3.5114V13H189.714V5.35783L187.098 10.5637H185.905L183.29 5.33218V13H182.059ZM191.644 13L194.991 3.5114L196.568 3.5114L199.927 13H198.594L197.799 10.7304H193.772L192.977 13L191.644 13ZM194.157 9.60205H197.414L195.786 4.94751L194.157 9.60205ZM200.637 13V3.5114H201.765L206.715 10.7304V3.5114L207.971 3.5114V13H206.843L201.893 5.79379V13H200.637ZM213.4 13.1282C212.648 13.1282 211.986 12.9915 211.413 12.7179C210.84 12.4358 210.362 12.064 209.977 11.6024C209.592 11.1322 209.302 10.6065 209.105 10.0252C208.908 9.44391 208.81 8.8498 208.81 8.24288C208.81 7.63595 208.908 7.04612 209.105 6.47338C209.302 5.8921 209.592 5.37065 209.977 4.90904C210.362 4.44743 210.84 4.07986 211.413 3.80631C211.986 3.52422 212.648 3.38317 213.4 3.38317C214.153 3.38317 214.815 3.52422 215.388 3.80631C215.961 4.07986 216.439 4.44743 216.824 4.90904C217.209 5.37065 217.499 5.8921 217.696 6.47338C217.893 7.04612 217.991 7.63595 217.991 8.24288C217.991 8.8498 217.893 9.44391 217.696 10.0252C217.499 10.6065 217.209 11.1322 216.824 11.6024C216.439 12.064 215.961 12.4358 215.388 12.7179C214.815 12.9915 214.153 13.1282 213.4 13.1282ZM213.4 11.9614C213.939 11.9614 214.413 11.8588 214.824 11.6536C215.234 11.4485 215.576 11.1707 215.85 10.8202C216.132 10.4697 216.345 10.0722 216.491 9.6277C216.636 9.18319 216.709 8.72158 216.709 8.24288C216.709 7.77272 216.636 7.31966 216.491 6.8837C216.345 6.43919 216.132 6.04169 215.85 5.69121C215.576 5.34073 215.234 5.06291 214.824 4.85775C214.413 4.65259 213.939 4.55001 213.4 4.55001C212.862 4.55001 212.387 4.65259 211.977 4.85775C211.567 5.06291 211.221 5.34073 210.939 5.69121C210.665 6.04169 210.456 6.43919 210.31 6.8837C210.165 7.31966 210.092 7.77272 210.092 8.24288C210.092 8.72158 210.165 9.18319 210.31 9.6277C210.456 10.0722 210.665 10.4697 210.939 10.8202C211.221 11.1707 211.567 11.4485 211.977 11.6536C212.387 11.8588 212.862 11.9614 213.4 11.9614Z" fill="white"/>
<path d="M220.626 13.1816V7.52682H222.858C223.311 7.52682 223.688 7.61852 223.989 7.80192C224.289 7.98022 224.513 8.21457 224.661 8.50495C224.814 8.79024 224.89 9.08826 224.89 9.39902C224.89 9.70978 224.814 10.0104 224.661 10.3007C224.513 10.586 224.289 10.8204 223.989 11.0038C223.688 11.1872 223.311 11.2789 222.858 11.2789H221.666V13.1816H220.626ZM222.85 8.42853H221.666V10.3772H222.85C223.074 10.3772 223.26 10.3313 223.408 10.2396C223.556 10.1428 223.665 10.0205 223.737 9.8728C223.813 9.71997 223.851 9.56459 223.851 9.40666C223.851 9.24364 223.813 9.08826 223.737 8.94052C223.665 8.79278 223.556 8.67052 223.408 8.57372C223.26 8.47693 223.074 8.42853 222.85 8.42853ZM226.943 13.2581C226.5 13.2581 226.123 13.1587 225.812 12.96C225.501 12.7613 225.264 12.5041 225.101 12.1882C224.943 11.8673 224.864 11.5234 224.864 11.1566C224.864 10.7898 224.943 10.4485 225.101 10.1326C225.264 9.81167 225.501 9.55186 225.812 9.35317C226.123 9.15449 226.5 9.05515 226.943 9.05515C227.391 9.05515 227.768 9.15449 228.074 9.35317C228.385 9.55186 228.619 9.81167 228.777 10.1326C228.94 10.4485 229.021 10.7898 229.021 11.1566C229.021 11.5234 228.94 11.8673 228.777 12.1882C228.619 12.5041 228.385 12.7613 228.074 12.96C227.768 13.1587 227.391 13.2581 226.943 13.2581ZM226.943 12.4098C227.172 12.4098 227.363 12.3512 227.516 12.2341C227.674 12.1169 227.794 11.9641 227.875 11.7756C227.957 11.582 227.997 11.3757 227.997 11.1566C227.997 10.9324 227.957 10.7261 227.875 10.5376C227.794 10.3491 227.674 10.1963 227.516 10.0791C227.363 9.96196 227.172 9.90337 226.943 9.90337C226.719 9.90337 226.528 9.96196 226.37 10.0791C226.212 10.1963 226.092 10.3491 226.011 10.5376C225.929 10.7261 225.888 10.9324 225.888 11.1566C225.888 11.3757 225.929 11.582 226.011 11.7756C226.092 11.9641 226.212 12.1169 226.37 12.2341C226.528 12.3512 226.719 12.4098 226.943 12.4098ZM229.375 13.1816V9.13156H230.384V9.6894H230.422C230.494 9.53148 230.611 9.38629 230.774 9.25383C230.937 9.12138 231.181 9.05515 231.507 9.05515C231.609 9.05515 231.693 9.06279 231.76 9.07807C231.826 9.08826 231.859 9.09336 231.859 9.09336V10.0791C231.859 10.0791 231.821 10.074 231.744 10.0638C231.673 10.0537 231.584 10.0486 231.477 10.0486C231.12 10.0486 230.85 10.1479 230.667 10.3466C230.484 10.5453 230.392 10.8662 230.392 11.3094V13.1816H229.375ZM232.538 13.1816V9.94922H231.889V9.13156H232.538V8.75712C232.538 8.60429 232.559 8.44382 232.599 8.2757C232.64 8.10249 232.709 7.94201 232.806 7.79427C232.908 7.64654 233.048 7.52682 233.226 7.43512C233.409 7.34342 233.639 7.29757 233.914 7.29757C234.066 7.29757 234.191 7.3103 234.288 7.33578C234.39 7.35615 234.441 7.36634 234.441 7.36634V8.10758C234.441 8.10758 234.408 8.10249 234.342 8.0923C234.275 8.07702 234.204 8.06937 234.128 8.06937C233.909 8.06937 233.758 8.13305 233.677 8.26042C233.595 8.38778 233.554 8.55335 233.554 8.75712V9.13156H234.418V9.94922H233.554V13.1816H232.538ZM236.442 13.2581C235.999 13.2581 235.622 13.1587 235.311 12.96C235.001 12.7613 234.764 12.5041 234.601 12.1882C234.443 11.8673 234.364 11.5234 234.364 11.1566C234.364 10.7898 234.443 10.4485 234.601 10.1326C234.764 9.81167 235.001 9.55186 235.311 9.35317C235.622 9.15449 235.999 9.05515 236.442 9.05515C236.891 9.05515 237.268 9.15449 237.573 9.35317C237.884 9.55186 238.118 9.81167 238.276 10.1326C238.439 10.4485 238.521 10.7898 238.521 11.1566C238.521 11.5234 238.439 11.8673 238.276 12.1882C238.118 12.5041 237.884 12.7613 237.573 12.96C237.268 13.1587 236.891 13.2581 236.442 13.2581ZM236.442 12.4098C236.672 12.4098 236.863 12.3512 237.015 12.2341C237.173 12.1169 237.293 11.9641 237.375 11.7756C237.456 11.582 237.497 11.3757 237.497 11.1566C237.497 10.9324 237.456 10.7261 237.375 10.5376C237.293 10.3491 237.173 10.1963 237.015 10.0791C236.863 9.96196 236.672 9.90337 236.442 9.90337C236.218 9.90337 236.027 9.96196 235.869 10.0791C235.711 10.1963 235.592 10.3491 235.51 10.5376C235.429 10.7261 235.388 10.9324 235.388 11.1566C235.388 11.3757 235.429 11.582 235.51 11.7756C235.592 11.9641 235.711 12.1169 235.869 12.2341C236.027 12.3512 236.218 12.4098 236.442 12.4098ZM238.922 13.1816L238.929 7.37398H239.938V13.1816H238.922ZM241.041 8.50495C240.863 8.50495 240.715 8.44636 240.598 8.32919C240.486 8.21202 240.43 8.07192 240.43 7.9089C240.43 7.74588 240.486 7.60578 240.598 7.48861C240.715 7.37144 240.863 7.31285 241.041 7.31285C241.219 7.31285 241.367 7.37144 241.484 7.48861C241.601 7.60578 241.66 7.74588 241.66 7.9089C241.66 8.07192 241.601 8.21202 241.484 8.32919C241.367 8.44636 241.219 8.50495 241.041 8.50495ZM240.537 13.1816V9.13156H241.553V13.1816H240.537ZM244.091 13.2581C243.648 13.2581 243.271 13.1587 242.96 12.96C242.649 12.7613 242.413 12.5041 242.25 12.1882C242.092 11.8673 242.013 11.5234 242.013 11.1566C242.013 10.7898 242.092 10.4485 242.25 10.1326C242.413 9.81167 242.649 9.55186 242.96 9.35317C243.271 9.15449 243.648 9.05515 244.091 9.05515C244.539 9.05515 244.916 9.15449 245.222 9.35317C245.533 9.55186 245.767 9.81167 245.925 10.1326C246.088 10.4485 246.17 10.7898 246.17 11.1566C246.17 11.5234 246.088 11.8673 245.925 12.1882C245.767 12.5041 245.533 12.7613 245.222 12.96C244.916 13.1587 244.539 13.2581 244.091 13.2581ZM244.091 12.4098C244.32 12.4098 244.511 12.3512 244.664 12.2341C244.822 12.1169 244.942 11.9641 245.023 11.7756C245.105 11.582 245.146 11.3757 245.146 11.1566C245.146 10.9324 245.105 10.7261 245.023 10.5376C244.942 10.3491 244.822 10.1963 244.664 10.0791C244.511 9.96196 244.32 9.90337 244.091 9.90337C243.867 9.90337 243.676 9.96196 243.518 10.0791C243.36 10.1963 243.24 10.3491 243.159 10.5376C243.077 10.7261 243.037 10.9324 243.037 11.1566C243.037 11.3757 243.077 11.582 243.159 11.7756C243.24 11.9641 243.36 12.1169 243.518 12.2341C243.676 12.3512 243.867 12.4098 244.091 12.4098ZM247.265 13.2581C247.092 13.2581 246.949 13.1995 246.837 13.0823C246.725 12.96 246.669 12.8174 246.669 12.6544C246.669 12.4913 246.725 12.3512 246.837 12.2341C246.949 12.1169 247.092 12.0583 247.265 12.0583C247.438 12.0583 247.581 12.1169 247.693 12.2341C247.81 12.3512 247.869 12.4913 247.869 12.6544C247.869 12.8225 247.81 12.9651 247.693 13.0823C247.581 13.1995 247.438 13.2581 247.265 13.2581Z" fill="white"/>
<path d="M1.02579 13L1.02579 3.5114L2.28239 3.5114L2.28239 7.79409L6.38557 3.52422L8.02685 3.52422L3.59028 8.07618L8.21918 13H6.52662L2.28239 8.47368L2.28239 13H1.02579ZM12.337 13.1282C11.5847 13.1282 10.9222 12.9915 10.3495 12.7179C9.77677 12.4358 9.29807 12.064 8.9134 11.6024C8.52872 11.1322 8.23808 10.6065 8.04147 10.0252C7.84486 9.44391 7.74655 8.8498 7.74655 8.24288C7.74655 7.63595 7.84486 7.04612 8.04147 6.47338C8.23808 5.8921 8.52872 5.37065 8.9134 4.90904C9.29807 4.44743 9.77677 4.07986 10.3495 3.80631C10.9222 3.52422 11.5847 3.38317 12.337 3.38317C13.0892 3.38317 13.7517 3.52422 14.3245 3.80631C14.8972 4.07986 15.3759 4.44743 15.7606 4.90904C16.1453 5.37065 16.4359 5.8921 16.6325 6.47338C16.8291 7.04612 16.9274 7.63595 16.9274 8.24288C16.9274 8.8498 16.8291 9.44391 16.6325 10.0252C16.4359 10.6065 16.1453 11.1322 15.7606 11.6024C15.3759 12.064 14.8972 12.4358 14.3245 12.7179C13.7517 12.9915 13.0892 13.1282 12.337 13.1282ZM12.337 11.9614C12.8755 11.9614 13.35 11.8588 13.7603 11.6536C14.1706 11.4485 14.5125 11.1707 14.7861 10.8202C15.0682 10.4697 15.2819 10.0722 15.4272 9.6277C15.5725 9.18319 15.6452 8.72158 15.6452 8.24288C15.6452 7.77272 15.5725 7.31966 15.4272 6.8837C15.2819 6.43919 15.0682 6.04169 14.7861 5.69121C14.5125 5.34073 14.1706 5.06291 13.7603 4.85775C13.35 4.65259 12.8755 4.55001 12.337 4.55001C11.7984 4.55001 11.324 4.65259 10.9137 4.85775C10.5034 5.06291 10.1572 5.34073 9.87508 5.69121C9.60153 6.04169 9.3921 6.43919 9.24678 6.8837C9.10146 7.31966 9.0288 7.77272 9.0288 8.24288C9.0288 8.72158 9.10146 9.18319 9.24678 9.6277C9.3921 10.0722 9.60153 10.4697 9.87508 10.8202C10.1572 11.1707 10.5034 11.4485 10.9137 11.6536C11.324 11.8588 11.7984 11.9614 12.337 11.9614ZM19.3747 13L19.3747 4.61413L16.4127 4.61413V3.5114L23.5933 3.5114V4.61413H20.6313L20.6313 13H19.3747ZM27.6718 13.1282C26.9196 13.1282 26.2571 12.9915 25.6843 12.7179C25.1116 12.4358 24.6329 12.064 24.2482 11.6024C23.8636 11.1322 23.5729 10.6065 23.3763 10.0252C23.1797 9.44391 23.0814 8.8498 23.0814 8.24288C23.0814 7.63595 23.1797 7.04612 23.3763 6.47338C23.5729 5.8921 23.8636 5.37065 24.2482 4.90904C24.6329 4.44743 25.1116 4.07986 25.6843 3.80631C26.2571 3.52422 26.9196 3.38317 27.6718 3.38317C28.4241 3.38317 29.0866 3.52422 29.6593 3.80631C30.232 4.07986 30.7107 4.44743 31.0954 4.90904C31.4801 5.37065 31.7707 5.8921 31.9673 6.47338C32.1639 7.04612 32.2623 7.63595 32.2623 8.24288C32.2623 8.8498 32.1639 9.44391 31.9673 10.0252C31.7707 10.6065 31.4801 11.1322 31.0954 11.6024C30.7107 12.064 30.232 12.4358 29.6593 12.7179C29.0866 12.9915 28.4241 13.1282 27.6718 13.1282ZM27.6718 11.9614C28.2104 11.9614 28.6848 11.8588 29.0951 11.6536C29.5054 11.4485 29.8474 11.1707 30.1209 10.8202C30.403 10.4697 30.6167 10.0722 30.762 9.6277C30.9073 9.18319 30.98 8.72158 30.98 8.24288C30.98 7.77272 30.9073 7.31966 30.762 6.8837C30.6167 6.43919 30.403 6.04169 30.1209 5.69121C29.8474 5.34073 29.5054 5.06291 29.0951 4.85775C28.6848 4.65259 28.2104 4.55001 27.6718 4.55001C27.1333 4.55001 26.6588 4.65259 26.2485 4.85775C25.8382 5.06291 25.492 5.34073 25.2099 5.69121C24.9364 6.04169 24.7269 6.43919 24.5816 6.8837C24.4363 7.31966 24.3636 7.77272 24.3636 8.24288C24.3636 8.72158 24.4363 9.18319 24.5816 9.6277C24.7269 10.0722 24.9364 10.4697 25.2099 10.8202C25.492 11.1707 25.8382 11.4485 26.2485 11.6536C26.6588 11.8588 27.1333 11.9614 27.6718 11.9614ZM33.0979 13V3.5114H34.2263L39.1758 10.7304V3.5114L40.4323 3.5114V13H39.304L34.3545 5.79379V13H33.0979ZM41.5918 13V3.5114L47.6183 3.5114V4.61413L42.8484 4.61413V7.61458L47.0285 7.61458V8.71731H42.8484V11.8973H47.6824V13H41.5918ZM50.7032 13V3.5114L52.3573 3.5114L55.1526 9.15327L57.9351 3.5114L59.5892 3.5114V13H58.3582V5.35783L55.7424 10.5637H54.55L51.9342 5.33218V13H50.7032ZM60.2885 13L63.6351 3.5114L65.2123 3.5114L68.5718 13H67.2383L66.4433 10.7304H62.417L61.622 13L60.2885 13ZM62.8017 9.60205H66.0586L64.4301 4.94751L62.8017 9.60205ZM69.2812 13V3.5114H70.4096L75.3591 10.7304V3.5114L76.6157 3.5114V13H75.4873L70.5378 5.79379V13H69.2812ZM82.045 13.1282C81.2927 13.1282 80.6302 12.9915 80.0575 12.7179C79.4847 12.4358 79.006 12.064 78.6214 11.6024C78.2367 11.1322 77.9461 10.6065 77.7494 10.0252C77.5528 9.44391 77.4545 8.8498 77.4545 8.24288C77.4545 7.63595 77.5528 7.04612 77.7494 6.47338C77.9461 5.8921 78.2367 5.37065 78.6214 4.90904C79.006 4.44743 79.4847 4.07986 80.0575 3.80631C80.6302 3.52422 81.2927 3.38317 82.045 3.38317C82.7972 3.38317 83.4597 3.52422 84.0324 3.80631C84.6052 4.07986 85.0839 4.44743 85.4685 4.90904C85.8532 5.37065 86.1439 5.8921 86.3405 6.47338C86.5371 7.04612 86.6354 7.63595 86.6354 8.24288C86.6354 8.8498 86.5371 9.44391 86.3405 10.0252C86.1439 10.6065 85.8532 11.1322 85.4685 11.6024C85.0839 12.064 84.6052 12.4358 84.0324 12.7179C83.4597 12.9915 82.7972 13.1282 82.045 13.1282ZM82.045 11.9614C82.5835 11.9614 83.0579 11.8588 83.4682 11.6536C83.8786 11.4485 84.2205 11.1707 84.494 10.8202C84.7761 10.4697 84.9898 10.0722 85.1352 9.6277C85.2805 9.18319 85.3531 8.72158 85.3531 8.24288C85.3531 7.77272 85.2805 7.31966 85.1352 6.8837C84.9898 6.43919 84.7761 6.04169 84.494 5.69121C84.2205 5.34073 83.8786 5.06291 83.4682 4.85775C83.0579 4.65259 82.5835 4.55001 82.045 4.55001C81.5064 4.55001 81.032 4.65259 80.6217 4.85775C80.2113 5.06291 79.8651 5.34073 79.583 5.69121C79.3095 6.04169 79.1001 6.43919 78.9547 6.8837C78.8094 7.31966 78.7368 7.77272 78.7368 8.24288C78.7368 8.72158 78.8094 9.18319 78.9547 9.6277C79.1001 10.0722 79.3095 10.4697 79.583 10.8202C79.8651 11.1707 80.2113 11.4485 80.6217 11.6536C81.032 11.8588 81.5064 11.9614 82.045 11.9614Z" fill="white"/>
<path d="M89.2709 13.1816V7.52682H91.5023C91.9557 7.52682 92.3327 7.61852 92.6332 7.80192C92.9338 7.98022 93.158 8.21457 93.3057 8.50495C93.4585 8.79024 93.5349 9.08826 93.5349 9.39902C93.5349 9.70978 93.4585 10.0104 93.3057 10.3007C93.158 10.586 92.9338 10.8204 92.6332 11.0038C92.3327 11.1872 91.9557 11.2789 91.5023 11.2789H90.3102V13.1816H89.2709ZM91.4946 8.42853H90.3102V10.3772H91.4946C91.7188 10.3772 91.9047 10.3313 92.0525 10.2396C92.2002 10.1428 92.3097 10.0205 92.3811 9.8728C92.4575 9.71997 92.4957 9.56459 92.4957 9.40666C92.4957 9.24364 92.4575 9.08826 92.3811 8.94052C92.3097 8.79278 92.2002 8.67052 92.0525 8.57372C91.9047 8.47693 91.7188 8.42853 91.4946 8.42853ZM95.5873 13.2581C95.1441 13.2581 94.7671 13.1587 94.4564 12.96C94.1456 12.7613 93.9087 12.5041 93.7457 12.1882C93.5878 11.8673 93.5088 11.5234 93.5088 11.1566C93.5088 10.7898 93.5878 10.4485 93.7457 10.1326C93.9087 9.81167 94.1456 9.55186 94.4564 9.35317C94.7671 9.15449 95.1441 9.05515 95.5873 9.05515C96.0356 9.05515 96.4126 9.15449 96.7183 9.35317C97.0291 9.55186 97.2634 9.81167 97.4213 10.1326C97.5843 10.4485 97.6659 10.7898 97.6659 11.1566C97.6659 11.5234 97.5843 11.8673 97.4213 12.1882C97.2634 12.5041 97.0291 12.7613 96.7183 12.96C96.4126 13.1587 96.0356 13.2581 95.5873 13.2581ZM95.5873 12.4098C95.8166 12.4098 96.0076 12.3512 96.1604 12.2341C96.3184 12.1169 96.4381 11.9641 96.5196 11.7756C96.6011 11.582 96.6419 11.3757 96.6419 11.1566C96.6419 10.9324 96.6011 10.7261 96.5196 10.5376C96.4381 10.3491 96.3184 10.1963 96.1604 10.0791C96.0076 9.96196 95.8166 9.90337 95.5873 9.90337C95.3632 9.90337 95.1721 9.96196 95.0142 10.0791C94.8563 10.1963 94.7366 10.3491 94.655 10.5376C94.5735 10.7261 94.5328 10.9324 94.5328 11.1566C94.5328 11.3757 94.5735 11.582 94.655 11.7756C94.7366 11.9641 94.8563 12.1169 95.0142 12.2341C95.1721 12.3512 95.3632 12.4098 95.5873 12.4098ZM98.02 13.1816V9.13156H99.0287V9.6894H99.0669C99.1382 9.53148 99.2554 9.38629 99.4184 9.25383C99.5814 9.12138 99.826 9.05515 100.152 9.05515C100.254 9.05515 100.338 9.06279 100.404 9.07807C100.47 9.08826 100.504 9.09336 100.504 9.09336V10.0791C100.504 10.0791 100.465 10.074 100.389 10.0638C100.318 10.0537 100.228 10.0486 100.121 10.0486C99.7648 10.0486 99.4948 10.1479 99.3114 10.3466C99.128 10.5453 99.0363 10.8662 99.0363 11.3094V13.1816H98.02ZM101.183 13.1816V9.94922H100.533V9.13156H101.183V8.75712C101.183 8.60429 101.203 8.44382 101.244 8.2757C101.285 8.10249 101.353 7.94201 101.45 7.79427C101.552 7.64654 101.692 7.52682 101.87 7.43512C102.054 7.34342 102.283 7.29757 102.558 7.29757C102.711 7.29757 102.836 7.3103 102.933 7.33578C103.035 7.35615 103.085 7.36634 103.085 7.36634V8.10758C103.085 8.10758 103.052 8.10249 102.986 8.0923C102.92 8.07702 102.849 8.06937 102.772 8.06937C102.553 8.06937 102.403 8.13305 102.321 8.26042C102.24 8.38778 102.199 8.55335 102.199 8.75712V9.13156H103.063V9.94922H102.199V13.1816H101.183ZM105.087 13.2581C104.644 13.2581 104.267 13.1587 103.956 12.96C103.645 12.7613 103.408 12.5041 103.245 12.1882C103.087 11.8673 103.008 11.5234 103.008 11.1566C103.008 10.7898 103.087 10.4485 103.245 10.1326C103.408 9.81167 103.645 9.55186 103.956 9.35317C104.267 9.15449 104.644 9.05515 105.087 9.05515C105.535 9.05515 105.912 9.15449 106.218 9.35317C106.529 9.55186 106.763 9.81167 106.921 10.1326C107.084 10.4485 107.165 10.7898 107.165 11.1566C107.165 11.5234 107.084 11.8673 106.921 12.1882C106.763 12.5041 106.529 12.7613 106.218 12.96C105.912 13.1587 105.535 13.2581 105.087 13.2581ZM105.087 12.4098C105.316 12.4098 105.507 12.3512 105.66 12.2341C105.818 12.1169 105.938 11.9641 106.019 11.7756C106.101 11.582 106.141 11.3757 106.141 11.1566C106.141 10.9324 106.101 10.7261 106.019 10.5376C105.938 10.3491 105.818 10.1963 105.66 10.0791C105.507 9.96196 105.316 9.90337 105.087 9.90337C104.863 9.90337 104.672 9.96196 104.514 10.0791C104.356 10.1963 104.236 10.3491 104.155 10.5376C104.073 10.7261 104.032 10.9324 104.032 11.1566C104.032 11.3757 104.073 11.582 104.155 11.7756C104.236 11.9641 104.356 12.1169 104.514 12.2341C104.672 12.3512 104.863 12.4098 105.087 12.4098ZM107.566 13.1816L107.574 7.37398H108.582V13.1816H107.566ZM109.685 8.50495C109.507 8.50495 109.359 8.44636 109.242 8.32919C109.13 8.21202 109.074 8.07192 109.074 7.9089C109.074 7.74588 109.13 7.60578 109.242 7.48861C109.359 7.37144 109.507 7.31285 109.685 7.31285C109.864 7.31285 110.012 7.37144 110.129 7.48861C110.246 7.60578 110.304 7.74588 110.304 7.9089C110.304 8.07192 110.246 8.21202 110.129 8.32919C110.012 8.44636 109.864 8.50495 109.685 8.50495ZM109.181 13.1816V9.13156H110.197V13.1816H109.181ZM112.736 13.2581C112.292 13.2581 111.915 13.1587 111.605 12.96C111.294 12.7613 111.057 12.5041 110.894 12.1882C110.736 11.8673 110.657 11.5234 110.657 11.1566C110.657 10.7898 110.736 10.4485 110.894 10.1326C111.057 9.81167 111.294 9.55186 111.605 9.35317C111.915 9.15449 112.292 9.05515 112.736 9.05515C113.184 9.05515 113.561 9.15449 113.867 9.35317C114.177 9.55186 114.412 9.81167 114.57 10.1326C114.733 10.4485 114.814 10.7898 114.814 11.1566C114.814 11.5234 114.733 11.8673 114.57 12.1882C114.412 12.5041 114.177 12.7613 113.867 12.96C113.561 13.1587 113.184 13.2581 112.736 13.2581ZM112.736 12.4098C112.965 12.4098 113.156 12.3512 113.309 12.2341C113.467 12.1169 113.586 11.9641 113.668 11.7756C113.749 11.582 113.79 11.3757 113.79 11.1566C113.79 10.9324 113.749 10.7261 113.668 10.5376C113.586 10.3491 113.467 10.1963 113.309 10.0791C113.156 9.96196 112.965 9.90337 112.736 9.90337C112.512 9.90337 112.32 9.96196 112.163 10.0791C112.005 10.1963 111.885 10.3491 111.803 10.5376C111.722 10.7261 111.681 10.9324 111.681 11.1566C111.681 11.3757 111.722 11.582 111.803 11.7756C111.885 11.9641 112.005 12.1169 112.163 12.2341C112.32 12.3512 112.512 12.4098 112.736 12.4098ZM115.91 13.2581C115.736 13.2581 115.594 13.1995 115.482 13.0823C115.37 12.96 115.314 12.8174 115.314 12.6544C115.314 12.4913 115.37 12.3512 115.482 12.2341C115.594 12.1169 115.736 12.0583 115.91 12.0583C116.083 12.0583 116.225 12.1169 116.338 12.2341C116.455 12.3512 116.513 12.4913 116.513 12.6544C116.513 12.8225 116.455 12.9651 116.338 13.0823C116.225 13.1995 116.083 13.2581 115.91 13.2581Z" fill="white"/>
</svg>
