<svg width="33" height="32" viewBox="0 0 33 32" fill="none" xmlns="http://www.w3.org/2000/svg">
<mask id="mask0_473_1485" style="mask-type:alpha" maskUnits="userSpaceOnUse" x="0" y="0" width="33" height="32">
<path d="M22.7012 0C22.2883 0 21.9073 0.169478 21.6245 0.479129L10.6931 10.4721C10.5038 10.6439 10.4888 10.9373 10.6605 11.1267C10.7517 11.2276 10.8782 11.2785 11.0041 11.2785C11.1152 11.2785 11.2262 11.2384 11.3151 11.1583L22.2663 1.1472C22.2784 1.13609 22.29 1.12398 22.3007 1.11194C22.4368 0.957348 22.5938 0.92481 22.7012 0.92481C22.9733 0.92481 23.2544 1.12967 23.2544 1.47265V8.72377L16.1624 14.0855L16.1651 14.0882L15.7755 14.3829C15.5718 14.5371 15.5318 14.827 15.686 15.0311C15.7772 15.1514 15.9155 15.2146 16.0557 15.2146C16.1529 15.2146 16.2513 15.184 16.3351 15.1206L23.2553 9.88453L23.2571 21.9848L4.60272 7.88575C3.91075 7.37892 2.90772 7.39795 2.17363 7.92191C1.78899 8.19685 0.836223 9.0804 0.755223 9.1577C0.296531 9.52521 0.0216377 10.0728 0.00127198 10.6602C-0.0195566 11.248 0.216219 11.8125 0.649453 12.2124L21.6245 31.3893C21.9073 31.699 22.2888 31.8693 22.7012 31.8693C23.0039 31.8693 23.3072 31.7686 23.5627 31.5909L30.1674 28.5561C31.2931 28.1678 32.0496 27.113 32.0496 25.9318V5.93669C32.0496 4.75547 31.2935 3.70071 30.2099 3.3295L23.5627 0.277533C23.3077 0.0997963 23.0039 0 22.7012 0ZM24.181 1.57932L29.8655 4.18741C30.6181 4.44707 31.1239 5.15029 31.1239 5.93669V25.9318C31.1239 26.7181 30.6186 27.4214 29.8239 27.6973L24.181 30.2891V22.9141L24.1792 8.95972C24.1792 8.95787 24.181 8.95615 24.181 8.9543V1.57932ZM29.5039 5.54073C29.3761 5.54073 29.2725 5.64441 29.2725 5.77215V17.3436C29.2725 17.4713 29.3761 17.575 29.5039 17.575C29.6316 17.575 29.7353 17.4713 29.7353 17.3436V5.77215C29.7353 5.64441 29.6316 5.54073 29.5039 5.54073ZM3.44016 8.43268C3.66418 8.43268 3.87772 8.50112 4.05037 8.62795L23.2553 23.1447V30.3958C23.2553 30.7383 22.9742 30.9436 22.7021 30.9436C22.5947 30.9436 22.4377 30.9111 22.3016 30.7565C22.2905 30.744 22.2788 30.7328 22.2663 30.7212L1.27594 11.5307C1.04266 11.3155 0.915437 11.0102 0.926082 10.6927C0.937191 10.3747 1.086 10.0796 1.36001 9.85831C1.63958 9.59773 2.42686 8.87815 2.71152 8.67496C2.93091 8.51805 3.18975 8.43268 3.44016 8.43268ZM3.98166 16.8012C3.86334 16.7958 3.7425 16.8367 3.64808 16.9232L3.14906 17.3788L3.14454 17.3752L0.648549 19.657C0.216703 20.055 -0.0195566 20.6209 0.00127198 21.2083C0.0216377 21.7961 0.296676 22.3437 0.72991 22.689C0.83683 22.789 1.7899 23.672 2.17453 23.9474C2.54991 24.2145 2.99859 24.3615 3.44016 24.3615C3.86274 24.3615 4.26471 24.2318 4.60815 23.98L8.35259 21.1558C8.55625 21.0017 8.59622 20.7113 8.44209 20.5076C8.28703 20.3031 7.99756 20.2626 7.79391 20.4172L4.05579 23.236C3.67856 23.5123 3.1276 23.4897 2.71242 23.1935C2.42776 22.9903 1.63974 22.2699 1.33379 21.9875C1.0857 21.7885 0.937654 21.4928 0.926082 21.1748C0.915437 20.8573 1.04224 20.5524 1.27413 20.3386L4.27276 17.6057C4.46114 17.4336 4.4757 17.1405 4.30259 16.9521C4.21627 16.8573 4.09998 16.8065 3.98166 16.8012ZM29.5039 18.5007C29.3761 18.5007 29.2725 18.6044 29.2725 18.7322V20.5836C29.2725 20.7113 29.3761 20.815 29.5039 20.815C29.6316 20.815 29.7353 20.7113 29.7353 20.5836V18.7322C29.7353 18.6044 29.6316 18.5007 29.5039 18.5007ZM29.5039 21.2779C29.3761 21.2779 29.2725 21.3815 29.2725 21.5093V21.9722C29.2725 22.0999 29.3761 22.2036 29.5039 22.2036C29.6316 22.2036 29.7353 22.0999 29.7353 21.9722V21.5093C29.7353 21.3815 29.6316 21.2779 29.5039 21.2779ZM29.5039 23.1293C29.3761 23.1293 29.2725 23.233 29.2725 23.3607V26.0222C29.2725 26.1499 29.3761 26.2536 29.5039 26.2536C29.6316 26.2536 29.7353 26.1499 29.7353 26.0222V23.3607C29.7353 23.233 29.6316 23.1293 29.5039 23.1293Z" fill="black"/>
</mask>
<g mask="url(#mask0_473_1485)">
<rect x="-2" y="-2" width="36" height="36" fill="white"/>
</g>
</svg>
