<svg width="36" height="36" viewBox="0 0 36 36" fill="none" xmlns="http://www.w3.org/2000/svg">
<rect x="0.75" y="0.75" width="34.5" height="34.5" rx="1.25" stroke="black" stroke-width="1.5"/>
<path d="M13.669 19.041L10.629 24H8.482L12.643 17.331L8.748 10.7H10.781L13.745 15.526L16.633 10.7H18.666L14.79 17.217L18.97 24H16.785L13.669 19.041ZM20.2791 17.426C20.2791 16.096 20.8174 15.184 21.8941 14.69C22.4387 14.4367 23.0531 14.31 23.7371 14.31C24.0917 14.31 24.4274 14.348 24.7441 14.424C25.0734 14.4873 25.3521 14.576 25.5801 14.69V10.7H27.2901V24L26.2451 24.095C25.4217 24.1837 24.7757 24.228 24.3071 24.228C23.8384 24.228 23.3951 24.1837 22.9771 24.095C22.5717 24.0063 22.1664 23.8607 21.7611 23.658C21.3051 23.43 20.9441 23.0943 20.6781 22.651C20.4121 22.2077 20.2791 21.663 20.2791 21.017V17.426ZM25.5801 16.457C25.0607 16.1783 24.4971 16.039 23.8891 16.039C23.3317 16.039 22.8757 16.191 22.5211 16.495C22.1664 16.799 21.9891 17.2803 21.9891 17.939V21.112C21.9891 21.606 22.1981 21.986 22.6161 22.252C23.0467 22.5053 23.6041 22.632 24.2881 22.632C24.6681 22.632 25.0987 22.5813 25.5801 22.48V16.457Z" fill="black"/>
</svg>
