<svg width="34" height="34" viewBox="0 0 34 34" fill="none" xmlns="http://www.w3.org/2000/svg">
<mask id="mask0_473_1491" style="mask-type:alpha" maskUnits="userSpaceOnUse" x="0" y="0" width="34" height="34">
<path d="M16.56 0C7.42416 0 0 7.42416 0 16.56C0 25.6958 7.42416 33.12 16.56 33.12C25.6958 33.12 33.12 25.6958 33.12 16.56C33.12 7.42416 25.6958 0 16.56 0ZM16.56 1.44C24.9173 1.44 31.68 8.20272 31.68 16.56C31.68 24.9173 24.9173 31.68 16.56 31.68C8.20272 31.68 1.44 24.9173 1.44 16.56C1.44 8.20272 8.20272 1.44 16.56 1.44ZM16.56 2.88C9.00956 2.88 2.88 9.00956 2.88 16.56C2.88 24.1104 9.00956 30.24 16.56 30.24C24.1104 30.24 30.24 24.1104 30.24 16.56C30.24 9.00956 24.1104 2.88 16.56 2.88ZM16.56 4.32C19.4202 4.32 22.0404 5.30348 24.1214 6.93984C23.7573 7.3861 23.5434 7.95832 23.5434 8.56828C23.5434 9.72028 24.1917 10.728 24.9117 11.88C25.4877 12.816 26.0634 14.0403 26.0634 15.7683C26.0634 16.9923 25.7034 18.5046 24.9834 20.3766L23.5434 25.1283L18.4317 9.86344C19.2957 9.79144 20.0883 9.72 20.0883 9.72C20.8083 9.648 20.7366 8.56828 20.0166 8.56828H19.9434C19.9434 8.56828 17.6403 8.78344 16.1283 8.78344C14.7603 8.78344 12.3834 8.56828 12.3834 8.56828H12.3117C11.5917 8.56828 11.52 9.72 12.24 9.72C12.24 9.72 12.9597 9.79144 13.7517 9.86344L15.9834 15.9117L12.8883 25.2L7.70344 9.79172C8.56744 9.71972 9.36 9.64828 9.36 9.64828C10.08 9.57628 10.0083 8.49656 9.28828 8.49656H9.21656C9.21656 8.49656 8.27237 8.57412 7.23234 8.63719C9.47532 5.99751 12.8147 4.32 16.56 4.32ZM25.2633 7.94953C26.2431 8.93987 27.0456 10.1009 27.6427 11.3794C27.6274 12.1942 27.492 13.0086 27.2883 13.8234C27.0003 12.8154 26.6403 11.9517 26.2083 11.2317L26.0634 10.9434C25.4874 10.0074 25.0566 9.288 25.0566 8.64C25.0566 8.39336 25.1281 8.14986 25.2633 7.94953ZM15.5517 10.1517H16.2717C16.5597 10.2237 16.7766 10.2234 17.1366 10.2234L17.2083 10.3683L22.32 25.6317L22.822 27.0689C22.5474 27.2326 22.2664 27.3851 21.9783 27.5273L18.1434 17.28L17.64 15.9117L17.4966 15.4083L15.5517 10.1517ZM6.09609 10.2234H6.40828L6.48 10.3683L11.6634 25.7766L12.0966 27.0717L11.8491 27.862C11.6511 27.7797 11.4622 27.6815 11.2697 27.5892L5.41266 11.5158C5.6145 11.0692 5.84418 10.6393 6.09609 10.2234ZM28.5019 13.8923C28.6922 14.7517 28.8 15.6424 28.8 16.56C28.8 20.3466 27.0887 23.722 24.3984 25.965L27.7917 16.1283C28.1066 15.3271 28.3337 14.5882 28.5019 13.8923ZM4.58437 14.0203L9.05766 26.2252C6.17713 23.9882 4.32 20.4998 4.32 16.56C4.32 15.6886 4.41226 14.8396 4.58437 14.0203ZM16.56 17.7117L20.4061 28.177C19.1962 28.5759 17.9056 28.8 16.56 28.8C15.3062 28.8 14.0979 28.6097 12.96 28.2614L16.56 17.7117Z" fill="black"/>
</mask>
<g mask="url(#mask0_473_1491)">
<rect x="-2" y="-1" width="36" height="36" fill="white"/>
</g>
</svg>
