<svg width="34" height="34" viewBox="0 0 34 34" fill="none" xmlns="http://www.w3.org/2000/svg">
<mask id="mask0_473_1501" style="mask-type:alpha" maskUnits="userSpaceOnUse" x="0" y="0" width="34" height="34">
<path d="M16.56 1.44C16.9678 1.44 17.3503 1.5975 17.6372 1.88719L31.2328 15.4828C31.8291 16.0762 31.8291 17.0437 31.2328 17.6372L17.6372 31.2328C17.3503 31.5225 16.9678 31.68 16.56 31.68C16.1522 31.68 15.7697 31.5225 15.4828 31.2328L1.88719 17.6372C1.29094 17.0437 1.29094 16.0762 1.88719 15.4828L10.7578 6.61219L12.3947 8.24906C12.0009 9.71156 12.3975 11.3062 13.5056 12.4144C13.77 12.6787 14.0709 12.9066 14.4 13.095V20.0278C13.0894 20.7844 12.24 22.1934 12.24 23.76C12.24 26.1422 14.1778 28.08 16.56 28.08C18.9422 28.08 20.88 26.1422 20.88 23.76C20.88 22.1934 20.0306 20.7844 18.72 20.0278V14.5744L19.5947 15.4491C19.2009 16.9116 19.5975 18.5062 20.7056 19.6144C21.5212 20.43 22.6069 20.88 23.76 20.88C24.9131 20.88 25.9987 20.43 26.8144 19.6144C28.4991 17.9297 28.4991 15.1903 26.8144 13.5056C26.0016 12.6928 24.9244 12.2456 23.7741 12.2456C23.3944 12.2456 23.0147 12.2962 22.6491 12.3947L20.7253 10.4709C21.1191 9.00844 20.7225 7.41375 19.6144 6.30563C18.8016 5.49281 17.7244 5.04563 16.5741 5.04563C16.1944 5.04563 15.8147 5.09625 15.4491 5.19469L13.8122 3.55781L15.4828 1.88719C15.7697 1.5975 16.1522 1.44 16.56 1.44ZM16.56 0C15.8006 0 15.0412 0.289688 14.4647 0.869062L11.7759 3.55781L15.1031 6.885C15.5559 6.62063 16.065 6.48563 16.5741 6.48563C17.3053 6.48563 18.0366 6.76406 18.5962 7.32375C19.5441 8.27156 19.6819 9.71156 19.0322 10.8141L22.3031 14.085C22.7559 13.8206 23.265 13.6856 23.7741 13.6856C24.5053 13.6856 25.2366 13.9641 25.7962 14.5237C26.9212 15.6487 26.9212 17.4712 25.7962 18.5962C25.2337 19.1587 24.4969 19.44 23.76 19.44C23.0231 19.44 22.2862 19.1587 21.7237 18.5962C20.7759 17.6484 20.6381 16.2084 21.2878 15.1031L18.0169 11.8322C17.7834 11.97 17.5359 12.0712 17.28 12.1359V20.9812C18.5203 21.3019 19.44 22.4184 19.44 23.76C19.44 25.3519 18.1519 26.64 16.56 26.64C14.9709 26.64 13.68 25.3519 13.68 23.76C13.68 22.4184 14.5997 21.3019 15.84 20.9812V12.1359C15.3591 12.0122 14.9006 11.7731 14.5237 11.3962C13.5759 10.4484 13.4381 9.00844 14.0878 7.90594L10.7578 4.57594L0.869062 14.4647C-0.289687 15.6206 -0.289687 17.4994 0.869062 18.6553L14.4647 32.2509C15.0412 32.8303 15.8006 33.12 16.56 33.12C17.3194 33.12 18.0787 32.8303 18.6553 32.2509L32.2509 18.6553C33.4097 17.4994 33.4097 15.6206 32.2509 14.4647L18.6553 0.869062C18.0787 0.289688 17.3194 0 16.56 0Z" fill="black"/>
</mask>
<g mask="url(#mask0_473_1501)">
<rect x="-1" y="-1" width="36" height="36" fill="white"/>
</g>
</svg>
