<svg width="36" height="36" viewBox="0 0 36 36" fill="none" xmlns="http://www.w3.org/2000/svg">
<rect x="0.75" y="0.75" width="34.5" height="34.5" rx="1.25" stroke="black" stroke-width="1.5"/>
<path d="M13.405 22.655C12.515 22.985 11.685 23.15 10.915 23.15C10.045 23.15 9.34 22.92 8.8 22.46C8.26 22 7.99 21.265 7.99 20.255V15.44C7.99 14.68 8.095 14.105 8.305 13.715C8.525 13.325 8.855 12.995 9.295 12.725C9.735 12.475 10.275 12.35 10.915 12.35C11.695 12.35 12.4 12.515 13.03 12.845L12.565 14.345C12.105 14.175 11.6 14.09 11.05 14.09C10.63 14.09 10.29 14.205 10.03 14.435C9.77 14.665 9.64 14.955 9.64 15.305V20.225C9.64 21.065 10.11 21.485 11.05 21.485C11.35 21.485 11.65 21.455 11.95 21.395C12.25 21.325 12.65 21.225 13.15 21.095L13.405 22.655ZM15.4703 20.075C15.5203 20.515 15.7003 20.87 16.0103 21.14C16.3203 21.41 16.7253 21.545 17.2253 21.545C17.6453 21.545 17.9853 21.475 18.2453 21.335C18.5153 21.195 18.7103 21.025 18.8303 20.825C18.9503 20.625 19.0103 20.43 19.0103 20.24C19.0103 19.8 18.9003 19.435 18.6803 19.145C18.4703 18.845 18.2053 18.61 17.8853 18.44C17.5753 18.26 17.1503 18.055 16.6103 17.825C16.0203 17.575 15.5503 17.35 15.2003 17.15C14.8603 16.94 14.5653 16.66 14.3153 16.31C14.0753 15.95 13.9553 15.495 13.9553 14.945C13.9553 14.505 14.0803 14.09 14.3303 13.7C14.5803 13.3 14.9603 12.975 15.4703 12.725C15.9803 12.475 16.6053 12.35 17.3453 12.35C17.8353 12.35 18.2403 12.385 18.5603 12.455C18.8803 12.525 19.2053 12.64 19.5353 12.8L19.0103 14.36C18.6503 14.24 18.3553 14.155 18.1253 14.105C17.9053 14.055 17.6503 14.03 17.3603 14.03C16.7903 14.03 16.3703 14.13 16.1003 14.33C15.8303 14.53 15.7103 14.785 15.7403 15.095C15.7703 15.345 15.9203 15.56 16.1903 15.74C16.4703 15.92 16.9003 16.14 17.4803 16.4C18.1603 16.7 18.7253 16.985 19.1753 17.255C19.6253 17.525 20.0103 17.895 20.3303 18.365C20.6603 18.835 20.8253 19.41 20.8253 20.09C20.8253 20.98 20.5303 21.715 19.9403 22.295C19.3503 22.875 18.4503 23.165 17.2403 23.165C16.5003 23.165 15.8653 23.03 15.3353 22.76C14.8153 22.48 14.4153 22.125 14.1353 21.695C13.8653 21.255 13.7203 20.8 13.7003 20.33L15.4703 20.075ZM23.5785 20.075C23.6285 20.515 23.8085 20.87 24.1185 21.14C24.4285 21.41 24.8335 21.545 25.3335 21.545C25.7535 21.545 26.0935 21.475 26.3535 21.335C26.6235 21.195 26.8185 21.025 26.9385 20.825C27.0585 20.625 27.1185 20.43 27.1185 20.24C27.1185 19.8 27.0085 19.435 26.7885 19.145C26.5785 18.845 26.3135 18.61 25.9935 18.44C25.6835 18.26 25.2585 18.055 24.7185 17.825C24.1285 17.575 23.6585 17.35 23.3085 17.15C22.9685 16.94 22.6735 16.66 22.4235 16.31C22.1835 15.95 22.0635 15.495 22.0635 14.945C22.0635 14.505 22.1885 14.09 22.4385 13.7C22.6885 13.3 23.0685 12.975 23.5785 12.725C24.0885 12.475 24.7135 12.35 25.4535 12.35C25.9435 12.35 26.3485 12.385 26.6685 12.455C26.9885 12.525 27.3135 12.64 27.6435 12.8L27.1185 14.36C26.7585 14.24 26.4635 14.155 26.2335 14.105C26.0135 14.055 25.7585 14.03 25.4685 14.03C24.8985 14.03 24.4785 14.13 24.2085 14.33C23.9385 14.53 23.8185 14.785 23.8485 15.095C23.8785 15.345 24.0285 15.56 24.2985 15.74C24.5785 15.92 25.0085 16.14 25.5885 16.4C26.2685 16.7 26.8335 16.985 27.2835 17.255C27.7335 17.525 28.1185 17.895 28.4385 18.365C28.7685 18.835 28.9335 19.41 28.9335 20.09C28.9335 20.98 28.6385 21.715 28.0485 22.295C27.4585 22.875 26.5585 23.165 25.3485 23.165C24.6085 23.165 23.9735 23.03 23.4435 22.76C22.9235 22.48 22.5235 22.125 22.2435 21.695C21.9735 21.255 21.8285 20.8 21.8085 20.33L23.5785 20.075Z" fill="black"/>
</svg>
