<svg width="24" height="34" viewBox="0 0 24 34" fill="none" xmlns="http://www.w3.org/2000/svg">
<mask id="mask0_473_1503" style="mask-type:alpha" maskUnits="userSpaceOnUse" x="0" y="0" width="24" height="34">
<path d="M6.12 0C2.74861 0 0 2.74861 0 6.12C0 8.49621 1.40395 10.5069 3.39047 11.52C1.40395 12.5331 0 14.5438 0 16.92C0 19.2962 1.40395 21.3069 3.39047 22.32C1.40395 23.3331 0 25.3438 0 27.72C0 31.0914 2.74861 33.84 6.12 33.84C9.49139 33.84 12.24 31.0914 12.24 27.72V22.32V19.9125C13.2058 21.7452 15.0711 23.04 17.28 23.04C20.4526 23.04 23.04 20.4526 23.04 17.28C23.04 14.6723 21.2588 12.5487 18.8747 11.8434C21.2786 11.0172 23.04 8.79856 23.04 6.12C23.04 2.74861 20.2914 0 16.92 0H11.52H6.12ZM6.12 1.44H10.8V10.8H6.12C3.52691 10.8 1.44 8.71309 1.44 6.12C1.44 3.52691 3.52691 1.44 6.12 1.44ZM12.24 1.44H16.92C19.5131 1.44 21.6 3.52691 21.6 6.12C21.6 8.71309 19.5131 10.8 16.92 10.8H12.24V1.44ZM6.12 12.24H10.8V21.6H6.12C3.52691 21.6 1.44 19.5131 1.44 16.92C1.44 14.3269 3.52691 12.24 6.12 12.24ZM12.24 12.24H14.6475C13.6144 12.7844 12.7844 13.6144 12.24 14.6475V12.24ZM17.28 12.96C19.6744 12.96 21.6 14.8856 21.6 17.28C21.6 19.6744 19.6744 21.6 17.28 21.6C14.8856 21.6 12.96 19.6744 12.96 17.28C12.96 14.8856 14.8856 12.96 17.28 12.96ZM6.12 23.04H10.8V27.72C10.8 30.3131 8.71309 32.4 6.12 32.4C3.52691 32.4 1.44 30.3131 1.44 27.72C1.44 25.1269 3.52691 23.04 6.12 23.04Z" fill="black"/>
</mask>
<g mask="url(#mask0_473_1503)">
<rect x="-6" y="-1" width="36" height="36" fill="white"/>
</g>
</svg>
