<svg width="36" height="36" viewBox="0 0 36 36" fill="none" xmlns="http://www.w3.org/2000/svg">
<rect x="0.75" y="0.75" width="34.5" height="34.5" rx="1.25" stroke="black" stroke-width="1.5"/>
<path d="M9.895 24.223C10.427 24.223 10.896 24.069 11.302 23.761C11.722 23.453 11.932 22.879 11.932 22.039V12.148L10.63 12.106V10.3H13.822V22.228C13.822 23.46 13.563 24.356 13.045 24.916C12.541 25.476 11.687 25.763 10.483 25.777L9.895 24.223ZM19.1708 22.186C19.1988 22.564 19.3948 22.886 19.7588 23.152C20.1228 23.404 20.5918 23.53 21.1658 23.53C21.6838 23.53 22.1108 23.404 22.4468 23.152C22.7968 22.886 22.9718 22.55 22.9718 22.144C22.9718 21.654 22.7828 21.283 22.4048 21.031C22.0408 20.779 21.4808 20.527 20.7248 20.275C20.0948 20.065 19.5768 19.862 19.1708 19.666C18.7648 19.47 18.4008 19.183 18.0788 18.805C17.7708 18.427 17.5888 17.937 17.5328 17.335C17.4908 16.859 17.5818 16.383 17.8058 15.907C18.0438 15.417 18.4358 15.018 18.9818 14.71C19.5418 14.388 20.2558 14.227 21.1238 14.227C21.5718 14.227 21.9638 14.276 22.2998 14.374C22.6498 14.458 22.9228 14.549 23.1188 14.647C23.3148 14.745 23.4338 14.808 23.4758 14.836L22.9088 16.558C22.8808 16.53 22.7968 16.481 22.6568 16.411C22.5168 16.327 22.3138 16.25 22.0478 16.18C21.7818 16.096 21.4738 16.054 21.1238 16.054C20.5218 16.054 20.1018 16.18 19.8638 16.432C19.6258 16.67 19.5278 16.971 19.5698 17.335C19.6118 17.615 19.7868 17.846 20.0948 18.028C20.4168 18.21 20.8858 18.406 21.5018 18.616C22.2158 18.868 22.8038 19.12 23.2658 19.372C23.7278 19.61 24.1268 19.96 24.4628 20.422C24.7988 20.87 24.9668 21.451 24.9668 22.165C24.9668 23.047 24.6448 23.796 24.0008 24.412C23.3708 25.014 22.4258 25.315 21.1658 25.315C20.3678 25.315 19.6748 25.182 19.0868 24.916C18.5128 24.636 18.0718 24.272 17.7638 23.824C17.4698 23.376 17.3088 22.879 17.2808 22.333L19.1708 22.186Z" fill="black"/>
</svg>
