<svg width="31" height="31" viewBox="0 0 31 31" fill="none" xmlns="http://www.w3.org/2000/svg">
<mask id="mask0_473_1487" style="mask-type:alpha" maskUnits="userSpaceOnUse" x="0" y="0" width="31" height="31">
<path d="M1.44 0C0.652995 0 0 0.652995 0 1.44V28.8C0 29.587 0.652995 30.24 1.44 30.24H28.8C29.587 30.24 30.24 29.587 30.24 28.8V1.44C30.24 0.652995 29.587 0 28.8 0H1.44ZM1.44 1.44H28.8V28.8H1.44V1.44ZM10.5019 7.2C9.46507 7.2 8.63565 7.31521 7.92141 7.49953L7.92 23.04H9.69469V16.4377C9.94813 16.46 10.1784 16.4602 10.478 16.4602C11.8604 16.4602 13.3118 15.8853 14.1412 14.7333C14.741 13.9499 15.0848 12.9822 15.0848 11.5537C15.0848 10.1951 14.6936 9.06509 13.957 8.32781C13.1506 7.54445 11.9296 7.2 10.5019 7.2ZM10.7831 8.38125C12.7638 8.38125 13.4086 9.8079 13.4086 11.3977C13.4086 13.5865 12.2334 14.7389 10.5061 14.7389C10.2066 14.7389 9.99908 14.7162 9.79172 14.6939V8.49656C10.0221 8.42672 10.3684 8.38125 10.7831 8.38125ZM19.9561 11.52C18.1626 11.52 16.7766 12.7934 16.7766 14.6208C16.7766 15.893 17.5878 16.8647 19.0941 17.813C20.2648 18.5531 20.5748 19.1549 20.5748 20.0109C20.5748 21.0053 19.9071 21.6295 18.8789 21.6295C18.1373 21.6295 17.4203 21.3057 17.0142 21.0516L16.56 22.3917C17.0618 22.7848 17.9945 23.04 18.8311 23.04C20.7434 23.04 22.32 21.9528 22.32 19.7086C22.32 18.1592 21.2692 17.1174 19.9322 16.2844C18.7845 15.5449 18.4978 15.105 18.4978 14.3648C18.4978 13.6254 18.9987 12.9319 19.9786 12.9319C20.6 12.9319 21.0789 13.14 21.5325 13.4409L22.0106 12.098C21.5325 11.7977 20.8647 11.52 19.9561 11.52Z" fill="black"/>
</mask>
<g mask="url(#mask0_473_1487)">
<rect x="-3" y="-3" width="36" height="36" fill="white"/>
</g>
</svg>
