<svg width="31" height="31" viewBox="0 0 31 31" fill="none" xmlns="http://www.w3.org/2000/svg">
<mask id="mask0_473_1489" style="mask-type:alpha" maskUnits="userSpaceOnUse" x="0" y="0" width="31" height="31">
<path d="M1.44 0C0.652995 0 0 0.652995 0 1.44V28.8C0 29.587 0.652995 30.24 1.44 30.24H28.8C29.587 30.24 30.24 29.587 30.24 28.8V1.44C30.24 0.652995 29.587 0 28.8 0H1.44ZM1.44 1.44H28.8V28.8H1.44V1.44ZM21.96 7.2V12.8644V12.87C21.523 11.9261 20.7526 11.52 19.9462 11.52C18.2182 11.52 16.56 13.2278 16.56 17.19C16.56 20.8771 17.8967 23.265 19.7859 23.265C20.9603 23.265 21.6144 22.6534 21.96 21.87V23.04H23.76C23.737 22.3949 23.76 21.3703 23.76 20.61V7.2H21.96ZM6.50531 7.92L10.4527 15.48L6.50531 23.04H8.28L11.3442 17.1886L14.4 23.04H16.2L12.24 15.48L16.2 7.92H14.4L11.3442 13.7714L8.28 7.92H6.50531ZM20.3372 13.0402C21.1897 13.0402 21.858 14.058 21.9502 15.21C21.9732 15.4627 21.9502 15.7453 21.9502 15.975V19.26C21.9502 19.26 21.9293 19.6826 21.8602 19.89C21.4685 21.5021 20.7537 21.7898 20.2008 21.7898C18.9105 21.7898 18.3333 19.5401 18.3333 17.19C18.3333 14.9558 18.8626 13.0402 20.3372 13.0402Z" fill="black"/>
</mask>
<g mask="url(#mask0_473_1489)">
<rect x="-3" y="-3" width="36" height="36" fill="white"/>
</g>
</svg>
