<svg width="33" height="33" viewBox="0 0 33 33" fill="none" xmlns="http://www.w3.org/2000/svg">
<mask id="mask0_473_1492" style="mask-type:alpha" maskUnits="userSpaceOnUse" x="0" y="0" width="33" height="33">
<path d="M29.9077 29.9085H16.1998C14.3266 29.9161 12.4721 29.5361 10.7529 28.7924C9.03369 28.0487 7.4869 26.9574 6.20977 25.5871C3.59077 22.8021 2.28127 19.1571 2.52157 15.3231C2.94682 8.45024 8.44807 2.94629 15.3223 2.51969C15.6193 2.50079 15.9163 2.49269 16.2092 2.49269C19.6959 2.48215 23.0529 3.81338 25.585 6.21059C26.9555 7.48752 28.0471 9.03423 28.791 10.7535C29.5349 12.4727 29.9151 14.3273 29.9077 16.2006V29.9085ZM27.2914 4.39349C24.0001 1.30064 19.6963 -0.250508 15.1684 0.0329923C7.04407 0.539242 0.53707 7.04624 0.0321696 15.1705C-0.24728 19.6971 1.30117 24.0036 4.39402 27.2935C5.91122 28.9029 7.7407 30.1858 9.77059 31.0639C11.8005 31.942 13.9881 32.3969 16.1998 32.4006H31.1537C31.8422 32.4006 32.3998 31.843 32.3998 31.1559V16.2006C32.3957 13.9888 31.9405 11.8011 31.0622 9.77119C30.1839 7.7413 28.9008 5.9119 27.2914 4.39484M21.8077 20.5624H10.5919C10.2614 20.5624 9.94446 20.6937 9.71078 20.9274C9.4771 21.1611 9.34582 21.478 9.34582 21.8085C9.34582 22.139 9.4771 22.4559 9.71078 22.6896C9.94446 22.9233 10.2614 23.0545 10.5919 23.0545H21.8077C22.1381 23.0545 22.4551 22.9233 22.6888 22.6896C22.9224 22.4559 23.0537 22.139 23.0537 21.8085C23.0537 21.478 22.9224 21.1611 22.6888 20.9274C22.4551 20.6937 22.1381 20.5624 21.8077 20.5624ZM10.5919 11.8401H21.8077C22.1383 11.8401 22.4554 11.7087 22.6892 11.4749C22.923 11.2411 23.0544 10.924 23.0544 10.5934C23.0544 10.2627 22.923 9.9456 22.6892 9.7118C22.4554 9.47799 22.1383 9.34664 21.8077 9.34664H10.5919C10.2612 9.34664 9.94411 9.47799 9.7103 9.7118C9.4765 9.9456 9.34514 10.2627 9.34514 10.5934C9.34514 10.924 9.4765 11.2411 9.7103 11.4749C9.94411 11.7087 10.2612 11.8401 10.5919 11.8401ZM6.85372 14.9559C6.53052 14.9665 6.22412 15.1024 5.99926 15.3348C5.77439 15.5672 5.64868 15.8779 5.64868 16.2013C5.64868 16.5246 5.77439 16.8353 5.99926 17.0677C6.22412 17.3001 6.53052 17.436 6.85372 17.4466H25.5458C25.8763 17.4466 26.1932 17.3154 26.4269 17.0817C26.6606 16.848 26.7919 16.5311 26.7919 16.2006C26.7919 15.8701 26.6606 15.5532 26.4269 15.3195C26.1932 15.0858 25.8763 14.9545 25.5458 14.9545H6.85372V14.9559Z" fill="black"/>
</mask>
<g mask="url(#mask0_473_1492)">
<rect x="-2" y="-2" width="36" height="36" fill="white"/>
</g>
</svg>
