<svg width="36" height="35" viewBox="0 0 36 35" fill="none" xmlns="http://www.w3.org/2000/svg">
<g clip-path="url(#clip0_301_1553)">
<path d="M27.2869 1.95897C26.3637 1.03594 25.1915 0.402118 23.9137 0.135094C22.6358 -0.131929 21.3079 -0.020563 20.0924 0.455558C18.8768 0.931679 17.8265 1.75189 17.07 2.81578C16.3135 3.87966 15.8836 5.14105 15.833 6.4455V12.8128C15.8337 12.9716 15.8972 13.1235 16.0096 13.2355C16.1221 13.3475 16.2743 13.4104 16.433 13.4104H22.2444C24.2893 13.4104 25.9032 12.8398 27.2869 11.4512C28.5437 10.1914 29.2495 8.48459 29.2495 6.70509C29.2495 4.9256 28.5437 3.21875 27.2869 1.95897Z" fill="white"/>
<path d="M3.15646 7.08511C2.23221 8.00796 1.59738 9.18049 1.32981 10.4589C1.06225 11.7373 1.17359 13.066 1.65018 14.282C2.12677 15.4981 2.94789 16.5486 4.01284 17.3048C5.07779 18.0609 6.34026 18.4899 7.64544 18.539H14.0128C14.1719 18.539 14.3245 18.4758 14.4371 18.3632C14.5496 18.2507 14.6128 18.0981 14.6128 17.939V12.1276C14.6128 10.0827 14.0397 8.46878 12.6536 7.08511C11.393 5.82801 9.68533 5.12207 7.90504 5.12207C6.12474 5.12207 4.41708 5.82801 3.15646 7.08511Z" fill="white"/>
<path d="M8.2753 31.1902C9.19861 32.1148 10.3718 32.7498 11.6508 33.017C12.9299 33.2843 14.2591 33.1724 15.4754 32.6949C16.6918 32.2174 17.7422 31.3952 18.4978 30.3292C19.2535 29.2632 19.6814 27.9997 19.7292 26.6939V20.3266C19.7292 20.1679 19.6663 20.0156 19.5543 19.9032C19.4423 19.7907 19.2903 19.7272 19.1316 19.7266H13.3177C11.2753 19.7266 9.65897 20.2996 8.2753 21.6857C7.01595 22.9467 6.30859 24.6559 6.30859 26.438C6.30859 28.2201 7.01595 29.9293 8.2753 31.1902Z" fill="white"/>
<path d="M32.3831 26.074C33.3073 25.1511 33.9422 23.9786 34.2097 22.7002C34.4773 21.4218 34.366 20.0931 33.8894 18.8771C33.4128 17.661 32.5917 16.6105 31.5267 15.8543C30.4618 15.0982 29.1993 14.6692 27.8941 14.6201H21.5268C21.3681 14.6201 21.2158 14.683 21.1034 14.795C20.9909 14.907 20.9274 15.059 20.9268 15.2177V21.0315C20.9268 23.074 21.4998 24.6903 22.8859 26.074C24.1466 27.3311 25.8542 28.037 27.6345 28.037C29.4148 28.037 31.1225 27.3311 32.3831 26.074Z" fill="white"/>
</g>
<defs>
<clipPath id="clip0_301_1553">
<rect width="36" height="34.7755" fill="white"/>
</clipPath>
</defs>
</svg>
