<svg width="36" height="36" viewBox="0 0 36 36" fill="none" xmlns="http://www.w3.org/2000/svg">
<rect x="0.75" y="0.75" width="34.5" height="34.5" rx="1.25" stroke="black" stroke-width="1.5"/>
<path d="M9.56 11H14.24C15.5867 11 16.5867 11.4267 17.24 12.28C17.9067 13.1333 18.24 14.2333 18.24 15.58C18.24 16.9533 17.9933 18.16 17.5 19.2C17.02 20.24 15.9933 20.76 14.42 20.76H11.38V25H9.56V11ZM13.98 19C14.74 19 15.3 18.82 15.66 18.46C16.02 18.0867 16.2333 17.68 16.3 17.24C16.38 16.7867 16.42 16.24 16.42 15.6C16.42 14.56 16.2067 13.8333 15.78 13.42C15.3533 13.0067 14.7267 12.8 13.9 12.8H11.38V19H13.98ZM21.2966 22.32C21.3232 22.68 21.5099 22.9867 21.8566 23.24C22.2032 23.48 22.6499 23.6 23.1966 23.6C23.6899 23.6 24.0966 23.48 24.4166 23.24C24.7499 22.9867 24.9166 22.6667 24.9166 22.28C24.9166 21.8133 24.7366 21.46 24.3766 21.22C24.0299 20.98 23.4966 20.74 22.7766 20.5C22.1766 20.3 21.6832 20.1067 21.2966 19.92C20.9099 19.7333 20.5632 19.46 20.2566 19.1C19.9632 18.74 19.7899 18.2733 19.7366 17.7C19.6966 17.2467 19.7832 16.7933 19.9966 16.34C20.2232 15.8733 20.5966 15.4933 21.1166 15.2C21.6499 14.8933 22.3299 14.74 23.1566 14.74C23.5832 14.74 23.9566 14.7867 24.2766 14.88C24.6099 14.96 24.8699 15.0467 25.0566 15.14C25.2432 15.2333 25.3566 15.2933 25.3966 15.32L24.8566 16.96C24.8299 16.9333 24.7499 16.8867 24.6166 16.82C24.4832 16.74 24.2899 16.6667 24.0366 16.6C23.7832 16.52 23.4899 16.48 23.1566 16.48C22.5832 16.48 22.1832 16.6 21.9566 16.84C21.7299 17.0667 21.6366 17.3533 21.6766 17.7C21.7166 17.9667 21.8832 18.1867 22.1766 18.36C22.4832 18.5333 22.9299 18.72 23.5166 18.92C24.1966 19.16 24.7566 19.4 25.1966 19.64C25.6366 19.8667 26.0166 20.2 26.3366 20.64C26.6566 21.0667 26.8166 21.62 26.8166 22.3C26.8166 23.14 26.5099 23.8533 25.8966 24.44C25.2966 25.0133 24.3966 25.3 23.1966 25.3C22.4366 25.3 21.7766 25.1733 21.2166 24.92C20.6699 24.6533 20.2499 24.3067 19.9566 23.88C19.6766 23.4533 19.5232 22.98 19.4966 22.46L21.2966 22.32Z" fill="black"/>
</svg>
