<svg width="905" height="125" viewBox="0 0 905 125" fill="none" xmlns="http://www.w3.org/2000/svg">
<path d="M7.92 99L7.92 25.74L17.622 25.74L17.622 58.806L49.302 25.839L61.974 25.839L27.72 60.984L63.459 99H50.391L17.622 64.053L17.622 99H7.92ZM95.2519 99.99C89.4439 99.99 84.3289 98.934 79.9069 96.822C75.4849 94.644 71.7889 91.773 68.8189 88.209C65.8489 84.579 63.6049 80.52 62.0869 76.032C60.5689 71.544 59.8099 66.957 59.8099 62.271C59.8099 57.585 60.5689 53.031 62.0869 48.609C63.6049 44.121 65.8489 40.095 68.8189 36.531C71.7889 32.967 75.4849 30.129 79.9069 28.017C84.3289 25.839 89.4439 24.75 95.2519 24.75C101.06 24.75 106.175 25.839 110.597 28.017C115.019 30.129 118.715 32.967 121.685 36.531C124.655 40.095 126.899 44.121 128.417 48.609C129.935 53.031 130.694 57.585 130.694 62.271C130.694 66.957 129.935 71.544 128.417 76.032C126.899 80.52 124.655 84.579 121.685 88.209C118.715 91.773 115.019 94.644 110.597 96.822C106.175 98.934 101.06 99.99 95.2519 99.99ZM95.2519 90.981C99.4099 90.981 103.073 90.189 106.241 88.605C109.409 87.021 112.049 84.876 114.161 82.17C116.339 79.464 117.989 76.395 119.111 72.963C120.233 69.531 120.794 65.967 120.794 62.271C120.794 58.641 120.233 55.143 119.111 51.777C117.989 48.345 116.339 45.276 114.161 42.57C112.049 39.864 109.409 37.719 106.241 36.135C103.073 34.551 99.4099 33.759 95.2519 33.759C91.0939 33.759 87.4309 34.551 84.2629 36.135C81.0949 37.719 78.4219 39.864 76.2439 42.57C74.1319 45.276 72.5149 48.345 71.3929 51.777C70.2709 55.143 69.7099 58.641 69.7099 62.271C69.7099 65.967 70.2709 69.531 71.3929 72.963C72.5149 76.395 74.1319 79.464 76.2439 82.17C78.4219 84.876 81.0949 87.021 84.2629 88.605C87.4309 90.189 91.0939 90.981 95.2519 90.981ZM149.589 99L149.589 34.254H126.72V25.74L182.16 25.74V34.254H159.291L159.291 99H149.589ZM213.65 99.99C207.842 99.99 202.727 98.934 198.305 96.822C193.883 94.644 190.187 91.773 187.217 88.209C184.247 84.579 182.003 80.52 180.485 76.032C178.967 71.544 178.208 66.957 178.208 62.271C178.208 57.585 178.967 53.031 180.485 48.609C182.003 44.121 184.247 40.095 187.217 36.531C190.187 32.967 193.883 30.129 198.305 28.017C202.727 25.839 207.842 24.75 213.65 24.75C219.458 24.75 224.573 25.839 228.995 28.017C233.417 30.129 237.113 32.967 240.083 36.531C243.053 40.095 245.297 44.121 246.815 48.609C248.333 53.031 249.092 57.585 249.092 62.271C249.092 66.957 248.333 71.544 246.815 76.032C245.297 80.52 243.053 84.579 240.083 88.209C237.113 91.773 233.417 94.644 228.995 96.822C224.573 98.934 219.458 99.99 213.65 99.99ZM213.65 90.981C217.808 90.981 221.471 90.189 224.639 88.605C227.807 87.021 230.447 84.876 232.559 82.17C234.737 79.464 236.387 76.395 237.509 72.963C238.631 69.531 239.192 65.967 239.192 62.271C239.192 58.641 238.631 55.143 237.509 51.777C236.387 48.345 234.737 45.276 232.559 42.57C230.447 39.864 227.807 37.719 224.639 36.135C221.471 34.551 217.808 33.759 213.65 33.759C209.492 33.759 205.829 34.551 202.661 36.135C199.493 37.719 196.82 39.864 194.642 42.57C192.53 45.276 190.913 48.345 189.791 51.777C188.669 55.143 188.108 58.641 188.108 62.271C188.108 65.967 188.669 69.531 189.791 72.963C190.913 76.395 192.53 79.464 194.642 82.17C196.82 84.876 199.493 87.021 202.661 88.605C205.829 90.189 209.492 90.981 213.65 90.981ZM255.544 99L255.544 25.74H264.256L302.47 81.477V25.74H312.172V99L303.46 99L265.246 43.362V99H255.544ZM321.124 99V25.74L367.654 25.74V34.254L330.826 34.254V57.42L363.1 57.42V65.934H330.826V90.486H368.149V99H321.124ZM391.472 99V25.74H404.243L425.825 69.3L447.308 25.74L460.079 25.74V99H450.575V39.996L430.379 80.19H421.172L400.976 39.798V99L391.472 99ZM465.478 99L491.317 25.74L503.494 25.74L529.432 99H519.136L512.998 81.477L481.912 81.477L475.774 99H465.478ZM484.882 72.765L510.028 72.765L497.455 36.828L484.882 72.765ZM534.909 99V25.74L543.621 25.74L581.835 81.477V25.74L591.537 25.74V99H582.825L544.611 43.362V99H534.909ZM633.456 99.99C627.648 99.99 622.533 98.934 618.111 96.822C613.689 94.644 609.993 91.773 607.023 88.209C604.053 84.579 601.809 80.52 600.291 76.032C598.773 71.544 598.014 66.957 598.014 62.271C598.014 57.585 598.773 53.031 600.291 48.609C601.809 44.121 604.053 40.095 607.023 36.531C609.993 32.967 613.689 30.129 618.111 28.017C622.533 25.839 627.648 24.75 633.456 24.75C639.264 24.75 644.379 25.839 648.801 28.017C653.223 30.129 656.919 32.967 659.889 36.531C662.859 40.095 665.103 44.121 666.621 48.609C668.139 53.031 668.898 57.585 668.898 62.271C668.898 66.957 668.139 71.544 666.621 76.032C665.103 80.52 662.859 84.579 659.889 88.209C656.919 91.773 653.223 94.644 648.801 96.822C644.379 98.934 639.264 99.99 633.456 99.99ZM633.456 90.981C637.614 90.981 641.277 90.189 644.445 88.605C647.613 87.021 650.253 84.876 652.365 82.17C654.543 79.464 656.193 76.395 657.315 72.963C658.437 69.531 658.998 65.967 658.998 62.271C658.998 58.641 658.437 55.143 657.315 51.777C656.193 48.345 654.543 45.276 652.365 42.57C650.253 39.864 647.613 37.719 644.445 36.135C641.277 34.551 637.614 33.759 633.456 33.759C629.298 33.759 625.635 34.551 622.467 36.135C619.299 37.719 616.626 39.864 614.448 42.57C612.336 45.276 610.719 48.345 609.597 51.777C608.475 55.143 607.914 58.641 607.914 62.271C607.914 65.967 608.475 69.531 609.597 72.963C610.719 76.395 612.336 79.464 614.448 82.17C616.626 84.876 619.299 87.021 622.467 88.605C625.635 90.189 629.298 90.981 633.456 90.981Z" fill="white"/>
<path d="M689.248 99V55.34H706.476C709.977 55.34 712.887 56.048 715.208 57.464C717.529 58.8407 719.259 60.65 720.4 62.892C721.58 65.0947 722.17 67.3957 722.17 69.795C722.17 72.1943 721.58 74.515 720.4 76.757C719.259 78.9597 717.529 80.769 715.208 82.185C712.887 83.601 709.977 84.309 706.476 84.309H697.272V99H689.248ZM706.417 62.302H697.272V77.347H706.417C708.148 77.347 709.583 76.993 710.724 76.285C711.865 75.5377 712.71 74.5937 713.261 73.453C713.851 72.273 714.146 71.0733 714.146 69.854C714.146 68.5953 713.851 67.3957 713.261 66.255C712.71 65.1143 711.865 64.1703 710.724 63.423C709.583 62.6757 708.148 62.302 706.417 62.302ZM738.016 99.59C734.594 99.59 731.683 98.823 729.284 97.289C726.885 95.755 725.056 93.7687 723.797 91.33C722.578 88.852 721.968 86.197 721.968 83.365C721.968 80.533 722.578 77.8977 723.797 75.459C725.056 72.981 726.885 70.975 729.284 69.441C731.683 67.907 734.594 67.14 738.016 67.14C741.477 67.14 744.388 67.907 746.748 69.441C749.147 70.975 750.957 72.981 752.176 75.459C753.435 77.8977 754.064 80.533 754.064 83.365C754.064 86.197 753.435 88.852 752.176 91.33C750.957 93.7687 749.147 95.755 746.748 97.289C744.388 98.823 741.477 99.59 738.016 99.59ZM738.016 93.041C739.786 93.041 741.261 92.5887 742.441 91.684C743.66 90.7793 744.585 89.5993 745.214 88.144C745.843 86.6493 746.158 85.0563 746.158 83.365C746.158 81.6343 745.843 80.0413 745.214 78.586C744.585 77.1307 743.66 75.9507 742.441 75.046C741.261 74.1413 739.786 73.689 738.016 73.689C736.285 73.689 734.81 74.1413 733.591 75.046C732.372 75.9507 731.447 77.1307 730.818 78.586C730.189 80.0413 729.874 81.6343 729.874 83.365C729.874 85.0563 730.189 86.6493 730.818 88.144C731.447 89.5993 732.372 90.7793 733.591 91.684C734.81 92.5887 736.285 93.041 738.016 93.041ZM756.798 99V67.73H764.586V72.037H764.881C765.432 70.8177 766.337 69.6967 767.595 68.674C768.854 67.6513 770.742 67.14 773.259 67.14C774.046 67.14 774.695 67.199 775.206 67.317C775.718 67.3957 775.973 67.435 775.973 67.435V75.046C775.973 75.046 775.678 75.0067 775.088 74.928C774.538 74.8493 773.849 74.81 773.023 74.81C770.27 74.81 768.185 75.577 766.769 77.111C765.353 78.645 764.645 81.123 764.645 84.545V99H756.798ZM781.217 99V74.043H776.202V67.73H781.217V64.839C781.217 63.659 781.374 62.42 781.689 61.122C782.004 59.7847 782.535 58.5457 783.282 57.405C784.069 56.2643 785.15 55.34 786.527 54.632C787.943 53.924 789.713 53.57 791.837 53.57C793.017 53.57 793.981 53.6683 794.728 53.865C795.515 54.0223 795.908 54.101 795.908 54.101V59.824C795.908 59.824 795.652 59.7847 795.141 59.706C794.63 59.588 794.079 59.529 793.489 59.529C791.798 59.529 790.637 60.0207 790.008 61.004C789.379 61.9873 789.064 63.2657 789.064 64.839V67.73H795.731V74.043H789.064V99H781.217ZM811.36 99.59C807.938 99.59 805.028 98.823 802.628 97.289C800.229 95.755 798.4 93.7687 797.141 91.33C795.922 88.852 795.312 86.197 795.312 83.365C795.312 80.533 795.922 77.8977 797.141 75.459C798.4 72.981 800.229 70.975 802.628 69.441C805.028 67.907 807.938 67.14 811.36 67.14C814.822 67.14 817.732 67.907 820.092 69.441C822.492 70.975 824.301 72.981 825.52 75.459C826.779 77.8977 827.408 80.533 827.408 83.365C827.408 86.197 826.779 88.852 825.52 91.33C824.301 93.7687 822.492 95.755 820.092 97.289C817.732 98.823 814.822 99.59 811.36 99.59ZM811.36 93.041C813.13 93.041 814.605 92.5887 815.785 91.684C817.005 90.7793 817.929 89.5993 818.558 88.144C819.188 86.6493 819.502 85.0563 819.502 83.365C819.502 81.6343 819.188 80.0413 818.558 78.586C817.929 77.1307 817.005 75.9507 815.785 75.046C814.605 74.1413 813.13 73.689 811.36 73.689C809.63 73.689 808.155 74.1413 806.935 75.046C805.716 75.9507 804.792 77.1307 804.162 78.586C803.533 80.0413 803.218 81.6343 803.218 83.365C803.218 85.0563 803.533 86.6493 804.162 88.144C804.792 89.5993 805.716 90.7793 806.935 91.684C808.155 92.5887 809.63 93.041 811.36 93.041ZM830.502 99L830.561 54.16H838.349V99H830.502ZM846.866 62.892C845.489 62.892 844.348 62.4397 843.444 61.535C842.578 60.6303 842.146 59.5487 842.146 58.29C842.146 57.0313 842.578 55.9497 843.444 55.045C844.348 54.1403 845.489 53.688 846.866 53.688C848.242 53.688 849.383 54.1403 850.288 55.045C851.192 55.9497 851.645 57.0313 851.645 58.29C851.645 59.5487 851.192 60.6303 850.288 61.535C849.383 62.4397 848.242 62.892 846.866 62.892ZM842.972 99V67.73H850.819V99H842.972ZM870.416 99.59C866.994 99.59 864.083 98.823 861.684 97.289C859.284 95.755 857.455 93.7687 856.197 91.33C854.977 88.852 854.368 86.197 854.368 83.365C854.368 80.533 854.977 77.8977 856.197 75.459C857.455 72.981 859.284 70.975 861.684 69.441C864.083 67.907 866.994 67.14 870.416 67.14C873.877 67.14 876.788 67.907 879.148 69.441C881.547 70.975 883.356 72.981 884.576 75.459C885.834 77.8977 886.464 80.533 886.464 83.365C886.464 86.197 885.834 88.852 884.576 91.33C883.356 93.7687 881.547 95.755 879.148 97.289C876.788 98.823 873.877 99.59 870.416 99.59ZM870.416 93.041C872.186 93.041 873.661 92.5887 874.841 91.684C876.06 90.7793 876.984 89.5993 877.614 88.144C878.243 86.6493 878.558 85.0563 878.558 83.365C878.558 81.6343 878.243 80.0413 877.614 78.586C876.984 77.1307 876.06 75.9507 874.841 75.046C873.661 74.1413 872.186 73.689 870.416 73.689C868.685 73.689 867.21 74.1413 865.991 75.046C864.771 75.9507 863.847 77.1307 863.218 78.586C862.588 80.0413 862.274 81.6343 862.274 83.365C862.274 85.0563 862.588 86.6493 863.218 88.144C863.847 89.5993 864.771 90.7793 865.991 91.684C867.21 92.5887 868.685 93.041 870.416 93.041ZM894.921 99.59C893.584 99.59 892.482 99.1377 891.617 98.233C890.752 97.289 890.319 96.1877 890.319 94.929C890.319 93.6703 890.752 92.5887 891.617 91.684C892.482 90.7793 893.584 90.327 894.921 90.327C896.258 90.327 897.36 90.7793 898.225 91.684C899.13 92.5887 899.582 93.6703 899.582 94.929C899.582 96.227 899.13 97.3283 898.225 98.233C897.36 99.1377 896.258 99.59 894.921 99.59Z" fill="white"/>
</svg>
