<svg width="215" height="70" viewBox="0 0 215 70" fill="none" xmlns="http://www.w3.org/2000/svg">
<path d="M126.584 64V47.72H133.008C134.313 47.72 135.399 47.984 136.264 48.512C137.129 49.0253 137.775 49.7 138.2 50.536C138.64 51.3573 138.86 52.2153 138.86 53.11C138.86 54.0047 138.64 54.87 138.2 55.706C137.775 56.5273 137.129 57.202 136.264 57.73C135.399 58.258 134.313 58.522 133.008 58.522H129.576V64H126.584ZM132.986 50.316H129.576V55.926H132.986C133.631 55.926 134.167 55.794 134.592 55.53C135.017 55.2513 135.333 54.8993 135.538 54.474C135.758 54.034 135.868 53.5867 135.868 53.132C135.868 52.6627 135.758 52.2153 135.538 51.79C135.333 51.3647 135.017 51.0127 134.592 50.734C134.167 50.4553 133.631 50.316 132.986 50.316ZM144.769 64.22C143.493 64.22 142.407 63.934 141.513 63.362C140.618 62.79 139.936 62.0493 139.467 61.14C139.012 60.216 138.785 59.226 138.785 58.17C138.785 57.114 139.012 56.1313 139.467 55.222C139.936 54.298 140.618 53.55 141.513 52.978C142.407 52.406 143.493 52.12 144.769 52.12C146.059 52.12 147.145 52.406 148.025 52.978C148.919 53.55 149.594 54.298 150.049 55.222C150.518 56.1313 150.753 57.114 150.753 58.17C150.753 59.226 150.518 60.216 150.049 61.14C149.594 62.0493 148.919 62.79 148.025 63.362C147.145 63.934 146.059 64.22 144.769 64.22ZM144.769 61.778C145.429 61.778 145.979 61.6093 146.419 61.272C146.873 60.9347 147.218 60.4947 147.453 59.952C147.687 59.3947 147.805 58.8007 147.805 58.17C147.805 57.5247 147.687 56.9307 147.453 56.388C147.218 55.8453 146.873 55.4053 146.419 55.068C145.979 54.7307 145.429 54.562 144.769 54.562C144.123 54.562 143.573 54.7307 143.119 55.068C142.664 55.4053 142.319 55.8453 142.085 56.388C141.85 56.9307 141.733 57.5247 141.733 58.17C141.733 58.8007 141.85 59.3947 142.085 59.952C142.319 60.4947 142.664 60.9347 143.119 61.272C143.573 61.6093 144.123 61.778 144.769 61.778ZM151.772 64V52.34H154.676V53.946H154.786C154.992 53.4913 155.329 53.0733 155.798 52.692C156.268 52.3107 156.972 52.12 157.91 52.12C158.204 52.12 158.446 52.142 158.636 52.186C158.827 52.2153 158.922 52.23 158.922 52.23V55.068C158.922 55.068 158.812 55.0533 158.592 55.024C158.387 54.9947 158.13 54.98 157.822 54.98C156.796 54.98 156.018 55.266 155.49 55.838C154.962 56.41 154.698 57.334 154.698 58.61V64H151.772ZM164.729 64.22C163.937 64.22 163.284 64.1027 162.771 63.868C162.257 63.6333 161.854 63.3253 161.561 62.944C161.282 62.5627 161.084 62.1447 160.967 61.69C160.849 61.2353 160.791 60.788 160.791 60.348V54.694H158.789V52.34H160.791V49.436H163.717V52.34H166.335V54.694H163.717V60.282C163.717 61.3233 164.303 61.844 165.477 61.844C165.755 61.844 166.012 61.8293 166.247 61.8C166.496 61.756 166.621 61.734 166.621 61.734V64.022C166.621 64.022 166.43 64.0513 166.049 64.11C165.682 64.1833 165.242 64.22 164.729 64.22ZM168.082 64V54.694H166.212V52.34H168.082V51.262C168.082 50.822 168.14 50.36 168.258 49.876C168.375 49.3773 168.573 48.9153 168.852 48.49C169.145 48.0647 169.548 47.72 170.062 47.456C170.59 47.192 171.25 47.06 172.042 47.06C172.482 47.06 172.841 47.0967 173.12 47.17C173.413 47.2287 173.56 47.258 173.56 47.258V49.392C173.56 49.392 173.464 49.3773 173.274 49.348C173.083 49.304 172.878 49.282 172.658 49.282C172.027 49.282 171.594 49.4653 171.36 49.832C171.125 50.1987 171.008 50.6753 171.008 51.262V52.34H173.494V54.694H171.008V64H168.082ZM179.322 64.22C178.046 64.22 176.96 63.934 176.066 63.362C175.171 62.79 174.489 62.0493 174.02 61.14C173.565 60.216 173.338 59.226 173.338 58.17C173.338 57.114 173.565 56.1313 174.02 55.222C174.489 54.298 175.171 53.55 176.066 52.978C176.96 52.406 178.046 52.12 179.322 52.12C180.612 52.12 181.698 52.406 182.578 52.978C183.472 53.55 184.147 54.298 184.602 55.222C185.071 56.1313 185.306 57.114 185.306 58.17C185.306 59.226 185.071 60.216 184.602 61.14C184.147 62.0493 183.472 62.79 182.578 63.362C181.698 63.934 180.612 64.22 179.322 64.22ZM179.322 61.778C179.982 61.778 180.532 61.6093 180.972 61.272C181.426 60.9347 181.771 60.4947 182.006 59.952C182.24 59.3947 182.358 58.8007 182.358 58.17C182.358 57.5247 182.24 56.9307 182.006 56.388C181.771 55.8453 181.426 55.4053 180.972 55.068C180.532 54.7307 179.982 54.562 179.322 54.562C178.676 54.562 178.126 54.7307 177.672 55.068C177.217 55.4053 176.872 55.8453 176.638 56.388C176.403 56.9307 176.286 57.5247 176.286 58.17C176.286 58.8007 176.403 59.3947 176.638 59.952C176.872 60.4947 177.217 60.9347 177.672 61.272C178.126 61.6093 178.676 61.778 179.322 61.778ZM186.459 64L186.481 47.28H189.385V64H186.459ZM192.561 50.536C192.047 50.536 191.622 50.3673 191.285 50.03C190.962 49.6927 190.801 49.2893 190.801 48.82C190.801 48.3507 190.962 47.9473 191.285 47.61C191.622 47.2727 192.047 47.104 192.561 47.104C193.074 47.104 193.499 47.2727 193.837 47.61C194.174 47.9473 194.343 48.3507 194.343 48.82C194.343 49.2893 194.174 49.6927 193.837 50.03C193.499 50.3673 193.074 50.536 192.561 50.536ZM191.109 64V52.34H194.035V64H191.109ZM201.342 64.22C200.066 64.22 198.981 63.934 198.086 63.362C197.192 62.79 196.51 62.0493 196.04 61.14C195.586 60.216 195.358 59.226 195.358 58.17C195.358 57.114 195.586 56.1313 196.04 55.222C196.51 54.298 197.192 53.55 198.086 52.978C198.981 52.406 200.066 52.12 201.342 52.12C202.633 52.12 203.718 52.406 204.598 52.978C205.493 53.55 206.168 54.298 206.622 55.222C207.092 56.1313 207.326 57.114 207.326 58.17C207.326 59.226 207.092 60.216 206.622 61.14C206.168 62.0493 205.493 62.79 204.598 63.362C203.718 63.934 202.633 64.22 201.342 64.22ZM201.342 61.778C202.002 61.778 202.552 61.6093 202.992 61.272C203.447 60.9347 203.792 60.4947 204.026 59.952C204.261 59.3947 204.378 58.8007 204.378 58.17C204.378 57.5247 204.261 56.9307 204.026 56.388C203.792 55.8453 203.447 55.4053 202.992 55.068C202.552 54.7307 202.002 54.562 201.342 54.562C200.697 54.562 200.147 54.7307 199.692 55.068C199.238 55.4053 198.893 55.8453 198.658 56.388C198.424 56.9307 198.306 57.5247 198.306 58.17C198.306 58.8007 198.424 59.3947 198.658 59.952C198.893 60.4947 199.238 60.9347 199.692 61.272C200.147 61.6093 200.697 61.778 201.342 61.778ZM210.48 64.22C209.981 64.22 209.57 64.0513 209.248 63.714C208.925 63.362 208.764 62.9513 208.764 62.482C208.764 62.0127 208.925 61.6093 209.248 61.272C209.57 60.9347 209.981 60.766 210.48 60.766C210.978 60.766 211.389 60.9347 211.712 61.272C212.049 61.6093 212.218 62.0127 212.218 62.482C212.218 62.966 212.049 63.3767 211.712 63.714C211.389 64.0513 210.978 64.22 210.48 64.22Z" fill="white"/>
<path d="M3.2 31L3.2 1.4L7.12 1.4L7.12 14.76L19.92 1.44L25.04 1.44L11.2 15.64L25.64 31H20.36L7.12 16.88L7.12 31H3.2ZM40.0856 31.4C37.739 31.4 35.6723 30.9733 33.8856 30.12C32.099 29.24 30.6056 28.08 29.4056 26.64C28.2056 25.1733 27.299 23.5333 26.6856 21.72C26.0723 19.9067 25.7656 18.0533 25.7656 16.16C25.7656 14.2667 26.0723 12.4267 26.6856 10.64C27.299 8.82667 28.2056 7.2 29.4056 5.76C30.6056 4.32 32.099 3.17333 33.8856 2.32C35.6723 1.44 37.739 0.999998 40.0856 0.999998C42.4323 0.999998 44.499 1.44 46.2856 2.32C48.0723 3.17333 49.5656 4.32 50.7656 5.76C51.9656 7.2 52.8723 8.82667 53.4856 10.64C54.099 12.4267 54.4056 14.2667 54.4056 16.16C54.4056 18.0533 54.099 19.9067 53.4856 21.72C52.8723 23.5333 51.9656 25.1733 50.7656 26.64C49.5656 28.08 48.0723 29.24 46.2856 30.12C44.499 30.9733 42.4323 31.4 40.0856 31.4ZM40.0856 27.76C41.7656 27.76 43.2456 27.44 44.5256 26.8C45.8056 26.16 46.8723 25.2933 47.7256 24.2C48.6056 23.1067 49.2723 21.8667 49.7256 20.48C50.179 19.0933 50.4056 17.6533 50.4056 16.16C50.4056 14.6933 50.179 13.28 49.7256 11.92C49.2723 10.5333 48.6056 9.29333 47.7256 8.2C46.8723 7.10667 45.8056 6.24 44.5256 5.6C43.2456 4.96 41.7656 4.64 40.0856 4.64C38.4056 4.64 36.9256 4.96 35.6456 5.6C34.3656 6.24 33.2856 7.10667 32.4056 8.2C31.5523 9.29333 30.899 10.5333 30.4456 11.92C29.9923 13.28 29.7656 14.6933 29.7656 16.16C29.7656 17.6533 29.9923 19.0933 30.4456 20.48C30.899 21.8667 31.5523 23.1067 32.4056 24.2C33.2856 25.2933 34.3656 26.16 35.6456 26.8C36.9256 27.44 38.4056 27.76 40.0856 27.76ZM63.64 31L63.64 4.84L54.4 4.84V1.4L76.8 1.4V4.84L67.56 4.84V31H63.64ZM91.1231 31.4C88.7765 31.4 86.7098 30.9733 84.9231 30.12C83.1365 29.24 81.6431 28.08 80.4431 26.64C79.2431 25.1733 78.3365 23.5333 77.7231 21.72C77.1098 19.9067 76.8031 18.0533 76.8031 16.16C76.8031 14.2667 77.1098 12.4267 77.7231 10.64C78.3365 8.82667 79.2431 7.2 80.4431 5.76C81.6431 4.32 83.1365 3.17333 84.9231 2.32C86.7098 1.44 88.7765 0.999998 91.1231 0.999998C93.4698 0.999998 95.5365 1.44 97.3231 2.32C99.1098 3.17333 100.603 4.32 101.803 5.76C103.003 7.2 103.91 8.82667 104.523 10.64C105.136 12.4267 105.443 14.2667 105.443 16.16C105.443 18.0533 105.136 19.9067 104.523 21.72C103.91 23.5333 103.003 25.1733 101.803 26.64C100.603 28.08 99.1098 29.24 97.3231 30.12C95.5365 30.9733 93.4698 31.4 91.1231 31.4ZM91.1231 27.76C92.8031 27.76 94.2831 27.44 95.5631 26.8C96.8431 26.16 97.9098 25.2933 98.7631 24.2C99.6431 23.1067 100.31 21.8667 100.763 20.48C101.216 19.0933 101.443 17.6533 101.443 16.16C101.443 14.6933 101.216 13.28 100.763 11.92C100.31 10.5333 99.6431 9.29333 98.7631 8.2C97.9098 7.10667 96.8431 6.24 95.5631 5.6C94.2831 4.96 92.8031 4.64 91.1231 4.64C89.4431 4.64 87.9631 4.96 86.6831 5.6C85.4031 6.24 84.3231 7.10667 83.4431 8.2C82.5898 9.29333 81.9365 10.5333 81.4831 11.92C81.0298 13.28 80.8031 14.6933 80.8031 16.16C80.8031 17.6533 81.0298 19.0933 81.4831 20.48C81.9365 21.8667 82.5898 23.1067 83.4431 24.2C84.3231 25.2933 85.4031 26.16 86.6831 26.8C87.9631 27.44 89.4431 27.76 91.1231 27.76ZM109.65 31V1.4L113.17 1.4L128.61 23.92V1.4L132.53 1.4V31H129.01L113.57 8.52V31H109.65ZM137.747 31V1.4L156.547 1.4V4.84L141.667 4.84V14.2L154.707 14.2V17.64L141.667 17.64V27.56L156.747 27.56V31L137.747 31ZM3.2 64L3.2 34.4H8.36L17.08 52L25.76 34.4H30.92L30.92 64H27.08L27.08 40.16L18.92 56.4H15.2L7.04 40.08L7.04 64H3.2ZM34.7016 64L45.1416 34.4H50.0616L60.5416 64H56.3816L53.9016 56.92H41.3416L38.8616 64H34.7016ZM42.5416 53.4H52.7016L47.6216 38.88L42.5416 53.4ZM64.3547 64L64.3547 34.4L67.8747 34.4L83.3147 56.92L83.3147 34.4H87.2347L87.2347 64H83.7147L68.2747 41.52L68.2747 64L64.3547 64ZM105.772 64.4C103.425 64.4 101.358 63.9733 99.5716 63.12C97.7849 62.24 96.2916 61.08 95.0916 59.64C93.8916 58.1733 92.9849 56.5333 92.3716 54.72C91.7582 52.9067 91.4516 51.0533 91.4516 49.16C91.4516 47.2667 91.7582 45.4267 92.3716 43.64C92.9849 41.8267 93.8916 40.2 95.0916 38.76C96.2916 37.32 97.7849 36.1733 99.5716 35.32C101.358 34.44 103.425 34 105.772 34C108.118 34 110.185 34.44 111.972 35.32C113.758 36.1733 115.252 37.32 116.452 38.76C117.652 40.2 118.558 41.8267 119.172 43.64C119.785 45.4267 120.092 47.2667 120.092 49.16C120.092 51.0533 119.785 52.9067 119.172 54.72C118.558 56.5333 117.652 58.1733 116.452 59.64C115.252 61.08 113.758 62.24 111.972 63.12C110.185 63.9733 108.118 64.4 105.772 64.4ZM105.772 60.76C107.452 60.76 108.932 60.44 110.212 59.8C111.492 59.16 112.558 58.2933 113.412 57.2C114.292 56.1067 114.958 54.8667 115.412 53.48C115.865 52.0933 116.092 50.6533 116.092 49.16C116.092 47.6933 115.865 46.28 115.412 44.92C114.958 43.5333 114.292 42.2933 113.412 41.2C112.558 40.1067 111.492 39.24 110.212 38.6C108.932 37.96 107.452 37.64 105.772 37.64C104.092 37.64 102.612 37.96 101.332 38.6C100.052 39.24 98.9716 40.1067 98.0916 41.2C97.2382 42.2933 96.5849 43.5333 96.1316 44.92C95.6782 46.28 95.4516 47.6933 95.4516 49.16C95.4516 50.6533 95.6782 52.0933 96.1316 53.48C96.5849 54.8667 97.2382 56.1067 98.0916 57.2C98.9716 58.2933 100.052 59.16 101.332 59.8C102.612 60.44 104.092 60.76 105.772 60.76Z" fill="white"/>
</svg>
