<svg width="924" height="125" viewBox="0 0 924 125" fill="none" xmlns="http://www.w3.org/2000/svg">
<path d="M7.92 99L7.92 25.74L17.622 25.74L17.622 58.806L49.302 25.839L61.974 25.839L27.72 60.984L63.459 99H50.391L17.622 64.053L17.622 99H7.92ZM95.2519 99.99C89.4439 99.99 84.3289 98.934 79.9069 96.822C75.4849 94.644 71.7889 91.773 68.8189 88.209C65.8489 84.579 63.6049 80.52 62.0869 76.032C60.5689 71.544 59.8099 66.957 59.8099 62.271C59.8099 57.585 60.5689 53.031 62.0869 48.609C63.6049 44.121 65.8489 40.095 68.8189 36.531C71.7889 32.967 75.4849 30.129 79.9069 28.017C84.3289 25.839 89.4439 24.75 95.2519 24.75C101.06 24.75 106.175 25.839 110.597 28.017C115.019 30.129 118.715 32.967 121.685 36.531C124.655 40.095 126.899 44.121 128.417 48.609C129.935 53.031 130.694 57.585 130.694 62.271C130.694 66.957 129.935 71.544 128.417 76.032C126.899 80.52 124.655 84.579 121.685 88.209C118.715 91.773 115.019 94.644 110.597 96.822C106.175 98.934 101.06 99.99 95.2519 99.99ZM95.2519 90.981C99.4099 90.981 103.073 90.189 106.241 88.605C109.409 87.021 112.049 84.876 114.161 82.17C116.339 79.464 117.989 76.395 119.111 72.963C120.233 69.531 120.794 65.967 120.794 62.271C120.794 58.641 120.233 55.143 119.111 51.777C117.989 48.345 116.339 45.276 114.161 42.57C112.049 39.864 109.409 37.719 106.241 36.135C103.073 34.551 99.4099 33.759 95.2519 33.759C91.0939 33.759 87.4309 34.551 84.2629 36.135C81.0949 37.719 78.4219 39.864 76.2439 42.57C74.1319 45.276 72.5149 48.345 71.3929 51.777C70.2709 55.143 69.7099 58.641 69.7099 62.271C69.7099 65.967 70.2709 69.531 71.3929 72.963C72.5149 76.395 74.1319 79.464 76.2439 82.17C78.4219 84.876 81.0949 87.021 84.2629 88.605C87.4309 90.189 91.0939 90.981 95.2519 90.981ZM149.589 99L149.589 34.254H126.72V25.74L182.16 25.74V34.254H159.291L159.291 99H149.589ZM213.65 99.99C207.842 99.99 202.727 98.934 198.305 96.822C193.883 94.644 190.187 91.773 187.217 88.209C184.247 84.579 182.003 80.52 180.485 76.032C178.967 71.544 178.208 66.957 178.208 62.271C178.208 57.585 178.967 53.031 180.485 48.609C182.003 44.121 184.247 40.095 187.217 36.531C190.187 32.967 193.883 30.129 198.305 28.017C202.727 25.839 207.842 24.75 213.65 24.75C219.458 24.75 224.573 25.839 228.995 28.017C233.417 30.129 237.113 32.967 240.083 36.531C243.053 40.095 245.297 44.121 246.815 48.609C248.333 53.031 249.092 57.585 249.092 62.271C249.092 66.957 248.333 71.544 246.815 76.032C245.297 80.52 243.053 84.579 240.083 88.209C237.113 91.773 233.417 94.644 228.995 96.822C224.573 98.934 219.458 99.99 213.65 99.99ZM213.65 90.981C217.808 90.981 221.471 90.189 224.639 88.605C227.807 87.021 230.447 84.876 232.559 82.17C234.737 79.464 236.387 76.395 237.509 72.963C238.631 69.531 239.192 65.967 239.192 62.271C239.192 58.641 238.631 55.143 237.509 51.777C236.387 48.345 234.737 45.276 232.559 42.57C230.447 39.864 227.807 37.719 224.639 36.135C221.471 34.551 217.808 33.759 213.65 33.759C209.492 33.759 205.829 34.551 202.661 36.135C199.493 37.719 196.82 39.864 194.642 42.57C192.53 45.276 190.913 48.345 189.791 51.777C188.669 55.143 188.108 58.641 188.108 62.271C188.108 65.967 188.669 69.531 189.791 72.963C190.913 76.395 192.53 79.464 194.642 82.17C196.82 84.876 199.493 87.021 202.661 88.605C205.829 90.189 209.492 90.981 213.65 90.981ZM255.544 99L255.544 25.74H264.256L302.47 81.477V25.74H312.172V99L303.46 99L265.246 43.362V99H255.544ZM321.124 99V25.74L367.654 25.74V34.254L330.826 34.254V57.42L363.1 57.42V65.934H330.826V90.486H368.149V99H321.124ZM391.472 99V25.74H404.243L425.825 69.3L447.308 25.74L460.079 25.74V99H450.575V39.996L430.379 80.19H421.172L400.976 39.798V99L391.472 99ZM465.478 99L491.317 25.74L503.494 25.74L529.432 99H519.136L512.998 81.477L481.912 81.477L475.774 99H465.478ZM484.882 72.765L510.028 72.765L497.455 36.828L484.882 72.765ZM534.909 99V25.74L543.621 25.74L581.835 81.477V25.74L591.537 25.74V99H582.825L544.611 43.362V99H534.909ZM633.456 99.99C627.648 99.99 622.533 98.934 618.111 96.822C613.689 94.644 609.993 91.773 607.023 88.209C604.053 84.579 601.809 80.52 600.291 76.032C598.773 71.544 598.014 66.957 598.014 62.271C598.014 57.585 598.773 53.031 600.291 48.609C601.809 44.121 604.053 40.095 607.023 36.531C609.993 32.967 613.689 30.129 618.111 28.017C622.533 25.839 627.648 24.75 633.456 24.75C639.264 24.75 644.379 25.839 648.801 28.017C653.223 30.129 656.919 32.967 659.889 36.531C662.859 40.095 665.103 44.121 666.621 48.609C668.139 53.031 668.898 57.585 668.898 62.271C668.898 66.957 668.139 71.544 666.621 76.032C665.103 80.52 662.859 84.579 659.889 88.209C656.919 91.773 653.223 94.644 648.801 96.822C644.379 98.934 639.264 99.99 633.456 99.99ZM633.456 90.981C637.614 90.981 641.277 90.189 644.445 88.605C647.613 87.021 650.253 84.876 652.365 82.17C654.543 79.464 656.193 76.395 657.315 72.963C658.437 69.531 658.998 65.967 658.998 62.271C658.998 58.641 658.437 55.143 657.315 51.777C656.193 48.345 654.543 45.276 652.365 42.57C650.253 39.864 647.613 37.719 644.445 36.135C641.277 34.551 637.614 33.759 633.456 33.759C629.298 33.759 625.635 34.551 622.467 36.135C619.299 37.719 616.626 39.864 614.448 42.57C612.336 45.276 610.719 48.345 609.597 51.777C608.475 55.143 607.914 58.641 607.914 62.271C607.914 65.967 608.475 69.531 609.597 72.963C610.719 76.395 612.336 79.464 614.448 82.17C616.626 84.876 619.299 87.021 622.467 88.605C625.635 90.189 629.298 90.981 633.456 90.981Z" fill="#353535"/>
<path d="M689.248 99V55.34H706.476C709.977 55.34 712.887 56.048 715.208 57.464C717.529 58.8407 719.259 60.65 720.4 62.892C721.58 65.0947 722.17 67.3957 722.17 69.795C722.17 72.1943 721.58 74.515 720.4 76.757C719.259 78.9597 717.529 80.769 715.208 82.185C712.887 83.601 709.977 84.309 706.476 84.309H697.272V99H689.248ZM706.417 62.302H697.272V77.347H706.417C708.148 77.347 709.583 76.993 710.724 76.285C711.865 75.5377 712.71 74.5937 713.261 73.453C713.851 72.273 714.146 71.0733 714.146 69.854C714.146 68.5953 713.851 67.3957 713.261 66.255C712.71 65.1143 711.865 64.1703 710.724 63.423C709.583 62.6757 708.148 62.302 706.417 62.302ZM738.016 99.59C734.594 99.59 731.683 98.823 729.284 97.289C726.885 95.755 725.056 93.7687 723.797 91.33C722.578 88.852 721.968 86.197 721.968 83.365C721.968 80.533 722.578 77.8977 723.797 75.459C725.056 72.981 726.885 70.975 729.284 69.441C731.683 67.907 734.594 67.14 738.016 67.14C741.477 67.14 744.388 67.907 746.748 69.441C749.147 70.975 750.957 72.981 752.176 75.459C753.435 77.8977 754.064 80.533 754.064 83.365C754.064 86.197 753.435 88.852 752.176 91.33C750.957 93.7687 749.147 95.755 746.748 97.289C744.388 98.823 741.477 99.59 738.016 99.59ZM738.016 93.041C739.786 93.041 741.261 92.5887 742.441 91.684C743.66 90.7793 744.585 89.5993 745.214 88.144C745.843 86.6493 746.158 85.0563 746.158 83.365C746.158 81.6343 745.843 80.0413 745.214 78.586C744.585 77.1307 743.66 75.9507 742.441 75.046C741.261 74.1413 739.786 73.689 738.016 73.689C736.285 73.689 734.81 74.1413 733.591 75.046C732.372 75.9507 731.447 77.1307 730.818 78.586C730.189 80.0413 729.874 81.6343 729.874 83.365C729.874 85.0563 730.189 86.6493 730.818 88.144C731.447 89.5993 732.372 90.7793 733.591 91.684C734.81 92.5887 736.285 93.041 738.016 93.041ZM756.798 99V67.73H764.586V72.037H764.881C765.432 70.8177 766.337 69.6967 767.595 68.674C768.854 67.6513 770.742 67.14 773.259 67.14C774.046 67.14 774.695 67.199 775.206 67.317C775.718 67.3957 775.973 67.435 775.973 67.435V75.046C775.973 75.046 775.678 75.0067 775.088 74.928C774.538 74.8493 773.849 74.81 773.023 74.81C770.27 74.81 768.185 75.577 766.769 77.111C765.353 78.645 764.645 81.123 764.645 84.545V99H756.798ZM791.545 99.59C789.421 99.59 787.67 99.2753 786.294 98.646C784.917 98.0167 783.835 97.1907 783.049 96.168C782.301 95.1453 781.77 94.0243 781.456 92.805C781.141 91.5857 780.984 90.386 780.984 89.206V74.043H775.615V67.73H780.984V59.942H788.831V67.73H795.852V74.043H788.831V89.029C788.831 91.8217 790.404 93.218 793.551 93.218C794.298 93.218 794.986 93.1787 795.616 93.1C796.284 92.982 796.619 92.923 796.619 92.923V99.059C796.619 99.059 796.107 99.1377 795.085 99.295C794.101 99.4917 792.921 99.59 791.545 99.59ZM800.537 99V74.043H795.522V67.73H800.537V64.839C800.537 63.659 800.695 62.42 801.009 61.122C801.324 59.7847 801.855 58.5457 802.602 57.405C803.389 56.2643 804.471 55.34 805.847 54.632C807.263 53.924 809.033 53.57 811.157 53.57C812.337 53.57 813.301 53.6683 814.048 53.865C814.835 54.0223 815.228 54.101 815.228 54.101V59.824C815.228 59.824 814.973 59.7847 814.461 59.706C813.95 59.588 813.399 59.529 812.809 59.529C811.118 59.529 809.958 60.0207 809.328 61.004C808.699 61.9873 808.384 63.2657 808.384 64.839V67.73H815.051V74.043H808.384V99H800.537ZM830.681 99.59C827.259 99.59 824.348 98.823 821.949 97.289C819.549 95.755 817.72 93.7687 816.462 91.33C815.242 88.852 814.633 86.197 814.633 83.365C814.633 80.533 815.242 77.8977 816.462 75.459C817.72 72.981 819.549 70.975 821.949 69.441C824.348 67.907 827.259 67.14 830.681 67.14C834.142 67.14 837.053 67.907 839.413 69.441C841.812 70.975 843.621 72.981 844.841 75.459C846.099 77.8977 846.729 80.533 846.729 83.365C846.729 86.197 846.099 88.852 844.841 91.33C843.621 93.7687 841.812 95.755 839.413 97.289C837.053 98.823 834.142 99.59 830.681 99.59ZM830.681 93.041C832.451 93.041 833.926 92.5887 835.106 91.684C836.325 90.7793 837.249 89.5993 837.879 88.144C838.508 86.6493 838.823 85.0563 838.823 83.365C838.823 81.6343 838.508 80.0413 837.879 78.586C837.249 77.1307 836.325 75.9507 835.106 75.046C833.926 74.1413 832.451 73.689 830.681 73.689C828.95 73.689 827.475 74.1413 826.256 75.046C825.036 75.9507 824.112 77.1307 823.483 78.586C822.853 80.0413 822.539 81.6343 822.539 83.365C822.539 85.0563 822.853 86.6493 823.483 88.144C824.112 89.5993 825.036 90.7793 826.256 91.684C827.475 92.5887 828.95 93.041 830.681 93.041ZM849.822 99L849.881 54.16H857.669V99H849.822ZM866.186 62.892C864.809 62.892 863.668 62.4397 862.764 61.535C861.898 60.6303 861.466 59.5487 861.466 58.29C861.466 57.0313 861.898 55.9497 862.764 55.045C863.668 54.1403 864.809 53.688 866.186 53.688C867.562 53.688 868.703 54.1403 869.608 55.045C870.512 55.9497 870.965 57.0313 870.965 58.29C870.965 59.5487 870.512 60.6303 869.608 61.535C868.703 62.4397 867.562 62.892 866.186 62.892ZM862.292 99V67.73H870.139V99H862.292ZM889.736 99.59C886.314 99.59 883.403 98.823 881.004 97.289C878.605 95.755 876.776 93.7687 875.517 91.33C874.298 88.852 873.688 86.197 873.688 83.365C873.688 80.533 874.298 77.8977 875.517 75.459C876.776 72.981 878.605 70.975 881.004 69.441C883.403 67.907 886.314 67.14 889.736 67.14C893.197 67.14 896.108 67.907 898.468 69.441C900.867 70.975 902.677 72.981 903.896 75.459C905.155 77.8977 905.784 80.533 905.784 83.365C905.784 86.197 905.155 88.852 903.896 91.33C902.677 93.7687 900.867 95.755 898.468 97.289C896.108 98.823 893.197 99.59 889.736 99.59ZM889.736 93.041C891.506 93.041 892.981 92.5887 894.161 91.684C895.38 90.7793 896.305 89.5993 896.934 88.144C897.563 86.6493 897.878 85.0563 897.878 83.365C897.878 81.6343 897.563 80.0413 896.934 78.586C896.305 77.1307 895.38 75.9507 894.161 75.046C892.981 74.1413 891.506 73.689 889.736 73.689C888.005 73.689 886.53 74.1413 885.311 75.046C884.092 75.9507 883.167 77.1307 882.538 78.586C881.909 80.0413 881.594 81.6343 881.594 83.365C881.594 85.0563 881.909 86.6493 882.538 88.144C883.167 89.5993 884.092 90.7793 885.311 91.684C886.53 92.5887 888.005 93.041 889.736 93.041ZM914.241 99.59C912.904 99.59 911.803 99.1377 910.937 98.233C910.072 97.289 909.639 96.1877 909.639 94.929C909.639 93.6703 910.072 92.5887 910.937 91.684C911.803 90.7793 912.904 90.327 914.241 90.327C915.579 90.327 916.68 90.7793 917.545 91.684C918.45 92.5887 918.902 93.6703 918.902 94.929C918.902 96.227 918.45 97.3283 917.545 98.233C916.68 99.1377 915.579 99.59 914.241 99.59Z" fill="#353535"/>
</svg>
