<svg width="21" height="21" viewBox="0 0 21 21" fill="none" xmlns="http://www.w3.org/2000/svg">
<rect width="21" height="21" fill="#F5F5F5"/>
<g id="SP &#228;&#189;&#156;&#229;&#147;&#129;&#227;&#131;&#154;&#227;&#131;&#188;&#227;&#130;&#184; &#227;&#131;&#175;&#227;&#130;&#164;&#227;&#131;&#164;&#227;&#131;&#188;&#227;&#131;&#149;&#227;&#131;&#172;&#227;&#131;&#188;&#227;&#131;&#160;" clip-path="url(#clip0_230_2)">
<rect width="375" height="6647" transform="translate(-329 -1088)" fill="#F0F0F0"/>
<path id="http://aaaaaaaaaaaaaaaaaaaaaaaaaaaaaaaaa" d="M-138.672 -23V-35.16H-137.472V-30.072H-137.392C-137.317 -30.232 -137.184 -30.4347 -136.992 -30.68C-136.8 -30.936 -136.533 -31.16 -136.192 -31.352C-135.84 -31.544 -135.403 -31.64 -134.88 -31.64C-134.261 -31.64 -133.733 -31.496 -133.296 -31.208C-132.859 -30.92 -132.523 -30.5307 -132.288 -30.04C-132.053 -29.5493 -131.936 -28.9947 -131.936 -28.376V-23H-133.136V-28.312C-133.136 -28.9627 -133.312 -29.5013 -133.664 -29.928C-134.005 -30.3653 -134.507 -30.584 -135.168 -30.584C-135.712 -30.584 -136.155 -30.4453 -136.496 -30.168C-136.827 -29.8907 -137.072 -29.5333 -137.232 -29.096C-137.392 -28.6587 -137.472 -28.2107 -137.472 -27.752V-23H-138.672ZM-127.701 -22.84C-128.491 -22.84 -129.088 -23.0427 -129.493 -23.448C-129.899 -23.8533 -130.101 -24.424 -130.101 -25.16V-30.488H-131.637V-31.48H-130.101V-33.624H-128.901V-31.48H-126.805V-30.488H-128.901V-25.16C-128.901 -24.3067 -128.443 -23.88 -127.525 -23.88C-127.291 -23.88 -127.067 -23.9013 -126.853 -23.944C-126.629 -23.9867 -126.517 -24.008 -126.517 -24.008V-22.984C-126.517 -22.984 -126.64 -22.9627 -126.885 -22.92C-127.12 -22.8667 -127.392 -22.84 -127.701 -22.84ZM-122.368 -22.84C-123.158 -22.84 -123.755 -23.0427 -124.16 -23.448C-124.566 -23.8533 -124.768 -24.424 -124.768 -25.16V-30.488H-126.304V-31.48H-124.768V-33.624H-123.568V-31.48H-121.472V-30.488H-123.568V-25.16C-123.568 -24.3067 -123.11 -23.88 -122.192 -23.88C-121.958 -23.88 -121.734 -23.9013 -121.52 -23.944C-121.296 -23.9867 -121.184 -24.008 -121.184 -24.008V-22.984C-121.184 -22.984 -121.307 -22.9627 -121.552 -22.92C-121.787 -22.8667 -122.059 -22.84 -122.368 -22.84ZM-120.079 -19.864V-31.48H-118.879V-29.96H-118.799C-118.682 -30.1627 -118.511 -30.392 -118.287 -30.648C-118.052 -30.9147 -117.743 -31.144 -117.359 -31.336C-116.975 -31.5387 -116.49 -31.64 -115.903 -31.64C-115.263 -31.64 -114.703 -31.512 -114.223 -31.256C-113.743 -31.0107 -113.348 -30.6747 -113.039 -30.248C-112.719 -29.832 -112.479 -29.3627 -112.319 -28.84C-112.159 -28.3173 -112.079 -27.784 -112.079 -27.24C-112.079 -26.696 -112.159 -26.1627 -112.319 -25.64C-112.479 -25.1173 -112.719 -24.6427 -113.039 -24.216C-113.348 -23.8 -113.743 -23.464 -114.223 -23.208C-114.703 -22.9627 -115.263 -22.84 -115.903 -22.84C-116.49 -22.84 -116.975 -22.936 -117.359 -23.128C-117.743 -23.3307 -118.052 -23.5653 -118.287 -23.832C-118.511 -24.0987 -118.682 -24.328 -118.799 -24.52H-118.879V-19.864H-120.079ZM-118.863 -27.24C-118.863 -26.6853 -118.762 -26.152 -118.559 -25.64C-118.356 -25.128 -118.047 -24.7067 -117.631 -24.376C-117.215 -24.0453 -116.698 -23.88 -116.079 -23.88C-115.45 -23.88 -114.932 -24.0453 -114.527 -24.376C-114.111 -24.7067 -113.802 -25.128 -113.599 -25.64C-113.386 -26.152 -113.279 -26.6853 -113.279 -27.24C-113.279 -27.7947 -113.386 -28.328 -113.599 -28.84C-113.802 -29.352 -114.111 -29.7733 -114.527 -30.104C-114.932 -30.4347 -115.45 -30.6 -116.079 -30.6C-116.698 -30.6 -117.215 -30.4347 -117.631 -30.104C-118.047 -29.7733 -118.356 -29.352 -118.559 -28.84C-118.762 -28.328 -118.863 -27.7947 -118.863 -27.24ZM-110.07 -29.848C-110.326 -29.848 -110.54 -29.9387 -110.71 -30.12C-110.87 -30.3013 -110.95 -30.5093 -110.95 -30.744C-110.95 -30.9893 -110.87 -31.1973 -110.71 -31.368C-110.54 -31.5493 -110.326 -31.64 -110.07 -31.64C-109.814 -31.64 -109.601 -31.5493 -109.43 -31.368C-109.26 -31.1973 -109.174 -30.9893 -109.174 -30.744C-109.174 -30.4987 -109.26 -30.2853 -109.43 -30.104C-109.601 -29.9333 -109.814 -29.848 -110.07 -29.848ZM-110.07 -22.84C-110.326 -22.84 -110.54 -22.9253 -110.71 -23.096C-110.87 -23.2773 -110.95 -23.4907 -110.95 -23.736C-110.95 -23.9813 -110.87 -24.1893 -110.71 -24.36C-110.54 -24.5413 -110.326 -24.632 -110.07 -24.632C-109.814 -24.632 -109.601 -24.5413 -109.43 -24.36C-109.26 -24.1893 -109.174 -23.9813 -109.174 -23.736C-109.174 -23.4907 -109.26 -23.2773 -109.43 -23.096C-109.601 -22.9253 -109.814 -22.84 -110.07 -22.84ZM-108.19 -20.76L-102.638 -36.152H-101.485L-107.038 -20.76H-108.19ZM-103.388 -20.76L-97.8356 -36.152H-96.6836L-102.236 -20.76H-103.388ZM-135.184 -11.64C-134.597 -11.64 -134.112 -11.5387 -133.728 -11.336C-133.344 -11.144 -133.04 -10.9147 -132.816 -10.648C-132.581 -10.3813 -132.411 -10.152 -132.304 -9.96H-132.208V-11.48H-131.024V-3H-132.208V-4.52H-132.304C-132.411 -4.31733 -132.581 -4.08267 -132.816 -3.816C-133.04 -3.56 -133.344 -3.33067 -133.728 -3.128C-134.112 -2.936 -134.597 -2.84 -135.184 -2.84C-135.824 -2.84 -136.384 -2.96267 -136.864 -3.208C-137.344 -3.464 -137.744 -3.8 -138.064 -4.216C-138.384 -4.64267 -138.624 -5.11733 -138.784 -5.64C-138.933 -6.16267 -139.008 -6.696 -139.008 -7.24C-139.008 -7.784 -138.933 -8.31733 -138.784 -8.84C-138.624 -9.36267 -138.384 -9.832 -138.064 -10.248C-137.744 -10.6747 -137.344 -11.0107 -136.864 -11.256C-136.384 -11.512 -135.824 -11.64 -135.184 -11.64ZM-135.008 -10.6C-135.637 -10.6 -136.16 -10.4347 -136.576 -10.104C-136.992 -9.77333 -137.301 -9.352 -137.504 -8.84C-137.707 -8.328 -137.808 -7.79467 -137.808 -7.24C-137.808 -6.68533 -137.707 -6.152 -137.504 -5.64C-137.301 -5.128 -136.992 -4.70667 -136.576 -4.376C-136.16 -4.04533 -135.637 -3.88 -135.008 -3.88C-134.389 -3.88 -133.877 -4.04533 -133.472 -4.376C-133.056 -4.70667 -132.747 -5.128 -132.544 -5.64C-132.331 -6.152 -132.224 -6.68533 -132.224 -7.24C-132.224 -7.79467 -132.331 -8.328 -132.544 -8.84C-132.747 -9.352 -133.056 -9.77333 -133.472 -10.104C-133.877 -10.4347 -134.389 -10.6 -135.008 -10.6ZM-126.179 -11.64C-125.592 -11.64 -125.107 -11.5387 -124.723 -11.336C-124.339 -11.144 -124.035 -10.9147 -123.811 -10.648C-123.576 -10.3813 -123.406 -10.152 -123.299 -9.96H-123.203V-11.48H-122.019V-3H-123.203V-4.52H-123.299C-123.406 -4.31733 -123.576 -4.08267 -123.811 -3.816C-124.035 -3.56 -124.339 -3.33067 -124.723 -3.128C-125.107 -2.936 -125.592 -2.84 -126.179 -2.84C-126.819 -2.84 -127.379 -2.96267 -127.859 -3.208C-128.339 -3.464 -128.739 -3.8 -129.059 -4.216C-129.379 -4.64267 -129.619 -5.11733 -129.779 -5.64C-129.928 -6.16267 -130.003 -6.696 -130.003 -7.24C-130.003 -7.784 -129.928 -8.31733 -129.779 -8.84C-129.619 -9.36267 -129.379 -9.832 -129.059 -10.248C-128.739 -10.6747 -128.339 -11.0107 -127.859 -11.256C-127.379 -11.512 -126.819 -11.64 -126.179 -11.64ZM-126.003 -10.6C-126.632 -10.6 -127.155 -10.4347 -127.571 -10.104C-127.987 -9.77333 -128.296 -9.352 -128.499 -8.84C-128.702 -8.328 -128.803 -7.79467 -128.803 -7.24C-128.803 -6.68533 -128.702 -6.152 -128.499 -5.64C-128.296 -5.128 -127.987 -4.70667 -127.571 -4.376C-127.155 -4.04533 -126.632 -3.88 -126.003 -3.88C-125.384 -3.88 -124.872 -4.04533 -124.467 -4.376C-124.051 -4.70667 -123.742 -5.128 -123.539 -5.64C-123.326 -6.152 -123.219 -6.68533 -123.219 -7.24C-123.219 -7.79467 -123.326 -8.328 -123.539 -8.84C-123.742 -9.352 -124.051 -9.77333 -124.467 -10.104C-124.872 -10.4347 -125.384 -10.6 -126.003 -10.6ZM-117.174 -11.64C-116.587 -11.64 -116.102 -11.5387 -115.718 -11.336C-115.334 -11.144 -115.03 -10.9147 -114.806 -10.648C-114.571 -10.3813 -114.401 -10.152 -114.294 -9.96H-114.198V-11.48H-113.014V-3H-114.198V-4.52H-114.294C-114.401 -4.31733 -114.571 -4.08267 -114.806 -3.816C-115.03 -3.56 -115.334 -3.33067 -115.718 -3.128C-116.102 -2.936 -116.587 -2.84 -117.174 -2.84C-117.814 -2.84 -118.374 -2.96267 -118.854 -3.208C-119.334 -3.464 -119.734 -3.8 -120.054 -4.216C-120.374 -4.64267 -120.614 -5.11733 -120.774 -5.64C-120.923 -6.16267 -120.998 -6.696 -120.998 -7.24C-120.998 -7.784 -120.923 -8.31733 -120.774 -8.84C-120.614 -9.36267 -120.374 -9.832 -120.054 -10.248C-119.734 -10.6747 -119.334 -11.0107 -118.854 -11.256C-118.374 -11.512 -117.814 -11.64 -117.174 -11.64ZM-116.998 -10.6C-117.627 -10.6 -118.15 -10.4347 -118.566 -10.104C-118.982 -9.77333 -119.291 -9.352 -119.494 -8.84C-119.697 -8.328 -119.798 -7.79467 -119.798 -7.24C-119.798 -6.68533 -119.697 -6.152 -119.494 -5.64C-119.291 -5.128 -118.982 -4.70667 -118.566 -4.376C-118.15 -4.04533 -117.627 -3.88 -116.998 -3.88C-116.379 -3.88 -115.867 -4.04533 -115.462 -4.376C-115.046 -4.70667 -114.737 -5.128 -114.534 -5.64C-114.321 -6.152 -114.214 -6.68533 -114.214 -7.24C-114.214 -7.79467 -114.321 -8.328 -114.534 -8.84C-114.737 -9.352 -115.046 -9.77333 -115.462 -10.104C-115.867 -10.4347 -116.379 -10.6 -116.998 -10.6ZM-108.169 -11.64C-107.582 -11.64 -107.097 -11.5387 -106.713 -11.336C-106.329 -11.144 -106.025 -10.9147 -105.801 -10.648C-105.566 -10.3813 -105.396 -10.152 -105.289 -9.96H-105.193V-11.48H-104.009V-3H-105.193V-4.52H-105.289C-105.396 -4.31733 -105.566 -4.08267 -105.801 -3.816C-106.025 -3.56 -106.329 -3.33067 -106.713 -3.128C-107.097 -2.936 -107.582 -2.84 -108.169 -2.84C-108.809 -2.84 -109.369 -2.96267 -109.849 -3.208C-110.329 -3.464 -110.729 -3.8 -111.049 -4.216C-111.369 -4.64267 -111.609 -5.11733 -111.769 -5.64C-111.918 -6.16267 -111.993 -6.696 -111.993 -7.24C-111.993 -7.784 -111.918 -8.31733 -111.769 -8.84C-111.609 -9.36267 -111.369 -9.832 -111.049 -10.248C-110.729 -10.6747 -110.329 -11.0107 -109.849 -11.256C-109.369 -11.512 -108.809 -11.64 -108.169 -11.64ZM-107.993 -10.6C-108.622 -10.6 -109.145 -10.4347 -109.561 -10.104C-109.977 -9.77333 -110.286 -9.352 -110.489 -8.84C-110.692 -8.328 -110.793 -7.79467 -110.793 -7.24C-110.793 -6.68533 -110.692 -6.152 -110.489 -5.64C-110.286 -5.128 -109.977 -4.70667 -109.561 -4.376C-109.145 -4.04533 -108.622 -3.88 -107.993 -3.88C-107.374 -3.88 -106.862 -4.04533 -106.457 -4.376C-106.041 -4.70667 -105.732 -5.128 -105.529 -5.64C-105.316 -6.152 -105.209 -6.68533 -105.209 -7.24C-105.209 -7.79467 -105.316 -8.328 -105.529 -8.84C-105.732 -9.352 -106.041 -9.77333 -106.457 -10.104C-106.862 -10.4347 -107.374 -10.6 -107.993 -10.6ZM-99.164 -11.64C-98.5773 -11.64 -98.092 -11.5387 -97.708 -11.336C-97.324 -11.144 -97.02 -10.9147 -96.796 -10.648C-96.5613 -10.3813 -96.3907 -10.152 -96.284 -9.96H-96.188V-11.48H-95.004V-3H-96.188V-4.52H-96.284C-96.3907 -4.31733 -96.5613 -4.08267 -96.796 -3.816C-97.02 -3.56 -97.324 -3.33067 -97.708 -3.128C-98.092 -2.936 -98.5773 -2.84 -99.164 -2.84C-99.804 -2.84 -100.364 -2.96267 -100.844 -3.208C-101.324 -3.464 -101.724 -3.8 -102.044 -4.216C-102.364 -4.64267 -102.604 -5.11733 -102.764 -5.64C-102.913 -6.16267 -102.988 -6.696 -102.988 -7.24C-102.988 -7.784 -102.913 -8.31733 -102.764 -8.84C-102.604 -9.36267 -102.364 -9.832 -102.044 -10.248C-101.724 -10.6747 -101.324 -11.0107 -100.844 -11.256C-100.364 -11.512 -99.804 -11.64 -99.164 -11.64ZM-98.988 -10.6C-99.6173 -10.6 -100.14 -10.4347 -100.556 -10.104C-100.972 -9.77333 -101.281 -9.352 -101.484 -8.84C-101.687 -8.328 -101.788 -7.79467 -101.788 -7.24C-101.788 -6.68533 -101.687 -6.152 -101.484 -5.64C-101.281 -5.128 -100.972 -4.70667 -100.556 -4.376C-100.14 -4.04533 -99.6173 -3.88 -98.988 -3.88C-98.3693 -3.88 -97.8573 -4.04533 -97.452 -4.376C-97.036 -4.70667 -96.7267 -5.128 -96.524 -5.64C-96.3107 -6.152 -96.204 -6.68533 -96.204 -7.24C-96.204 -7.79467 -96.3107 -8.328 -96.524 -8.84C-96.7267 -9.352 -97.036 -9.77333 -97.452 -10.104C-97.8573 -10.4347 -98.3693 -10.6 -98.988 -10.6ZM-90.159 -11.64C-89.5723 -11.64 -89.087 -11.5387 -88.703 -11.336C-88.319 -11.144 -88.015 -10.9147 -87.791 -10.648C-87.5563 -10.3813 -87.3857 -10.152 -87.279 -9.96H-87.183V-11.48H-85.999V-3H-87.183V-4.52H-87.279C-87.3857 -4.31733 -87.5563 -4.08267 -87.791 -3.816C-88.015 -3.56 -88.319 -3.33067 -88.703 -3.128C-89.087 -2.936 -89.5723 -2.84 -90.159 -2.84C-90.799 -2.84 -91.359 -2.96267 -91.839 -3.208C-92.319 -3.464 -92.719 -3.8 -93.039 -4.216C-93.359 -4.64267 -93.599 -5.11733 -93.759 -5.64C-93.9083 -6.16267 -93.983 -6.696 -93.983 -7.24C-93.983 -7.784 -93.9083 -8.31733 -93.759 -8.84C-93.599 -9.36267 -93.359 -9.832 -93.039 -10.248C-92.719 -10.6747 -92.319 -11.0107 -91.839 -11.256C-91.359 -11.512 -90.799 -11.64 -90.159 -11.64ZM-89.983 -10.6C-90.6123 -10.6 -91.135 -10.4347 -91.551 -10.104C-91.967 -9.77333 -92.2763 -9.352 -92.479 -8.84C-92.6817 -8.328 -92.783 -7.79467 -92.783 -7.24C-92.783 -6.68533 -92.6817 -6.152 -92.479 -5.64C-92.2763 -5.128 -91.967 -4.70667 -91.551 -4.376C-91.135 -4.04533 -90.6123 -3.88 -89.983 -3.88C-89.3643 -3.88 -88.8523 -4.04533 -88.447 -4.376C-88.031 -4.70667 -87.7217 -5.128 -87.519 -5.64C-87.3057 -6.152 -87.199 -6.68533 -87.199 -7.24C-87.199 -7.79467 -87.3057 -8.328 -87.519 -8.84C-87.7217 -9.352 -88.031 -9.77333 -88.447 -10.104C-88.8523 -10.4347 -89.3643 -10.6 -89.983 -10.6ZM-81.154 -11.64C-80.5673 -11.64 -80.082 -11.5387 -79.698 -11.336C-79.314 -11.144 -79.01 -10.9147 -78.786 -10.648C-78.5513 -10.3813 -78.3807 -10.152 -78.274 -9.96H-78.178V-11.48H-76.994V-3H-78.178V-4.52H-78.274C-78.3807 -4.31733 -78.5513 -4.08267 -78.786 -3.816C-79.01 -3.56 -79.314 -3.33067 -79.698 -3.128C-80.082 -2.936 -80.5673 -2.84 -81.154 -2.84C-81.794 -2.84 -82.354 -2.96267 -82.834 -3.208C-83.314 -3.464 -83.714 -3.8 -84.034 -4.216C-84.354 -4.64267 -84.594 -5.11733 -84.754 -5.64C-84.9033 -6.16267 -84.978 -6.696 -84.978 -7.24C-84.978 -7.784 -84.9033 -8.31733 -84.754 -8.84C-84.594 -9.36267 -84.354 -9.832 -84.034 -10.248C-83.714 -10.6747 -83.314 -11.0107 -82.834 -11.256C-82.354 -11.512 -81.794 -11.64 -81.154 -11.64ZM-80.978 -10.6C-81.6073 -10.6 -82.13 -10.4347 -82.546 -10.104C-82.962 -9.77333 -83.2713 -9.352 -83.474 -8.84C-83.6767 -8.328 -83.778 -7.79467 -83.778 -7.24C-83.778 -6.68533 -83.6767 -6.152 -83.474 -5.64C-83.2713 -5.128 -82.962 -4.70667 -82.546 -4.376C-82.13 -4.04533 -81.6073 -3.88 -80.978 -3.88C-80.3593 -3.88 -79.8473 -4.04533 -79.442 -4.376C-79.026 -4.70667 -78.7167 -5.128 -78.514 -5.64C-78.3007 -6.152 -78.194 -6.68533 -78.194 -7.24C-78.194 -7.79467 -78.3007 -8.328 -78.514 -8.84C-78.7167 -9.352 -79.026 -9.77333 -79.442 -10.104C-79.8473 -10.4347 -80.3593 -10.6 -80.978 -10.6ZM-72.149 -11.64C-71.5623 -11.64 -71.077 -11.5387 -70.693 -11.336C-70.309 -11.144 -70.005 -10.9147 -69.781 -10.648C-69.5463 -10.3813 -69.3757 -10.152 -69.269 -9.96H-69.173V-11.48H-67.989V-3H-69.173V-4.52H-69.269C-69.3757 -4.31733 -69.5463 -4.08267 -69.781 -3.816C-70.005 -3.56 -70.309 -3.33067 -70.693 -3.128C-71.077 -2.936 -71.5623 -2.84 -72.149 -2.84C-72.789 -2.84 -73.349 -2.96267 -73.829 -3.208C-74.309 -3.464 -74.709 -3.8 -75.029 -4.216C-75.349 -4.64267 -75.589 -5.11733 -75.749 -5.64C-75.8983 -6.16267 -75.973 -6.696 -75.973 -7.24C-75.973 -7.784 -75.8983 -8.31733 -75.749 -8.84C-75.589 -9.36267 -75.349 -9.832 -75.029 -10.248C-74.709 -10.6747 -74.309 -11.0107 -73.829 -11.256C-73.349 -11.512 -72.789 -11.64 -72.149 -11.64ZM-71.973 -10.6C-72.6023 -10.6 -73.125 -10.4347 -73.541 -10.104C-73.957 -9.77333 -74.2663 -9.352 -74.469 -8.84C-74.6717 -8.328 -74.773 -7.79467 -74.773 -7.24C-74.773 -6.68533 -74.6717 -6.152 -74.469 -5.64C-74.2663 -5.128 -73.957 -4.70667 -73.541 -4.376C-73.125 -4.04533 -72.6023 -3.88 -71.973 -3.88C-71.3543 -3.88 -70.8423 -4.04533 -70.437 -4.376C-70.021 -4.70667 -69.7117 -5.128 -69.509 -5.64C-69.2957 -6.152 -69.189 -6.68533 -69.189 -7.24C-69.189 -7.79467 -69.2957 -8.328 -69.509 -8.84C-69.7117 -9.352 -70.021 -9.77333 -70.437 -10.104C-70.8423 -10.4347 -71.3543 -10.6 -71.973 -10.6ZM-63.144 -11.64C-62.5573 -11.64 -62.072 -11.5387 -61.688 -11.336C-61.304 -11.144 -61 -10.9147 -60.776 -10.648C-60.5413 -10.3813 -60.3707 -10.152 -60.264 -9.96H-60.168V-11.48H-58.984V-3H-60.168V-4.52H-60.264C-60.3707 -4.31733 -60.5413 -4.08267 -60.776 -3.816C-61 -3.56 -61.304 -3.33067 -61.688 -3.128C-62.072 -2.936 -62.5573 -2.84 -63.144 -2.84C-63.784 -2.84 -64.344 -2.96267 -64.824 -3.208C-65.304 -3.464 -65.704 -3.8 -66.024 -4.216C-66.344 -4.64267 -66.584 -5.11733 -66.744 -5.64C-66.8933 -6.16267 -66.968 -6.696 -66.968 -7.24C-66.968 -7.784 -66.8933 -8.31733 -66.744 -8.84C-66.584 -9.36267 -66.344 -9.832 -66.024 -10.248C-65.704 -10.6747 -65.304 -11.0107 -64.824 -11.256C-64.344 -11.512 -63.784 -11.64 -63.144 -11.64ZM-62.968 -10.6C-63.5973 -10.6 -64.12 -10.4347 -64.536 -10.104C-64.952 -9.77333 -65.2613 -9.352 -65.464 -8.84C-65.6667 -8.328 -65.768 -7.79467 -65.768 -7.24C-65.768 -6.68533 -65.6667 -6.152 -65.464 -5.64C-65.2613 -5.128 -64.952 -4.70667 -64.536 -4.376C-64.12 -4.04533 -63.5973 -3.88 -62.968 -3.88C-62.3493 -3.88 -61.8373 -4.04533 -61.432 -4.376C-61.016 -4.70667 -60.7067 -5.128 -60.504 -5.64C-60.2907 -6.152 -60.184 -6.68533 -60.184 -7.24C-60.184 -7.79467 -60.2907 -8.328 -60.504 -8.84C-60.7067 -9.352 -61.016 -9.77333 -61.432 -10.104C-61.8373 -10.4347 -62.3493 -10.6 -62.968 -10.6ZM-54.139 -11.64C-53.5523 -11.64 -53.067 -11.5387 -52.683 -11.336C-52.299 -11.144 -51.995 -10.9147 -51.771 -10.648C-51.5363 -10.3813 -51.3657 -10.152 -51.259 -9.96H-51.163V-11.48H-49.979V-3H-51.163V-4.52H-51.259C-51.3657 -4.31733 -51.5363 -4.08267 -51.771 -3.816C-51.995 -3.56 -52.299 -3.33067 -52.683 -3.128C-53.067 -2.936 -53.5523 -2.84 -54.139 -2.84C-54.779 -2.84 -55.339 -2.96267 -55.819 -3.208C-56.299 -3.464 -56.699 -3.8 -57.019 -4.216C-57.339 -4.64267 -57.579 -5.11733 -57.739 -5.64C-57.8883 -6.16267 -57.963 -6.696 -57.963 -7.24C-57.963 -7.784 -57.8883 -8.31733 -57.739 -8.84C-57.579 -9.36267 -57.339 -9.832 -57.019 -10.248C-56.699 -10.6747 -56.299 -11.0107 -55.819 -11.256C-55.339 -11.512 -54.779 -11.64 -54.139 -11.64ZM-53.963 -10.6C-54.5923 -10.6 -55.115 -10.4347 -55.531 -10.104C-55.947 -9.77333 -56.2563 -9.352 -56.459 -8.84C-56.6617 -8.328 -56.763 -7.79467 -56.763 -7.24C-56.763 -6.68533 -56.6617 -6.152 -56.459 -5.64C-56.2563 -5.128 -55.947 -4.70667 -55.531 -4.376C-55.115 -4.04533 -54.5923 -3.88 -53.963 -3.88C-53.3443 -3.88 -52.8323 -4.04533 -52.427 -4.376C-52.011 -4.70667 -51.7017 -5.128 -51.499 -5.64C-51.2857 -6.152 -51.179 -6.68533 -51.179 -7.24C-51.179 -7.79467 -51.2857 -8.328 -51.499 -8.84C-51.7017 -9.352 -52.011 -9.77333 -52.427 -10.104C-52.8323 -10.4347 -53.3443 -10.6 -53.963 -10.6ZM-45.134 -11.64C-44.5473 -11.64 -44.062 -11.5387 -43.678 -11.336C-43.294 -11.144 -42.99 -10.9147 -42.766 -10.648C-42.5313 -10.3813 -42.3607 -10.152 -42.254 -9.96H-42.158V-11.48H-40.974V-3H-42.158V-4.52H-42.254C-42.3607 -4.31733 -42.5313 -4.08267 -42.766 -3.816C-42.99 -3.56 -43.294 -3.33067 -43.678 -3.128C-44.062 -2.936 -44.5473 -2.84 -45.134 -2.84C-45.774 -2.84 -46.334 -2.96267 -46.814 -3.208C-47.294 -3.464 -47.694 -3.8 -48.014 -4.216C-48.334 -4.64267 -48.574 -5.11733 -48.734 -5.64C-48.8833 -6.16267 -48.958 -6.696 -48.958 -7.24C-48.958 -7.784 -48.8833 -8.31733 -48.734 -8.84C-48.574 -9.36267 -48.334 -9.832 -48.014 -10.248C-47.694 -10.6747 -47.294 -11.0107 -46.814 -11.256C-46.334 -11.512 -45.774 -11.64 -45.134 -11.64ZM-44.958 -10.6C-45.5873 -10.6 -46.11 -10.4347 -46.526 -10.104C-46.942 -9.77333 -47.2513 -9.352 -47.454 -8.84C-47.6567 -8.328 -47.758 -7.79467 -47.758 -7.24C-47.758 -6.68533 -47.6567 -6.152 -47.454 -5.64C-47.2513 -5.128 -46.942 -4.70667 -46.526 -4.376C-46.11 -4.04533 -45.5873 -3.88 -44.958 -3.88C-44.3393 -3.88 -43.8273 -4.04533 -43.422 -4.376C-43.006 -4.70667 -42.6967 -5.128 -42.494 -5.64C-42.2807 -6.152 -42.174 -6.68533 -42.174 -7.24C-42.174 -7.79467 -42.2807 -8.328 -42.494 -8.84C-42.6967 -9.352 -43.006 -9.77333 -43.422 -10.104C-43.8273 -10.4347 -44.3393 -10.6 -44.958 -10.6ZM-36.129 -11.64C-35.5423 -11.64 -35.057 -11.5387 -34.673 -11.336C-34.289 -11.144 -33.985 -10.9147 -33.761 -10.648C-33.5263 -10.3813 -33.3557 -10.152 -33.249 -9.96H-33.153V-11.48H-31.969V-3H-33.153V-4.52H-33.249C-33.3557 -4.31733 -33.5263 -4.08267 -33.761 -3.816C-33.985 -3.56 -34.289 -3.33067 -34.673 -3.128C-35.057 -2.936 -35.5423 -2.84 -36.129 -2.84C-36.769 -2.84 -37.329 -2.96267 -37.809 -3.208C-38.289 -3.464 -38.689 -3.8 -39.009 -4.216C-39.329 -4.64267 -39.569 -5.11733 -39.729 -5.64C-39.8783 -6.16267 -39.953 -6.696 -39.953 -7.24C-39.953 -7.784 -39.8783 -8.31733 -39.729 -8.84C-39.569 -9.36267 -39.329 -9.832 -39.009 -10.248C-38.689 -10.6747 -38.289 -11.0107 -37.809 -11.256C-37.329 -11.512 -36.769 -11.64 -36.129 -11.64ZM-35.953 -10.6C-36.5823 -10.6 -37.105 -10.4347 -37.521 -10.104C-37.937 -9.77333 -38.2463 -9.352 -38.449 -8.84C-38.6517 -8.328 -38.753 -7.79467 -38.753 -7.24C-38.753 -6.68533 -38.6517 -6.152 -38.449 -5.64C-38.2463 -5.128 -37.937 -4.70667 -37.521 -4.376C-37.105 -4.04533 -36.5823 -3.88 -35.953 -3.88C-35.3343 -3.88 -34.8223 -4.04533 -34.417 -4.376C-34.001 -4.70667 -33.6917 -5.128 -33.489 -5.64C-33.2757 -6.152 -33.169 -6.68533 -33.169 -7.24C-33.169 -7.79467 -33.2757 -8.328 -33.489 -8.84C-33.6917 -9.352 -34.001 -9.77333 -34.417 -10.104C-34.8223 -10.4347 -35.3343 -10.6 -35.953 -10.6ZM-27.124 -11.64C-26.5373 -11.64 -26.052 -11.5387 -25.668 -11.336C-25.284 -11.144 -24.98 -10.9147 -24.756 -10.648C-24.5213 -10.3813 -24.3507 -10.152 -24.244 -9.96H-24.148V-11.48H-22.964V-3H-24.148V-4.52H-24.244C-24.3507 -4.31733 -24.5213 -4.08267 -24.756 -3.816C-24.98 -3.56 -25.284 -3.33067 -25.668 -3.128C-26.052 -2.936 -26.5373 -2.84 -27.124 -2.84C-27.764 -2.84 -28.324 -2.96267 -28.804 -3.208C-29.284 -3.464 -29.684 -3.8 -30.004 -4.216C-30.324 -4.64267 -30.564 -5.11733 -30.724 -5.64C-30.8733 -6.16267 -30.948 -6.696 -30.948 -7.24C-30.948 -7.784 -30.8733 -8.31733 -30.724 -8.84C-30.564 -9.36267 -30.324 -9.832 -30.004 -10.248C-29.684 -10.6747 -29.284 -11.0107 -28.804 -11.256C-28.324 -11.512 -27.764 -11.64 -27.124 -11.64ZM-26.948 -10.6C-27.5773 -10.6 -28.1 -10.4347 -28.516 -10.104C-28.932 -9.77333 -29.2413 -9.352 -29.444 -8.84C-29.6467 -8.328 -29.748 -7.79467 -29.748 -7.24C-29.748 -6.68533 -29.6467 -6.152 -29.444 -5.64C-29.2413 -5.128 -28.932 -4.70667 -28.516 -4.376C-28.1 -4.04533 -27.5773 -3.88 -26.948 -3.88C-26.3293 -3.88 -25.8173 -4.04533 -25.412 -4.376C-24.996 -4.70667 -24.6867 -5.128 -24.484 -5.64C-24.2707 -6.152 -24.164 -6.68533 -24.164 -7.24C-24.164 -7.79467 -24.2707 -8.328 -24.484 -8.84C-24.6867 -9.352 -24.996 -9.77333 -25.412 -10.104C-25.8173 -10.4347 -26.3293 -10.6 -26.948 -10.6ZM-18.119 -11.64C-17.5323 -11.64 -17.047 -11.5387 -16.663 -11.336C-16.279 -11.144 -15.975 -10.9147 -15.751 -10.648C-15.5163 -10.3813 -15.3457 -10.152 -15.239 -9.96H-15.143V-11.48H-13.959V-3H-15.143V-4.52H-15.239C-15.3457 -4.31733 -15.5163 -4.08267 -15.751 -3.816C-15.975 -3.56 -16.279 -3.33067 -16.663 -3.128C-17.047 -2.936 -17.5323 -2.84 -18.119 -2.84C-18.759 -2.84 -19.319 -2.96267 -19.799 -3.208C-20.279 -3.464 -20.679 -3.8 -20.999 -4.216C-21.319 -4.64267 -21.559 -5.11733 -21.719 -5.64C-21.8683 -6.16267 -21.943 -6.696 -21.943 -7.24C-21.943 -7.784 -21.8683 -8.31733 -21.719 -8.84C-21.559 -9.36267 -21.319 -9.832 -20.999 -10.248C-20.679 -10.6747 -20.279 -11.0107 -19.799 -11.256C-19.319 -11.512 -18.759 -11.64 -18.119 -11.64ZM-17.943 -10.6C-18.5723 -10.6 -19.095 -10.4347 -19.511 -10.104C-19.927 -9.77333 -20.2363 -9.352 -20.439 -8.84C-20.6417 -8.328 -20.743 -7.79467 -20.743 -7.24C-20.743 -6.68533 -20.6417 -6.152 -20.439 -5.64C-20.2363 -5.128 -19.927 -4.70667 -19.511 -4.376C-19.095 -4.04533 -18.5723 -3.88 -17.943 -3.88C-17.3243 -3.88 -16.8123 -4.04533 -16.407 -4.376C-15.991 -4.70667 -15.6817 -5.128 -15.479 -5.64C-15.2657 -6.152 -15.159 -6.68533 -15.159 -7.24C-15.159 -7.79467 -15.2657 -8.328 -15.479 -8.84C-15.6817 -9.352 -15.991 -9.77333 -16.407 -10.104C-16.8123 -10.4347 -17.3243 -10.6 -17.943 -10.6ZM-9.114 -11.64C-8.52733 -11.64 -8.042 -11.5387 -7.658 -11.336C-7.274 -11.144 -6.97 -10.9147 -6.746 -10.648C-6.51133 -10.3813 -6.34067 -10.152 -6.234 -9.96H-6.138V-11.48H-4.954V-3H-6.138V-4.52H-6.234C-6.34067 -4.31733 -6.51133 -4.08267 -6.746 -3.816C-6.97 -3.56 -7.274 -3.33067 -7.658 -3.128C-8.042 -2.936 -8.52733 -2.84 -9.114 -2.84C-9.754 -2.84 -10.314 -2.96267 -10.794 -3.208C-11.274 -3.464 -11.674 -3.8 -11.994 -4.216C-12.314 -4.64267 -12.554 -5.11733 -12.714 -5.64C-12.8633 -6.16267 -12.938 -6.696 -12.938 -7.24C-12.938 -7.784 -12.8633 -8.31733 -12.714 -8.84C-12.554 -9.36267 -12.314 -9.832 -11.994 -10.248C-11.674 -10.6747 -11.274 -11.0107 -10.794 -11.256C-10.314 -11.512 -9.754 -11.64 -9.114 -11.64ZM-8.938 -10.6C-9.56733 -10.6 -10.09 -10.4347 -10.506 -10.104C-10.922 -9.77333 -11.2313 -9.352 -11.434 -8.84C-11.6367 -8.328 -11.738 -7.79467 -11.738 -7.24C-11.738 -6.68533 -11.6367 -6.152 -11.434 -5.64C-11.2313 -5.128 -10.922 -4.70667 -10.506 -4.376C-10.09 -4.04533 -9.56733 -3.88 -8.938 -3.88C-8.31933 -3.88 -7.80733 -4.04533 -7.402 -4.376C-6.986 -4.70667 -6.67667 -5.128 -6.474 -5.64C-6.26067 -6.152 -6.154 -6.68533 -6.154 -7.24C-6.154 -7.79467 -6.26067 -8.328 -6.474 -8.84C-6.67667 -9.352 -6.986 -9.77333 -7.402 -10.104C-7.80733 -10.4347 -8.31933 -10.6 -8.938 -10.6ZM-0.109003 -11.64C0.477664 -11.64 0.962997 -11.5387 1.347 -11.336C1.731 -11.144 2.035 -10.9147 2.259 -10.648C2.49366 -10.3813 2.66433 -10.152 2.771 -9.96H2.867V-11.48H4.051V-3H2.867V-4.52H2.771C2.66433 -4.31733 2.49366 -4.08267 2.259 -3.816C2.035 -3.56 1.731 -3.33067 1.347 -3.128C0.962997 -2.936 0.477664 -2.84 -0.109003 -2.84C-0.749003 -2.84 -1.309 -2.96267 -1.789 -3.208C-2.269 -3.464 -2.669 -3.8 -2.989 -4.216C-3.309 -4.64267 -3.549 -5.11733 -3.709 -5.64C-3.85834 -6.16267 -3.933 -6.696 -3.933 -7.24C-3.933 -7.784 -3.85834 -8.31733 -3.709 -8.84C-3.549 -9.36267 -3.309 -9.832 -2.989 -10.248C-2.669 -10.6747 -2.269 -11.0107 -1.789 -11.256C-1.309 -11.512 -0.749003 -11.64 -0.109003 -11.64ZM0.0669971 -10.6C-0.562336 -10.6 -1.085 -10.4347 -1.501 -10.104C-1.917 -9.77333 -2.22634 -9.352 -2.429 -8.84C-2.63167 -8.328 -2.733 -7.79467 -2.733 -7.24C-2.733 -6.68533 -2.63167 -6.152 -2.429 -5.64C-2.22634 -5.128 -1.917 -4.70667 -1.501 -4.376C-1.085 -4.04533 -0.562336 -3.88 0.0669971 -3.88C0.685664 -3.88 1.19766 -4.04533 1.603 -4.376C2.019 -4.70667 2.32833 -5.128 2.531 -5.64C2.74433 -6.152 2.851 -6.68533 2.851 -7.24C2.851 -7.79467 2.74433 -8.328 2.531 -8.84C2.32833 -9.352 2.019 -9.77333 1.603 -10.104C1.19766 -10.4347 0.685664 -10.6 0.0669971 -10.6ZM8.896 -11.64C9.48267 -11.64 9.968 -11.5387 10.352 -11.336C10.736 -11.144 11.04 -10.9147 11.264 -10.648C11.4987 -10.3813 11.6693 -10.152 11.776 -9.96H11.872V-11.48H13.056V-3H11.872V-4.52H11.776C11.6693 -4.31733 11.4987 -4.08267 11.264 -3.816C11.04 -3.56 10.736 -3.33067 10.352 -3.128C9.968 -2.936 9.48267 -2.84 8.896 -2.84C8.256 -2.84 7.696 -2.96267 7.216 -3.208C6.736 -3.464 6.336 -3.8 6.016 -4.216C5.696 -4.64267 5.456 -5.11733 5.296 -5.64C5.14667 -6.16267 5.072 -6.696 5.072 -7.24C5.072 -7.784 5.14667 -8.31733 5.296 -8.84C5.456 -9.36267 5.696 -9.832 6.016 -10.248C6.336 -10.6747 6.736 -11.0107 7.216 -11.256C7.696 -11.512 8.256 -11.64 8.896 -11.64ZM9.072 -10.6C8.44267 -10.6 7.92 -10.4347 7.504 -10.104C7.088 -9.77333 6.77867 -9.352 6.576 -8.84C6.37334 -8.328 6.272 -7.79467 6.272 -7.24C6.272 -6.68533 6.37334 -6.152 6.576 -5.64C6.77867 -5.128 7.088 -4.70667 7.504 -4.376C7.92 -4.04533 8.44267 -3.88 9.072 -3.88C9.69067 -3.88 10.2027 -4.04533 10.608 -4.376C11.024 -4.70667 11.3333 -5.128 11.536 -5.64C11.7493 -6.152 11.856 -6.68533 11.856 -7.24C11.856 -7.79467 11.7493 -8.328 11.536 -8.84C11.3333 -9.352 11.024 -9.77333 10.608 -10.104C10.2027 -10.4347 9.69067 -10.6 9.072 -10.6ZM17.901 -11.64C18.4877 -11.64 18.973 -11.5387 19.357 -11.336C19.741 -11.144 20.045 -10.9147 20.269 -10.648C20.5037 -10.3813 20.6743 -10.152 20.781 -9.96H20.877V-11.48H22.061V-3H20.877V-4.52H20.781C20.6743 -4.31733 20.5037 -4.08267 20.269 -3.816C20.045 -3.56 19.741 -3.33067 19.357 -3.128C18.973 -2.936 18.4877 -2.84 17.901 -2.84C17.261 -2.84 16.701 -2.96267 16.221 -3.208C15.741 -3.464 15.341 -3.8 15.021 -4.216C14.701 -4.64267 14.461 -5.11733 14.301 -5.64C14.1517 -6.16267 14.077 -6.696 14.077 -7.24C14.077 -7.784 14.1517 -8.31733 14.301 -8.84C14.461 -9.36267 14.701 -9.832 15.021 -10.248C15.341 -10.6747 15.741 -11.0107 16.221 -11.256C16.701 -11.512 17.261 -11.64 17.901 -11.64ZM18.077 -10.6C17.4477 -10.6 16.925 -10.4347 16.509 -10.104C16.093 -9.77333 15.7837 -9.352 15.581 -8.84C15.3783 -8.328 15.277 -7.79467 15.277 -7.24C15.277 -6.68533 15.3783 -6.152 15.581 -5.64C15.7837 -5.128 16.093 -4.70667 16.509 -4.376C16.925 -4.04533 17.4477 -3.88 18.077 -3.88C18.6957 -3.88 19.2077 -4.04533 19.613 -4.376C20.029 -4.70667 20.3383 -5.128 20.541 -5.64C20.7543 -6.152 20.861 -6.68533 20.861 -7.24C20.861 -7.79467 20.7543 -8.328 20.541 -8.84C20.3383 -9.352 20.029 -9.77333 19.613 -10.104C19.2077 -10.4347 18.6957 -10.6 18.077 -10.6ZM-135.184 8.36C-134.597 8.36 -134.112 8.46133 -133.728 8.664C-133.344 8.856 -133.04 9.08533 -132.816 9.352C-132.581 9.61867 -132.411 9.848 -132.304 10.04H-132.208V8.52H-131.024V17H-132.208V15.48H-132.304C-132.411 15.6827 -132.581 15.9173 -132.816 16.184C-133.04 16.44 -133.344 16.6693 -133.728 16.872C-134.112 17.064 -134.597 17.16 -135.184 17.16C-135.824 17.16 -136.384 17.0373 -136.864 16.792C-137.344 16.536 -137.744 16.2 -138.064 15.784C-138.384 15.3573 -138.624 14.8827 -138.784 14.36C-138.933 13.8373 -139.008 13.304 -139.008 12.76C-139.008 12.216 -138.933 11.6827 -138.784 11.16C-138.624 10.6373 -138.384 10.168 -138.064 9.752C-137.744 9.32533 -137.344 8.98933 -136.864 8.744C-136.384 8.488 -135.824 8.36 -135.184 8.36ZM-135.008 9.4C-135.637 9.4 -136.16 9.56533 -136.576 9.896C-136.992 10.2267 -137.301 10.648 -137.504 11.16C-137.707 11.672 -137.808 12.2053 -137.808 12.76C-137.808 13.3147 -137.707 13.848 -137.504 14.36C-137.301 14.872 -136.992 15.2933 -136.576 15.624C-136.16 15.9547 -135.637 16.12 -135.008 16.12C-134.389 16.12 -133.877 15.9547 -133.472 15.624C-133.056 15.2933 -132.747 14.872 -132.544 14.36C-132.331 13.848 -132.224 13.3147 -132.224 12.76C-132.224 12.2053 -132.331 11.672 -132.544 11.16C-132.747 10.648 -133.056 10.2267 -133.472 9.896C-133.877 9.56533 -134.389 9.4 -135.008 9.4ZM-126.179 8.36C-125.592 8.36 -125.107 8.46133 -124.723 8.664C-124.339 8.856 -124.035 9.08533 -123.811 9.352C-123.576 9.61867 -123.406 9.848 -123.299 10.04H-123.203V8.52H-122.019V17H-123.203V15.48H-123.299C-123.406 15.6827 -123.576 15.9173 -123.811 16.184C-124.035 16.44 -124.339 16.6693 -124.723 16.872C-125.107 17.064 -125.592 17.16 -126.179 17.16C-126.819 17.16 -127.379 17.0373 -127.859 16.792C-128.339 16.536 -128.739 16.2 -129.059 15.784C-129.379 15.3573 -129.619 14.8827 -129.779 14.36C-129.928 13.8373 -130.003 13.304 -130.003 12.76C-130.003 12.216 -129.928 11.6827 -129.779 11.16C-129.619 10.6373 -129.379 10.168 -129.059 9.752C-128.739 9.32533 -128.339 8.98933 -127.859 8.744C-127.379 8.488 -126.819 8.36 -126.179 8.36ZM-126.003 9.4C-126.632 9.4 -127.155 9.56533 -127.571 9.896C-127.987 10.2267 -128.296 10.648 -128.499 11.16C-128.702 11.672 -128.803 12.2053 -128.803 12.76C-128.803 13.3147 -128.702 13.848 -128.499 14.36C-128.296 14.872 -127.987 15.2933 -127.571 15.624C-127.155 15.9547 -126.632 16.12 -126.003 16.12C-125.384 16.12 -124.872 15.9547 -124.467 15.624C-124.051 15.2933 -123.742 14.872 -123.539 14.36C-123.326 13.848 -123.219 13.3147 -123.219 12.76C-123.219 12.2053 -123.326 11.672 -123.539 11.16C-123.742 10.648 -124.051 10.2267 -124.467 9.896C-124.872 9.56533 -125.384 9.4 -126.003 9.4ZM-117.174 8.36C-116.587 8.36 -116.102 8.46133 -115.718 8.664C-115.334 8.856 -115.03 9.08533 -114.806 9.352C-114.571 9.61867 -114.401 9.848 -114.294 10.04H-114.198V8.52H-113.014V17H-114.198V15.48H-114.294C-114.401 15.6827 -114.571 15.9173 -114.806 16.184C-115.03 16.44 -115.334 16.6693 -115.718 16.872C-116.102 17.064 -116.587 17.16 -117.174 17.16C-117.814 17.16 -118.374 17.0373 -118.854 16.792C-119.334 16.536 -119.734 16.2 -120.054 15.784C-120.374 15.3573 -120.614 14.8827 -120.774 14.36C-120.923 13.8373 -120.998 13.304 -120.998 12.76C-120.998 12.216 -120.923 11.6827 -120.774 11.16C-120.614 10.6373 -120.374 10.168 -120.054 9.752C-119.734 9.32533 -119.334 8.98933 -118.854 8.744C-118.374 8.488 -117.814 8.36 -117.174 8.36ZM-116.998 9.4C-117.627 9.4 -118.15 9.56533 -118.566 9.896C-118.982 10.2267 -119.291 10.648 -119.494 11.16C-119.697 11.672 -119.798 12.2053 -119.798 12.76C-119.798 13.3147 -119.697 13.848 -119.494 14.36C-119.291 14.872 -118.982 15.2933 -118.566 15.624C-118.15 15.9547 -117.627 16.12 -116.998 16.12C-116.379 16.12 -115.867 15.9547 -115.462 15.624C-115.046 15.2933 -114.737 14.872 -114.534 14.36C-114.321 13.848 -114.214 13.3147 -114.214 12.76C-114.214 12.2053 -114.321 11.672 -114.534 11.16C-114.737 10.648 -115.046 10.2267 -115.462 9.896C-115.867 9.56533 -116.379 9.4 -116.998 9.4ZM-108.169 8.36C-107.582 8.36 -107.097 8.46133 -106.713 8.664C-106.329 8.856 -106.025 9.08533 -105.801 9.352C-105.566 9.61867 -105.396 9.848 -105.289 10.04H-105.193V8.52H-104.009V17H-105.193V15.48H-105.289C-105.396 15.6827 -105.566 15.9173 -105.801 16.184C-106.025 16.44 -106.329 16.6693 -106.713 16.872C-107.097 17.064 -107.582 17.16 -108.169 17.16C-108.809 17.16 -109.369 17.0373 -109.849 16.792C-110.329 16.536 -110.729 16.2 -111.049 15.784C-111.369 15.3573 -111.609 14.8827 -111.769 14.36C-111.918 13.8373 -111.993 13.304 -111.993 12.76C-111.993 12.216 -111.918 11.6827 -111.769 11.16C-111.609 10.6373 -111.369 10.168 -111.049 9.752C-110.729 9.32533 -110.329 8.98933 -109.849 8.744C-109.369 8.488 -108.809 8.36 -108.169 8.36ZM-107.993 9.4C-108.622 9.4 -109.145 9.56533 -109.561 9.896C-109.977 10.2267 -110.286 10.648 -110.489 11.16C-110.692 11.672 -110.793 12.2053 -110.793 12.76C-110.793 13.3147 -110.692 13.848 -110.489 14.36C-110.286 14.872 -109.977 15.2933 -109.561 15.624C-109.145 15.9547 -108.622 16.12 -107.993 16.12C-107.374 16.12 -106.862 15.9547 -106.457 15.624C-106.041 15.2933 -105.732 14.872 -105.529 14.36C-105.316 13.848 -105.209 13.3147 -105.209 12.76C-105.209 12.2053 -105.316 11.672 -105.529 11.16C-105.732 10.648 -106.041 10.2267 -106.457 9.896C-106.862 9.56533 -107.374 9.4 -107.993 9.4ZM-99.164 8.36C-98.5773 8.36 -98.092 8.46133 -97.708 8.664C-97.324 8.856 -97.02 9.08533 -96.796 9.352C-96.5613 9.61867 -96.3907 9.848 -96.284 10.04H-96.188V8.52H-95.004V17H-96.188V15.48H-96.284C-96.3907 15.6827 -96.5613 15.9173 -96.796 16.184C-97.02 16.44 -97.324 16.6693 -97.708 16.872C-98.092 17.064 -98.5773 17.16 -99.164 17.16C-99.804 17.16 -100.364 17.0373 -100.844 16.792C-101.324 16.536 -101.724 16.2 -102.044 15.784C-102.364 15.3573 -102.604 14.8827 -102.764 14.36C-102.913 13.8373 -102.988 13.304 -102.988 12.76C-102.988 12.216 -102.913 11.6827 -102.764 11.16C-102.604 10.6373 -102.364 10.168 -102.044 9.752C-101.724 9.32533 -101.324 8.98933 -100.844 8.744C-100.364 8.488 -99.804 8.36 -99.164 8.36ZM-98.988 9.4C-99.6173 9.4 -100.14 9.56533 -100.556 9.896C-100.972 10.2267 -101.281 10.648 -101.484 11.16C-101.687 11.672 -101.788 12.2053 -101.788 12.76C-101.788 13.3147 -101.687 13.848 -101.484 14.36C-101.281 14.872 -100.972 15.2933 -100.556 15.624C-100.14 15.9547 -99.6173 16.12 -98.988 16.12C-98.3693 16.12 -97.8573 15.9547 -97.452 15.624C-97.036 15.2933 -96.7267 14.872 -96.524 14.36C-96.3107 13.848 -96.204 13.3147 -96.204 12.76C-96.204 12.2053 -96.3107 11.672 -96.524 11.16C-96.7267 10.648 -97.036 10.2267 -97.452 9.896C-97.8573 9.56533 -98.3693 9.4 -98.988 9.4ZM-90.159 8.36C-89.5723 8.36 -89.087 8.46133 -88.703 8.664C-88.319 8.856 -88.015 9.08533 -87.791 9.352C-87.5563 9.61867 -87.3857 9.848 -87.279 10.04H-87.183V8.52H-85.999V17H-87.183V15.48H-87.279C-87.3857 15.6827 -87.5563 15.9173 -87.791 16.184C-88.015 16.44 -88.319 16.6693 -88.703 16.872C-89.087 17.064 -89.5723 17.16 -90.159 17.16C-90.799 17.16 -91.359 17.0373 -91.839 16.792C-92.319 16.536 -92.719 16.2 -93.039 15.784C-93.359 15.3573 -93.599 14.8827 -93.759 14.36C-93.9083 13.8373 -93.983 13.304 -93.983 12.76C-93.983 12.216 -93.9083 11.6827 -93.759 11.16C-93.599 10.6373 -93.359 10.168 -93.039 9.752C-92.719 9.32533 -92.319 8.98933 -91.839 8.744C-91.359 8.488 -90.799 8.36 -90.159 8.36ZM-89.983 9.4C-90.6123 9.4 -91.135 9.56533 -91.551 9.896C-91.967 10.2267 -92.2763 10.648 -92.479 11.16C-92.6817 11.672 -92.783 12.2053 -92.783 12.76C-92.783 13.3147 -92.6817 13.848 -92.479 14.36C-92.2763 14.872 -91.967 15.2933 -91.551 15.624C-91.135 15.9547 -90.6123 16.12 -89.983 16.12C-89.3643 16.12 -88.8523 15.9547 -88.447 15.624C-88.031 15.2933 -87.7217 14.872 -87.519 14.36C-87.3057 13.848 -87.199 13.3147 -87.199 12.76C-87.199 12.2053 -87.3057 11.672 -87.519 11.16C-87.7217 10.648 -88.031 10.2267 -88.447 9.896C-88.8523 9.56533 -89.3643 9.4 -89.983 9.4ZM-81.154 8.36C-80.5673 8.36 -80.082 8.46133 -79.698 8.664C-79.314 8.856 -79.01 9.08533 -78.786 9.352C-78.5513 9.61867 -78.3807 9.848 -78.274 10.04H-78.178V8.52H-76.994V17H-78.178V15.48H-78.274C-78.3807 15.6827 -78.5513 15.9173 -78.786 16.184C-79.01 16.44 -79.314 16.6693 -79.698 16.872C-80.082 17.064 -80.5673 17.16 -81.154 17.16C-81.794 17.16 -82.354 17.0373 -82.834 16.792C-83.314 16.536 -83.714 16.2 -84.034 15.784C-84.354 15.3573 -84.594 14.8827 -84.754 14.36C-84.9033 13.8373 -84.978 13.304 -84.978 12.76C-84.978 12.216 -84.9033 11.6827 -84.754 11.16C-84.594 10.6373 -84.354 10.168 -84.034 9.752C-83.714 9.32533 -83.314 8.98933 -82.834 8.744C-82.354 8.488 -81.794 8.36 -81.154 8.36ZM-80.978 9.4C-81.6073 9.4 -82.13 9.56533 -82.546 9.896C-82.962 10.2267 -83.2713 10.648 -83.474 11.16C-83.6767 11.672 -83.778 12.2053 -83.778 12.76C-83.778 13.3147 -83.6767 13.848 -83.474 14.36C-83.2713 14.872 -82.962 15.2933 -82.546 15.624C-82.13 15.9547 -81.6073 16.12 -80.978 16.12C-80.3593 16.12 -79.8473 15.9547 -79.442 15.624C-79.026 15.2933 -78.7167 14.872 -78.514 14.36C-78.3007 13.848 -78.194 13.3147 -78.194 12.76C-78.194 12.2053 -78.3007 11.672 -78.514 11.16C-78.7167 10.648 -79.026 10.2267 -79.442 9.896C-79.8473 9.56533 -80.3593 9.4 -80.978 9.4ZM-72.149 8.36C-71.5623 8.36 -71.077 8.46133 -70.693 8.664C-70.309 8.856 -70.005 9.08533 -69.781 9.352C-69.5463 9.61867 -69.3757 9.848 -69.269 10.04H-69.173V8.52H-67.989V17H-69.173V15.48H-69.269C-69.3757 15.6827 -69.5463 15.9173 -69.781 16.184C-70.005 16.44 -70.309 16.6693 -70.693 16.872C-71.077 17.064 -71.5623 17.16 -72.149 17.16C-72.789 17.16 -73.349 17.0373 -73.829 16.792C-74.309 16.536 -74.709 16.2 -75.029 15.784C-75.349 15.3573 -75.589 14.8827 -75.749 14.36C-75.8983 13.8373 -75.973 13.304 -75.973 12.76C-75.973 12.216 -75.8983 11.6827 -75.749 11.16C-75.589 10.6373 -75.349 10.168 -75.029 9.752C-74.709 9.32533 -74.309 8.98933 -73.829 8.744C-73.349 8.488 -72.789 8.36 -72.149 8.36ZM-71.973 9.4C-72.6023 9.4 -73.125 9.56533 -73.541 9.896C-73.957 10.2267 -74.2663 10.648 -74.469 11.16C-74.6717 11.672 -74.773 12.2053 -74.773 12.76C-74.773 13.3147 -74.6717 13.848 -74.469 14.36C-74.2663 14.872 -73.957 15.2933 -73.541 15.624C-73.125 15.9547 -72.6023 16.12 -71.973 16.12C-71.3543 16.12 -70.8423 15.9547 -70.437 15.624C-70.021 15.2933 -69.7117 14.872 -69.509 14.36C-69.2957 13.848 -69.189 13.3147 -69.189 12.76C-69.189 12.2053 -69.2957 11.672 -69.509 11.16C-69.7117 10.648 -70.021 10.2267 -70.437 9.896C-70.8423 9.56533 -71.3543 9.4 -71.973 9.4ZM-63.144 8.36C-62.5573 8.36 -62.072 8.46133 -61.688 8.664C-61.304 8.856 -61 9.08533 -60.776 9.352C-60.5413 9.61867 -60.3707 9.848 -60.264 10.04H-60.168V8.52H-58.984V17H-60.168V15.48H-60.264C-60.3707 15.6827 -60.5413 15.9173 -60.776 16.184C-61 16.44 -61.304 16.6693 -61.688 16.872C-62.072 17.064 -62.5573 17.16 -63.144 17.16C-63.784 17.16 -64.344 17.0373 -64.824 16.792C-65.304 16.536 -65.704 16.2 -66.024 15.784C-66.344 15.3573 -66.584 14.8827 -66.744 14.36C-66.8933 13.8373 -66.968 13.304 -66.968 12.76C-66.968 12.216 -66.8933 11.6827 -66.744 11.16C-66.584 10.6373 -66.344 10.168 -66.024 9.752C-65.704 9.32533 -65.304 8.98933 -64.824 8.744C-64.344 8.488 -63.784 8.36 -63.144 8.36ZM-62.968 9.4C-63.5973 9.4 -64.12 9.56533 -64.536 9.896C-64.952 10.2267 -65.2613 10.648 -65.464 11.16C-65.6667 11.672 -65.768 12.2053 -65.768 12.76C-65.768 13.3147 -65.6667 13.848 -65.464 14.36C-65.2613 14.872 -64.952 15.2933 -64.536 15.624C-64.12 15.9547 -63.5973 16.12 -62.968 16.12C-62.3493 16.12 -61.8373 15.9547 -61.432 15.624C-61.016 15.2933 -60.7067 14.872 -60.504 14.36C-60.2907 13.848 -60.184 13.3147 -60.184 12.76C-60.184 12.2053 -60.2907 11.672 -60.504 11.16C-60.7067 10.648 -61.016 10.2267 -61.432 9.896C-61.8373 9.56533 -62.3493 9.4 -62.968 9.4ZM-54.139 8.36C-53.5523 8.36 -53.067 8.46133 -52.683 8.664C-52.299 8.856 -51.995 9.08533 -51.771 9.352C-51.5363 9.61867 -51.3657 9.848 -51.259 10.04H-51.163V8.52H-49.979V17H-51.163V15.48H-51.259C-51.3657 15.6827 -51.5363 15.9173 -51.771 16.184C-51.995 16.44 -52.299 16.6693 -52.683 16.872C-53.067 17.064 -53.5523 17.16 -54.139 17.16C-54.779 17.16 -55.339 17.0373 -55.819 16.792C-56.299 16.536 -56.699 16.2 -57.019 15.784C-57.339 15.3573 -57.579 14.8827 -57.739 14.36C-57.8883 13.8373 -57.963 13.304 -57.963 12.76C-57.963 12.216 -57.8883 11.6827 -57.739 11.16C-57.579 10.6373 -57.339 10.168 -57.019 9.752C-56.699 9.32533 -56.299 8.98933 -55.819 8.744C-55.339 8.488 -54.779 8.36 -54.139 8.36ZM-53.963 9.4C-54.5923 9.4 -55.115 9.56533 -55.531 9.896C-55.947 10.2267 -56.2563 10.648 -56.459 11.16C-56.6617 11.672 -56.763 12.2053 -56.763 12.76C-56.763 13.3147 -56.6617 13.848 -56.459 14.36C-56.2563 14.872 -55.947 15.2933 -55.531 15.624C-55.115 15.9547 -54.5923 16.12 -53.963 16.12C-53.3443 16.12 -52.8323 15.9547 -52.427 15.624C-52.011 15.2933 -51.7017 14.872 -51.499 14.36C-51.2857 13.848 -51.179 13.3147 -51.179 12.76C-51.179 12.2053 -51.2857 11.672 -51.499 11.16C-51.7017 10.648 -52.011 10.2267 -52.427 9.896C-52.8323 9.56533 -53.3443 9.4 -53.963 9.4ZM-45.134 8.36C-44.5473 8.36 -44.062 8.46133 -43.678 8.664C-43.294 8.856 -42.99 9.08533 -42.766 9.352C-42.5313 9.61867 -42.3607 9.848 -42.254 10.04H-42.158V8.52H-40.974V17H-42.158V15.48H-42.254C-42.3607 15.6827 -42.5313 15.9173 -42.766 16.184C-42.99 16.44 -43.294 16.6693 -43.678 16.872C-44.062 17.064 -44.5473 17.16 -45.134 17.16C-45.774 17.16 -46.334 17.0373 -46.814 16.792C-47.294 16.536 -47.694 16.2 -48.014 15.784C-48.334 15.3573 -48.574 14.8827 -48.734 14.36C-48.8833 13.8373 -48.958 13.304 -48.958 12.76C-48.958 12.216 -48.8833 11.6827 -48.734 11.16C-48.574 10.6373 -48.334 10.168 -48.014 9.752C-47.694 9.32533 -47.294 8.98933 -46.814 8.744C-46.334 8.488 -45.774 8.36 -45.134 8.36ZM-44.958 9.4C-45.5873 9.4 -46.11 9.56533 -46.526 9.896C-46.942 10.2267 -47.2513 10.648 -47.454 11.16C-47.6567 11.672 -47.758 12.2053 -47.758 12.76C-47.758 13.3147 -47.6567 13.848 -47.454 14.36C-47.2513 14.872 -46.942 15.2933 -46.526 15.624C-46.11 15.9547 -45.5873 16.12 -44.958 16.12C-44.3393 16.12 -43.8273 15.9547 -43.422 15.624C-43.006 15.2933 -42.6967 14.872 -42.494 14.36C-42.2807 13.848 -42.174 13.3147 -42.174 12.76C-42.174 12.2053 -42.2807 11.672 -42.494 11.16C-42.6967 10.648 -43.006 10.2267 -43.422 9.896C-43.8273 9.56533 -44.3393 9.4 -44.958 9.4ZM-36.129 8.36C-35.5423 8.36 -35.057 8.46133 -34.673 8.664C-34.289 8.856 -33.985 9.08533 -33.761 9.352C-33.5263 9.61867 -33.3557 9.848 -33.249 10.04H-33.153V8.52H-31.969V17H-33.153V15.48H-33.249C-33.3557 15.6827 -33.5263 15.9173 -33.761 16.184C-33.985 16.44 -34.289 16.6693 -34.673 16.872C-35.057 17.064 -35.5423 17.16 -36.129 17.16C-36.769 17.16 -37.329 17.0373 -37.809 16.792C-38.289 16.536 -38.689 16.2 -39.009 15.784C-39.329 15.3573 -39.569 14.8827 -39.729 14.36C-39.8783 13.8373 -39.953 13.304 -39.953 12.76C-39.953 12.216 -39.8783 11.6827 -39.729 11.16C-39.569 10.6373 -39.329 10.168 -39.009 9.752C-38.689 9.32533 -38.289 8.98933 -37.809 8.744C-37.329 8.488 -36.769 8.36 -36.129 8.36ZM-35.953 9.4C-36.5823 9.4 -37.105 9.56533 -37.521 9.896C-37.937 10.2267 -38.2463 10.648 -38.449 11.16C-38.6517 11.672 -38.753 12.2053 -38.753 12.76C-38.753 13.3147 -38.6517 13.848 -38.449 14.36C-38.2463 14.872 -37.937 15.2933 -37.521 15.624C-37.105 15.9547 -36.5823 16.12 -35.953 16.12C-35.3343 16.12 -34.8223 15.9547 -34.417 15.624C-34.001 15.2933 -33.6917 14.872 -33.489 14.36C-33.2757 13.848 -33.169 13.3147 -33.169 12.76C-33.169 12.2053 -33.2757 11.672 -33.489 11.16C-33.6917 10.648 -34.001 10.2267 -34.417 9.896C-34.8223 9.56533 -35.3343 9.4 -35.953 9.4ZM-27.124 8.36C-26.5373 8.36 -26.052 8.46133 -25.668 8.664C-25.284 8.856 -24.98 9.08533 -24.756 9.352C-24.5213 9.61867 -24.3507 9.848 -24.244 10.04H-24.148V8.52H-22.964V17H-24.148V15.48H-24.244C-24.3507 15.6827 -24.5213 15.9173 -24.756 16.184C-24.98 16.44 -25.284 16.6693 -25.668 16.872C-26.052 17.064 -26.5373 17.16 -27.124 17.16C-27.764 17.16 -28.324 17.0373 -28.804 16.792C-29.284 16.536 -29.684 16.2 -30.004 15.784C-30.324 15.3573 -30.564 14.8827 -30.724 14.36C-30.8733 13.8373 -30.948 13.304 -30.948 12.76C-30.948 12.216 -30.8733 11.6827 -30.724 11.16C-30.564 10.6373 -30.324 10.168 -30.004 9.752C-29.684 9.32533 -29.284 8.98933 -28.804 8.744C-28.324 8.488 -27.764 8.36 -27.124 8.36ZM-26.948 9.4C-27.5773 9.4 -28.1 9.56533 -28.516 9.896C-28.932 10.2267 -29.2413 10.648 -29.444 11.16C-29.6467 11.672 -29.748 12.2053 -29.748 12.76C-29.748 13.3147 -29.6467 13.848 -29.444 14.36C-29.2413 14.872 -28.932 15.2933 -28.516 15.624C-28.1 15.9547 -27.5773 16.12 -26.948 16.12C-26.3293 16.12 -25.8173 15.9547 -25.412 15.624C-24.996 15.2933 -24.6867 14.872 -24.484 14.36C-24.2707 13.848 -24.164 13.3147 -24.164 12.76C-24.164 12.2053 -24.2707 11.672 -24.484 11.16C-24.6867 10.648 -24.996 10.2267 -25.412 9.896C-25.8173 9.56533 -26.3293 9.4 -26.948 9.4ZM-18.119 8.36C-17.5323 8.36 -17.047 8.46133 -16.663 8.664C-16.279 8.856 -15.975 9.08533 -15.751 9.352C-15.5163 9.61867 -15.3457 9.848 -15.239 10.04H-15.143V8.52H-13.959V17H-15.143V15.48H-15.239C-15.3457 15.6827 -15.5163 15.9173 -15.751 16.184C-15.975 16.44 -16.279 16.6693 -16.663 16.872C-17.047 17.064 -17.5323 17.16 -18.119 17.16C-18.759 17.16 -19.319 17.0373 -19.799 16.792C-20.279 16.536 -20.679 16.2 -20.999 15.784C-21.319 15.3573 -21.559 14.8827 -21.719 14.36C-21.8683 13.8373 -21.943 13.304 -21.943 12.76C-21.943 12.216 -21.8683 11.6827 -21.719 11.16C-21.559 10.6373 -21.319 10.168 -20.999 9.752C-20.679 9.32533 -20.279 8.98933 -19.799 8.744C-19.319 8.488 -18.759 8.36 -18.119 8.36ZM-17.943 9.4C-18.5723 9.4 -19.095 9.56533 -19.511 9.896C-19.927 10.2267 -20.2363 10.648 -20.439 11.16C-20.6417 11.672 -20.743 12.2053 -20.743 12.76C-20.743 13.3147 -20.6417 13.848 -20.439 14.36C-20.2363 14.872 -19.927 15.2933 -19.511 15.624C-19.095 15.9547 -18.5723 16.12 -17.943 16.12C-17.3243 16.12 -16.8123 15.9547 -16.407 15.624C-15.991 15.2933 -15.6817 14.872 -15.479 14.36C-15.2657 13.848 -15.159 13.3147 -15.159 12.76C-15.159 12.2053 -15.2657 11.672 -15.479 11.16C-15.6817 10.648 -15.991 10.2267 -16.407 9.896C-16.8123 9.56533 -17.3243 9.4 -17.943 9.4ZM-9.114 8.36C-8.52733 8.36 -8.042 8.46133 -7.658 8.664C-7.274 8.856 -6.97 9.08533 -6.746 9.352C-6.51133 9.61867 -6.34067 9.848 -6.234 10.04H-6.138V8.52H-4.954V17H-6.138V15.48H-6.234C-6.34067 15.6827 -6.51133 15.9173 -6.746 16.184C-6.97 16.44 -7.274 16.6693 -7.658 16.872C-8.042 17.064 -8.52733 17.16 -9.114 17.16C-9.754 17.16 -10.314 17.0373 -10.794 16.792C-11.274 16.536 -11.674 16.2 -11.994 15.784C-12.314 15.3573 -12.554 14.8827 -12.714 14.36C-12.8633 13.8373 -12.938 13.304 -12.938 12.76C-12.938 12.216 -12.8633 11.6827 -12.714 11.16C-12.554 10.6373 -12.314 10.168 -11.994 9.752C-11.674 9.32533 -11.274 8.98933 -10.794 8.744C-10.314 8.488 -9.754 8.36 -9.114 8.36ZM-8.938 9.4C-9.56733 9.4 -10.09 9.56533 -10.506 9.896C-10.922 10.2267 -11.2313 10.648 -11.434 11.16C-11.6367 11.672 -11.738 12.2053 -11.738 12.76C-11.738 13.3147 -11.6367 13.848 -11.434 14.36C-11.2313 14.872 -10.922 15.2933 -10.506 15.624C-10.09 15.9547 -9.56733 16.12 -8.938 16.12C-8.31933 16.12 -7.80733 15.9547 -7.402 15.624C-6.986 15.2933 -6.67667 14.872 -6.474 14.36C-6.26067 13.848 -6.154 13.3147 -6.154 12.76C-6.154 12.2053 -6.26067 11.672 -6.474 11.16C-6.67667 10.648 -6.986 10.2267 -7.402 9.896C-7.80733 9.56533 -8.31933 9.4 -8.938 9.4Z" fill="#353535"/>
<g id="quill:link-out">
<path id="Vector" d="M14.4375 1.96875H19.0312V6.5625M18.0469 2.95312L13.125 7.875M11.1562 3.28125H5.25C4.72786 3.28125 4.2271 3.48867 3.85788 3.85788C3.48867 4.2271 3.28125 4.72786 3.28125 5.25V15.75C3.28125 16.2721 3.48867 16.7729 3.85788 17.1421C4.2271 17.5113 4.72786 17.7188 5.25 17.7188H15.75C16.2721 17.7188 16.7729 17.5113 17.1421 17.1421C17.5113 16.7729 17.7188 16.2721 17.7188 15.75V9.84375" stroke="black" stroke-width="2" stroke-linecap="round" stroke-linejoin="round"/>
</g>
</g>
<defs>
<clipPath id="clip0_230_2">
<rect width="375" height="6647" fill="white" transform="translate(-329 -1088)"/>
</clipPath>
</defs>
</svg>
