<svg xmlns="http://www.w3.org/2000/svg" width="89.933" height="172.865" viewBox="0 0 89.933 172.865"><path d="M33.959,0H29.219L9.05,82.84C7.326,89.918,5.43,91.426,0,91.426v2.785H19.479V91.426c-8.188,0-8.274-1.856-6.637-8.586l4.223-17.984h23.1L44.3,82.724c1.551,6.845,1.465,8.7-6.9,8.7v2.785l25.462,78.654V170.08c-5.6,0-6.759-80.163-8.569-87.24Zm-5.43,16.707h.345L39.044,60.332H18.186ZM70.971,160.915c0,7.077-1.12,9.166-9.136,9.166v2.785h28.1V170.08c-8.1,0-9.222-2.088-9.222-9.166V92c0-7.077,1.12-9.166,9.222-9.166V80.047h-28.1v2.785c8.016,0,9.136,2.088,9.136,9.166Z" transform="translate(0 0)" fill="#95ff03"/></svg>