<svg xmlns="http://www.w3.org/2000/svg" width="183.978" height="368.29" viewBox="0 0 183.978 368.29"><path d="M68.9,0H59.285L18.363,323.841C14.865,351.508,11.017,357.4,0,357.4V368.29H39.524V357.4c-16.614,0-16.789-7.257-13.466-33.563l8.569-70.3H81.5l8.394,69.848C93.038,350.148,92.863,357.4,75.9,357.4V368.29h53.165V357.4c-11.367,0-15.215-5.9-18.887-33.563ZM57.886,65.312h.7L79.222,235.851H36.9ZM145.5,321.573c0,27.667-2.273,35.831-18.538,35.831V368.29h57.012V357.4c-16.439,0-18.713-8.164-18.713-35.831V52.159c0-27.667,2.273-35.831,18.713-35.831V5.443H126.966V16.328c16.264,0,18.538,8.164,18.538,35.831Z" transform="translate(0 0)" fill="#95ff03" opacity="0.557"/></svg>