<svg xmlns="http://www.w3.org/2000/svg" width="167.526" height="191.733" viewBox="0 0 167.526 191.733"><path d="M47.272,5.3C57.224,9.839,59.5,14.38,59.5,18.164a33.446,33.446,0,0,1-1.037,7.064c-2.281,8.073-4.976,17.155-9.123,28.508-10.159,3.532-18.66,6.812-28.4,10.091a25.908,25.908,0,0,1-7.257,1.514c-3.317,0-6.013-3.532-8.086-12.109L1.244,54.493c-1.037,9.587.829,15.894,4.769,21.948,2.488,3.784,4.976,5.8,7.879,5.8a8.732,8.732,0,0,0,4.976-1.766L23.429,77.7c6.842-3.784,13.891-7.568,20.941-10.6-10.989,28.76-22.185,55-31.93,77.45A94.711,94.711,0,0,1,4.976,158.18C.829,164.235,0,167.262,0,173.569c0,6.812,3.11,10.091,6.22,10.091,3.525,0,6.22-4.289,8.5-9.587s5.391-13.623,9.537-23.967c10.989-28,21.977-56.259,34.418-88.8a48.382,48.382,0,0,1,13.269-2.018c9.537,0,13.269,6.307,13.269,18.921,0,22.958-3.732,52.727-12.233,76.441-4.561,12.614-8.5,15.894-13.269,15.894-3.939,0-8.708-2.271-21.977-8.325l-2.073,5.55c12.025,8.325,13.891,11.6,14.513,15.641.829,6.559,2.073,8.325,5.805,8.325a21.99,21.99,0,0,0,14.928-6.307c6.427-6.055,11.4-15.641,14.306-24.723,8.086-24.471,12.44-57.772,12.44-81.739,0-19.173-7.671-30.526-24.465-30.526a69.3,69.3,0,0,0-10.159,1.009c2.488-6.307,4.354-11.353,6.013-15.389a55.745,55.745,0,0,1,3.939-8.073,12.913,12.913,0,0,0,2.073-6.559c0-4.541-3.11-10.091-7.464-13.875A22.818,22.818,0,0,0,52.87,0a19.624,19.624,0,0,0-3.732.252ZM119.01,60.8c15.135,12.614,25.087,28.76,29.649,43.392a40.5,40.5,0,0,1,2.073,11.6c0,3.532-1.037,5.55-6.013,7.568-6.013,2.271-12.233,3.784-18.245,5.8l1.451,6.307c10.989-1.009,15.55-1.009,17.209-1.009,2.488,0,4.561,1.009,6.842,3.784,2.7,3.027,4.147,4.541,6.22,4.541,4.976,0,9.33-7.568,9.33-17.155,0-8.83-2.7-18.921-6.22-27.246-6.842-16.65-20.319-34.058-39.394-42.131Z" transform="translate(0)" fill="#95ff03" opacity="0.636"/></svg>