<svg xmlns="http://www.w3.org/2000/svg" width="166.996" height="309.745" viewBox="0 0 166.996 309.745"><path d="M47.123,8.559c9.921,7.336,12.194,14.672,12.194,20.786a85.777,85.777,0,0,1-1.033,11.412C56.01,53.8,53.323,68.47,49.19,86.81c-10.127,5.706-18.6,11-28.315,16.3-3.1,1.63-5.58,2.445-7.234,2.445-3.307,0-5.994-5.706-8.06-19.563L1.24,88.033c-1.033,15.487.827,25.676,4.754,35.458,2.48,6.113,4.96,9.374,7.854,9.374,1.86,0,3.514-1.223,4.96-2.853l4.547-4.483a225.8,225.8,0,0,1,20.875-17.117C33.275,154.873,22.115,197.259,12.4,233.532A196.8,196.8,0,0,1,4.96,255.54C.827,265.321,0,270.212,0,280.4c0,11,3.1,16.3,6.2,16.3,3.514,0,6.2-6.928,8.474-15.487s5.374-22.008,9.507-38.718C35.135,197.259,46.089,151.612,58.49,99.037a31.617,31.617,0,0,1,13.227-3.26c9.507,0,13.227,10.189,13.227,30.567,0,37.088-3.72,85.18-12.194,123.491C68.2,270.212,64.277,275.51,59.523,275.51c-3.927,0-8.68-3.668-21.908-13.449l-2.067,8.966C47.536,284.477,49.4,289.775,50.016,296.3c.827,10.6,2.067,13.449,5.787,13.449,4.96,0,10.334-3.26,14.881-10.189,6.407-9.781,11.367-25.269,14.261-39.941,8.06-39.533,12.4-93.331,12.4-132.049,0-30.975-7.647-49.315-24.388-49.315a43.729,43.729,0,0,0-10.127,1.63c2.48-10.189,4.34-18.34,5.994-24.861a120.536,120.536,0,0,1,3.927-13.042,30.807,30.807,0,0,0,2.067-10.6c0-7.336-3.1-16.3-7.44-22.416C63.45,3.668,58.49,0,52.7,0a12.243,12.243,0,0,0-3.72.408Zm71.511,89.663c15.088,20.378,25.008,46.462,29.555,70.1a102.989,102.989,0,0,1,2.067,18.748c0,5.706-1.033,8.966-5.994,12.227-5.994,3.668-12.194,6.113-18.188,9.374l1.447,10.189c10.954-1.63,15.5-1.63,17.154-1.63,2.48,0,4.547,1.63,6.82,6.113,2.687,4.891,4.134,7.336,6.2,7.336,4.96,0,9.3-12.227,9.3-27.714,0-14.265-2.687-30.567-6.2-44.016-6.82-26.9-20.255-55.021-39.269-68.062Z" fill="#fd54db" opacity="0.24"/></svg>