<svg xmlns="http://www.w3.org/2000/svg" width="1792" height="138" viewBox="0 0 1792 138"><path d="M1562.908,69.092c0-40.118,24.666-69.092,62.6-69.092,33.448,0,54.19,21.173,57.366,47.734h-21.489c-2.429-13-10.651-30.089-36.251-30.089-29.525,0-40.736,24.888-40.736,51.262,0,26.56,11.212,51.448,40.736,51.448,25.787,0,34.943-17.088,36.251-33.246h21.489c-2.989,29.532-23.918,50.891-57.553,50.891C1587.386,138,1562.908,109.025,1562.908,69.092ZM1350.446,93.981V88.594h19.808v5.386c0,15.23,2.615,26.374,20.182,26.374,17.378,0,20.368-11.145,20.368-26.374V2.6h20.554v91.38c0,22.473-8.969,44.019-40.548,44.019S1350.446,116.454,1350.446,93.981ZM1211.422,68.907c0-39.933,25.6-68.907,65.588-68.907S1342.6,28.974,1342.6,68.907,1317,138,1277.01,138,1211.422,108.84,1211.422,68.907Zm21.489,0c0,27.3,12.52,51.448,44.1,51.448s44.1-24.145,44.1-51.448-12.52-51.262-44.1-51.262S1232.911,41.6,1232.911,68.907ZM1728.093,135.4V20.245h-43.165V2.6H1792V20.245h-43.165V135.4Zm-270.949,0V2.6H1551.7V20.245h-74v37.7h64.841V75.594H1477.7v42.161h75.866V135.4Zm-280.666,0c-5.979-5.572,6.727-52.005-25.973-52.005h-34.383V135.4h-20.555V2.6h55.685c29.524,0,45.407,13.744,45.407,38.261,0,16.9-10.277,29.159-25.039,32.5v.372c31.019,5.757,19.62,58.134,26.909,60.363v1.3Zm-60.356-69.65h30.646c18.872,0,29.15-8.172,29.15-23.4,0-14.3-8.223-22.1-28.777-22.1h-31.019ZM978.966,135.4V2.6h55.685c25.226,0,43.725,11.7,43.725,39.56s-18.5,39.376-43.725,39.376h-35.13V135.4Zm20.555-71.507h34.2c15.51,0,23.358-6.872,23.358-21.731,0-15.044-7.848-21.916-23.358-21.916h-34.2ZM824.245,135.4V2.6H918.8V20.245h-74v37.7h64.84V75.594H844.8v42.161h75.866V135.4Zm-46.715,0V32.318h-.374L740.344,135.4h-17L686.528,32.318h-.374V135.4H665.973V2.6h27.095l38.494,104.382h.374L770.616,2.6h27.095V135.4Zm-158.646,0V2.6h20.555V135.4Zm-50.079,0L506.581,33.246h-.374V135.4H485.653V2.6H509.2l62.038,102.153h.375V2.6H592.35V135.4Zm-119.4,0-11.025-31.946H382.505L371.48,135.4H349.8L399.509,2.6h22.237l50.079,132.8ZM388.671,86.18h43.913L410.721,21.545h-.374ZM135.848,135.4V2.6H156.4V135.4Zm-36.251,0L88.573,103.453H32.7L21.676,135.4H0L49.705,2.6H71.942L122.02,135.4ZM38.867,86.18H82.78L60.917,21.545h-.374Zm260.917,49.211L262.727,76.8h-1.121l-37.041,58.591H213.913l45.445-68.434L217.32,2.136h9.717l34.569,54.976h1.121l35.5-54.976h9.53L265.53,66.957l44.718,68.434Z" fill="#fff"/></svg>